<?xml version="1.0" encoding="utf-8"?>
<!-- Generator: Adobe Illustrator 16.0.4, SVG Export Plug-In . SVG Version: 6.00 Build 0)  -->
<!DOCTYPE svg PUBLIC "-//W3C//DTD SVG 1.1//EN" "http://www.w3.org/Graphics/SVG/1.1/DTD/svg11.dtd">
<svg version="1.1" id="Layer_1" xmlns="http://www.w3.org/2000/svg" xmlns:xlink="http://www.w3.org/1999/xlink" x="0px" y="0px"
	 width="200px" height="200px" viewBox="0 0 200 200" enable-background="new 0 0 200 200" xml:space="preserve">
<circle fill="#FFFFFF" cx="100" cy="100" r="100"/>
<g>
	<g>
		<path fill="#333333" d="M31.865,72.594c3.604,0,6.28,1.12,8.736,3.36c0.301,0.219,0.328,0.655,0.11,0.928
			c-0.029,0.028-0.056,0.054-0.056,0.082l-2.839,2.92c-0.247,0.246-0.655,0.246-0.901,0l0,0c-1.338-1.173-3.085-1.828-4.86-1.828
			c-4.068,0-7.071,3.385-7.071,7.4c0,4.012,3.031,7.315,7.099,7.315c1.775,0,3.468-0.599,4.833-1.72
			c0.273-0.217,0.682-0.217,0.928,0.028l2.812,3.004c0.246,0.271,0.219,0.709-0.027,0.982c-2.349,2.265-5.488,3.521-8.764,3.494
			c-7.154,0.22-13.134-5.435-13.352-12.587c-0.219-7.152,5.434-13.133,12.587-13.353C31.373,72.621,31.619,72.621,31.865,72.594
			L31.865,72.594z"/>
		<path fill="#333333" d="M54.499,72.594c7.154-0.026,12.996,5.762,12.996,12.943c0.027,7.153-5.76,12.997-12.941,12.997
			c-7.154,0.026-12.996-5.763-12.996-12.942c-0.028-7.155,5.733-12.971,12.887-13.025C54.471,72.594,54.499,72.594,54.499,72.594z
			 M54.499,92.771c3.986,0.028,7.236-3.193,7.236-7.179c0-3.987-3.168-7.208-7.154-7.237c-3.986-0.027-7.235,3.195-7.235,7.182
			c0,0.027,0,0.055,0,0.082C47.345,89.551,50.54,92.744,54.499,92.771L54.499,92.771z"/>
		<path fill="#333333" d="M70.361,73.25c0-0.355,0.328-0.656,0.683-0.656h0.901l14.389,13.844h0.027V73.66
			c0-0.382,0.301-0.683,0.684-0.683h4.313c0.383,0,0.683,0.301,0.683,0.683v24.245c-0.027,0.354-0.327,0.655-0.683,0.655h-0.573
			c-0.163-0.026-0.327-0.081-0.464-0.191L76.096,84.062h-0.055v13.433c0,0.382-0.3,0.683-0.682,0.683h-4.287
			c-0.382,0-0.683-0.301-0.683-0.683L70.361,73.25z"/>
		<path fill="#333333" d="M101.486,78.247h-5.16c-0.382,0-0.682-0.301-0.682-0.683l0,0V73.66c0-0.382,0.3-0.683,0.682-0.683l0,0
			h16.028c0.381,0,0.682,0.301,0.682,0.683l0,0v3.931c0,0.382-0.301,0.683-0.682,0.683l0,0h-5.161v19.249
			c0,0.382-0.302,0.682-0.683,0.682h-4.313c-0.383,0-0.683-0.3-0.683-0.682L101.486,78.247z"/>
		<path fill="#333333" d="M116.641,73.66c0-0.382,0.301-0.683,0.683-0.683l0,0h14.908c0.383,0,0.683,0.301,0.683,0.683l0,0v3.931
			c0,0.382-0.3,0.683-0.683,0.683l0,0h-9.993v4.478h8.219c0.381,0,0.683,0.3,0.683,0.683v3.932c0,0.381-0.302,0.682-0.683,0.682l0,0
			h-8.219v4.86h9.993c0.383,0,0.683,0.301,0.683,0.683l0,0v3.932c0,0.382-0.3,0.682-0.683,0.682l0,0h-14.908
			c-0.382,0-0.683-0.3-0.683-0.682l0,0V73.66z"/>
		<path fill="#333333" d="M137.72,73.25c0-0.355,0.329-0.656,0.681-0.656h0.901l14.389,13.844h0.029V73.66
			c0-0.382,0.3-0.683,0.682-0.683l0,0h4.314c0.382,0,0.682,0.301,0.682,0.683v24.245c-0.026,0.354-0.326,0.655-0.682,0.655h-0.575
			c-0.161-0.026-0.328-0.081-0.463-0.191l-14.225-14.307h-0.028v13.433c0,0.382-0.3,0.683-0.682,0.683l0,0h-4.286
			c-0.383,0-0.683-0.301-0.683-0.683L137.72,73.25z"/>
		<path fill="#333333" d="M168.843,78.247h-5.159c-0.383,0-0.684-0.301-0.684-0.683V73.66c0-0.382,0.301-0.683,0.684-0.683l0,0
			h16.001c0.382,0,0.682,0.301,0.682,0.683l0,0v3.931c0,0.382-0.3,0.683-0.682,0.683l0,0h-5.161v19.249
			c0,0.382-0.3,0.682-0.683,0.682h-4.313c-0.383,0-0.685-0.3-0.685-0.682V78.247z"/>
	</g>
	<polygon fill="#66CC00" points="31.315,117.794 40.741,102.312 21.798,102.312 31.223,117.794 	"/>
	<path fill="#66CC00" d="M70.813,127.378h10.044c-0.246-0.11-0.403-0.354-0.434-0.602v-19.275h-5.859
		c-0.434,0-0.773-0.301-0.773-0.683l0,0v-3.905c0-0.217,0.123-0.437,0.34-0.572h-3.224c0.215,0.136,0.34,0.327,0.373,0.572v3.931
		c0,0.383-0.342,0.685-0.776,0.685l0,0H59.157v4.478h9.331c0.433,0,0.775,0.3,0.775,0.682v3.932c0,0.382-0.342,0.684-0.775,0.684
		l0,0h-9.331v4.859h11.316c0.434,0,0.773,0.301,0.773,0.683l0,0v3.932C71.247,127.023,71.092,127.268,70.813,127.378z"/>
	<path fill="#66CC00" d="M47.004,127.404h6.23c-0.309-0.11-0.495-0.354-0.495-0.628v-23.863c0-0.217,0.125-0.437,0.34-0.572H42.85
		c0,0.026,0.031,0.081,0.031,0.108l4.619,24.218C47.591,126.995,47.375,127.321,47.004,127.404z"/>
	<path fill="#66CC00" d="M30.2,127.404l-6.914-11.687h-0.093l-1.798,11.14c-0.062,0.301-0.34,0.547-0.713,0.575h9.519L30.2,127.404z
		"/>
	<path fill="#66CC00" d="M146.428,102.312h-15.315c0.22,0.137,0.371,0.329,0.371,0.573v23.863c0,0.218-0.121,0.409-0.309,0.545
		l15.005-0.026c-7.811-2.02-12.275-9.228-9.984-16.108C137.654,106.873,141.528,103.543,146.428,102.312L146.428,102.312z"/>
	<path fill="#66CC00" d="M41.145,126.857l-1.829-11.14h-0.094l-6.882,11.687v0.028h9.362
		C41.424,127.35,41.206,127.133,41.145,126.857z"/>
	<path fill="#66CC00" d="M154.612,102.312c2.143,0.546,4.094,1.529,5.707,2.866c0.341,0.22,0.37,0.656,0.12,0.928
		c-0.028,0.028-0.062,0.056-0.062,0.083l-3.191,2.922c-0.278,0.246-0.744,0.246-1.022,0l0,0c-1.522-1.175-3.473-1.83-5.52-1.83
		c-4.619,0-8.026,3.387-8.026,7.398c0,4.015,3.438,7.317,8.059,7.317c2.015,0,3.936-0.599,5.487-1.72
		c0.311-0.217,0.775-0.217,1.056,0.028l3.191,3.004c0.278,0.273,0.249,0.71-0.033,0.982c-1.61,1.365-3.562,2.401-5.701,2.948h9.577
		v-24.928H154.612z"/>
	<path fill="#66CC00" d="M97.631,126.749v-23.836c0-0.217,0.124-0.437,0.339-0.572h-4.804c0.216,0.136,0.342,0.327,0.342,0.572
		v3.931c0,0.383-0.342,0.685-0.775,0.685l0,0h-5.83v19.248c0,0.247-0.155,0.464-0.403,0.602l11.503-0.028
		C97.754,127.212,97.631,126.995,97.631,126.749z"/>
	<path fill="#66CC00" d="M118.899,127.321h6.449c-0.188-0.136-0.312-0.326-0.312-0.545v-23.863c0-0.245,0.157-0.437,0.373-0.572
		h-13.271c4.247,0.627,7.382,3.877,7.412,7.672c0,3.303-2.48,5.979-6.047,7.233l5.612,9.147
		C119.302,126.693,119.208,127.104,118.899,127.321z"/>
	<path fill="#66CC00" d="M112.293,127.133l-5.455-9.558h-2.819v9.201c0,0.247-0.156,0.436-0.374,0.573h8.836
		C112.419,127.268,112.356,127.212,112.293,127.133z"/>
	<path fill="#66CC00" d="M110.093,112.989c1.674,0,3.102-1.366,3.102-2.895c-0.033-1.503-1.396-2.703-3.102-2.73h-6.044v5.625
		H110.093z"/>
	<path fill="#66CC00" d="M175.695,102.106c3.191,0,5.798,2.266,5.798,5.105c0,2.812-2.574,5.107-5.798,5.107
		c-3.193,0-5.799-2.268-5.799-5.079C169.93,104.4,172.502,102.133,175.695,102.106z M175.695,111.444
		c2.666,0,4.805-1.912,4.805-4.232c0-2.348-2.17-4.231-4.805-4.231c-2.666,0-4.807,1.911-4.807,4.231
		C170.86,109.561,173.029,111.444,175.695,111.444L175.695,111.444z M173.681,104.864c0-0.164,0.122-0.272,0.312-0.272h2.292
		c0.994,0,1.984,0.519,1.984,1.582c0.062,0.738-0.495,1.366-1.302,1.558c0.312,0.546,0.647,1.117,0.961,1.665
		c0.062,0.136,0,0.3-0.154,0.355c-0.029,0.026-0.062,0.026-0.126,0.026h-0.557c-0.124-0.026-0.251-0.082-0.28-0.191l-0.899-1.773
		h-1.178v1.692c0,0.164-0.124,0.272-0.31,0.272h-0.402c-0.188,0-0.31-0.108-0.31-0.272L173.681,104.864z M176.284,106.993
		c0.495,0.027,0.93-0.3,0.959-0.765c0-0.027,0-0.055,0-0.055c0.035-0.436-0.339-0.792-0.836-0.818c-0.031,0-0.094,0-0.123,0h-1.582
		v1.61L176.284,106.993z"/>
</g>
</svg>
