<?xml version="1.0" encoding="utf-8"?>
<!-- Generator: Adobe Illustrator 16.0.4, SVG Export Plug-In . SVG Version: 6.00 Build 0)  -->
<!DOCTYPE svg PUBLIC "-//W3C//DTD SVG 1.1//EN" "http://www.w3.org/Graphics/SVG/1.1/DTD/svg11.dtd">
<svg version="1.1" id="Layer_1" xmlns="http://www.w3.org/2000/svg" xmlns:xlink="http://www.w3.org/1999/xlink" x="0px" y="0px"
	 width="200px" height="200px" viewBox="0 0 200 200" enable-background="new 0 0 200 200" xml:space="preserve">
<circle fill="#226C4A" cx="100" cy="100" r="100"/>
<g display="none">
	<g display="inline">
		<defs>
			<rect id="SVGID_1_" x="5.691" y="68.925" width="188.618" height="62.15"/>
		</defs>
		<clipPath id="SVGID_2_">
			<use xlink:href="#SVGID_1_"  overflow="visible"/>
		</clipPath>
		<g clip-path="url(#SVGID_2_)">
			<defs>
				<rect id="SVGID_3_" x="-92.764" y="39.799" width="384.781" height="125.746"/>
			</defs>
			<clipPath id="SVGID_4_">
				<use xlink:href="#SVGID_3_"  overflow="visible"/>
			</clipPath>
			<path clip-path="url(#SVGID_4_)" fill="#333333" d="M45.561,92.714l2.133-9.35l-7.811,1.067l-2.136,8.282H45.561z
				 M117.396,112.887c-1.332,5.828-6.963,10.567-12.855,10.567c-5.509,0-9.13-4.613-7.855-10.184
				c1.317-5.765,6.9-10.569,12.728-10.569C115.051,102.701,118.688,107.25,117.396,112.887 M75.239,112.949
				c-1.317,5.766-6.964,10.568-12.791,10.568c-5.702,0-9.243-4.677-7.954-10.312c1.333-5.829,7.013-10.505,12.842-10.505
				C72.909,102.701,76.53,107.313,75.239,112.949 M142.557,118.327c0.764-3.662,9.576-43.967,10.764-49.402l-13.346,1.825
				l-1.607,6.877h5.121l-7.676,35.466l-0.031-0.032c-0.834,3.703-2.426,6.286-4.232,7.953c-0.031,0.025-0.062,0.056-0.094,0.081
				c-0.307,0.277-0.625,0.499-0.941,0.725c-0.475,0.326-0.957,0.617-1.438,0.844c-7.197,2.747-5.391-3.159-5.391-3.159l3.723-16.226
				h4.289l1.672-7.302h-12.232l-1.113,4.867c-1.521-3.713-4.896-5.763-9.314-5.763c-9.992,0-19.823,8.263-22.094,18.189
				c-0.828,3.62-0.519,7.026,0.703,9.869c0.001,0,0.006-0.002,0.006-0.002c0,0.002-0.002,0.004-0.004,0.006
				c-0.001-0.001-0.001-0.002-0.002-0.004c-5.806,2.956-8.586-0.624-7.228-6.616c0.967-4.27,7.683-32.592,9.231-39.126
				l-11.932,1.632l-1.485,6.112h3.78l-3.898,15.83c-1.885-3.521-5.644-5.572-9.999-5.572c-9.67,0-19.217,8.135-21.399,17.68
				c-0.673,2.94-0.555,5.752,0.21,8.231c-0.006,0.006-0.012,0.011-0.019,0.015c-2.711,1.118-8.782,3.169-7.677-1.454
				c0.024-0.105,5.91-23.892,5.91-23.892H32.552l-1.633,6.598h4.448l-4.176,16.817c0,0-1.779,1.956-5.02,3.396
				c-0.08,0.027-0.161,0.058-0.241,0.086c-0.167,0.052-0.331,0.102-0.516,0.163c-7.807,2.791-9.664-2.873-8.848-6.162
				c0.816-3.289,3.283-14.3,3.283-14.3h6.695l1.633-6.598h-6.695l2.195-9.334l-7.332,1.003l-2.244,8.331H7.42l-1.729,6.598h6.344
				c0,0-3.622,14.539-3.642,14.632c-0.001,0-0.003,0-0.004,0.001c-2.408,9.213,5.584,13.63,10.772,13.63
				c3.109,0,8.806-1.306,11.465-5.405c0.03,3.896,4.617,5.405,7.726,5.405c4.184,0,8.038-1.837,10.887-4.76
				c1.582,1.834,3.688,3.186,6.168,3.937c0.89,0.323,1.826,0.549,2.797,0.681c0.017,0.003,0.031,0.007,0.047,0.008
				c0.606,0.082,1.221,0.135,1.853,0.135c4.666,0,11.334-2.106,13.417-5.794c0.958,2.382,2.671,4.049,4.96,4.964
				c1.377,0.551,2.96,0.83,4.713,0.83c0.855,0,1.693-0.083,2.514-0.229c0.004,0,0.008,0,0.012-0.001
				c2.479-0.441,4.777-1.524,6.744-3.065c2.399,2.203,5.691,3.53,9.628,3.53c4.309,0,8.988-1.769,12.33-5.258
				c0.791,2.388,2.938,4.008,5.785,4.671c0.873,0.244,1.869,0.38,3.025,0.348c0.025,0,0.051,0.004,0.078,0.004
				c0.051,0,0.102-0.014,0.152-0.014c5.348-0.211,7.809-1.936,11.123-5.072c0.223-0.201,0.441-0.403,0.66-0.612
				c1.98,3.396,8.494,11.07,21.531-3.8c0.047-0.117,0.08-0.198,0.08-0.198s-5.971,1.733-8.877,1.733
				C145.072,122.877,141.738,122.256,142.557,118.327"/>
			<path clip-path="url(#SVGID_4_)" fill="#333333" d="M185.49,100.688l-0.654,2.864h1.721l0.186-0.812
				c0.475,0.757,1.309,1.072,2.307,1.072c1.852,0,3.787-1.109,4.244-3.107c0.51-2.22-1.27-2.774-2.953-3.182
				c-0.684-0.167-1.543-0.37-1.332-1.295c0.158-0.686,0.885-1.037,1.496-1.037c0.701,0.001,1.135,0.463,1.01,1.165h2.184l0.613-2.68
				h-1.668l-0.154,0.685c-0.395-0.702-1.148-0.888-2.035-0.888c-1.758,0-3.6,1.091-4.029,2.976
				c-0.496,2.166,1.268,2.702,2.889,3.147c0.711,0.202,1.598,0.368,1.373,1.35c-0.168,0.74-0.945,1.222-1.629,1.222
				c-0.926-0.002-1.383-0.593-1.254-1.479H185.49z M180.594,95.578c1.645,0,2.688,1.352,2.311,2.998
				c-0.369,1.611-1.973,3.035-3.635,3.035c-1.705,0-2.75-1.332-2.355-3.054C177.291,96.911,178.945,95.578,180.594,95.578
				 M178.885,90.347h-3.533l-0.48,2.106h1.273l-2.055,8.992h-1.277l-0.48,2.106h3.533l0.338-1.478
				c0.514,1.071,1.625,1.627,2.939,1.627c1.293,0,2.773-0.648,3.863-1.609c1.084-0.941,1.836-2.2,2.129-3.478
				c0.637-2.794-1.133-5.086-3.926-5.086c-1.258,0-2.471,0.536-3.412,1.57L178.885,90.347z M165.189,101.611
				c-1.59,0-2.635-1.332-2.266-2.942c0.381-1.665,1.992-3.054,3.676-3.054c1.627,0,2.676,1.314,2.305,2.942
				C168.52,100.242,166.893,101.611,165.189,101.611 M167.727,103.552h3.531l0.482-2.106h-1.238l1.293-5.662h1.24l0.482-2.107
				h-3.533l-0.32,1.404c-0.439-1.071-1.414-1.663-2.691-1.663c-2.887,0-5.725,2.384-6.381,5.252
				c-0.641,2.796,1.062,5.143,3.893,5.143c1.295,0,2.574-0.499,3.545-1.59L167.727,103.552z M161.033,90.347h-3.531l-0.482,2.106
				h1.277l-2.057,8.992h-1.369l-0.482,2.106h4.902l0.48-2.106h-1.275L161.033,90.347z"/>
		</g>
	</g>
</g>
<g>
	<g>
		<path fill-rule="evenodd" clip-rule="evenodd" fill="#F5F5F5" d="M177.421,71.323c0.365,0.697,0.958,1.329,1.559,2.182
			c0.477,0.679,1.304,1.482,1.558,2.182c0.144,0.394-0.107,1.128,0,1.87c0.142,0.965,1.284,2.242,0.312,3.739
			c0.221,0.683,0.849,0.665,0.936,1.559c0.06,0.6-0.39,0.919-0.311,1.247c0.194,0.821,0.645,1.702,0.934,2.805
			c0.23,0.88,0.339,2.095,0.623,3.116c0.351,1.254,0.928,2.19,1.246,3.428c0.367,1.419,0.784,2.98,0.624,3.74
			c-0.026,0.127-1.338,2.26-1.87,2.493c-0.837,0.366-2.105,0.091-3.116,0c-0.998-1.494-1.375-3.61-2.493-4.986
			c0.053-0.676-1.104-0.142-1.557-0.312c-0.288-2.102-2.729-2.049-2.805-4.363c-1.049-0.065-1.677-1.109-2.493-1.558
			c-0.83-0.456-2.041-0.274-2.493-1.247c-2.197,0.459-0.809,2.778-0.623,4.674c0.252,2.606-0.663,4.438-1.248,6.544
			c-1.984,0.397-3.572-0.432-4.361-1.558c-0.65-0.927-1.108-3.635-0.623-4.986c0.466-1.307,0.065-3.265-0.937-4.363
			c0.918-4.157-2.047-6.236-1.245-11.219c1.44-1.051,2.143-2.592,3.739-2.492c1.434,0.088,2.523,2.226,4.05,3.115
			c0.791,0.46,1.297,0.869,1.87,1.559c0.553,0.663,1.13,1.055,2.183,1.558c1.097,0.524,2.552,1.944,3.738,2.181
			c0.8,0.045,0.511-0.996,0.623-1.558c0.106-0.522,0.402-1.443,0.312-1.87c-0.217-1.04-1.396-1.092-2.18-2.181
			c-0.305-0.423-1.374-2.752-1.248-3.429C172.443,71.499,173.26,71.021,177.421,71.323z"/>
		<path fill-rule="evenodd" clip-rule="evenodd" fill="#F5F5F5" d="M157.788,92.514c-2.429-1.102-5.173-1.891-6.543-4.051
			c0.614-0.643,1.892-0.854,2.805-1.558c1.33-1.028,3.153-3.136,3.428-4.363c0.375-1.679-0.231-5.37-0.935-6.232
			c-0.648-0.794-2.896-1.071-4.053-1.558c-0.61-0.257-0.726-0.51-1.245-0.623c-0.571-0.124-1.603,0.113-2.493,0
			c-1.002-0.128-1.73-0.631-2.493-0.624c-0.548,0.006-0.953,0.517-1.558,0.624c-1.235,0.218-2.695-0.135-3.428,0
			c-2.182,0.399-3.707,1.752-5.609,2.181c-0.086,2.135-1.689,4.295-1.87,6.856c-0.062,0.873,0.209,2.465,0.312,3.74
			c0.258,3.203,0.655,5.785,0.935,8.413c0.251,2.361,0.232,4.518,0.624,5.921c0.197,0.709,0.311,2.024,0.621,2.493
			c0.283,0.424,0.844,0.271,0.937,0.935c2.214,0.135,4.089-0.066,5.298-0.935c-0.355-2.071,0.611-3.786,0.623-5.297
			c0.008-1.2-1.167-2.278-0.312-3.428c3.843-0.575,5.272,1.502,7.166,2.493c1.602,0.835,3.286,0.844,4.364,2.182
			c1.161-0.812,4.089,0.141,5.298-0.624C160.674,96.043,158.728,94.479,157.788,92.514z M146.259,84.412
			c-1.548,0.843-2.844,1.935-5.609,1.558c-0.46-1.172-0.46-3.501,0-4.675c2.026-1.957,6.237-1.324,9.036-1.246
			C150.729,82.618,149.013,84.648,146.259,84.412z"/>
		<path fill-rule="evenodd" clip-rule="evenodd" fill="#F5F5F5" d="M130.366,78.802c0.516,1.802,0.188,2.832-0.312,4.051
			c-0.566,1.38-0.814,1.682-3.117,1.87c-1.03,0.084-2.086-0.099-3.116,0c-0.684,0.065-1.244,0.501-1.869,0.624
			c-2.114,0.412-3.621-0.141-4.052,1.246c-0.882,2.845,3.57,3.092,4.986,1.559c1.126,0.318,1.602,0.406,2.493,0.312
			c1.43-0.152,2.309-1.5,3.428-1.558c1.286-0.067,1.967,0.776,3.428,1.247c0.416,0.935,0.316,2.384,0.312,3.739
			c-0.215,0.312-0.762,0.314-1.247,0.624c-0.175,0.111-0.761,0.873-0.935,0.935c-0.68,0.241-1.74-0.14-2.493,0
			c-0.656,0.122-1.229,0.747-1.87,0.935c-2.002,0.586-5.812,0.069-5.609,2.805c0.132,1.775,1.855,1.784,3.116,1.869
			c0.391,0.027,0.858,0.047,1.247,0c2.265-0.275,5.15-2.863,6.855-0.623c0.321,1.9,0.423,4.123,0,6.232
			c-1.562,1.23-3.705,1.433-5.298,1.559c-1.86,0.146-4.135,0.319-5.921,0c-0.818-0.147-2.185-0.816-3.428-1.559
			c-0.312-0.187-0.378-0.438-0.624-0.623c-0.877-0.671-1.788-0.968-2.492-2.182c-0.476-0.821-0.72-1.66-1.247-3.427
			c-0.272-0.921-0.847-2.036-0.935-2.493c-0.17-0.9,0.093-2.091,0-3.116c-0.094-1.05-0.464-2.249-0.622-3.428
			c-0.162-1.198-0.141-2.473-0.312-3.428c-0.179-0.986-0.65-1.821-0.625-2.493c0.076-1.933,1.27-4.146,2.182-4.674
			c0.481-0.278,1.723-0.107,2.805-0.312c0.795-0.149,1.797-0.575,2.493-0.623c0.613-0.043,1.056,0.29,1.246,0.311
			c0.53,0.059,1.18-0.314,1.247-0.311c0.943,0.043,1.681,0.391,2.493,0.311c1.302-0.128,2.883-0.817,3.739-1.247
			c0.059-0.029,0.244-0.002,0.312,0C128.256,76.987,129.035,78.401,130.366,78.802z"/>
		<path fill-rule="evenodd" clip-rule="evenodd" fill="#F5F5F5" d="M44.98,78.802c0.93,1.439,2.342,3.092,1.559,4.986
			c-0.526,1.272-2.242,1.964-3.74,2.182c-1.674,0.242-3.494-0.517-5.298-0.312c-0.79,0.09-1.555,0.745-2.805,1.247
			c-0.977,0.392-1.929,0.47-2.804,0.935c-1.396,0.741-2.722,1.796-4.051,3.116c-0.767,0.763-1.79,1.652-2.182,2.182
			c-0.464,0.627-0.819,2.102-1.558,3.427c-0.617,1.108-1.952,1.016-1.558,3.429c0.318,1.956,3.426,2.938,5.609,4.051
			c0.276,0.141,1.16,0.553,1.558,0.935c0.298,0.286,1.346,0.337,2.493,0.623c0.945,0.236,4.355,1.546,5.297,1.558
			c0.935,0.014,2.962-1.043,4.051-0.623c0.625,0.241,1.709,0.932,1.87,2.183c0.13,1.012-0.626,3.238-1.87,4.05
			c-1.125,0.734-4.614,1.032-6.232,0.937c-1.343-0.081-3.102-0.773-4.986-1.248c-1.597-0.402-3.298-0.665-4.675-1.245
			c-0.864-0.365-2.934-1.428-4.051-2.183c-0.566-0.382-0.948-1.151-1.559-1.559c-0.717-0.477-1.573-0.653-1.869-0.935
			c-0.186-0.175-0.157-0.732-0.312-0.935c-0.829-1.084-2.782-3.255-2.805-5.297c-0.011-1.033,0.757-3.01,1.558-4.674
			c0.726-1.506,2.126-2.514,3.74-4.363c0.394-0.452,1.211-1.065,1.557-1.559c0.467-0.663,0.539-1.458,0.936-1.869
			c0.53-0.551,1.442-0.953,2.181-1.558c1.13-0.924,1.738-1.694,3.117-2.493c0.374-0.216,0.354-0.053,0.623-0.312
			c0.318-0.305,1.835-0.714,2.493-1.247c0.927-0.75,1.333-2.053,2.182-2.493c1.306-0.677,5.484-0.841,7.791-0.935
			C42.535,78.75,43.88,79.21,44.98,78.802z"/>
		<path fill-rule="evenodd" clip-rule="evenodd" fill="#F5F5F5" d="M104.5,86.281c-0.74,1.564-2.877,0.569-4.05,1.247
			c-1.579,0.913-1.37,2.334-2.493,3.74c-0.258,0.693,0.525,0.852,0.936,1.558c0.261,0.449,0.336,1.214,0.623,1.558
			c0.365,0.442,1.219,1.066,1.868,1.558c0.765,0.577,1.332,1.129,1.871,1.247c2.124,0.46,3.927-0.875,6.231-1.247
			c0.797,1.697,2.228,2.759,1.87,5.609c-1.975,1.434-6.703,2.355-11.218,1.246c-0.483-0.117-1.15-0.626-1.87-0.935
			c-1.296-0.556-1.86-0.62-2.805-1.247c-1.391-0.922-1.707-1.214-2.493-3.116c-0.686-1.66-2.061-4.72-1.247-6.855
			c0.103-0.269,0.576-0.767,0.624-0.936c0.357-1.26,0.095-2.532,0.623-3.427c0.624-1.057,1.93-1.406,2.804-2.181
			c0.697-0.616,1.343-1.083,1.87-2.182c2.357-0.185,3.308-0.766,4.986-0.312C103.137,83.284,105.046,83.557,104.5,86.281z"/>
		<path fill-rule="evenodd" clip-rule="evenodd" fill="#F5F5F5" d="M90.79,108.407c-1.04,0-2.077,0-3.117,0
			c-0.936-0.519-1.219-1.69-1.869-2.494c-4.332,0.072-5.765-2.753-9.35-3.428c-0.848,1.238,0.397,2.597,0.312,3.74
			c-0.125,1.67-1.547,2.901-1.558,4.675c-1.005,0.449-2.614,0.294-4.052,0.312c-1.036-2.47-0.654-5.228-1.247-8.104
			c-0.238-1.158-0.993-2.244-1.246-3.427c-0.146-0.681,0.168-1.224,0-1.871c-0.543-2.082-1.678-4.154-1.87-6.232
			c-0.075-0.821,0.445-1.746,0-2.493c0.317-0.744,1.234-0.908,1.87-1.558c0.664-0.677,0.468-1.42,1.558-1.558
			c1.619-0.206,2.237,1.536,4.051,1.87c0.259,0.78,0.854,1.224,0.935,2.182c4.08,0.698,3.982,5.574,7.791,6.543
			c1.263-0.417,0.379-1.729,0.312-2.493c-0.088-1.002-0.084-2.171-0.312-3.116c-0.395-1.642-1.35-3.203-1.557-4.674
			c0.014,0.106,0.491-0.167,0.311-0.312c-0.209-0.167-0.41-0.485-0.311-0.935c0.772-3.503,5.677-3.62,7.167-1.247
			c0.69,1.099,0.342,3.921,0.624,6.233c0.094,0.776,0.458,1.658,0.623,2.493c0.198,1.002,0.088,2.031,0.312,2.804
			c0.212,0.737,0.786,1.275,0.935,1.871c0.218,0.875,0.032,1.832,0.312,2.805c0.045,0.156,0.158,0.988,0.312,1.246
			c0.132,0.221,0.85,0.406,0.935,0.623c0.319,0.817,0.385,2.079,0.312,2.805C92.808,106.268,91.362,107.062,90.79,108.407z"/>
		<path fill-rule="evenodd" clip-rule="evenodd" fill="#F5F5F5" d="M67.106,100.616c-0.536-2.669-1.191-5.533-2.181-7.167
			c-1.158-1.909-3.49-3.889-4.986-4.363c-1.576-0.499-3.576-0.197-4.986,0c-0.593,0.083-2.039,0.019-3.117,0.312
			c-0.247,0.066-1.006,0.673-1.558,0.935c-0.368,0.174-0.648,0.146-0.935,0.312c-0.243,0.14-0.452,0.546-0.623,0.623
			c-0.872,0.389-1.65,0.075-2.181,0.312c-0.089,0.04-0.482,0.518-0.624,0.623c-0.867,0.649-0.536,0.715-0.935,1.559
			c-0.056,0.118-0.581,0.155-0.623,0.311c-0.109,0.402,0.181,1.187,0,1.871c-0.253,0.958-0.769,1.823-0.935,2.805
			c-0.628,3.721,0.181,7.347,1.247,9.661c1.042,2.261,2.275,5.201,4.051,5.92c1.671,0.677,5.61,0.618,7.79,0.312
			c0.733-0.103,1.587-0.675,2.494-0.934c1.154-0.332,2.518-0.354,3.116-0.625c0.623-0.279,1.509-1.281,1.871-1.557
			c0.259-0.199,0.661-0.102,0.935-0.312c1.153-0.886,1.806-1.679,2.181-2.493C68.075,106.609,67.72,103.673,67.106,100.616z
			 M61.497,102.797c-0.072,1.118-1.45,3.465-2.805,4.362c-0.27,0.179-0.931-0.096-1.247,0c-0.563,0.172-1.516,1.253-2.493,1.248
			c-1.446-0.007-3.893-1.479-4.363-2.806c-0.202-0.57,0.322-1.222,0.312-2.182c-0.021-1.979-0.217-3.696,0.623-5.92
			c2.22-0.831,3.971-1.773,5.921-0.623c0.702,0.414,2.675,1.773,3.117,2.492c0.285,0.465,0.104,1.224,0.311,1.87
			C61.174,102.174,61.54,102.132,61.497,102.797z"/>
	</g>
	<g>
		<path fill="#F5F5F5" d="M79.306,128.681l-2.554-7.629h-1.235v-2.243h5.298v2.243h-1.062l1.198,3.609l1.987-5.853h2.576l1.925,5.86
			l1.196-3.617h-1.095v-2.243h4.704v2.243h-1.216l-2.523,7.629H85.81l-1.911-5.721l-1.88,5.721H79.306z"/>
		<path fill="#F5F5F5" d="M98.083,128.762c-1.433,0-2.645-0.455-3.633-1.362c-0.99-0.909-1.483-2.153-1.483-3.735
			c0-1.581,0.494-2.826,1.483-3.733c0.988-0.908,2.2-1.362,3.633-1.362c1.441,0,2.655,0.454,3.64,1.362
			c0.984,0.907,1.479,2.152,1.479,3.733c0,1.562-0.488,2.802-1.463,3.719C100.763,128.302,99.544,128.762,98.083,128.762z
			 M98.073,126.35c0.577,0,1.043-0.223,1.404-0.664c0.357-0.442,0.537-1.136,0.537-2.082c0-0.83-0.173-1.479-0.523-1.944
			c-0.347-0.467-0.82-0.698-1.417-0.698c-1.279,0-1.919,0.924-1.919,2.773c0,0.758,0.158,1.383,0.479,1.876
			C96.95,126.102,97.43,126.35,98.073,126.35z"/>
		<path fill="#F5F5F5" d="M111.835,126.299v2.24h-6.845v-2.24h1.8v-5.247h-1.69v-2.243h4.533v2.474
			c0.175-0.711,0.572-1.325,1.192-1.846c0.619-0.519,1.352-0.777,2.196-0.777c0.142,0,0.309,0.003,0.504,0.01v2.935
			c-0.785,0-1.426,0.088-1.921,0.263c-0.495,0.174-0.906,0.556-1.226,1.145c-0.323,0.591-0.483,1.288-0.483,2.091v1.197H111.835z"/>
		<path fill="#F5F5F5" d="M114.872,128.539v-2.24h1.526v-9.5h-1.526v-2.242h4.635v11.742h1.397v2.24H114.872z"/>
		<path fill="#F5F5F5" d="M134.363,126.299v2.24h-4.704v-1.158c-0.865,0.867-1.803,1.3-2.814,1.3c-1.212,0-2.219-0.493-3.017-1.478
			c-0.797-0.985-1.195-2.177-1.195-3.579c0-1.421,0.409-2.618,1.226-3.593c0.818-0.975,1.818-1.463,2.996-1.463
			c1.134,0,2.067,0.441,2.805,1.323v-3.093h-1.519v-2.242h4.625v11.742H134.363z M129.689,123.654c0-0.932-0.2-1.595-0.598-1.99
			c-0.4-0.396-0.854-0.593-1.361-0.593c-0.611,0-1.081,0.236-1.413,0.709c-0.331,0.472-0.498,1.095-0.498,1.863
			c0,0.731,0.165,1.347,0.492,1.846c0.328,0.5,0.805,0.749,1.429,0.749c0.516,0,0.968-0.202,1.36-0.607
			C129.493,125.225,129.689,124.566,129.689,123.654z"/>
		<path fill="#F5F5F5" d="M138.666,128.681l-2.552-7.629h-1.237v-2.243h5.298v2.243h-1.062l1.198,3.609l1.986-5.853h2.578
			l1.924,5.86l1.195-3.617h-1.095v-2.243h4.706v2.243h-1.218l-2.523,7.629h-2.693l-1.911-5.721l-1.878,5.721H138.666z"/>
		<path fill="#F5F5F5" d="M152.922,121.052v-2.243h4.584v7.49h1.447v2.24h-6.031v-2.24h1.478v-5.247H152.922z M154.289,116.02
			c0-0.468,0.166-0.869,0.498-1.202c0.331-0.335,0.732-0.502,1.2-0.502c0.477,0,0.879,0.167,1.205,0.502
			c0.33,0.333,0.493,0.734,0.493,1.202s-0.165,0.867-0.496,1.198c-0.332,0.33-0.732,0.495-1.202,0.495
			c-0.461,0-0.862-0.166-1.195-0.5C154.455,116.878,154.289,116.48,154.289,116.02z"/>
		<path fill="#F5F5F5" d="M172.304,126.299v2.24H167.6v-1.158c-0.865,0.867-1.805,1.3-2.816,1.3c-1.212,0-2.217-0.493-3.015-1.478
			c-0.798-0.985-1.195-2.177-1.195-3.579c0-1.421,0.407-2.618,1.226-3.593c0.817-0.975,1.816-1.463,2.994-1.463
			c1.134,0,2.067,0.441,2.807,1.323v-3.093h-1.519v-2.242h4.623v11.742H172.304z M167.628,123.654c0-0.932-0.198-1.595-0.598-1.99
			c-0.398-0.396-0.854-0.593-1.361-0.593c-0.611,0-1.081,0.236-1.412,0.709c-0.332,0.472-0.499,1.095-0.499,1.863
			c0,0.731,0.165,1.347,0.493,1.846c0.329,0.5,0.805,0.749,1.428,0.749c0.516,0,0.97-0.202,1.362-0.607
			C167.433,125.225,167.628,124.566,167.628,123.654z"/>
		<path fill="#F5F5F5" d="M181.692,125.605l2.412,0.774c-1.012,1.587-2.593,2.382-4.744,2.382c-1.716,0-3.054-0.453-4.015-1.358
			c-0.963-0.904-1.443-2.093-1.443-3.567c0-1.502,0.495-2.756,1.486-3.76c0.992-1.006,2.256-1.508,3.792-1.508
			c1.11,0,2.073,0.281,2.884,0.845c0.812,0.562,1.373,1.263,1.688,2.1c0.314,0.838,0.473,1.772,0.473,2.805h-7.247
			c0.045,0.886,0.326,1.512,0.838,1.88c0.514,0.369,1.054,0.553,1.625,0.553C180.186,126.75,180.935,126.369,181.692,125.605z
			 M181.1,122.589c-0.072-0.543-0.285-1.006-0.637-1.386c-0.354-0.384-0.835-0.574-1.444-0.574c-1.14,0-1.803,0.653-1.989,1.96
			H181.1z"/>
	</g>
</g>
</svg>
