<?xml version="1.0" encoding="utf-8"?>
<!-- Generator: Adobe Illustrator 16.0.4, SVG Export Plug-In . SVG Version: 6.00 Build 0)  -->
<!DOCTYPE svg PUBLIC "-//W3C//DTD SVG 1.1//EN" "http://www.w3.org/Graphics/SVG/1.1/DTD/svg11.dtd">
<svg version="1.1" id="Layer_1" xmlns="http://www.w3.org/2000/svg" xmlns:xlink="http://www.w3.org/1999/xlink" x="0px" y="0px"
	 width="200px" height="200px" viewBox="0 0 200 200" enable-background="new 0 0 200 200" xml:space="preserve">
<circle fill="#FFFFFF" cx="100" cy="100" r="100"/>
<g display="none">
	<g display="inline">
		<defs>
			<rect id="SVGID_1_" x="5.691" y="68.925" width="188.618" height="62.15"/>
		</defs>
		<clipPath id="SVGID_2_">
			<use xlink:href="#SVGID_1_"  overflow="visible"/>
		</clipPath>
		<g clip-path="url(#SVGID_2_)">
			<defs>
				<rect id="SVGID_3_" x="-92.764" y="39.799" width="384.781" height="125.746"/>
			</defs>
			<clipPath id="SVGID_4_">
				<use xlink:href="#SVGID_3_"  overflow="visible"/>
			</clipPath>
			<path clip-path="url(#SVGID_4_)" fill="#333333" d="M45.561,92.714l2.133-9.35l-7.811,1.067l-2.136,8.282H45.561z
				 M117.396,112.887c-1.332,5.828-6.963,10.567-12.855,10.567c-5.509,0-9.13-4.613-7.855-10.184
				c1.317-5.765,6.9-10.569,12.728-10.569C115.051,102.701,118.688,107.25,117.396,112.887 M75.239,112.949
				c-1.317,5.766-6.964,10.568-12.791,10.568c-5.702,0-9.243-4.677-7.954-10.312c1.333-5.829,7.013-10.505,12.842-10.505
				C72.909,102.701,76.53,107.313,75.239,112.949 M142.557,118.327c0.764-3.662,9.576-43.967,10.764-49.402l-13.346,1.825
				l-1.607,6.877h5.121l-7.676,35.466l-0.031-0.032c-0.834,3.703-2.426,6.286-4.232,7.953c-0.031,0.025-0.062,0.056-0.094,0.081
				c-0.307,0.277-0.625,0.499-0.941,0.725c-0.475,0.326-0.957,0.617-1.438,0.844c-7.197,2.747-5.391-3.159-5.391-3.159l3.723-16.226
				h4.289l1.672-7.302h-12.232l-1.113,4.867c-1.521-3.713-4.896-5.763-9.314-5.763c-9.992,0-19.823,8.263-22.094,18.189
				c-0.828,3.62-0.519,7.026,0.703,9.869c0.001,0,0.006-0.002,0.006-0.002c0,0.002-0.002,0.004-0.004,0.006
				c-0.001-0.001-0.001-0.002-0.002-0.004c-5.806,2.956-8.586-0.624-7.228-6.616c0.967-4.27,7.683-32.592,9.231-39.126
				l-11.932,1.632l-1.485,6.112h3.78l-3.898,15.83c-1.885-3.521-5.644-5.572-9.999-5.572c-9.67,0-19.217,8.135-21.399,17.68
				c-0.673,2.94-0.555,5.752,0.21,8.231c-0.006,0.006-0.012,0.011-0.019,0.015c-2.711,1.118-8.782,3.169-7.677-1.454
				c0.024-0.105,5.91-23.892,5.91-23.892H32.552l-1.633,6.598h4.448l-4.176,16.817c0,0-1.779,1.956-5.02,3.396
				c-0.08,0.027-0.161,0.058-0.241,0.086c-0.167,0.052-0.331,0.102-0.516,0.163c-7.807,2.791-9.664-2.873-8.848-6.162
				c0.816-3.289,3.283-14.3,3.283-14.3h6.695l1.633-6.598h-6.695l2.195-9.334l-7.332,1.003l-2.244,8.331H7.42l-1.729,6.598h6.344
				c0,0-3.622,14.539-3.642,14.632c-0.001,0-0.003,0-0.004,0.001c-2.408,9.213,5.584,13.63,10.772,13.63
				c3.109,0,8.806-1.306,11.465-5.405c0.03,3.896,4.617,5.405,7.726,5.405c4.184,0,8.038-1.837,10.887-4.76
				c1.582,1.834,3.688,3.186,6.168,3.937c0.89,0.323,1.826,0.549,2.797,0.681c0.017,0.003,0.031,0.007,0.047,0.008
				c0.606,0.082,1.221,0.135,1.853,0.135c4.666,0,11.334-2.106,13.417-5.794c0.958,2.382,2.671,4.049,4.96,4.964
				c1.377,0.551,2.96,0.83,4.713,0.83c0.855,0,1.693-0.083,2.514-0.229c0.004,0,0.008,0,0.012-0.001
				c2.479-0.441,4.777-1.524,6.744-3.065c2.399,2.203,5.691,3.53,9.628,3.53c4.309,0,8.988-1.769,12.33-5.258
				c0.791,2.388,2.938,4.008,5.785,4.671c0.873,0.244,1.869,0.38,3.025,0.348c0.025,0,0.051,0.004,0.078,0.004
				c0.051,0,0.102-0.014,0.152-0.014c5.348-0.211,7.809-1.936,11.123-5.072c0.223-0.201,0.441-0.403,0.66-0.612
				c1.98,3.396,8.494,11.07,21.531-3.8c0.047-0.117,0.08-0.198,0.08-0.198s-5.971,1.733-8.877,1.733
				C145.072,122.877,141.738,122.256,142.557,118.327"/>
			<path clip-path="url(#SVGID_4_)" fill="#333333" d="M185.49,100.688l-0.654,2.864h1.721l0.186-0.812
				c0.475,0.757,1.309,1.072,2.307,1.072c1.852,0,3.787-1.109,4.244-3.107c0.51-2.22-1.27-2.774-2.953-3.182
				c-0.684-0.167-1.543-0.37-1.332-1.295c0.158-0.686,0.885-1.037,1.496-1.037c0.701,0.001,1.135,0.463,1.01,1.165h2.184l0.613-2.68
				h-1.668l-0.154,0.685c-0.395-0.702-1.148-0.888-2.035-0.888c-1.758,0-3.6,1.091-4.029,2.976
				c-0.496,2.166,1.268,2.702,2.889,3.147c0.711,0.202,1.598,0.368,1.373,1.35c-0.168,0.74-0.945,1.222-1.629,1.222
				c-0.926-0.002-1.383-0.593-1.254-1.479H185.49z M180.594,95.578c1.645,0,2.688,1.352,2.311,2.998
				c-0.369,1.611-1.973,3.035-3.635,3.035c-1.705,0-2.75-1.332-2.355-3.054C177.291,96.911,178.945,95.578,180.594,95.578
				 M178.885,90.347h-3.533l-0.48,2.106h1.273l-2.055,8.992h-1.277l-0.48,2.106h3.533l0.338-1.478
				c0.514,1.071,1.625,1.627,2.939,1.627c1.293,0,2.773-0.648,3.863-1.609c1.084-0.941,1.836-2.2,2.129-3.478
				c0.637-2.794-1.133-5.086-3.926-5.086c-1.258,0-2.471,0.536-3.412,1.57L178.885,90.347z M165.189,101.611
				c-1.59,0-2.635-1.332-2.266-2.942c0.381-1.665,1.992-3.054,3.676-3.054c1.627,0,2.676,1.314,2.305,2.942
				C168.52,100.242,166.893,101.611,165.189,101.611 M167.727,103.552h3.531l0.482-2.106h-1.238l1.293-5.662h1.24l0.482-2.107
				h-3.533l-0.32,1.404c-0.439-1.071-1.414-1.663-2.691-1.663c-2.887,0-5.725,2.384-6.381,5.252
				c-0.641,2.796,1.062,5.143,3.893,5.143c1.295,0,2.574-0.499,3.545-1.59L167.727,103.552z M161.033,90.347h-3.531l-0.482,2.106
				h1.277l-2.057,8.992h-1.369l-0.482,2.106h4.902l0.48-2.106h-1.275L161.033,90.347z"/>
		</g>
	</g>
</g>
<g>
	<path fill="#FEFEFE" d="M181.487,98.048c0,1.464,0,2.928,0,4.393c-1.987,0-3.975,0-6.108,0c0,6.395,0,12.431,0,19.128
		c-4.298-6.722-8.249-12.901-12.147-18.999c-2.217,0-4.299,0-6.422,0c0,9.511,0,18.892,0,28.365c2.027,0,3.925,0,6.105,0
		c0-6.153,0-12.16,0-18.167c0.135-0.023,0.27-0.046,0.404-0.069c3.909,6.118,7.817,12.235,11.839,18.53c2.132,0,4.23,0,6.329,0
		c-0.731,0.163-1.464,0.467-2.196,0.468c-38.466,0.023-76.932,0.021-115.399,0.021c-9.271,0-18.542,0-27.813,0
		c0.709-0.307,1.412-0.634,2.129-0.92c4.798-1.917,7.065-5.632,7.711-10.791c-1.115,0-2.078,0-3.042,0c-1.046,0-2.092,0-3.089,0
		c-1.33,4.69-3.216,6.401-6.892,6.375c-3.677-0.025-6.357-2.096-7.339-5.896c-0.789-3.052-0.698-6.106,0.608-9.047
		c1.157-2.604,3.147-4.051,5.995-4.285c3.755-0.311,6.181,1.437,7.415,4.849c2.01,0,3.927,0,5.953,0
		c-0.194-3.14-1.556-5.541-3.848-7.398c-6.973-5.654-18.254-2.824-21.72,5.452c-0.616,1.472-0.972,3.053-1.448,4.583
		c0-9.271,0-18.542,0-27.813c0.291,0.717,0.62,1.419,0.866,2.15c3.152,9.335,13.782,12.421,21.383,6.21
		c0.093-0.076,0.302-0.01,0.453-0.01c0.221,0.859,0.438,1.701,0.652,2.53c1.418,0,2.672,0,3.89,0c0-5.226,0-10.297,0-15.403
		c-4.117,0-8.069,0-12.098,0c0,1.543,0,2.971,0,4.65c2.142,0,4.194,0,6.396,0c-0.339,2.575-1.245,4.456-3.444,5.498
		c-4.244,2.01-9.162,0.035-10.783-4.371c-1.197-3.254-1.104-6.554,0.157-9.756c1.38-3.504,4.798-5.277,8.467-4.581
		c2.667,0.506,4.138,2.305,4.91,4.644c2.111,0,4.033,0,5.959,0c-0.188-3.341-1.747-6.15-4.667-7.888
		c-1.571-0.935-3.368-1.489-5.062-2.216c15.777,0,31.554,0,47.331,0c-0.902,0.316-1.804,0.632-2.705,0.948
		c-10.914,3.837-13.69,17.794-4.977,25.222c3.875,3.302,8.426,4.337,13.438,3.664c6.903-0.927,12.216-6.174,13.162-13.084
		c0.867-6.338-2.95-12.763-9.194-15.398c-1.256-0.53-2.577-0.904-3.869-1.352c30.904,0,61.807,0,92.71,0c0,8.133,0,16.265,0,24.397
		c-0.153-0.007-0.308-0.015-0.461-0.021c-4.66,0-9.321,0-14.242,0c0-8.034,0-15.687,0-23.339c-2.174-0.27-4.348-0.538-6.592-0.816
		c0,10.194,0,19.78,0,29.544C167.423,98.048,174.455,98.048,181.487,98.048z M104.966,69.015c0,9.672,0,19.145,0,28.512
		c5.846,0,11.604,0.29,17.316-0.097c4.189-0.284,6.816-3.252,7.312-6.983c0.49-3.691-1.124-6.408-4.908-8.257
		c3.424-3.059,4.264-5.288,3.148-8.629c-1.223-3.661-4.342-4.401-7.594-4.504C115.226,68.899,110.201,69.015,104.966,69.015z
		 M136.085,107.783c5.08,0,10.08,0,15.179,0c0-1.873,0-3.524,0-5.199c-7.306,0-14.493,0-21.688,0c0,9.53,0,18.913,0,28.377
		c7.431,0,14.706,0,22.014,0c0-1.784,0-3.44,0-5.271c-5.24,0-10.33,0-15.501,0c0-2.353,0-4.523,0-6.949c4.676,0,9.271,0,13.944,0
		c0-1.745,0-3.234,0-4.974c-4.725,0-9.312,0-13.947,0C136.085,111.678,136.085,109.841,136.085,107.783z M124.921,125.733
		c-5.286,0-10.36,0-15.936,0c5.433-6.356,10.575-12.373,15.559-18.202c0-1.822,0-3.349,0-4.96c-7.69,0-15.279,0-22.858,0
		c0,1.789,0,3.44,0,5.322c4.728,0,9.292,0,14.194,0c-5.328,6.222-10.392,12.134-15.312,17.878c0,1.874,0,3.534,0,5.189
		c8.209,0,16.226,0,24.353,0C124.921,129.243,124.921,127.647,124.921,125.733z M158.746,97.738
		c-3.741-9.754-7.4-19.294-11.029-28.754c-2.367,0-4.464,0-6.707,0c-3.69,9.538-7.376,19.062-11.138,28.784c2.456,0,4.466,0,6.514,0
		c0.819-2.161,1.613-4.256,2.398-6.325c3.731,0,7.284,0,10.926,0c0.785,2.141,1.557,4.242,2.311,6.295
		C154.289,97.738,156.359,97.738,158.746,97.738z M76.729,131c0-7.843,0-15.501,0-23.29c2.998,0,5.736,0,8.578,0
		c0-1.79,0-3.441,0-5.115c-8.009,0-15.907,0-23.69,0c0,1.812,0,3.468,0,5.239c2.916,0,5.651,0,8.637,0c0,7.778,0,15.432,0,23.166
		C72.429,131,74.351,131,76.729,131z M50.298,97.727c7.035,0,13.828,0,20.675,0c0-1.789,0-3.44,0-5.332c-4.835,0-9.516,0-14.393,0
		c0-7.923,0-15.605,0-23.36c-2.198,0-4.188,0-6.282,0C50.298,78.631,50.298,88.109,50.298,97.727z M51.084,102.541
		c0,9.539,0,18.974,0,28.409c2.178,0,4.172,0,6.221,0c0-9.568,0-18.999,0-28.409C55.133,102.541,53.127,102.541,51.084,102.541z
		 M89.548,102.521c0,9.613,0,18.975,0,28.376c2.189,0,4.232,0,6.276,0c0-9.561,0-18.928,0-28.376
		C93.691,102.521,91.689,102.521,89.548,102.521z"/>
	<path fill-rule="evenodd" clip-rule="evenodd" fill="#D52027" d="M88.777,68.283c1.292,0.447,2.613,0.821,3.869,1.352
		c6.245,2.636,10.062,9.061,9.194,15.398c-0.945,6.91-6.259,12.157-13.162,13.084c-5.013,0.673-9.564-0.362-13.438-3.664
		c-8.713-7.428-5.937-21.385,4.977-25.222c0.901-0.316,1.803-0.632,2.705-0.948C84.874,68.283,86.826,68.283,88.777,68.283z
		 M85.875,92.337c5.064,0.056,8.853-3.745,8.879-8.905c0.026-5.133-3.762-9.175-8.652-9.233c-4.892-0.059-8.935,3.987-8.965,8.97
		C77.108,88.229,80.971,92.284,85.875,92.337z"/>
	<path fill-rule="evenodd" clip-rule="evenodd" fill="#050708" d="M181.487,131.229c-2.099,0-4.197,0-6.329,0
		c-4.021-6.295-7.93-12.412-11.839-18.53c-0.135,0.023-0.27,0.046-0.404,0.069c0,6.007,0,12.014,0,18.167c-2.181,0-4.078,0-6.105,0
		c0-9.474,0-18.854,0-28.365c2.123,0,4.205,0,6.422,0c3.898,6.098,7.85,12.277,12.147,18.999c0-6.697,0-12.733,0-19.128
		c2.134,0,4.121,0,6.108,0C181.487,112.036,181.487,121.632,181.487,131.229z"/>
	<path fill-rule="evenodd" clip-rule="evenodd" fill="#050708" d="M35.591,68.283c1.694,0.727,3.491,1.281,5.062,2.216
		c2.92,1.737,4.479,4.547,4.667,7.888c-1.926,0-3.848,0-5.959,0c-0.772-2.339-2.243-4.138-4.91-4.644
		c-3.669-0.696-7.086,1.077-8.467,4.581c-1.261,3.202-1.354,6.502-0.157,9.756c1.621,4.406,6.54,6.381,10.783,4.371
		c2.199-1.042,3.104-2.923,3.444-5.498c-2.202,0-4.254,0-6.396,0c0-1.68,0-3.107,0-4.65c4.029,0,7.981,0,12.098,0
		c0,5.106,0,10.178,0,15.403c-1.218,0-2.472,0-3.89,0c-0.214-0.829-0.431-1.671-0.652-2.53c-0.151,0-0.36-0.066-0.453,0.01
		c-7.601,6.211-18.23,3.125-21.383-6.21c-0.246-0.731-0.575-1.434-0.866-2.15c0-2.114,0-4.229,0-6.343
		c0.351-1.062,0.673-2.134,1.057-3.183c1.836-5.026,5.705-7.663,10.654-9.017C32.012,68.283,33.802,68.283,35.591,68.283z"/>
	<path fill-rule="evenodd" clip-rule="evenodd" fill="#050708" d="M18.513,114.639c0.476-1.53,0.832-3.111,1.448-4.583
		c3.466-8.276,14.747-11.106,21.72-5.452c2.292,1.857,3.653,4.259,3.848,7.398c-2.025,0-3.942,0-5.953,0
		c-1.234-3.412-3.66-5.159-7.415-4.849c-2.848,0.234-4.838,1.682-5.995,4.285c-1.307,2.94-1.397,5.995-0.608,9.047
		c0.982,3.8,3.663,5.87,7.339,5.896c3.676,0.026,5.562-1.685,6.892-6.375c0.997,0,2.043,0,3.089,0c0.963,0,1.927,0,3.042,0
		c-0.646,5.159-2.914,8.874-7.711,10.791c-0.718,0.286-1.42,0.613-2.129,0.92c-1.952,0-3.903,0-5.855,0
		c-5.448-1.456-9.432-4.495-10.998-10.156c-0.233-0.845-0.475-1.688-0.713-2.53C18.513,117.566,18.513,116.103,18.513,114.639z"/>
	<path fill-rule="evenodd" clip-rule="evenodd" fill="#FBFBFB" d="M18.513,119.03c0.238,0.843,0.479,1.686,0.713,2.53
		c1.565,5.661,5.549,8.7,10.998,10.156c-3.903,0-7.807,0-11.71,0C18.513,127.488,18.513,123.26,18.513,119.03z"/>
	<path fill-rule="evenodd" clip-rule="evenodd" fill="#FBFBFB" d="M30.223,68.283c-4.949,1.354-8.818,3.99-10.654,9.017
		c-0.383,1.049-0.706,2.121-1.057,3.183c0-4.025,0-8.051,0-12.199C22.415,68.283,26.319,68.283,30.223,68.283z"/>
	<path fill-rule="evenodd" clip-rule="evenodd" fill="#909192" d="M181.026,92.659c0.153,0.007,0.308,0.015,0.461,0.021
		c0,1.789,0,3.578,0,5.367c-7.032,0-14.064,0-21.295,0c0-9.764,0-19.35,0-29.544c2.244,0.278,4.418,0.547,6.592,0.816
		c-2.062,0-4.123,0-6.145,0c0,9.535,0,18.836,0,28.124c6.854,0,13.544,0,20.387,0C181.026,95.73,181.026,94.194,181.026,92.659z"/>
	<path fill-rule="evenodd" clip-rule="evenodd" fill="#050708" d="M104.966,69.015c5.235,0,10.26-0.115,15.275,0.042
		c3.252,0.103,6.371,0.843,7.594,4.504c1.115,3.341,0.275,5.57-3.148,8.629c3.784,1.849,5.398,4.565,4.908,8.257
		c-0.496,3.731-3.123,6.699-7.312,6.983c-5.713,0.387-11.471,0.097-17.316,0.097C104.966,88.159,104.966,78.687,104.966,69.015z
		 M111.429,92.745c2.849,0,5.442,0.109,8.022-0.031c2.396-0.131,3.504-1.327,3.586-3.44c0.093-2.408-0.786-3.829-3.19-4.072
		c-2.766-0.28-5.582-0.064-8.418-0.064C111.429,87.715,111.429,90.121,111.429,92.745z M111.429,80.513
		c2.636,0,5.067,0.098,7.488-0.03c1.883-0.1,2.951-1.275,2.981-3.184c0.033-1.94-1.056-3.088-2.939-3.184
		c-2.474-0.127-4.957-0.031-7.53-0.031C111.429,76.264,111.429,78.261,111.429,80.513z"/>
	<path fill-rule="evenodd" clip-rule="evenodd" fill="#050708" d="M136.085,107.783c0,2.058,0,3.895,0,5.983
		c4.636,0,9.223,0,13.947,0c0,1.739,0,3.229,0,4.974c-4.674,0-9.269,0-13.944,0c0,2.426,0,4.597,0,6.949c5.171,0,10.261,0,15.501,0
		c0,1.831,0,3.487,0,5.271c-7.308,0-14.583,0-22.014,0c0-9.464,0-18.847,0-28.377c7.195,0,14.383,0,21.688,0
		c0,1.675,0,3.326,0,5.199C146.165,107.783,141.165,107.783,136.085,107.783z"/>
	<path fill-rule="evenodd" clip-rule="evenodd" fill="#050708" d="M124.921,125.733c0,1.914,0,3.51,0,5.228
		c-8.127,0-16.144,0-24.353,0c0-1.655,0-3.315,0-5.189c4.92-5.744,9.983-11.656,15.312-17.878c-4.902,0-9.467,0-14.194,0
		c0-1.882,0-3.533,0-5.322c7.579,0,15.168,0,22.858,0c0,1.611,0,3.138,0,4.96c-4.983,5.829-10.126,11.846-15.559,18.202
		C114.561,125.733,119.635,125.733,124.921,125.733z"/>
	<path fill-rule="evenodd" clip-rule="evenodd" fill="#050708" d="M158.746,97.738c-2.387,0-4.457,0-6.726,0
		c-0.754-2.053-1.525-4.154-2.311-6.295c-3.642,0-7.194,0-10.926,0c-0.785,2.069-1.579,4.164-2.398,6.325c-2.048,0-4.058,0-6.514,0
		c3.762-9.722,7.447-19.246,11.138-28.784c2.243,0,4.34,0,6.707,0C151.346,78.444,155.005,87.984,158.746,97.738z M144.289,76.032
		c-1.391,3.868-2.58,7.177-3.792,10.546c2.567,0,4.883,0,7.515,0C146.781,83.092,145.62,79.802,144.289,76.032z"/>
	<path fill-rule="evenodd" clip-rule="evenodd" fill="#050708" d="M76.729,131c-2.379,0-4.301,0-6.476,0c0-7.734,0-15.388,0-23.166
		c-2.985,0-5.721,0-8.637,0c0-1.771,0-3.427,0-5.239c7.784,0,15.682,0,23.69,0c0,1.674,0,3.325,0,5.115c-2.842,0-5.581,0-8.578,0
		C76.729,115.499,76.729,123.157,76.729,131z"/>
	<path fill-rule="evenodd" clip-rule="evenodd" fill="#050708" d="M50.298,97.727c0-9.617,0-19.096,0-28.692
		c2.094,0,4.084,0,6.282,0c0,7.755,0,15.438,0,23.36c4.877,0,9.558,0,14.393,0c0,1.892,0,3.543,0,5.332
		C64.125,97.727,57.333,97.727,50.298,97.727z"/>
	<path fill-rule="evenodd" clip-rule="evenodd" fill="#060809" d="M181.026,92.659c0,1.535,0,3.071,0,4.785
		c-6.843,0-13.532,0-20.387,0c0-9.288,0-18.589,0-28.124c2.021,0,4.083,0,6.145,0c0,7.652,0,15.305,0,23.339
		C171.705,92.659,176.366,92.659,181.026,92.659z"/>
	<path fill-rule="evenodd" clip-rule="evenodd" fill="#07090A" d="M51.084,102.541c2.043,0,4.049,0,6.221,0
		c0,9.41,0,18.841,0,28.409c-2.049,0-4.043,0-6.221,0C51.084,121.515,51.084,112.08,51.084,102.541z"/>
	<path fill-rule="evenodd" clip-rule="evenodd" fill="#07090A" d="M89.548,102.521c2.141,0,4.143,0,6.276,0
		c0,9.448,0,18.815,0,28.376c-2.044,0-4.087,0-6.276,0C89.548,121.495,89.548,112.134,89.548,102.521z"/>
	<path fill-rule="evenodd" clip-rule="evenodd" fill="#FEFEFE" d="M85.875,92.337c-4.904-0.053-8.767-4.107-8.737-9.169
		c0.03-4.982,4.073-9.028,8.965-8.97c4.89,0.059,8.678,4.101,8.652,9.233C94.728,88.592,90.939,92.393,85.875,92.337z"/>
	<path fill-rule="evenodd" clip-rule="evenodd" fill="#FDFDFD" d="M111.429,92.745c0-2.624,0-5.03,0-7.608
		c2.836,0,5.652-0.216,8.418,0.064c2.404,0.243,3.283,1.664,3.19,4.072c-0.082,2.113-1.189,3.31-3.586,3.44
		C116.871,92.854,114.277,92.745,111.429,92.745z"/>
	<path fill-rule="evenodd" clip-rule="evenodd" fill="#FDFDFD" d="M111.429,80.513c0-2.252,0-4.249,0-6.429
		c2.573,0,5.057-0.096,7.53,0.031c1.884,0.096,2.973,1.243,2.939,3.184c-0.03,1.908-1.099,3.084-2.981,3.184
		C116.496,80.61,114.064,80.513,111.429,80.513z"/>
	<path fill-rule="evenodd" clip-rule="evenodd" fill="#F9F9F9" d="M144.289,76.032c1.331,3.77,2.492,7.06,3.723,10.546
		c-2.632,0-4.947,0-7.515,0C141.709,83.209,142.898,79.9,144.289,76.032z"/>
</g>
</svg>
