<?xml version="1.0" encoding="UTF-8" standalone="no"?>
<svg width="15px" height="9px" viewBox="0 0 15 9" version="1.1" xmlns="http://www.w3.org/2000/svg" xmlns:xlink="http://www.w3.org/1999/xlink">
    <!-- Generator: Sketch 39.1 (31720) - http://www.bohemiancoding.com/sketch -->
    <title>Fill 117 Copy 2</title>
    <desc>Created with Sketch.</desc>
    <defs></defs>
    <g id="Website" stroke="none" stroke-width="1" fill="none" fill-rule="evenodd">
        <g id="Website_Customer_design_1920" transform="translate(-1287.000000, -2736.000000)" fill="#00AA9D">
            <g id="04_howmuch_interactive" transform="translate(-89.000000, 2481.000000)">
                <path d="M1384.52033,263.360984 C1384.23841,263.650659 1383.86856,263.795497 1383.50129,263.795497 C1383.13144,263.795497 1382.76159,263.650659 1382.48226,263.360984 C1382.48226,263.360984 1376.93703,258.079573 1376.40941,257.539017 C1375.88179,256.998462 1375.84558,256.025979 1376.40941,255.449213 C1376.97066,254.872448 1377.75692,254.82848 1378.44749,255.449213 L1383.50129,260.29611 L1388.5551,255.449213 C1389.24567,254.82848 1390.02934,254.872448 1390.59059,255.449213 C1391.15442,256.025979 1391.11821,256.998462 1390.59059,257.539017 C1390.06555,258.079573 1384.52033,263.360984 1384.52033,263.360984 Z" id="Fill-117-Copy-2"></path>
            </g>
        </g>
    </g>
</svg>