<?xml version="1.0" encoding="utf-8"?>
<!-- Generator: Adobe Illustrator 16.0.4, SVG Export Plug-In . SVG Version: 6.00 Build 0)  -->
<!DOCTYPE svg PUBLIC "-//W3C//DTD SVG 1.1//EN" "http://www.w3.org/Graphics/SVG/1.1/DTD/svg11.dtd">
<svg version="1.1" id="Layer_1" xmlns="http://www.w3.org/2000/svg" xmlns:xlink="http://www.w3.org/1999/xlink" x="0px" y="0px"
	 width="200px" height="200px" viewBox="0 0 200 200" enable-background="new 0 0 200 200" xml:space="preserve">
<circle cx="100" cy="100" r="100"/>
<g display="none">
	<g display="inline">
		<defs>
			<rect id="SVGID_1_" x="5.691" y="68.925" width="188.618" height="62.15"/>
		</defs>
		<clipPath id="SVGID_2_">
			<use xlink:href="#SVGID_1_"  overflow="visible"/>
		</clipPath>
		<g clip-path="url(#SVGID_2_)">
			<defs>
				<rect id="SVGID_3_" x="-92.764" y="39.799" width="384.781" height="125.746"/>
			</defs>
			<clipPath id="SVGID_4_">
				<use xlink:href="#SVGID_3_"  overflow="visible"/>
			</clipPath>
			<path clip-path="url(#SVGID_4_)" fill="#333333" d="M45.561,92.714l2.133-9.35l-7.811,1.067l-2.136,8.282H45.561z
				 M117.396,112.887c-1.332,5.828-6.963,10.567-12.855,10.567c-5.509,0-9.13-4.613-7.855-10.184
				c1.317-5.765,6.9-10.569,12.728-10.569C115.051,102.701,118.688,107.25,117.396,112.887 M75.239,112.949
				c-1.317,5.766-6.964,10.568-12.791,10.568c-5.702,0-9.243-4.677-7.954-10.312c1.333-5.829,7.013-10.505,12.842-10.505
				C72.909,102.701,76.53,107.313,75.239,112.949 M142.557,118.327c0.764-3.662,9.576-43.967,10.764-49.402l-13.346,1.825
				l-1.607,6.877h5.121l-7.676,35.466l-0.031-0.032c-0.834,3.703-2.426,6.286-4.232,7.953c-0.031,0.025-0.062,0.056-0.094,0.081
				c-0.307,0.277-0.625,0.499-0.941,0.725c-0.475,0.326-0.957,0.617-1.438,0.844c-7.197,2.747-5.391-3.159-5.391-3.159l3.723-16.226
				h4.289l1.672-7.302h-12.232l-1.113,4.867c-1.521-3.713-4.896-5.763-9.314-5.763c-9.992,0-19.823,8.263-22.094,18.189
				c-0.828,3.62-0.519,7.026,0.703,9.869c0.001,0,0.006-0.002,0.006-0.002c0,0.002-0.002,0.004-0.004,0.006
				c-0.001-0.001-0.001-0.002-0.002-0.004c-5.806,2.956-8.586-0.624-7.228-6.616c0.967-4.27,7.683-32.592,9.231-39.126
				l-11.932,1.632l-1.485,6.112h3.78l-3.898,15.83c-1.885-3.521-5.644-5.572-9.999-5.572c-9.67,0-19.217,8.135-21.399,17.68
				c-0.673,2.94-0.555,5.752,0.21,8.231c-0.006,0.006-0.012,0.011-0.019,0.015c-2.711,1.118-8.782,3.169-7.677-1.454
				c0.024-0.105,5.91-23.892,5.91-23.892H32.552l-1.633,6.598h4.448l-4.176,16.817c0,0-1.779,1.956-5.02,3.396
				c-0.08,0.027-0.161,0.058-0.241,0.086c-0.167,0.052-0.331,0.102-0.516,0.163c-7.807,2.791-9.664-2.873-8.848-6.162
				c0.816-3.289,3.283-14.3,3.283-14.3h6.695l1.633-6.598h-6.695l2.195-9.334l-7.332,1.003l-2.244,8.331H7.42l-1.729,6.598h6.344
				c0,0-3.622,14.539-3.642,14.632c-0.001,0-0.003,0-0.004,0.001c-2.408,9.213,5.584,13.63,10.772,13.63
				c3.109,0,8.806-1.306,11.465-5.405c0.03,3.896,4.617,5.405,7.726,5.405c4.184,0,8.038-1.837,10.887-4.76
				c1.582,1.834,3.688,3.186,6.168,3.937c0.89,0.323,1.826,0.549,2.797,0.681c0.017,0.003,0.031,0.007,0.047,0.008
				c0.606,0.082,1.221,0.135,1.853,0.135c4.666,0,11.334-2.106,13.417-5.794c0.958,2.382,2.671,4.049,4.96,4.964
				c1.377,0.551,2.96,0.83,4.713,0.83c0.855,0,1.693-0.083,2.514-0.229c0.004,0,0.008,0,0.012-0.001
				c2.479-0.441,4.777-1.524,6.744-3.065c2.399,2.203,5.691,3.53,9.628,3.53c4.309,0,8.988-1.769,12.33-5.258
				c0.791,2.388,2.938,4.008,5.785,4.671c0.873,0.244,1.869,0.38,3.025,0.348c0.025,0,0.051,0.004,0.078,0.004
				c0.051,0,0.102-0.014,0.152-0.014c5.348-0.211,7.809-1.936,11.123-5.072c0.223-0.201,0.441-0.403,0.66-0.612
				c1.98,3.396,8.494,11.07,21.531-3.8c0.047-0.117,0.08-0.198,0.08-0.198s-5.971,1.733-8.877,1.733
				C145.072,122.877,141.738,122.256,142.557,118.327"/>
			<path clip-path="url(#SVGID_4_)" fill="#333333" d="M185.49,100.688l-0.654,2.864h1.721l0.186-0.812
				c0.475,0.757,1.309,1.072,2.307,1.072c1.852,0,3.787-1.109,4.244-3.107c0.51-2.22-1.27-2.774-2.953-3.182
				c-0.684-0.167-1.543-0.37-1.332-1.295c0.158-0.686,0.885-1.037,1.496-1.037c0.701,0.001,1.135,0.463,1.01,1.165h2.184l0.613-2.68
				h-1.668l-0.154,0.685c-0.395-0.702-1.148-0.888-2.035-0.888c-1.758,0-3.6,1.091-4.029,2.976
				c-0.496,2.166,1.268,2.702,2.889,3.147c0.711,0.202,1.598,0.368,1.373,1.35c-0.168,0.74-0.945,1.222-1.629,1.222
				c-0.926-0.002-1.383-0.593-1.254-1.479H185.49z M180.594,95.578c1.645,0,2.688,1.352,2.311,2.998
				c-0.369,1.611-1.973,3.035-3.635,3.035c-1.705,0-2.75-1.332-2.355-3.054C177.291,96.911,178.945,95.578,180.594,95.578
				 M178.885,90.347h-3.533l-0.48,2.106h1.273l-2.055,8.992h-1.277l-0.48,2.106h3.533l0.338-1.478
				c0.514,1.071,1.625,1.627,2.939,1.627c1.293,0,2.773-0.648,3.863-1.609c1.084-0.941,1.836-2.2,2.129-3.478
				c0.637-2.794-1.133-5.086-3.926-5.086c-1.258,0-2.471,0.536-3.412,1.57L178.885,90.347z M165.189,101.611
				c-1.59,0-2.635-1.332-2.266-2.942c0.381-1.665,1.992-3.054,3.676-3.054c1.627,0,2.676,1.314,2.305,2.942
				C168.52,100.242,166.893,101.611,165.189,101.611 M167.727,103.552h3.531l0.482-2.106h-1.238l1.293-5.662h1.24l0.482-2.107
				h-3.533l-0.32,1.404c-0.439-1.071-1.414-1.663-2.691-1.663c-2.887,0-5.725,2.384-6.381,5.252
				c-0.641,2.796,1.062,5.143,3.893,5.143c1.295,0,2.574-0.499,3.545-1.59L167.727,103.552z M161.033,90.347h-3.531l-0.482,2.106
				h1.277l-2.057,8.992h-1.369l-0.482,2.106h4.902l0.48-2.106h-1.275L161.033,90.347z"/>
		</g>
	</g>
</g>
<g>
	<path fill-rule="evenodd" clip-rule="evenodd" fill="#F5F5F5" d="M113.771,86.823c0-1.427,0-2.715,0-4.084
		c4.225,0,8.409,0,12.771,0c0,0.447,0,0.878,0,1.311c0,5.249-0.001,10.498,0.001,15.748c0.001,0.521,0.01,1.043,0.052,1.562
		c0.081,1.012,0.645,1.552,1.661,1.584c0.63,0.02,1.262,0.004,1.987,0.004c0,1.377,0,2.691,0,4.095c-3.923,0-7.838,0-11.852,0
		c0-1.238,0-2.451,0-3.663c-0.078-0.044-0.157-0.087-0.235-0.13c-0.287,0.344-0.582,0.683-0.86,1.033
		c-2.806,3.512-8.54,4.782-12.603,2.83c-2.351-1.129-3.196-3.174-3.275-5.548c-0.129-3.83-0.083-7.667-0.112-11.5
		c-0.004-0.483,0.005-0.97-0.044-1.45c-0.131-1.279-0.656-1.778-1.829-1.787c-1.197-0.008-1.895,0.579-2.041,1.758
		c-0.05,0.404-0.031,0.817-0.031,1.227c-0.002,7.036-0.001,14.072-0.001,21.109c0,2.865,0.233,3.103,3.092,3.16
		c0.222,0.005,0.44,0.032,0.741,0.055c0,1.308,0,2.589,0,3.957c-5.439,0-10.853,0-16.368,0c0-1.276,0-2.552,0-4.017
		c0.669,0,1.358,0.01,2.047-0.003c0.921-0.017,1.721-0.401,1.752-1.361c0.083-2.654,0.029-5.312,0.029-8.045
		c-3.646,3.62-8.16,4.307-12.428,1.883c-2.621-1.488-3.835-4.001-4.462-6.787c-0.935-4.152-0.85-8.29,0.85-12.264
		c1.422-3.325,3.958-5.225,7.603-5.531c2.354-0.197,4.652-0.006,6.531,1.619c0.854,0.738,1.535,1.675,2.367,2.603
		c0-1.129,0-2.246,0-3.447c6.965,0,13.792,0,20.793,0c0,0.434,0,0.863,0,1.292c0,4.765,0,9.531,0,14.296c0,0.223,0,0.447,0.002,0.67
		c0.039,3.184,0.746,4.077,3.317,4.197c2.643,0.125,4.527-1.366,4.635-4.015c0.144-3.53,0.071-7.072,0.016-10.607
		c-0.019-1.217-0.652-1.71-1.861-1.75c-0.371-0.012-0.744-0.003-1.117-0.004C114.565,86.823,114.232,86.823,113.771,86.823z
		 M88.952,95.047c-0.343-1.894-0.565-3.852-1.079-5.731c-0.403-1.474-1.469-2.491-3.128-2.607c-1.415-0.1-2.688,0.708-3.295,2.347
		c-1.458,3.934-1.422,7.936-0.092,11.888c0.603,1.79,1.834,2.548,3.421,2.482c1.481-0.062,2.751-1.065,3.18-2.818
		C88.397,98.819,88.617,96.978,88.952,95.047z"/>
	<path fill-rule="evenodd" clip-rule="evenodd" fill="#F5F5F5" d="M41.479,72.61c0,1.494,0,2.896,0,4.453
		c-1.037,0-2.028-0.021-3.019,0.004c-1.523,0.04-2.218,0.662-2.223,2.189c-0.025,7.595-0.008,15.189-0.002,22.784
		c0,0.106,0.049,0.212,0.153,0.63c2.786-0.174,5.651-0.142,8.44-0.588c2.57-0.41,3.621-2.543,4.055-4.908
		c0.253-1.384,0.318-2.802,0.474-4.259c1.518,0,3.031,0,4.631,0c0,4.699,0,9.367,0,14.127c-10.876,0-21.757,0-32.706,0
		c0-1.458,0-2.896,0-4.527c0.886,0,1.797,0.003,2.708-0.001c1.882-0.01,2.494-0.622,2.498-2.589
		c0.011-5.882,0.004-11.765,0.004-17.647c0-0.968,0.024-1.937-0.008-2.904c-0.057-1.661-0.691-2.276-2.342-2.31
		c-0.856-0.018-1.712-0.012-2.568-0.021c-0.072,0-0.144-0.032-0.302-0.071c0-1.408,0-2.838,0-4.362
		C27.964,72.61,34.674,72.61,41.479,72.61z"/>
	<path fill-rule="evenodd" clip-rule="evenodd" fill="#F5F5F5" d="M142.37,81.984c4.251-0.06,7.981,1.167,10.761,4.568
		c1.397,1.712,2.179,3.713,2.433,5.893c0.511,4.374-0.03,8.49-3.325,11.778c-2.62,2.613-5.916,3.602-9.527,3.664
		c-4.306,0.074-8.167-1.03-11.081-4.437c-1.543-1.804-2.368-3.934-2.632-6.275c-0.476-4.218,0.083-8.177,3.148-11.413
		c2.224-2.349,5.057-3.446,8.218-3.769C141.026,81.927,141.701,81.984,142.37,81.984z M146.647,94.902
		c-0.064-0.004-0.129-0.009-0.193-0.013c0-0.855,0.049-1.714-0.013-2.565c-0.067-0.925-0.192-1.851-0.369-2.762
		c-0.489-2.532-2.154-3.787-4.485-3.431c-1.57,0.24-2.724,1.438-3.078,3.39c-0.649,3.582-0.667,7.186,0.008,10.762
		c0.483,2.562,2.263,3.78,4.64,3.34c1.498-0.277,2.643-1.575,2.931-3.519C146.342,98.381,146.466,96.637,146.647,94.902z"/>
	<path fill-rule="evenodd" clip-rule="evenodd" fill="#F5F5F5" d="M146.782,114.172c1.22-2.033,2.981-3.16,5.306-3.261
		c2.317-0.102,4.144,0.73,5.201,3.125c0.331-0.348,0.583-0.584,0.805-0.847c2.012-2.379,4.95-2.807,7.612-1.813
		c1.958,0.729,2.56,2.496,2.6,4.428c0.052,2.531,0.008,5.063,0.017,7.595c0.003,1.478,0.215,1.764,1.7,1.905
		c1.266,0.12,0.623,1.035,0.743,1.611c0.128,0.605-0.092,0.967-0.828,0.958c-2.718-0.03-5.436,0.006-8.153-0.035
		c-0.303-0.005-0.865-0.358-0.855-0.524c0.038-0.671,0.078-1.774,0.435-1.915c1.104-0.435,1.335-1.135,1.319-2.16
		c-0.031-1.973,0.033-3.947-0.031-5.918c-0.022-0.723-0.203-1.474-0.473-2.147c-0.403-1.01-1.251-1.443-2.334-1.316
		c-1.266,0.147-2.156,0.831-2.193,1.983c-0.093,2.863-0.071,5.731-0.007,8.596c0.006,0.294,0.582,0.757,0.952,0.826
		c1.315,0.246,0.647,1.225,0.743,1.875c0.118,0.798-0.531,0.727-1.058,0.726c-2.345-0.001-4.69,0.025-7.036-0.026
		c-0.367-0.008-1.054-0.414-1.033-0.557c0.096-0.676-0.617-1.661,0.544-1.99c0.881-0.249,1.17-0.834,1.172-1.655
		c0.003-2.383,0.054-4.768-0.018-7.148c-0.066-2.203-1.429-3.139-3.428-2.458c-1.106,0.376-1.549,1.315-1.581,2.343
		c-0.081,2.604-0.022,5.211-0.054,7.817c-0.009,0.743,0.44,0.995,1.022,1.079c1.407,0.201,0.667,1.266,0.76,1.938
		c0.116,0.844-0.624,0.648-1.102,0.65c-2.718,0.014-5.436-0.013-8.153,0.02c-0.737,0.008-1.152-0.16-1.047-0.986
		c0.088-0.691-0.363-1.621,1.014-1.597c1.41,0.024,1.811-0.412,1.831-1.805c0.038-2.567,0.038-5.138,0-7.706
		c-0.02-1.351-0.412-1.769-1.733-1.744c-1.104,0.021-0.922-0.677-0.949-1.334c-0.032-0.741,0.021-1.297,1.036-1.264
		c1.971,0.063,3.946,0.047,5.919,0.004c0.808-0.017,1.057,0.312,0.991,1.062c-0.043,0.497-0.008,1-0.008,1.501
		C146.547,114.062,146.665,114.117,146.782,114.172z"/>
	<path fill-rule="evenodd" clip-rule="evenodd" fill="#F5F5F5" d="M154.346,86.823c0-1.418,0-2.707,0-4.08c4.06,0,8.087,0,12.247,0
		c0,1.272,0,2.507,0,3.783c0.889-1.122,1.602-2.251,2.534-3.155c1.955-1.896,5.089-1.968,7.268-0.306
		c2.214,1.688,2.953,4.632,1.778,7.082c-1.246,2.597-5.188,3.137-7.079,0.968c-1.184-1.358-0.783-3.863,0.772-4.775
		c0.338-0.198,0.699-0.354,1.074-0.541c-1.136-0.836-2.586-0.679-3.758,0.38c-1.304,1.179-2.079,2.685-2.132,4.402
		c-0.107,3.53-0.087,7.066-0.043,10.598c0.016,1.328,0.564,1.744,1.915,1.769c0.623,0.013,1.248,0.002,1.945,0.002
		c0,1.427,0,2.739,0,4.116c-5.523,0-10.973,0-16.502,0c0-1.359,0-2.673,0-4.115c0.623,0,1.208,0.005,1.792-0.001
		c1.583-0.016,2.152-0.545,2.167-2.147c0.026-2.939,0.009-5.878,0.009-8.817c0-1.004,0.021-2.01-0.006-3.014
		c-0.043-1.604-0.587-2.129-2.175-2.148C155.6,86.818,155.044,86.823,154.346,86.823z"/>
	<path fill-rule="evenodd" clip-rule="evenodd" fill="#F5F5F5" d="M55.433,86.825c0-1.446,0-2.706,0-4.066c4.272,0,8.517,0,12.888,0
		c0,0.416,0,0.813,0,1.211c0,5.394,0,10.788,0,16.181c0,2.474,0.327,2.794,2.846,2.801c0.333,0.001,0.666,0,1.191,0
		c0,0.692,0,1.342,0,1.992c0,0.667,0,1.335,0,2.094c-5.577,0-11.092,0-16.689,0c0-1.312,0-2.627,0-4.088
		c0.736,0,1.468,0.018,2.199-0.003c1.109-0.032,1.745-0.525,1.754-1.59c0.041-4.313,0.041-8.628-0.002-12.942
		c-0.011-1.051-0.688-1.597-1.765-1.59C57.083,86.829,56.31,86.825,55.433,86.825z"/>
	<path fill-rule="evenodd" clip-rule="evenodd" fill="#F5F5F5" d="M129.533,128.571c-4.97-0.229-8.104-2.533-8.931-7.082
		c-0.99-5.446,2.004-10.032,7.623-10.487c3.582-0.29,6.773,0.379,8.931,3.521c2.557,3.721,2.025,10.823-3.339,13.025
		C132.475,128.099,130.966,128.241,129.533,128.571z M126.34,119.655c0.234,1.442,0.371,2.961,0.753,4.417
		c0.295,1.127,1.171,1.748,2.431,1.737c1.251-0.01,2.117-0.635,2.446-1.748c0.862-2.907,0.857-5.868,0.022-8.778
		c-0.369-1.287-1.249-1.771-2.533-1.753c-1.288,0.021-2.066,0.5-2.428,1.873C126.678,116.75,126.571,118.163,126.34,119.655z"/>
	<path fill-rule="evenodd" clip-rule="evenodd" fill="#F5F5F5" d="M116.114,114.846c-1.59-1.869-4.344-1.754-5.411,0.166
		c-1.606,2.888-1.511,5.911-0.326,8.912c0.495,1.253,1.604,1.687,2.898,1.65c1.241-0.035,2.083-0.644,2.561-1.798
		c0.19-0.461,0.396-1.183,0.726-1.265c0.77-0.194,1.628-0.14,2.429-0.028c0.179,0.024,0.434,0.722,0.373,1.06
		c-0.301,1.694-1.198,3.021-2.703,3.896c-2.64,1.537-7.844,1.179-10.187-0.75c-2.577-2.121-3.31-5.026-2.864-8.136
		c0.709-4.949,3.453-7.394,8.449-7.647c1.963-0.1,3.917,0.292,5.556,1.608c1.523,1.225,2.268,3.346,1.751,5.203
		c-0.569,2.043-3.514,2.931-5.106,1.54c-1.337-1.168-0.886-3.535,0.789-4.12C115.351,115.031,115.667,114.967,116.114,114.846z"/>
	<path fill-rule="evenodd" clip-rule="evenodd" fill="#F5F5F5" d="M63.81,80.489c-2.547,0.002-4.546-1.959-4.566-4.479
		c-0.02-2.546,2.036-4.592,4.603-4.581c2.523,0.012,4.476,2.002,4.471,4.56C68.313,78.585,66.409,80.486,63.81,80.489z"/>
	<path fill-rule="evenodd" clip-rule="evenodd" fill="#F5F5F5" d="M101.101,125.595c-0.021,1.578-1.261,2.75-2.888,2.731
		c-1.545-0.019-2.759-1.227-2.766-2.753c-0.006-1.571,1.372-2.949,2.9-2.898C99.89,122.726,101.122,124.031,101.101,125.595z"/>
</g>
<path fill-rule="evenodd" clip-rule="evenodd" d="M90.147,95.895c-0.335,1.931-0.555,3.772-0.994,5.56
	c-0.429,1.753-1.699,2.757-3.18,2.818c-1.586,0.066-2.818-0.692-3.421-2.482c-1.33-3.952-1.366-7.954,0.092-11.888
	c0.607-1.639,1.881-2.446,3.295-2.347c1.659,0.116,2.725,1.133,3.128,2.607C89.582,92.043,89.805,94.001,90.147,95.895z"/>
<path fill-rule="evenodd" clip-rule="evenodd" d="M147.843,95.75c-0.182,1.735-0.306,3.479-0.561,5.203
	c-0.288,1.944-1.433,3.242-2.931,3.52c-2.377,0.439-4.156-0.778-4.64-3.341c-0.675-3.577-0.657-7.18-0.008-10.762
	c0.354-1.952,1.508-3.15,3.078-3.39c2.331-0.356,3.996,0.899,4.485,3.431c0.177,0.911,0.302,1.837,0.369,2.762
	c0.062,0.851,0.013,1.709,0.013,2.565C147.714,95.742,147.778,95.746,147.843,95.75z"/>
<path fill-rule="evenodd" clip-rule="evenodd" d="M127.535,120.504c0.231-1.492,0.338-2.905,0.691-4.252
	c0.361-1.373,1.14-1.853,2.428-1.873c1.284-0.019,2.164,0.466,2.533,1.753c0.835,2.91,0.84,5.871-0.022,8.778
	c-0.329,1.113-1.195,1.738-2.446,1.748c-1.26,0.011-2.136-0.61-2.431-1.737C127.906,123.465,127.77,121.946,127.535,120.504z"/>
</svg>
