<?xml version="1.0" encoding="utf-8"?>
<!-- Generator: Adobe Illustrator 16.0.4, SVG Export Plug-In . SVG Version: 6.00 Build 0)  -->
<!DOCTYPE svg PUBLIC "-//W3C//DTD SVG 1.1//EN" "http://www.w3.org/Graphics/SVG/1.1/DTD/svg11.dtd">
<svg version="1.1" id="Layer_1" xmlns="http://www.w3.org/2000/svg" xmlns:xlink="http://www.w3.org/1999/xlink" x="0px" y="0px"
	 width="200px" height="200px" viewBox="0 0 200 200" enable-background="new 0 0 200 200" xml:space="preserve">
<circle fill="#FFFFFF" cx="100" cy="100" r="100"/>
<g>
	<g>
		<defs>
			<rect id="SVGID_1_" x="5.691" y="68.925" width="188.618" height="62.15"/>
		</defs>
		<clipPath id="SVGID_2_">
			<use xlink:href="#SVGID_1_"  overflow="visible"/>
		</clipPath>
		<g clip-path="url(#SVGID_2_)">
			<defs>
				<rect id="SVGID_3_" x="-92.764" y="39.799" width="384.781" height="125.746"/>
			</defs>
			<clipPath id="SVGID_4_">
				<use xlink:href="#SVGID_3_"  overflow="visible"/>
			</clipPath>
			<path clip-path="url(#SVGID_4_)" fill="#333333" d="M45.561,92.714l2.133-9.35l-7.811,1.067l-2.136,8.282H45.561z
				 M117.396,112.887c-1.332,5.828-6.963,10.567-12.855,10.567c-5.509,0-9.13-4.613-7.855-10.184
				c1.317-5.765,6.9-10.569,12.728-10.569C115.051,102.701,118.688,107.25,117.396,112.887 M75.239,112.949
				c-1.317,5.766-6.964,10.568-12.791,10.568c-5.702,0-9.243-4.677-7.954-10.312c1.333-5.829,7.013-10.505,12.842-10.505
				C72.909,102.701,76.53,107.313,75.239,112.949 M142.557,118.327c0.764-3.662,9.576-43.967,10.764-49.402l-13.346,1.825
				l-1.607,6.877h5.121l-7.676,35.466l-0.031-0.032c-0.834,3.703-2.426,6.286-4.232,7.953c-0.031,0.025-0.062,0.056-0.094,0.081
				c-0.307,0.277-0.625,0.499-0.941,0.725c-0.475,0.326-0.957,0.617-1.438,0.844c-7.197,2.747-5.391-3.159-5.391-3.159l3.723-16.226
				h4.289l1.672-7.302h-12.232l-1.113,4.867c-1.521-3.713-4.896-5.763-9.314-5.763c-9.992,0-19.823,8.263-22.094,18.189
				c-0.828,3.62-0.519,7.026,0.703,9.869c0.001,0,0.006-0.002,0.006-0.002c0,0.002-0.002,0.004-0.004,0.006
				c-0.001-0.001-0.001-0.002-0.002-0.004c-5.806,2.956-8.586-0.624-7.228-6.616c0.967-4.27,7.683-32.592,9.231-39.126
				l-11.932,1.632l-1.485,6.112h3.78l-3.898,15.83c-1.885-3.521-5.644-5.572-9.999-5.572c-9.67,0-19.217,8.135-21.399,17.68
				c-0.673,2.94-0.555,5.752,0.21,8.231c-0.006,0.006-0.012,0.011-0.019,0.015c-2.711,1.118-8.782,3.169-7.677-1.454
				c0.024-0.105,5.91-23.892,5.91-23.892H32.552l-1.633,6.598h4.448l-4.176,16.817c0,0-1.779,1.956-5.02,3.396
				c-0.08,0.027-0.161,0.058-0.241,0.086c-0.167,0.052-0.331,0.102-0.516,0.163c-7.807,2.791-9.664-2.873-8.848-6.162
				c0.816-3.289,3.283-14.3,3.283-14.3h6.695l1.633-6.598h-6.695l2.195-9.334l-7.332,1.003l-2.244,8.331H7.42l-1.729,6.598h6.344
				c0,0-3.622,14.539-3.642,14.632c-0.001,0-0.003,0-0.004,0.001c-2.408,9.213,5.584,13.63,10.772,13.63
				c3.109,0,8.806-1.306,11.465-5.405c0.03,3.896,4.617,5.405,7.726,5.405c4.184,0,8.038-1.837,10.887-4.76
				c1.582,1.834,3.688,3.186,6.168,3.937c0.89,0.323,1.826,0.549,2.797,0.681c0.017,0.003,0.031,0.007,0.047,0.008
				c0.606,0.082,1.221,0.135,1.853,0.135c4.666,0,11.334-2.106,13.417-5.794c0.958,2.382,2.671,4.049,4.96,4.964
				c1.377,0.551,2.96,0.83,4.713,0.83c0.855,0,1.693-0.083,2.514-0.229c0.004,0,0.008,0,0.012-0.001
				c2.479-0.441,4.777-1.524,6.744-3.065c2.399,2.203,5.691,3.53,9.628,3.53c4.309,0,8.988-1.769,12.33-5.258
				c0.791,2.388,2.938,4.008,5.785,4.671c0.873,0.244,1.869,0.38,3.025,0.348c0.025,0,0.051,0.004,0.078,0.004
				c0.051,0,0.102-0.014,0.152-0.014c5.348-0.211,7.809-1.936,11.123-5.072c0.223-0.201,0.441-0.403,0.66-0.612
				c1.98,3.396,8.494,11.07,21.531-3.8c0.047-0.117,0.08-0.198,0.08-0.198s-5.971,1.733-8.877,1.733
				C145.072,122.877,141.738,122.256,142.557,118.327"/>
			<path clip-path="url(#SVGID_4_)" fill="#333333" d="M185.49,100.688l-0.654,2.864h1.721l0.186-0.812
				c0.475,0.757,1.309,1.072,2.307,1.072c1.852,0,3.787-1.109,4.244-3.107c0.51-2.22-1.27-2.774-2.953-3.182
				c-0.684-0.167-1.543-0.37-1.332-1.295c0.158-0.686,0.885-1.037,1.496-1.037c0.701,0.001,1.135,0.463,1.01,1.165h2.184l0.613-2.68
				h-1.668l-0.154,0.685c-0.395-0.702-1.148-0.888-2.035-0.888c-1.758,0-3.6,1.091-4.029,2.976
				c-0.496,2.166,1.268,2.702,2.889,3.147c0.711,0.202,1.598,0.368,1.373,1.35c-0.168,0.74-0.945,1.222-1.629,1.222
				c-0.926-0.002-1.383-0.593-1.254-1.479H185.49z M180.594,95.578c1.645,0,2.688,1.352,2.311,2.998
				c-0.369,1.611-1.973,3.035-3.635,3.035c-1.705,0-2.75-1.332-2.355-3.054C177.291,96.911,178.945,95.578,180.594,95.578
				 M178.885,90.347h-3.533l-0.48,2.106h1.273l-2.055,8.992h-1.277l-0.48,2.106h3.533l0.338-1.478
				c0.514,1.071,1.625,1.627,2.939,1.627c1.293,0,2.773-0.648,3.863-1.609c1.084-0.941,1.836-2.2,2.129-3.478
				c0.637-2.794-1.133-5.086-3.926-5.086c-1.258,0-2.471,0.536-3.412,1.57L178.885,90.347z M165.189,101.611
				c-1.59,0-2.635-1.332-2.266-2.942c0.381-1.665,1.992-3.054,3.676-3.054c1.627,0,2.676,1.314,2.305,2.942
				C168.52,100.242,166.893,101.611,165.189,101.611 M167.727,103.552h3.531l0.482-2.106h-1.238l1.293-5.662h1.24l0.482-2.107
				h-3.533l-0.32,1.404c-0.439-1.071-1.414-1.663-2.691-1.663c-2.887,0-5.725,2.384-6.381,5.252
				c-0.641,2.796,1.062,5.143,3.893,5.143c1.295,0,2.574-0.499,3.545-1.59L167.727,103.552z M161.033,90.347h-3.531l-0.482,2.106
				h1.277l-2.057,8.992h-1.369l-0.482,2.106h4.902l0.48-2.106h-1.275L161.033,90.347z"/>
		</g>
	</g>
</g>
</svg>
