<?xml version="1.0" encoding="utf-8"?>
<!-- Generator: Adobe Illustrator 16.0.4, SVG Export Plug-In . SVG Version: 6.00 Build 0)  -->
<!DOCTYPE svg PUBLIC "-//W3C//DTD SVG 1.1//EN" "http://www.w3.org/Graphics/SVG/1.1/DTD/svg11.dtd">
<svg version="1.1" id="Layer_1" xmlns="http://www.w3.org/2000/svg" xmlns:xlink="http://www.w3.org/1999/xlink" x="0px" y="0px"
	 width="200px" height="200px" viewBox="0 0 200 200" enable-background="new 0 0 200 200" xml:space="preserve">
<circle fill="#FFFFFF" cx="100" cy="100" r="100"/>
<g>
	<g>
		<g>
			<defs>
				<rect id="SVGID_1_" x="12.441" y="46.006" width="175.117" height="57.702"/>
			</defs>
			<clipPath id="SVGID_2_">
				<use xlink:href="#SVGID_1_"  overflow="visible"/>
			</clipPath>
			<g clip-path="url(#SVGID_2_)">
				<defs>
					<rect id="SVGID_3_" x="-78.966" y="18.965" width="357.24" height="116.744"/>
				</defs>
				<clipPath id="SVGID_4_">
					<use xlink:href="#SVGID_3_"  overflow="visible"/>
				</clipPath>
				<path clip-path="url(#SVGID_4_)" fill="#333333" d="M49.458,68.093l1.98-8.681l-7.252,0.991l-1.984,7.689H49.458z
					 M116.152,86.821c-1.236,5.411-6.465,9.812-11.936,9.812c-5.115,0-8.477-4.283-7.294-9.455
					c1.225-5.352,6.407-9.812,11.817-9.812C113.974,77.365,117.351,81.589,116.152,86.821 M77.011,86.88
					c-1.223,5.353-6.465,9.812-11.875,9.812c-5.294,0-8.581-4.342-7.384-9.574c1.236-5.411,6.511-9.752,11.923-9.752
					C74.848,77.365,78.211,81.647,77.011,86.88 M139.511,91.872c0.709-3.399,8.892-40.819,9.994-45.866l-12.391,1.695l-1.493,6.385
					h4.756l-7.128,32.927l-0.029-0.03c-0.773,3.438-2.251,5.836-3.93,7.385c-0.028,0.023-0.058,0.051-0.087,0.075
					c-0.283,0.257-0.579,0.463-0.872,0.673c-0.441,0.303-0.891,0.572-1.337,0.783c-6.681,2.55-5.003-2.933-5.003-2.933l3.456-15.065
					h3.981l1.554-6.778h-11.357l-1.034,4.519c-1.412-3.447-4.546-5.35-8.647-5.35c-9.275,0-18.404,7.67-20.513,16.887
					c-0.769,3.361-0.481,6.523,0.652,9.164c0.002,0,0.005-0.003,0.006-0.003c-0.001,0.003-0.002,0.004-0.003,0.006
					c-0.001-0.001-0.001-0.002-0.003-0.003c-5.391,2.743-7.972-0.58-6.71-6.144c0.898-3.964,7.134-30.26,8.571-36.326l-11.078,1.516
					l-1.379,5.675h3.51L79.378,75.76c-1.751-3.27-5.24-5.174-9.283-5.174c-8.979,0-17.842,7.553-19.868,16.415
					c-0.625,2.729-0.515,5.339,0.195,7.642c-0.006,0.005-0.011,0.01-0.017,0.014c-2.518,1.037-8.154,2.942-7.128-1.351
					c0.022-0.098,5.487-22.182,5.487-22.182H37.38l-1.517,6.126h4.13l-3.877,15.613c0,0-1.652,1.816-4.66,3.152
					c-0.075,0.025-0.15,0.055-0.225,0.081c-0.154,0.047-0.308,0.094-0.479,0.15c-7.248,2.592-8.972-2.668-8.215-5.722
					c0.758-3.053,3.048-13.275,3.048-13.275h6.216l1.517-6.126h-6.217l2.038-8.665l-6.808,0.931l-2.083,7.734h-6.202l-1.605,6.126
					h5.89c0,0-3.362,13.499-3.381,13.584c0,0-0.002,0-0.004,0.002c-2.235,8.553,5.185,12.654,10.002,12.654
					c2.886,0,8.175-1.213,10.644-5.02c0.028,3.617,4.287,5.02,7.174,5.02c3.884,0,7.462-1.706,10.107-4.42
					c1.468,1.703,3.424,2.957,5.727,3.655c0.826,0.301,1.695,0.509,2.597,0.632c0.015,0.003,0.028,0.006,0.043,0.007
					c0.563,0.076,1.135,0.126,1.721,0.126c4.332,0,10.523-1.956,12.457-5.379c0.889,2.21,2.479,3.758,4.605,4.607
					c1.278,0.512,2.748,0.771,4.375,0.771c0.794,0,1.571-0.077,2.334-0.212c0.003,0,0.007,0,0.011-0.002
					c2.301-0.409,4.436-1.415,6.261-2.846c2.228,2.046,5.284,3.277,8.939,3.277c4.001,0,8.346-1.642,11.446-4.881
					c0.736,2.217,2.729,3.72,5.372,4.336c0.811,0.228,1.736,0.354,2.81,0.323c0.023,0,0.047,0.004,0.072,0.004
					c0.047,0,0.094-0.014,0.143-0.014c4.964-0.195,7.248-1.796,10.326-4.709c0.206-0.187,0.41-0.374,0.612-0.569
					c1.838,3.153,7.887,10.279,19.99-3.526c0.044-0.109,0.074-0.185,0.074-0.185s-5.543,1.609-8.241,1.609
					C141.847,96.097,138.751,95.521,139.511,91.872"/>
				<path clip-path="url(#SVGID_4_)" fill="#333333" d="M179.372,75.496l-0.607,2.659h1.598l0.172-0.755
					c0.44,0.703,1.215,0.996,2.141,0.996c1.72,0,3.517-1.03,3.941-2.886c0.473-2.061-1.18-2.575-2.741-2.953
					c-0.635-0.155-1.434-0.344-1.237-1.203c0.147-0.636,0.821-0.963,1.389-0.963c0.651,0.002,1.054,0.431,0.938,1.082h2.026
					l0.57-2.487h-1.549l-0.145,0.635c-0.366-0.651-1.064-0.824-1.888-0.824c-1.633,0-3.343,1.013-3.741,2.763
					c-0.461,2.012,1.176,2.509,2.681,2.922c0.66,0.188,1.484,0.342,1.275,1.253c-0.157,0.688-0.878,1.135-1.513,1.135
					c-0.859-0.002-1.283-0.55-1.163-1.373H179.372z M174.825,70.752c1.527,0,2.495,1.255,2.146,2.783
					c-0.343,1.496-1.831,2.818-3.374,2.818c-1.583,0-2.554-1.237-2.188-2.836C171.759,71.989,173.295,70.752,174.825,70.752
					 M173.239,65.895h-3.28l-0.446,1.956h1.182l-1.907,8.349h-1.186l-0.446,1.956h3.28l0.313-1.372
					c0.477,0.994,1.509,1.511,2.729,1.511c1.2,0,2.575-0.603,3.586-1.494c1.007-0.874,1.705-2.043,1.977-3.229
					c0.592-2.595-1.05-4.723-3.644-4.723c-1.168,0-2.294,0.498-3.168,1.458L173.239,65.895z M160.523,76.354
					c-1.476,0-2.446-1.237-2.103-2.732c0.354-1.546,1.849-2.835,3.411-2.835c1.511,0,2.485,1.221,2.141,2.731
					C163.616,75.082,162.105,76.354,160.523,76.354 M162.879,78.155h3.279l0.447-1.956h-1.148l1.2-5.257h1.151l0.447-1.956h-3.28
					l-0.298,1.304c-0.407-0.995-1.312-1.545-2.497-1.545c-2.681,0-5.316,2.214-5.925,4.876c-0.595,2.596,0.986,4.775,3.613,4.775
					c1.203,0,2.391-0.464,3.291-1.477L162.879,78.155z M156.666,65.895h-3.279l-0.448,1.956h1.187l-1.91,8.349h-1.271l-0.448,1.956
					h4.552l0.446-1.956h-1.185L156.666,65.895z"/>
			</g>
		</g>
	</g>
	<g>
		<path fill="#66CC00" d="M72.992,127.809h6.983l6.315,13.58l6.315-13.58h6.778l-13.196,26.186L72.992,127.809z"/>
		<path fill="#66CC00" d="M101.412,144.855l5.135-3.004c0.257,0.667,0.591,1.335,1.001,2.002c0.411,0.668,0.941,1.274,1.593,1.823
			c0.633,0.53,1.377,0.967,2.232,1.309c0.822,0.326,1.832,0.488,3.03,0.488c1.935,0,3.466-0.462,4.596-1.387
			c1.129-0.924,1.693-2.183,1.693-3.774c0-0.906-0.184-1.676-0.549-2.31c-0.354-0.599-0.863-1.113-1.53-1.541
			c-0.617-0.394-1.317-0.692-2.105-0.898c-0.736-0.188-1.558-0.282-2.465-0.282h-2.619v-5.776h2.003
			c1.935,0,3.475-0.393,4.621-1.179c1.164-0.803,1.746-2.057,1.746-3.764c0-1.621-0.514-2.92-1.54-3.893
			c-1.027-0.974-2.362-1.46-4.005-1.46c-0.788,0-1.549,0.138-2.285,0.409c-0.651,0.24-1.241,0.573-1.771,1
			c-0.462,0.358-0.898,0.836-1.309,1.434c-0.395,0.562-0.686,1.102-0.873,1.613l-5.469-2.562c0.428-0.995,0.949-1.921,1.565-2.78
			c0.668-0.943,1.48-1.775,2.439-2.496c0.991-0.756,2.121-1.365,3.389-1.827c1.284-0.465,2.747-0.696,4.39-0.696
			c1.626,0,3.184,0.266,4.674,0.799c1.399,0.496,2.636,1.231,3.71,2.208c1.04,0.943,1.865,2.083,2.48,3.42
			c0.613,1.338,0.92,2.793,0.92,4.37c0,1.127-0.138,2.102-0.411,2.921c-0.273,0.855-0.633,1.598-1.078,2.23
			c-0.444,0.668-0.933,1.223-1.463,1.665c-0.496,0.428-1.019,0.812-1.565,1.154c0.684,0.205,1.36,0.548,2.027,1.027
			c0.667,0.479,1.249,1.053,1.745,1.719c0.479,0.651,0.882,1.464,1.207,2.439c0.291,0.873,0.437,1.916,0.437,3.132
			c0,1.678-0.325,3.209-0.976,4.596c-0.633,1.336-1.532,2.482-2.695,3.441c-1.129,0.923-2.482,1.651-4.057,2.182
			c-1.541,0.514-3.2,0.771-4.979,0.771c-1.781,0-3.391-0.249-4.827-0.745c-1.403-0.479-2.645-1.121-3.723-1.926
			c-1.096-0.803-1.994-1.711-2.695-2.721C102.354,146.994,101.805,145.949,101.412,144.855z"/>
	</g>
</g>
</svg>
