<?xml version="1.0" encoding="utf-8"?>
<!-- Generator: Adobe Illustrator 16.0.4, SVG Export Plug-In . SVG Version: 6.00 Build 0)  -->
<!DOCTYPE svg PUBLIC "-//W3C//DTD SVG 1.1//EN" "http://www.w3.org/Graphics/SVG/1.1/DTD/svg11.dtd">
<svg version="1.1" id="Layer_1" xmlns="http://www.w3.org/2000/svg" xmlns:xlink="http://www.w3.org/1999/xlink" x="0px" y="0px"
	 width="1126.523px" height="111.062px" viewBox="0 0 1126.523 111.062" enable-background="new 0 0 1126.523 111.062"
	 xml:space="preserve">
<polygon fill="#66CC00" points="642.137,74.364 672.539,17.754 611.47,17.754 641.873,74.364 "/>
<path fill="#66CC00" d="M769.556,109.483l32.363-0.047c-0.8-0.433-1.384-1.282-1.384-2.203v-70.49H781.66
	c-1.453,0-2.509-1.189-2.509-2.508V19.847c0-0.846,0.437-1.633,1.131-2.092h-10.444c0.694,0.459,1.13,1.246,1.13,2.092v14.389
	c0,1.319-1.056,2.508-2.508,2.508h-36.564v16.368h30.098c1.319,0,2.507,1.188,2.507,2.509v14.387c0,1.453-1.188,2.509-2.507,2.509
	h-30.098v17.821h36.564c1.452,0,2.508,1.187,2.508,2.507v14.389C770.967,108.188,770.411,109.066,769.556,109.483"/>
<path fill="#66CC00" d="M692.78,109.595l20.123-0.029c-0.962-0.373-1.601-1.31-1.601-2.332V19.847c0-0.846,0.437-1.633,1.131-2.093
	H679.41c0.038,0.123,0.069,0.247,0.084,0.377l14.917,88.706C694.624,108.214,693.892,109.239,692.78,109.595"/>
<path fill="#66CC00" d="M638.573,109.609l-22.309-42.77H616l-5.809,40.79c-0.124,0.991-1.067,1.972-2.273,2.089l30.693-0.045
	C638.6,109.651,638.584,109.632,638.573,109.609"/>
<path fill="#66CC00" d="M1013.466,17.754h-49.385c0.698,0.459,1.188,1.247,1.188,2.093v87.386c0,0.774-0.414,1.497-1.021,1.967
	l48.445-0.07c-19.752-5.751-34.096-23.773-34.096-45.458C978.599,41.706,993.318,23.316,1013.466,17.754"/>
<path fill="#66CC00" d="M673.818,107.629l-5.939-40.789h-0.265l-22.177,42.77c-0.009,0.019-0.023,0.036-0.034,0.055l30.242-0.044
	C674.719,109.322,673.924,108.481,673.818,107.629"/>
<path fill="#66CC00" d="M1039.824,17.754c6.861,1.92,12.772,5.433,18.374,10.541c1.188,1.056,1.188,2.64,0.132,3.696l-10.297,10.693
	c-0.924,0.924-2.376,0.924-3.3,0c-4.884-4.357-11.352-6.733-17.82-6.733c-14.917,0-25.873,12.408-25.873,27.192
	c0,14.652,11.09,26.798,26.006,26.798c6.203,0,12.936-2.245,17.688-6.336c0.924-0.792,2.641-0.792,3.433,0.131l10.296,10.956
	c0.925,0.925,0.793,2.641-0.132,3.564c-5.42,5.261-11.71,8.826-18.428,10.833l30.904-0.044V17.754H1039.824z"/>
<path fill="#66CC00" d="M855.973,107.233V19.847c0-0.846,0.438-1.633,1.131-2.092h-15.458c0.693,0.459,1.13,1.246,1.13,2.092v14.389
	c0,1.319-1.056,2.508-2.508,2.508h-18.877v70.49c0,0.903-0.562,1.735-1.337,2.176l37.104-0.053
	C856.434,108.901,855.973,108.1,855.973,107.233"/>
<path fill="#66CC00" d="M924.62,109.258l20.848-0.03c-0.623-0.47-1.054-1.205-1.054-1.993V19.847c0-0.846,0.49-1.633,1.188-2.093
	h-42.801c13.548,2.297,23.926,14.028,23.926,28.098c0,12.144-8.053,21.912-19.537,26.532l18.085,33.529
	C925.932,107.133,925.641,108.539,924.62,109.258"/>
<path fill="#66CC00" d="M903.362,108.553l-17.556-34.979h-9.108v33.66c0,0.848-0.493,1.637-1.193,2.096l28.539-0.041
	C903.722,109.065,903.484,108.797,903.362,108.553"/>
<path fill="#66CC00" d="M896.234,56.808c5.412,0,10.032-5.016,10.032-10.561c0-5.543-4.62-10.032-10.032-10.032h-19.536v20.593
	H896.234z"/>
<path fill="#F5F5F5" d="M47.653,16.019c13.2,0,22.969,4.092,31.945,12.276c1.188,1.056,1.188,2.64,0.132,3.697L69.433,42.684
	c-0.924,0.924-2.376,0.924-3.3,0c-4.883-4.356-11.352-6.732-17.82-6.732c-14.916,0-25.873,12.408-25.873,27.192
	c0,14.652,11.089,26.797,26.005,26.797c6.204,0,12.937-2.244,17.688-6.336c0.924-0.792,2.641-0.792,3.433,0.132l10.296,10.956
	c0.924,0.925,0.792,2.641-0.132,3.564c-8.976,8.712-20.329,12.805-32.077,12.805C21.253,111.062,0,90.072,0,63.672
	S21.253,16.019,47.653,16.019"/>
<path fill="#F5F5F5" d="M130.548,16.019c26.4,0,47.521,21.253,47.521,47.653s-21.121,47.39-47.521,47.39
	c-26.401,0-47.39-20.989-47.39-47.39S104.146,16.019,130.548,16.019 M130.548,89.94c14.521,0,26.4-11.88,26.4-26.269
	c0-14.521-11.879-26.533-26.4-26.533c-14.389,0-26.269,12.013-26.269,26.533C104.279,78.061,116.159,89.94,130.548,89.94"/>
<path fill="#F5F5F5" d="M188.625,18.395c0-1.32,1.187-2.376,2.508-2.376h3.3l52.67,50.689h0.131V19.847
	c0-1.32,1.056-2.508,2.508-2.508h15.841c1.32,0,2.508,1.188,2.508,2.508v88.839c0,1.319-1.188,2.376-2.508,2.376h-2.112
	c-0.396,0-1.452-0.396-1.716-0.66l-52.142-52.404h-0.132v49.236c0,1.319-1.056,2.508-2.507,2.508h-15.709
	c-1.321,0-2.508-1.188-2.508-2.508L188.625,18.395z"/>
<path fill="#F5F5F5" d="M302.673,36.743h-18.876c-1.452,0-2.509-1.188-2.509-2.508V19.847c0-1.321,1.057-2.508,2.509-2.508h58.609
	c1.453,0,2.508,1.187,2.508,2.508v14.388c0,1.32-1.055,2.508-2.508,2.508h-18.877v70.49c0,1.32-1.187,2.508-2.507,2.508h-15.84
	c-1.321,0-2.509-1.188-2.509-2.508V36.743z"/>
<path fill="#F5F5F5" d="M358.111,19.847c0-1.32,1.056-2.508,2.508-2.508h54.649c1.452,0,2.508,1.188,2.508,2.508v14.389
	c0,1.319-1.056,2.507-2.508,2.507h-36.564v16.369H408.8c1.32,0,2.508,1.188,2.508,2.508v14.388c0,1.452-1.188,2.509-2.508,2.509
	h-30.096v17.82h36.564c1.452,0,2.508,1.188,2.508,2.508v14.389c0,1.319-1.056,2.509-2.508,2.509h-54.649
	c-1.452,0-2.508-1.189-2.508-2.509V19.847z"/>
<path fill="#F5F5F5" d="M435.332,18.395c0-1.32,1.187-2.376,2.508-2.376h3.3l52.67,50.689h0.131V19.847
	c0-1.32,1.056-2.508,2.508-2.508h15.841c1.32,0,2.508,1.188,2.508,2.508v88.839c0,1.319-1.188,2.376-2.508,2.376h-2.112
	c-0.396,0-1.452-0.396-1.716-0.66L456.32,57.997h-0.132v49.236c0,1.319-1.056,2.508-2.507,2.508h-15.709
	c-1.321,0-2.508-1.188-2.508-2.508L435.332,18.395z"/>
<path fill="#F5F5F5" d="M549.378,36.743h-18.876c-1.452,0-2.509-1.188-2.509-2.508V19.847c0-1.321,1.057-2.508,2.509-2.508h58.609
	c1.453,0,2.508,1.187,2.508,2.508v14.388c0,1.32-1.055,2.508-2.508,2.508h-18.877v70.49c0,1.32-1.188,2.508-2.507,2.508h-15.841
	c-1.32,0-2.509-1.188-2.509-2.508V36.743z"/>
<path fill="#66CC00" d="M1107.817,0c10.289,0,18.706,8.418,18.706,18.706c0,10.289-8.417,18.652-18.706,18.652
	c-10.286,0-18.651-8.363-18.651-18.652C1089.166,8.418,1097.531,0,1107.817,0 M1107.817,34.241c8.626,0,15.537-6.96,15.537-15.535
	c0-8.626-6.911-15.534-15.537-15.534c-8.574,0-15.535,6.908-15.535,15.534C1092.282,27.281,1099.243,34.241,1107.817,34.241
	 M1101.322,10.133c0-0.519,0.418-0.988,0.988-0.988h7.378c3.221,0,6.391,1.923,6.391,5.819c0,3.899-2.752,5.301-4.209,5.666
	c1.039,2.025,2.08,4.104,3.119,6.129c0.362,0.623-0.155,1.402-0.884,1.402h-1.767c-0.417,0-0.779-0.414-0.936-0.727l-2.91-6.494
	h-3.845v6.236c0,0.519-0.417,0.985-0.987,0.985h-1.351c-0.57,0-0.988-0.466-0.988-0.985V10.133z M1109.688,17.927
	c1.923,0,3.116-1.353,3.116-2.963c0-1.767-1.193-2.96-3.116-2.96h-5.093v5.923H1109.688z"/>
</svg>
