<svg xmlns="http://www.w3.org/2000/svg" width="1126.523" height="111.062"><path fill="#6c0" d="M642.14 74.36l30.4-56.6h-61.07l30.4 56.6zM769.56 109.48l32.36-.04c-.8-.44-1.38-1.3-1.38-2.2v-70.5h-18.88c-1.45 0-2.5-1.2-2.5-2.5v-14.4c0-.84.43-1.63 1.12-2.08h-10.44c.7.45 1.13 1.24 1.13 2.1v14.38c0 1.32-1.06 2.5-2.5 2.5H731.9V53.1H762c1.3 0 2.5 1.2 2.5 2.52v14.4c0 1.44-1.2 2.5-2.5 2.5h-30.1v17.82h36.56c1.45 0 2.5 1.2 2.5 2.5v14.4c0 .95-.55 1.83-1.4 2.24M692.78 109.6l20.12-.03c-.96-.38-1.6-1.3-1.6-2.34V19.85c0-.85.44-1.64 1.13-2.1H679.4c.05.13.08.25.1.38l14.9 88.7c.22 1.38-.5 2.4-1.62 2.77M638.57 109.6l-22.3-42.76H616l-5.8 40.8c-.13.98-1.08 1.96-2.28 2.08l30.7-.05c-.02-.02-.04-.04-.05-.06M1013.47 17.75h-49.4c.7.46 1.2 1.25 1.2 2.1v87.38c0 .78-.4 1.5-1.02 1.97l48.44-.07c-19.76-5.75-34.1-23.77-34.1-45.46 0-21.96 14.72-40.35 34.87-45.92M673.82 107.63l-5.94-40.8h-.27l-22.16 42.78c0 .03-.03.05-.04.07l30.25-.05c-.93-.3-1.73-1.14-1.83-2"/><path fill="#6c0" d="M1039.82 17.75c6.87 1.92 12.78 5.44 18.38 10.55 1.2 1.05 1.2 2.64.13 3.7l-10.3 10.68c-.92.93-2.37.93-3.3 0-4.88-4.35-11.35-6.73-17.82-6.73-14.9 0-25.86 12.4-25.86 27.2 0 14.65 11.1 26.8 26 26.8 6.2 0 12.94-2.25 17.7-6.35.92-.8 2.64-.8 3.43.14l10.3 10.95c.92.92.8 2.63-.14 3.56-5.42 5.26-11.7 8.82-18.43 10.83l30.9-.05v-91.3h-30.98zM855.97 107.23V19.85c0-.85.44-1.64 1.13-2.1h-15.45c.7.46 1.13 1.25 1.13 2.1v14.4c0 1.3-1.06 2.5-2.5 2.5h-18.9v70.48c0 .9-.55 1.74-1.33 2.18l37.1-.04c-.72-.46-1.18-1.26-1.18-2.13M924.62 109.26l20.85-.03c-.63-.47-1.06-1.2-1.06-2V19.86c0-.85.5-1.64 1.2-2.1h-42.8c13.55 2.3 23.93 14.03 23.93 28.1 0 12.15-8.06 21.9-19.54 26.53l18.07 33.53c.66 1.23.37 2.64-.65 3.36M903.36 108.55L885.8 73.57h-9.1v33.66c0 .85-.5 1.64-1.2 2.1l28.54-.04c-.32-.23-.56-.5-.68-.75"/><path fill="#6c0" d="M896.23 56.8c5.42 0 10.04-5 10.04-10.55 0-5.55-4.62-10.04-10.04-10.04H876.7v20.6h19.53z"/><path fill="#F5F5F5" d="M47.65 16.02c13.2 0 22.97 4.1 31.95 12.27 1.2 1.05 1.2 2.63.13 3.7l-10.3 10.68c-.92.93-2.37.93-3.3 0-4.88-4.35-11.35-6.73-17.82-6.73-14.9 0-25.86 12.4-25.86 27.2 0 14.65 11.1 26.8 26 26.8 6.2 0 12.94-2.25 17.7-6.35.92-.8 2.63-.8 3.43.14l10.3 10.95c.92.92.78 2.63-.14 3.56-8.98 8.7-20.33 12.8-32.08 12.8-26.4 0-47.65-21-47.65-47.4s21.25-47.64 47.65-47.64M130.55 16.02c26.4 0 47.52 21.25 47.52 47.65s-21.12 47.4-47.52 47.4c-26.4 0-47.4-21-47.4-47.4s21-47.65 47.4-47.65m0 73.92c14.52 0 26.4-11.88 26.4-26.27 0-14.52-11.88-26.53-26.4-26.53-14.4 0-26.27 12-26.27 26.53 0 14.4 11.88 26.27 26.27 26.27"/><path fill="#F5F5F5" d="M188.63 18.4c0-1.32 1.18-2.38 2.5-2.38h3.3l52.67 50.7h.13V19.84c0-1.32 1.06-2.5 2.5-2.5h15.85c1.32 0 2.5 1.18 2.5 2.5v88.84c0 1.3-1.18 2.36-2.5 2.36h-2.1c-.4 0-1.46-.4-1.73-.66L209.62 58h-.12v49.23c0 1.32-1.05 2.5-2.5 2.5h-15.71c-1.33 0-2.5-1.18-2.5-2.5l-.15-88.84zM302.67 36.74H283.8c-1.45 0-2.5-1.18-2.5-2.5v-14.4c0-1.3 1.04-2.5 2.5-2.5h58.6c1.46 0 2.5 1.2 2.5 2.5v14.4c0 1.3-1.04 2.5-2.5 2.5h-18.87v70.5c0 1.3-1.2 2.5-2.5 2.5h-15.85c-1.32 0-2.5-1.2-2.5-2.5v-70.5zM358.1 19.85c0-1.32 1.07-2.5 2.52-2.5h54.65c1.45 0 2.5 1.18 2.5 2.5v14.4c0 1.3-1.05 2.5-2.5 2.5H378.7V53.1h30.1c1.32 0 2.5 1.2 2.5 2.52v14.4c0 1.44-1.18 2.5-2.5 2.5h-30.1v17.82h36.57c1.45 0 2.5 1.2 2.5 2.5v14.4c0 1.3-1.05 2.5-2.5 2.5h-54.65c-1.45 0-2.5-1.2-2.5-2.5v-87.4zM435.33 18.4c0-1.32 1.2-2.38 2.5-2.38h3.3l52.68 50.7h.14V19.84c0-1.32 1.06-2.5 2.5-2.5h15.85c1.3 0 2.5 1.18 2.5 2.5v88.84c0 1.3-1.2 2.36-2.5 2.36h-2.12c-.4 0-1.45-.4-1.72-.66L456.32 58h-.13v49.23c0 1.32-1.07 2.5-2.52 2.5h-15.7c-1.33 0-2.52-1.18-2.52-2.5l-.13-88.84zM549.38 36.74H530.5c-1.45 0-2.5-1.18-2.5-2.5v-14.4c0-1.3 1.05-2.5 2.5-2.5h58.6c1.46 0 2.52 1.2 2.52 2.5v14.4c0 1.3-1.06 2.5-2.5 2.5h-18.9v70.5c0 1.3-1.17 2.5-2.5 2.5H551.9c-1.33 0-2.52-1.2-2.52-2.5v-70.5z"/><path fill="#6c0" d="M1107.82 0c10.3 0 18.7 8.42 18.7 18.7 0 10.3-8.4 18.66-18.7 18.66-10.3 0-18.65-8.36-18.65-18.65 0-10.28 8.36-18.7 18.65-18.7m0 34.24c8.62 0 15.53-6.96 15.53-15.53 0-8.62-6.9-15.53-15.53-15.53-8.58 0-15.54 6.9-15.54 15.54 0 8.58 6.96 15.54 15.54 15.54m-6.5-24.1c0-.53.42-1 1-1h7.37c3.2 0 6.38 1.93 6.38 5.82 0 3.9-2.75 5.3-4.2 5.67 1.03 2.02 2.07 4.1 3.1 6.13.37.62-.15 1.4-.88 1.4h-1.76c-.42 0-.78-.4-.94-.73l-2.9-6.5h-3.85v6.25c0 .52-.42.98-1 .98h-1.34c-.56 0-.98-.46-.98-.98V10.13zm8.37 7.8c1.9 0 3.1-1.37 3.1-2.98 0-1.76-1.2-2.96-3.1-2.96h-5.1v5.93h5.1z"/></svg>