<svg xmlns="http://www.w3.org/2000/svg" width="1332.866" height="111.868"><path fill="#6c0" d="M716.03 110.23h40.78c-19.67-5.84-33.93-23.85-33.93-45.5 0-21.66 14.27-39.85 33.97-45.74h-41.8c.83.72 1.03 1.9.28 3l-26.86 41.4 27.78 43.8c.75 1.16.56 2.33-.2 3.03M784.4 110.23h35.12c-.52-.47-.86-1.13-.86-1.84V20.8c0-.7.33-1.34.84-1.8h-34.45c6.52 1.96 12.2 5.37 17.6 10.28 1.18 1.05 1.18 2.64.13 3.7L792.46 43.7c-.93.92-2.4.92-3.3 0-4.9-4.37-11.4-6.75-17.87-6.75-14.96 0-25.94 12.44-25.94 27.25 0 14.7 11.1 26.86 26.06 26.86 6.22 0 12.97-2.25 17.73-6.35.92-.78 2.65-.78 3.44.14l10.3 10.98c.93.93.8 2.65-.13 3.58-5.4 5.25-11.68 8.8-18.38 10.83M693.5 109.72L676.14 83h-.26l-16.94 26.72c-.13.16-.3.34-.5.5h35.5c-.2-.15-.36-.32-.47-.5M877.27 108.4V73.6h-37.84v34.8c0 .7-.3 1.36-.8 1.83h39.45c-.5-.47-.8-1.13-.8-1.84"/><path fill="#6c0" d="M877.27 54.15V20.8c0-.7.3-1.34.8-1.8h-39.43c.5.46.8 1.1.8 1.8v33.35h37.83zM1204.35 19h-40.05c7.06 2.03 13.92 5.67 19.53 10.54 1.2.93 1.33 2.52.27 3.57l-10.45 11.13c-1.06.92-2.52.92-3.58.13-5.02-4.63-10.84-6.35-17.33-6.35-14.42 0-26.06 12.18-26.06 26.73 0 14.43 11.77 26.33 26.2 26.33 3.83 0 7.8-.53 11.77-2.1v-7.7h-8.34c-1.44 0-2.5-1.05-2.5-2.37V65.8c0-1.46 1.06-2.52 2.5-2.52h26.6c1.33 0 2.4 1.2 2.4 2.5l.12 35.6c0 .66-.53 1.72-1.06 2.12 0 0-6.7 4.2-17.26 6.73h37.26c-.5-.47-.8-1.13-.8-1.84V20.8c0-.7.3-1.34.8-1.8"/><path fill="#6c0" d="M676.02 44.1h.14l15.47-24.6c.1-.18.24-.35.43-.5h-31.73c.2.15.36.32.48.5l15.22 24.6zM625.73 110.23h10.63c-.84-.73-1.05-1.93-.3-3.03l27.8-43.8L637.12 22c-.68-1.1-.5-2.28.3-3h-11.68c.5.46.8 1.1.8 1.8v14.43c0 1.32-1.07 2.52-2.53 2.52h-36.65v16.4h30.17c1.32 0 2.5 1.2 2.5 2.5V71.1c0 1.46-1.18 2.52-2.5 2.52h-30.17v17.86h36.65c1.46 0 2.52 1.2 2.52 2.5v14.43c0 .7-.3 1.36-.8 1.83"/><path fill="#6c0" d="M1029.3 59.04h-.14v49.35c0 .7-.3 1.36-.8 1.83h51.86l-50.92-51.2zM1087.86 110.23h50.38c-19.8-5.67-34.18-23.7-34.18-45.5s14.4-40.02 34.2-45.74h-51.2c.5.46.85 1.1.85 1.8v89.05c0 .13-.02.26-.04.38"/><path fill="#6c0" d="M1262.56 19c.5.46.8 1.1.8 1.8v14.43c0 1.32-1.06 2.5-2.52 2.5h-36.65v16.42h30.16c1.32 0 2.5 1.2 2.5 2.5V71.1c0 1.46-1.18 2.52-2.5 2.52h-30.17v17.86h36.64c1.46 0 2.52 1.2 2.52 2.5v14.43c0 .7-.3 1.36-.8 1.83h17.04V19h-17.04zM1067 67.78V20.8c0-.7.3-1.34.8-1.8h-51.63l50.7 48.78h.13zM897.18 110.23h12.14c-.7-.66-.9-1.7-.42-2.76L950.05 19H897.2c.5.46.84 1.1.84 1.8v87.6c0 .7-.34 1.36-.86 1.83"/><path fill="#6c0" d="M963.27 79.16l-10.05-21.83h-.14l-9.92 21.83zM975.97 107.6l-4.76-10.45h-35.98l-4.76 10.58c-.4.95-1.08 1.9-2.13 2.5h49.57c-.74-.5-1.32-1.34-1.93-2.63"/><path fill="#6c0" d="M1009.25 110.23c-.52-.47-.86-1.13-.86-1.84l-.14-89.05c0-.12.02-.24.04-.36h-51.9l41.14 88.47c.48 1.05.27 2.1-.42 2.76h12.13z"/><path fill="#F5F5F5" d="M46.72 18.68c12.95 0 22.52 4 31.32 12.04 1.17 1.03 1.17 2.6.14 3.62l-10.1 10.48c-.9.9-2.33.9-3.24 0-4.8-4.27-11.13-6.6-17.47-6.6C32.75 38.22 22 50.4 22 64.9c0 14.35 10.87 26.26 25.5 26.26 6.08 0 12.7-2.2 17.34-6.2.9-.8 2.6-.8 3.37.12l10.1 10.74c.9.9.78 2.6-.12 3.5-8.8 8.54-19.94 12.55-31.46 12.55C20.84 111.87 0 91.3 0 65.4c0-25.88 20.84-46.72 46.72-46.72"/><path fill="#F5F5F5" d="M93.7 22.43c0-1.3 1.04-2.45 2.47-2.45h38.7c15.53 0 28.2 12.55 28.2 27.95 0 11.9-7.88 21.5-19.14 26l17.73 32.9c.9 1.67 0 3.74-2.2 3.74h-17.2c-1.05 0-1.83-.64-2.1-1.16l-17.2-34.3h-8.93v33.02c0 1.3-1.17 2.45-2.46 2.45h-15.4c-1.43 0-2.46-1.16-2.46-2.45v-85.7zm39.48 36.24c5.3 0 9.84-4.92 9.84-10.35 0-5.44-4.53-9.84-9.84-9.84h-19.15v20.2h19.15zM180.43 22.43c0-1.3 1.03-2.45 2.46-2.45h53.57c1.43 0 2.46 1.16 2.46 2.45v14.1c0 1.3-1.04 2.47-2.46 2.47h-35.85v16.05h29.5c1.3 0 2.47 1.16 2.47 2.46v14.12c0 1.42-1.18 2.46-2.47 2.46h-29.5v17.47h35.84c1.43 0 2.46 1.16 2.46 2.46v14.1c0 1.3-1.04 2.47-2.46 2.47H182.9c-1.44 0-2.47-1.16-2.47-2.45V22.4zM244.63 107.2l40.5-87.1c.4-.77 1.3-1.42 2.2-1.42h1.3c.9 0 1.82.65 2.2 1.42l40.52 87.1c.77 1.7-.26 3.37-2.2 3.37h-14.37c-2.33 0-3.37-.77-4.53-3.23L305.6 97.1h-35.22l-4.65 10.37c-.65 1.55-2.07 3.1-4.66 3.1h-14.24c-1.94 0-2.98-1.68-2.2-3.36m53.2-27.7l-9.84-21.34h-.14l-9.7 21.35h19.66zM348.95 39h-18.5c-1.43 0-2.47-1.17-2.47-2.46v-14.1c0-1.3 1.04-2.46 2.46-2.46h57.47c1.43 0 2.47 1.16 2.47 2.45v14.1c0 1.3-1.04 2.47-2.46 2.47h-18.5v69.12c0 1.3-1.17 2.45-2.46 2.45H351.4c-1.28 0-2.45-1.16-2.45-2.45V39zM439.08 18.68c25.9 0 46.6 20.84 46.6 46.72 0 25.9-20.7 46.47-46.6 46.47-25.9 0-46.47-20.58-46.47-46.47 0-25.88 20.6-46.72 46.48-46.72m0 72.48c14.24 0 25.9-11.65 25.9-25.76 0-14.23-11.66-26-25.9-26-14.1 0-25.76 11.77-25.76 26 0 14.1 11.65 25.76 25.76 25.76"/><path fill="#F5F5F5" d="M497.04 22.43c0-1.3 1.04-2.45 2.46-2.45h38.7c15.53 0 28.22 12.55 28.22 27.95 0 11.9-7.9 21.5-19.16 26l17.73 32.9c.9 1.67 0 3.74-2.2 3.74h-17.22c-1.04 0-1.8-.64-2.07-1.16l-17.2-34.3h-8.94v33.02c0 1.3-1.16 2.45-2.45 2.45h-15.4c-1.42 0-2.46-1.16-2.46-2.45v-85.7zm39.48 36.24c5.3 0 9.84-4.92 9.84-10.35 0-5.44-4.53-9.84-9.84-9.84h-19.16v20.2h19.16z"/><path fill="#6c0" d="M1314.16 0c10.3 0 18.7 8.42 18.7 18.7 0 10.3-8.4 18.66-18.7 18.66-10.3 0-18.65-8.36-18.65-18.65 0-10.28 8.37-18.7 18.66-18.7m0 34.24c8.63 0 15.54-6.96 15.54-15.53 0-8.62-6.9-15.53-15.54-15.53-8.57 0-15.53 6.9-15.53 15.54 0 8.58 6.95 15.54 15.53 15.54m-6.5-24.1c0-.53.42-1 1-1h7.37c3.22 0 6.4 1.93 6.4 5.82 0 3.9-2.76 5.3-4.22 5.67 1.05 2.03 2.1 4.1 3.13 6.13.36.62-.16 1.4-.88 1.4h-1.77c-.42 0-.78-.4-.94-.73l-2.9-6.5h-3.85v6.25c0 .52-.43.98-1 .98h-1.35c-.57 0-1-.46-1-.98V10.13zm8.37 7.8c1.92 0 3.12-1.37 3.12-2.98 0-1.76-1.2-2.96-3.12-2.96h-5.1v5.93h5.1z"/></svg>