<?xml version="1.0" encoding="utf-8"?>
<!-- Generator: Adobe Illustrator 16.0.4, SVG Export Plug-In . SVG Version: 6.00 Build 0)  -->
<!DOCTYPE svg PUBLIC "-//W3C//DTD SVG 1.1//EN" "http://www.w3.org/Graphics/SVG/1.1/DTD/svg11.dtd">
<svg version="1.1" id="Layer_1" xmlns="http://www.w3.org/2000/svg" xmlns:xlink="http://www.w3.org/1999/xlink" x="0px" y="0px"
	 width="1332.866px" height="111.868px" viewBox="0 0 1332.866 111.868" enable-background="new 0 0 1332.866 111.868"
	 xml:space="preserve">
<path fill="#66CC00" d="M716.03,110.23h40.777c-19.679-5.836-33.942-23.847-33.942-45.496c0-21.661,14.277-39.856,33.972-45.746
	h-41.793c0.821,0.73,1.027,1.923,0.273,3.013l-26.857,41.41l27.783,43.792C716.989,108.365,716.797,109.525,716.03,110.23"/>
<path fill="#66CC00" d="M784.387,110.23h35.132c-0.517-0.47-0.859-1.131-0.859-1.837V20.81c0-0.698,0.335-1.353,0.842-1.822h-34.452
	c6.521,1.971,12.21,5.38,17.595,10.29c1.189,1.056,1.189,2.645,0.131,3.704l-10.319,10.716c-0.926,0.927-2.382,0.927-3.308,0
	c-4.895-4.366-11.378-6.748-17.86-6.748c-14.95,0-25.932,12.437-25.932,27.255c0,14.686,11.114,26.856,26.064,26.856
	c6.219,0,12.965-2.248,17.728-6.351c0.926-0.794,2.647-0.794,3.44,0.133l10.319,10.981c0.926,0.926,0.793,2.646-0.133,3.571
	C797.364,104.648,791.089,108.211,784.387,110.23"/>
<path fill="#66CC00" d="M693.487,109.717L676.155,82.99h-0.264l-16.935,26.728c-0.127,0.167-0.306,0.343-0.508,0.513h35.517
	C693.769,110.072,693.597,109.903,693.487,109.717"/>
<path fill="#66CC00" d="M877.268,108.393V73.597h-37.837v34.796c0,0.706-0.309,1.367-0.81,1.837h39.455
	C877.575,109.76,877.268,109.099,877.268,108.393"/>
<path fill="#66CC00" d="M877.268,54.15V20.81c0-0.698,0.3-1.353,0.792-1.822h-39.421c0.491,0.469,0.792,1.124,0.792,1.822v33.34
	H877.268z"/>
<path fill="#66CC00" d="M1204.345,18.988h-40.048c7.062,2.045,13.918,5.681,19.536,10.554c1.191,0.925,1.322,2.514,0.266,3.571
	l-10.453,11.114c-1.059,0.927-2.514,0.927-3.572,0.132c-5.027-4.631-10.848-6.35-17.332-6.35c-14.42,0-26.062,12.171-26.062,26.725
	c0,14.422,11.774,26.327,26.194,26.327c3.837,0,7.808-0.529,11.775-2.115v-7.675h-8.335c-1.455,0-2.514-1.059-2.514-2.381V65.792
	c0-1.455,1.059-2.515,2.514-2.515h26.592c1.323,0,2.382,1.19,2.382,2.515l0.133,35.588c0,0.663-0.529,1.722-1.059,2.118
	c0,0-6.688,4.203-17.265,6.731h37.265c-0.502-0.471-0.809-1.131-0.809-1.837V20.81C1203.554,20.112,1203.854,19.457,1204.345,18.988
	"/>
<path fill="#66CC00" d="M676.022,44.094h0.133l15.479-24.608c0.081-0.163,0.239-0.333,0.427-0.498h-31.734
	c0.19,0.165,0.36,0.335,0.482,0.498L676.022,44.094z"/>
<path fill="#66CC00" d="M625.727,110.23h10.634c-0.837-0.729-1.054-1.93-0.293-3.027l27.783-43.792l-26.725-41.41
	c-0.671-1.09-0.487-2.283,0.307-3.013h-11.688c0.491,0.469,0.791,1.124,0.791,1.822v14.421c0,1.322-1.059,2.514-2.514,2.514h-36.648
	V54.15h30.165c1.323,0,2.513,1.19,2.513,2.513v14.42c0,1.457-1.19,2.514-2.513,2.514h-30.165v17.861h36.648
	c1.455,0,2.514,1.191,2.514,2.514v14.421C626.536,109.099,626.228,109.76,625.727,110.23"/>
<path fill="#66CC00" d="M1029.295,59.044h-0.131v49.349c0,0.706-0.308,1.367-0.81,1.837h51.866L1029.295,59.044z"/>
<path fill="#66CC00" d="M1087.863,110.23h50.373c-19.796-5.667-34.18-23.688-34.18-45.496c0-21.817,14.394-40.023,34.2-45.746
	h-51.194c0.508,0.469,0.844,1.124,0.844,1.822v89.038C1087.906,109.979,1087.884,110.105,1087.863,110.23"/>
<path fill="#66CC00" d="M1262.564,18.988c0.49,0.469,0.791,1.124,0.791,1.822V35.23c0,1.322-1.059,2.514-2.516,2.514h-36.646V54.15
	h30.164c1.323,0,2.513,1.191,2.513,2.513v14.422c0,1.456-1.189,2.513-2.513,2.513h-30.164v17.861h36.646
	c1.457,0,2.516,1.191,2.516,2.514v14.421c0,0.706-0.309,1.366-0.809,1.837h17.053V18.988H1262.564z"/>
<path fill="#66CC00" d="M1067.001,67.777V20.81c0-0.698,0.3-1.353,0.792-1.822h-51.618l50.695,48.789H1067.001z"/>
<path fill="#66CC00" d="M897.179,110.23h12.137c-0.691-0.658-0.908-1.709-0.42-2.764l41.149-88.479h-52.849
	c0.507,0.469,0.843,1.124,0.843,1.822v87.583C898.04,109.099,897.696,109.76,897.179,110.23"/>
<polygon fill="#66CC00" points="963.273,79.156 953.217,57.325 953.084,57.325 943.162,79.156 "/>
<path fill="#66CC00" d="M975.974,107.599l-4.764-10.452h-35.986l-4.764,10.585c-0.395,0.947-1.08,1.888-2.125,2.498h49.563
	C977.161,109.72,976.583,108.889,975.974,107.599"/>
<path fill="#66CC00" d="M1009.252,110.23c-0.517-0.47-0.859-1.131-0.859-1.837l-0.133-89.038c0-0.126,0.02-0.246,0.04-0.367h-51.913
	l41.151,88.479c0.484,1.055,0.271,2.105-0.421,2.764H1009.252z"/>
<path fill="#F5F5F5" d="M46.724,18.679c12.943,0,22.521,4.014,31.321,12.038c1.165,1.036,1.165,2.589,0.131,3.623L68.079,44.825
	c-0.906,0.906-2.328,0.906-3.234,0c-4.79-4.272-11.131-6.602-17.475-6.602c-14.624,0-25.366,12.168-25.366,26.664
	c0,14.365,10.87,26.271,25.497,26.271c6.082,0,12.685-2.198,17.344-6.212c0.906-0.775,2.587-0.775,3.364,0.13L78.305,95.82
	c0.905,0.905,0.777,2.588-0.129,3.494c-8.802,8.543-19.932,12.553-31.452,12.553C20.839,111.867,0,91.29,0,65.404
	C0,39.519,20.839,18.679,46.724,18.679"/>
<path fill="#F5F5F5" d="M93.708,22.434c0-1.294,1.036-2.459,2.459-2.459h38.7c15.53,0,28.214,12.553,28.214,27.956
	c0,11.908-7.895,21.485-19.156,26.014l17.733,32.875c0.905,1.684,0,3.755-2.201,3.755h-17.212c-1.038,0-1.813-0.647-2.072-1.165
	l-17.214-34.299h-8.931v33.005c0,1.294-1.165,2.459-2.459,2.459H96.167c-1.423,0-2.459-1.165-2.459-2.459V22.434z M133.183,58.674
	c5.308,0,9.837-4.919,9.837-10.354c0-5.437-4.529-9.838-9.837-9.838h-19.155v20.192H133.183z"/>
<path fill="#F5F5F5" d="M180.43,22.434c0-1.294,1.034-2.459,2.458-2.459h53.583c1.424,0,2.458,1.165,2.458,2.459v14.108
	c0,1.293-1.034,2.458-2.458,2.458h-35.852v16.049h29.511c1.293,0,2.458,1.165,2.458,2.46v14.106c0,1.423-1.165,2.461-2.458,2.461
	h-29.511v17.473h35.852c1.424,0,2.458,1.165,2.458,2.458v14.108c0,1.294-1.034,2.459-2.458,2.459h-53.583
	c-1.424,0-2.458-1.165-2.458-2.459V22.434z"/>
<path fill="#F5F5F5" d="M244.629,107.21l40.51-87.106c0.388-0.776,1.296-1.425,2.202-1.425h1.294c0.906,0,1.811,0.649,2.199,1.425
	l40.511,87.106c0.778,1.681-0.259,3.363-2.2,3.363h-14.367c-2.328,0-3.364-0.776-4.529-3.235l-4.66-10.224h-35.204l-4.659,10.353
	c-0.648,1.555-2.07,3.106-4.659,3.106H246.83C244.887,110.574,243.853,108.891,244.629,107.21 M297.824,79.511l-9.836-21.354h-0.131
	l-9.705,21.354H297.824z"/>
<path fill="#F5F5F5" d="M348.95,39h-18.509c-1.422,0-2.458-1.165-2.458-2.458V22.435c0-1.294,1.036-2.459,2.458-2.459h57.468
	c1.422,0,2.458,1.165,2.458,2.459v14.108c0,1.293-1.036,2.458-2.458,2.458H369.4v69.115c0,1.294-1.165,2.459-2.459,2.459h-15.532
	c-1.294,0-2.459-1.165-2.459-2.459V39z"/>
<path fill="#F5F5F5" d="M439.079,18.68c25.887,0,46.595,20.839,46.595,46.724c0,25.886-20.708,46.464-46.595,46.464
	c-25.885,0-46.465-20.578-46.465-46.464C392.614,39.519,413.193,18.68,439.079,18.68 M439.079,91.16
	c14.238,0,25.887-11.648,25.887-25.756c0-14.237-11.649-26.015-25.887-26.015c-14.106,0-25.757,11.778-25.757,26.015
	C413.322,79.511,424.973,91.16,439.079,91.16"/>
<path fill="#F5F5F5" d="M497.044,22.434c0-1.294,1.035-2.459,2.459-2.459h38.7c15.53,0,28.213,12.553,28.213,27.956
	c0,11.908-7.895,21.485-19.155,26.014l17.732,32.875c0.906,1.684,0,3.755-2.2,3.755H545.58c-1.037,0-1.812-0.647-2.071-1.165
	l-17.214-34.299h-8.932v33.005c0,1.294-1.164,2.459-2.458,2.459h-15.402c-1.424,0-2.459-1.165-2.459-2.459V22.434z M536.519,58.674
	c5.307,0,9.836-4.919,9.836-10.354c0-5.437-4.529-9.838-9.836-9.838h-19.156v20.192H536.519z"/>
<path fill="#66CC00" d="M1314.159,0c10.289,0,18.707,8.418,18.707,18.707c0,10.288-8.418,18.652-18.707,18.652
	c-10.286,0-18.651-8.364-18.651-18.652C1295.507,8.418,1303.873,0,1314.159,0 M1314.159,34.241c8.626,0,15.538-6.96,15.538-15.534
	c0-8.627-6.912-15.535-15.538-15.535c-8.574,0-15.534,6.908-15.534,15.535C1298.625,27.281,1305.584,34.241,1314.159,34.241
	 M1307.665,10.133c0-0.518,0.417-0.988,0.987-0.988h7.378c3.222,0,6.391,1.924,6.391,5.819c0,3.9-2.752,5.301-4.209,5.666
	c1.04,2.026,2.08,4.105,3.119,6.13c0.362,0.622-0.156,1.401-0.883,1.401h-1.769c-0.416,0-0.778-0.414-0.935-0.726l-2.911-6.494
	h-3.844v6.236c0,0.519-0.417,0.984-0.987,0.984h-1.351c-0.57,0-0.987-0.465-0.987-0.984V10.133z M1316.03,17.928
	c1.924,0,3.117-1.353,3.117-2.964c0-1.766-1.193-2.96-3.117-2.96h-5.092v5.924H1316.03z"/>
</svg>
