<?xml version="1.0" encoding="utf-8"?>
<!-- Generator: Adobe Illustrator 16.0.4, SVG Export Plug-In . SVG Version: 6.00 Build 0)  -->
<!DOCTYPE svg PUBLIC "-//W3C//DTD SVG 1.1//EN" "http://www.w3.org/Graphics/SVG/1.1/DTD/svg11.dtd">
<svg version="1.1" id="Layer_1" xmlns="http://www.w3.org/2000/svg" xmlns:xlink="http://www.w3.org/1999/xlink" x="0px" y="0px"
	 width="843.044px" height="297.979px" viewBox="0 0 843.044 297.979" enable-background="new 0 0 843.044 297.979"
	 xml:space="preserve">
<g>
	<g>
		<path fill="#F5F5F5" d="M69.363,0.145c18.715,0,32.61,5.812,45.37,17.438c1.56,1.135,1.701,3.403,0.567,4.821
			c-0.142,0.142-0.284,0.283-0.284,0.425L100.271,38c-1.276,1.276-3.403,1.276-4.679,0l0,0c-6.947-6.097-16.021-9.499-25.237-9.499
			c-21.125,0-36.722,17.58-36.722,38.422s15.738,37.998,36.863,37.998c9.216,0,18.006-3.119,25.095-8.933
			c1.418-1.134,3.544-1.134,4.821,0.142l14.603,15.597c1.276,1.417,1.134,3.686-0.142,5.104
			c-12.193,11.768-28.498,18.29-45.512,18.148c-37.146,1.134-68.197-28.215-69.331-65.361S28.246,1.421,65.393,0.286
			C66.811,0.286,68.087,0.286,69.363,0.145L69.363,0.145z"/>
		<path fill="#F5F5F5" d="M186.899,0.145c37.146-0.142,67.488,29.916,67.488,67.204c0.142,37.146-29.916,67.488-67.204,67.488
			c-37.147,0.142-67.488-29.916-67.488-67.205c-0.142-37.146,29.774-67.346,66.92-67.629C186.758,0.145,186.899,0.145,186.899,0.145
			z M186.899,104.921c20.7,0.142,37.572-16.589,37.572-37.289c0-20.699-16.446-37.43-37.146-37.571
			c-20.7-0.143-37.572,16.588-37.572,37.288c0,0.142,0,0.283,0,0.426C149.753,88.19,166.341,104.779,186.899,104.921
			L186.899,104.921z"/>
		<path fill="#F5F5F5" d="M269.274,3.547c0-1.843,1.701-3.402,3.544-3.402h4.679l74.718,71.883h0.143V5.674
			c0-1.985,1.559-3.545,3.544-3.545h22.401c1.985,0,3.545,1.56,3.545,3.545v125.901c-0.143,1.844-1.701,3.403-3.545,3.403h-2.978
			c-0.851-0.142-1.701-0.426-2.41-0.993l-73.868-74.293h-0.284v69.757c0,1.984-1.56,3.544-3.544,3.544h-22.26
			c-1.985,0-3.544-1.56-3.544-3.544L269.274,3.547z"/>
		<path fill="#F5F5F5" d="M430.904,29.493h-26.796c-1.985,0-3.545-1.56-3.545-3.545l0,0V5.674c0-1.985,1.56-3.545,3.545-3.545l0,0
			h83.225c1.985,0,3.545,1.56,3.545,3.545l0,0v20.417c0,1.984-1.56,3.544-3.545,3.544l0,0h-26.796v99.956
			c0,1.984-1.56,3.544-3.545,3.544h-22.401c-1.984,0-3.544-1.56-3.544-3.544L430.904,29.493z"/>
		<path fill="#F5F5F5" d="M509.593,5.674c0-1.985,1.56-3.545,3.545-3.545l0,0h77.412c1.985,0,3.545,1.56,3.545,3.545l0,0v20.417
			c0,1.984-1.56,3.544-3.545,3.544l0,0h-51.892v23.252h42.677c1.984,0,3.544,1.56,3.544,3.545v20.416
			c0,1.985-1.56,3.545-3.544,3.545l0,0h-42.677v25.237h51.892c1.985,0,3.545,1.56,3.545,3.544l0,0v20.417
			c0,1.984-1.56,3.544-3.545,3.544l0,0h-77.412c-1.985,0-3.545-1.56-3.545-3.544l0,0V5.674z"/>
		<path fill="#F5F5F5" d="M619.048,3.547c0-1.843,1.701-3.402,3.545-3.402h4.679l74.719,71.883h0.142V5.674
			c0-1.985,1.56-3.545,3.545-3.545l0,0h22.401c1.984,0,3.544,1.56,3.544,3.545v125.901c-0.142,1.844-1.701,3.403-3.544,3.403h-2.978
			c-0.851-0.142-1.701-0.426-2.41-0.993l-73.868-74.293h-0.142v69.757c0,1.984-1.56,3.544-3.545,3.544l0,0h-22.26
			c-1.984,0-3.544-1.56-3.544-3.544L619.048,3.547z"/>
		<path fill="#F5F5F5" d="M780.679,29.493h-26.797c-1.984,0-3.544-1.56-3.544-3.545V5.674c0-1.985,1.56-3.545,3.544-3.545l0,0
			h83.084c1.984,0,3.545,1.56,3.545,3.545l0,0v20.417c0,1.984-1.561,3.544-3.545,3.544l0,0h-26.797v99.956
			c0,1.984-1.56,3.544-3.545,3.544h-22.4c-1.985,0-3.545-1.56-3.545-3.544V29.493z"/>
	</g>
	<g>
		<polygon fill="#66CC00" points="70.337,247.93 120.143,167.54 20.037,167.54 69.845,247.93 		"/>
		<path fill="#66CC00" d="M279.067,297.695h53.083c-1.31-0.567-2.129-1.844-2.292-3.119V194.479h-30.966
			c-2.294,0-4.096-1.56-4.096-3.545l0,0v-20.274c0-1.134,0.656-2.269,1.802-2.978h-17.039c1.148,0.709,1.802,1.701,1.966,2.978
			v20.417c0,1.984-1.801,3.544-4.096,3.544l0,0h-59.964v23.252h49.314c2.294,0,4.097,1.56,4.097,3.545v20.416
			c0,1.985-1.803,3.545-4.097,3.545l0,0h-49.314v25.237h59.801c2.293,0,4.095,1.56,4.095,3.544l0,0v20.417
			C281.36,295.852,280.542,297.128,279.067,297.695z"/>
		<path fill="#66CC00" d="M153.239,297.837h32.932c-1.639-0.567-2.622-1.843-2.622-3.261V170.659c0-1.134,0.655-2.269,1.802-2.978
			h-54.067c0,0.142,0.163,0.426,0.163,0.567l24.412,125.76C156.352,295.71,155.205,297.411,153.239,297.837z"/>
		<path fill="#66CC00" d="M64.438,297.837l-36.536-60.683H27.41l-9.502,57.847c-0.329,1.56-1.802,2.836-3.769,2.978h50.299V297.837z
			"/>
		<path fill="#66CC00" d="M678.668,167.54h-80.935c1.146,0.709,1.966,1.701,1.966,2.978v123.917c0,1.134-0.656,2.126-1.639,2.835
			l79.298-0.142c-41.288-10.492-64.88-47.922-52.755-83.65C632.303,191.218,652.782,173.92,678.668,167.54L678.668,167.54z"/>
		<path fill="#66CC00" d="M122.273,295.001l-9.667-57.847h-0.492l-36.372,60.683v0.142h49.479
			C123.747,297.554,122.601,296.419,122.273,295.001z"/>
		<path fill="#66CC00" d="M721.923,167.54c11.305,2.836,21.626,7.939,30.146,14.887c1.802,1.135,1.966,3.403,0.656,4.821
			c-0.165,0.142-0.328,0.283-0.328,0.425l-16.876,15.171c-1.475,1.275-3.931,1.275-5.406,0l0,0c-8.028-6.097-18.35-9.5-29.164-9.5
			c-24.412,0-42.433,17.581-42.433,38.423s18.186,37.998,42.597,37.998c10.649,0,20.809-3.12,29-8.933
			c1.639-1.135,4.096-1.135,5.57,0.142l16.875,15.596c1.476,1.418,1.312,3.687-0.163,5.104
			c-8.519,7.089-18.842,12.477-30.146,15.312h50.626V167.54H721.923z"/>
		<path fill="#66CC00" d="M420.787,294.435V170.659c0-1.134,0.656-2.269,1.803-2.978h-25.396c1.148,0.709,1.802,1.701,1.802,2.978
			v20.417c0,1.984-1.802,3.544-4.096,3.544l0,0h-30.802v99.956c0,1.275-0.819,2.41-2.129,3.119l60.784-0.142
			C421.443,296.845,420.787,295.71,420.787,294.435z"/>
		<path fill="#66CC00" d="M533.18,297.411h34.079c-0.983-0.708-1.638-1.701-1.638-2.835V170.659c0-1.276,0.818-2.269,1.966-2.978
			h-70.123c22.445,3.261,38.994,20.133,39.157,39.841c0,17.155-13.107,31.05-31.949,37.572l29.655,47.496
			C535.31,294.15,534.819,296.277,533.18,297.411z"/>
		<path fill="#66CC00" d="M498.283,296.419l-28.835-49.623h-14.91v47.78c0,1.275-0.819,2.269-1.965,2.978h46.693
			C498.938,297.128,498.61,296.845,498.283,296.419z"/>
		<path fill="#66CC00" d="M486.65,222.977c8.848,0,16.383-7.089,16.383-15.029c-0.164-7.798-7.372-14.036-16.383-14.178h-31.949
			v29.207H486.65L486.65,222.977z"/>
		<path fill="#66CC00" d="M822.87,160.554c11.111,0,20.174,7.749,20.174,17.459c0,9.616-8.954,17.458-20.174,17.458
			c-11.113,0-20.175-7.749-20.175-17.365C802.804,168.396,811.757,160.647,822.87,160.554z M822.87,192.483
			c9.277,0,16.723-6.536,16.723-14.471c0-8.029-7.554-14.472-16.723-14.472c-9.278,0-16.724,6.535-16.724,14.472
			C806.039,186.042,813.592,192.483,822.87,192.483L822.87,192.483z M815.857,169.983c0-0.561,0.432-0.934,1.079-0.934h7.983
			c3.452,0,6.904,1.773,6.904,5.415c0.215,2.521-1.726,4.668-4.531,5.321c1.079,1.867,2.267,3.828,3.345,5.695
			c0.216,0.466,0,1.027-0.539,1.214c-0.109,0.093-0.217,0.093-0.433,0.093h-1.941c-0.432-0.093-0.863-0.279-0.972-0.653
			l-3.129-6.068h-4.1v5.788c0,0.56-0.432,0.934-1.079,0.934h-1.401c-0.647,0-1.079-0.374-1.079-0.934L815.857,169.983z
			 M824.92,177.266c1.727,0.094,3.235-1.027,3.345-2.614c0-0.094,0-0.187,0-0.187c0.107-1.494-1.188-2.707-2.914-2.802
			c-0.107,0-0.322,0-0.431,0h-5.503v5.509L824.92,177.266z"/>
	</g>
</g>
</svg>
