<svg version="1.1" id="Layer_1" xmlns="http://www.w3.org/2000/svg" xmlns:xlink="http://www.w3.org/1999/xlink" x="0px" y="0px"
	 width="568.2px" height="400.2px" viewBox="0 0 568.2 400.2" style="enable-background:new 0 0 568.2 400.2;" xml:space="preserve">
<g id="text-post-infection">
	<g>
		<g>
			<path style="fill:#010101;" d="M14.6,197.9h2.1c0.6,0,1.2,0.1,1.8,0.3s1,0.5,1.4,0.8c0.4,0.4,0.7,0.8,0.9,1.4
				c0.2,0.6,0.3,1.3,0.3,2.1v0c0,0.8-0.1,1.4-0.3,2c-0.2,0.6-0.5,1-0.8,1.4c-0.4,0.4-0.8,0.7-1.3,0.9c-0.5,0.2-1,0.3-1.6,0.4h0v4.2
				h-2.4V197.9z M17,204.9c0.5,0,0.9-0.2,1.2-0.6s0.5-1,0.5-1.8v0c0-0.9-0.2-1.5-0.5-1.9S17.5,200,17,200H17L17,204.9L17,204.9z"/>
			<path style="fill:#010101;" d="M25.4,211.5c-0.5,0-1-0.1-1.5-0.4c-0.4-0.3-0.8-0.7-1.1-1.2c-0.3-0.5-0.6-1.2-0.7-2.1
				s-0.3-1.8-0.3-2.9v-0.7c0-1.1,0.1-2.1,0.3-2.9s0.4-1.5,0.7-2.1c0.3-0.5,0.7-1,1.1-1.2c0.4-0.3,0.9-0.4,1.5-0.4s1,0.1,1.5,0.4
				c0.4,0.3,0.8,0.7,1.1,1.2c0.3,0.5,0.6,1.2,0.7,2.1s0.3,1.8,0.3,2.9v0.7c0,1.1-0.1,2.1-0.3,2.9s-0.4,1.5-0.7,2.1
				c-0.3,0.5-0.7,1-1.1,1.2C26.4,211.4,25.9,211.5,25.4,211.5z M25.4,209.4c0.2,0,0.3-0.1,0.5-0.2c0.1-0.1,0.3-0.4,0.4-0.7
				c0.1-0.3,0.2-0.8,0.2-1.4c0.1-0.6,0.1-1.3,0.1-2.1v-0.7c0-0.9,0-1.6-0.1-2.2c-0.1-0.6-0.1-1-0.2-1.4c-0.1-0.3-0.2-0.6-0.4-0.7
				c-0.1-0.1-0.3-0.2-0.5-0.2s-0.3,0.1-0.5,0.2c-0.1,0.1-0.3,0.4-0.4,0.7c-0.1,0.3-0.2,0.8-0.2,1.4c-0.1,0.6-0.1,1.3-0.1,2.2v0.7
				c0,0.9,0,1.6,0.1,2.1c0.1,0.6,0.1,1,0.2,1.4c0.1,0.3,0.2,0.6,0.4,0.7C25,209.3,25.2,209.4,25.4,209.4z"/>
			<path style="fill:#010101;" d="M32.1,211.4c-0.5,0-0.9-0.1-1.3-0.2c-0.4-0.1-0.8-0.2-1.1-0.4v-2.4c0.4,0.3,0.8,0.4,1.1,0.6
				s0.7,0.2,1,0.2c0.3,0,0.6-0.1,0.9-0.3s0.4-0.5,0.4-0.9v0c0-0.2,0-0.3,0-0.5c0-0.1-0.1-0.3-0.2-0.5c-0.1-0.2-0.2-0.4-0.4-0.6
				c-0.2-0.2-0.4-0.5-0.7-0.8c-0.4-0.5-0.7-0.9-1-1.2c-0.3-0.4-0.5-0.7-0.7-1s-0.3-0.7-0.4-1c-0.1-0.3-0.1-0.7-0.1-1.1v0
				c0-0.5,0.1-1,0.3-1.5s0.4-0.8,0.7-1.1c0.3-0.3,0.6-0.5,1-0.7s0.8-0.3,1.3-0.3c0.5,0,0.9,0,1.2,0.1c0.3,0.1,0.6,0.2,0.9,0.3v2.4
				c-0.4-0.2-0.7-0.4-0.9-0.5c-0.3-0.1-0.5-0.1-0.8-0.1c-0.3,0-0.6,0.1-0.9,0.3c-0.2,0.2-0.4,0.5-0.4,0.9v0c0,0.2,0,0.3,0,0.4
				s0.1,0.3,0.2,0.4s0.2,0.3,0.4,0.5c0.2,0.2,0.4,0.5,0.7,0.8c0.5,0.5,0.8,1,1.1,1.4c0.3,0.4,0.5,0.8,0.7,1.1c0.2,0.3,0.3,0.7,0.3,1
				c0.1,0.3,0.1,0.7,0.1,1.1v0c0,0.5-0.1,1-0.3,1.4s-0.4,0.8-0.7,1.1c-0.3,0.3-0.7,0.5-1.1,0.7S32.6,211.4,32.1,211.4z"/>
			<path style="fill:#010101;" d="M37.2,200.1h-1.7v-2.2h5.7v2.2h-1.7v11.3h-2.4V200.1z"/>
			<path style="fill:#010101;" d="M41.4,204.2h5v2.3h-5V204.2z"/>
			<path style="fill:#010101;" d="M47.9,197.9h2.4v13.5h-2.4V197.9z"/>
			<path style="fill:#010101;" d="M51.7,197.9h2.2l2.4,6.8v-6.8h2.3v13.5h-2.1l-2.5-7.1v7.1h-2.3V197.9z"/>
			<path style="fill:#010101;" d="M59.9,197.9h4.9v2.2h-2.6v3.4h2.2v2.2h-2.2v5.6h-2.4V197.9z"/>
			<path style="fill:#010101;" d="M65.9,197.9H71v2.2h-2.8v3.4h2.5v2.2h-2.5v3.4h2.9v2.2h-5.2V197.9z"/>
			<path style="fill:#010101;" d="M75.6,211.4c-0.5,0-1-0.1-1.5-0.4s-0.9-0.6-1.2-1.2c-0.3-0.5-0.6-1.2-0.8-2.1
				c-0.2-0.8-0.3-1.8-0.3-3v-0.5c0-1.2,0.1-2.2,0.3-3c0.2-0.8,0.5-1.5,0.8-2.1c0.4-0.5,0.8-0.9,1.3-1.2c0.5-0.2,1-0.4,1.5-0.4
				c0.3,0,0.6,0,0.8,0.1c0.2,0,0.5,0.1,0.7,0.2v2.4c-0.2-0.1-0.5-0.3-0.7-0.3s-0.4-0.1-0.6-0.1c-0.3,0-0.5,0.1-0.7,0.2
				c-0.2,0.1-0.4,0.4-0.6,0.7c-0.2,0.3-0.3,0.8-0.4,1.3c-0.1,0.6-0.1,1.3-0.1,2.1v0.5c0,0.9,0,1.6,0.1,2.2c0.1,0.6,0.2,1,0.4,1.3
				s0.4,0.5,0.6,0.6s0.5,0.2,0.7,0.2c0.4,0,0.8-0.1,1.3-0.4v2.3c-0.3,0.2-0.5,0.3-0.8,0.3C76.2,211.4,75.9,211.4,75.6,211.4z"/>
			<path style="fill:#010101;" d="M79.8,200.1h-1.7v-2.2h5.7v2.2h-1.7v11.3h-2.4V200.1z"/>
			<path style="fill:#010101;" d="M84.8,197.9h2.4v13.5h-2.4V197.9z"/>
			<path style="fill:#010101;" d="M91.9,211.5c-0.5,0-1-0.1-1.5-0.4c-0.4-0.3-0.8-0.7-1.1-1.2c-0.3-0.5-0.6-1.2-0.7-2.1
				s-0.3-1.8-0.3-2.9v-0.7c0-1.1,0.1-2.1,0.3-2.9s0.4-1.5,0.7-2.1c0.3-0.5,0.7-1,1.1-1.2c0.4-0.3,0.9-0.4,1.5-0.4s1,0.1,1.5,0.4
				c0.4,0.3,0.8,0.7,1.1,1.2c0.3,0.5,0.6,1.2,0.7,2.1s0.3,1.8,0.3,2.9v0.7c0,1.1-0.1,2.1-0.3,2.9s-0.4,1.5-0.7,2.1
				c-0.3,0.5-0.7,1-1.1,1.2C93,211.4,92.5,211.5,91.9,211.5z M91.9,209.4c0.2,0,0.3-0.1,0.5-0.2c0.1-0.1,0.3-0.4,0.4-0.7
				c0.1-0.3,0.2-0.8,0.2-1.4c0.1-0.6,0.1-1.3,0.1-2.1v-0.7c0-0.9,0-1.6-0.1-2.2c-0.1-0.6-0.1-1-0.2-1.4c-0.1-0.3-0.2-0.6-0.4-0.7
				c-0.1-0.1-0.3-0.2-0.5-0.2s-0.3,0.1-0.5,0.2c-0.1,0.1-0.3,0.4-0.4,0.7c-0.1,0.3-0.2,0.8-0.2,1.4c-0.1,0.6-0.1,1.3-0.1,2.2v0.7
				c0,0.9,0,1.6,0.1,2.1c0.1,0.6,0.1,1,0.2,1.4c0.1,0.3,0.2,0.6,0.4,0.7C91.6,209.3,91.8,209.4,91.9,209.4z"/>
			<path style="fill:#010101;" d="M96.7,197.9h2.2l2.4,6.8v-6.8h2.3v13.5h-2.1l-2.5-7.1v7.1h-2.3V197.9z"/>
		</g>
	</g>
	<g>
		<g>
			<path style="fill:#010101;" d="M21.4,229.5c-0.4-0.4-0.7-0.8-1-1.3c-0.3-0.5-0.4-1.1-0.6-1.8c-0.1-0.6-0.2-1.3-0.2-2.1
				c0-0.7,0.1-1.4,0.2-2c0.1-0.6,0.3-1.2,0.6-1.8c0.3-0.5,0.6-1,1-1.3c0.4-0.4,0.9-0.7,1.5-0.8v1.2c-0.3,0.2-0.6,0.4-0.8,0.7
				s-0.4,0.7-0.5,1.1c-0.1,0.4-0.2,0.9-0.3,1.4c-0.1,0.5-0.1,1-0.1,1.6c0,0.6,0,1.1,0.1,1.6c0.1,0.5,0.1,1,0.3,1.4
				c0.1,0.4,0.3,0.8,0.5,1.1c0.2,0.3,0.5,0.5,0.8,0.7v1.2C22.3,230.1,21.8,229.9,21.4,229.5z"/>
			<path style="fill:#010101;" d="M23.8,218.5h1.7l1.2,3.6l1.2-3.6h1.7v9.8H28v-5.9l-1.2,3.7h0l-1.2-3.7v5.9h-1.7V218.5z"/>
			<path style="fill:#010101;" d="M32,218.5h1.8l1.9,9.8H34l-0.3-1.9h-1.6l-0.3,1.9h-1.7L32,218.5z M33.4,224.9l-0.5-3.2l-0.5,3.2
				H33.4z"/>
			<path style="fill:#010101;" d="M36.2,218.5h1.7v8.2h1.8v1.6h-3.5V218.5z"/>
			<path style="fill:#010101;" d="M39.6,218.5h1.8l0.7,6l0.9-6h1.6l0.8,6l0.7-6h1.7l-1.5,9.8h-1.8l-0.8-5.8l-0.8,5.8h-1.8
				L39.6,218.5z"/>
			<path style="fill:#010101;" d="M49.6,218.5h1.8l1.9,9.8h-1.7l-0.3-1.9h-1.6l-0.3,1.9h-1.7L49.6,218.5z M51,224.9l-0.5-3.2
				l-0.5,3.2H51z"/>
			<path style="fill:#010101;" d="M53.8,218.5h1.8c0.4,0,0.8,0.1,1.2,0.2s0.7,0.3,1,0.6c0.3,0.3,0.5,0.6,0.6,1s0.2,0.9,0.2,1.4v0.1
				c0,0.6-0.1,1.2-0.3,1.6c-0.2,0.4-0.5,0.7-0.8,1l1.3,4h-1.8l-1.1-3.4h0h-0.3v3.4h-1.7V218.5z M55.6,223.4c0.4,0,0.7-0.1,0.9-0.4
				s0.4-0.6,0.4-1.2v-0.1c0-0.3,0-0.6-0.1-0.8s-0.2-0.4-0.3-0.5s-0.3-0.2-0.4-0.2c-0.2,0-0.3-0.1-0.5-0.1h0L55.6,223.4L55.6,223.4z"
				/>
			<path style="fill:#010101;" d="M59.3,218.5h3.8v1.6h-2v2.4h1.8v1.6H61v2.5h2.1v1.6h-3.8V218.5z"/>
			<path style="fill:#010101;" d="M66.2,218.5h1.7v9.8h-1.7V218.5z"/>
			<path style="fill:#010101;" d="M69,218.5h1.7l1.2,3.6l1.2-3.6h1.7v9.8h-1.7v-5.9l-1.2,3.7h0l-1.2-3.7v5.9H69V218.5z"/>
			<path style="fill:#010101;" d="M75.8,218.5h1.5c0.5,0,0.9,0.1,1.3,0.2c0.4,0.1,0.7,0.3,1,0.6c0.3,0.3,0.5,0.6,0.7,1
				c0.2,0.4,0.2,0.9,0.2,1.5v0c0,0.6-0.1,1-0.2,1.4c-0.1,0.4-0.4,0.8-0.6,1c-0.3,0.3-0.6,0.5-0.9,0.6c-0.4,0.2-0.8,0.2-1.2,0.3h0
				v3.1h-1.7V218.5z M77.5,223.7c0.4,0,0.7-0.2,0.9-0.4s0.4-0.7,0.4-1.3v0c0-0.6-0.1-1.1-0.3-1.4c-0.2-0.3-0.5-0.4-0.9-0.4h-0.1
				L77.5,223.7L77.5,223.7z"/>
			<path style="fill:#010101;" d="M82,218.5h1.8l1.9,9.8H84l-0.3-1.9h-1.6l-0.3,1.9h-1.7L82,218.5z M83.4,224.9l-0.5-3.2l-0.5,3.2
				H83.4z"/>
			<path style="fill:#010101;" d="M88.7,228.4c-0.4,0-0.8-0.1-1.1-0.3s-0.6-0.5-0.9-0.8c-0.2-0.4-0.4-0.9-0.6-1.5s-0.2-1.3-0.2-2.2
				v-0.3c0-0.9,0.1-1.6,0.2-2.2c0.1-0.6,0.4-1.1,0.6-1.5s0.6-0.7,0.9-0.8s0.7-0.3,1.1-0.3c0.2,0,0.4,0,0.6,0c0.2,0,0.3,0.1,0.5,0.2
				v1.8c-0.2-0.1-0.3-0.2-0.5-0.2c-0.1-0.1-0.3-0.1-0.5-0.1c-0.2,0-0.4,0-0.5,0.1c-0.2,0.1-0.3,0.3-0.4,0.5s-0.2,0.6-0.3,1
				s-0.1,0.9-0.1,1.5v0.4c0,0.6,0,1.2,0.1,1.6s0.2,0.7,0.3,1c0.1,0.2,0.3,0.4,0.4,0.5c0.2,0.1,0.3,0.1,0.5,0.1c0.3,0,0.6-0.1,1-0.3
				v1.7c-0.2,0.1-0.4,0.2-0.6,0.2C89.1,228.4,88.9,228.4,88.7,228.4z"/>
			<path style="fill:#010101;" d="M91.7,220.2h-1.2v-1.6h4.1v1.6h-1.2v8.2h-1.7V220.2z"/>
			<path style="fill:#010101;" d="M95.2,229.1c0.3-0.2,0.6-0.4,0.8-0.7c0.2-0.3,0.4-0.7,0.5-1.1s0.2-0.9,0.3-1.4
				c0.1-0.5,0.1-1,0.1-1.6c0-0.6,0-1.1-0.1-1.6c-0.1-0.5-0.1-1-0.3-1.4s-0.3-0.8-0.5-1.1s-0.5-0.5-0.8-0.7v-1.2
				c0.6,0.2,1.1,0.4,1.5,0.8c0.4,0.4,0.7,0.8,1,1.3c0.3,0.5,0.4,1.1,0.6,1.8s0.2,1.3,0.2,2c0,0.7-0.1,1.4-0.2,2.1s-0.3,1.2-0.6,1.8
				c-0.3,0.5-0.6,1-1,1.3c-0.4,0.4-0.9,0.7-1.5,0.8V229.1z"/>
		</g>
	</g>
</g>
<g id="black-arrow-1">
	<polygon style="fill:#010101;" points="203.3,185.9 114.6,186.3 114.6,242.5 203.4,242.1 223.5,213 	"/>
	<g>
		<g>
			<path style="fill:#FFFFFF;" d="M164.1,224.5c-0.4,0-0.8,0-1.2-0.1c-0.4-0.1-0.7-0.2-1-0.4s-0.5-0.5-0.7-0.9
				c-0.2-0.4-0.3-0.9-0.3-1.4v-10H160v-2.8h0.9v-4h3.4v4h1.8v2.8h-1.8v8.9c0,0.3,0.1,0.6,0.2,0.7s0.4,0.2,0.7,0.2
				c0.3,0,0.5-0.1,0.8-0.2v2.7c-0.3,0.2-0.6,0.3-1,0.4S164.5,224.5,164.1,224.5z"/>
			<path style="fill:#FFFFFF;" d="M167.3,213.6h7.5v3.5h-7.5V213.6z"/>
		</g>
	</g>
</g>
<g id="black-arrow-2">
	<polygon style="fill:#010101;" points="286.2,213.5 266.1,186.4 207,186.4 227.1,213.5 207,242.6 266.1,242.6 	"/>
	<g>
		<g>
			<path style="fill:#FFFFFF;" d="M245.1,224.5c-0.4,0-0.8,0-1.2-0.1c-0.4-0.1-0.7-0.2-1-0.4s-0.5-0.5-0.7-0.9
				c-0.2-0.4-0.3-0.9-0.3-1.4v-10H241v-2.8h0.9v-4h3.4v4h1.8v2.8h-1.8v8.9c0,0.3,0.1,0.6,0.2,0.7s0.4,0.2,0.7,0.2
				c0.3,0,0.5-0.1,0.8-0.2v2.7c-0.3,0.2-0.6,0.3-1,0.4S245.5,224.5,245.1,224.5z"/>
			<path style="fill:#FFFFFF;" d="M251.6,224.5c-0.6,0-1.1-0.1-1.5-0.4c-0.4-0.3-0.8-0.7-1.1-1.2c-0.3-0.5-0.5-1.2-0.7-2.1
				c-0.1-0.9-0.2-1.9-0.2-3.1v-0.8c0-1.2,0.1-2.2,0.2-3.1c0.1-0.9,0.4-1.6,0.7-2.1s0.7-1,1.1-1.2c0.4-0.3,0.9-0.4,1.5-0.4
				s1.1,0.1,1.5,0.4c0.4,0.3,0.8,0.7,1.1,1.2c0.3,0.6,0.5,1.3,0.7,2.1c0.2,0.9,0.2,1.9,0.2,3.1v0.8c0,1.2-0.1,2.2-0.2,3.1
				s-0.4,1.6-0.7,2.1c-0.3,0.5-0.7,1-1.1,1.2S252.1,224.5,251.6,224.5z M251.6,222.2c0.1,0,0.3-0.1,0.4-0.2c0.1-0.1,0.2-0.3,0.3-0.7
				s0.2-0.8,0.2-1.4c0.1-0.6,0.1-1.4,0.1-2.4v-0.7c0-1,0-1.8-0.1-2.4c-0.1-0.6-0.1-1.1-0.2-1.4c-0.1-0.3-0.2-0.5-0.3-0.6
				c-0.1-0.1-0.3-0.2-0.4-0.2c-0.1,0-0.3,0.1-0.4,0.2c-0.1,0.1-0.2,0.3-0.3,0.6c-0.1,0.3-0.2,0.8-0.2,1.4c-0.1,0.6-0.1,1.4-0.1,2.4
				v0.7c0,1,0,1.8,0.1,2.4c0.1,0.6,0.1,1.1,0.2,1.4s0.2,0.5,0.3,0.7C251.3,222.2,251.4,222.2,251.6,222.2z"/>
		</g>
	</g>
</g>
<g id="black-arrow-3">
	<polygon style="fill:#010101;" points="568.2,213.5 548.1,186.4 270,186.4 290.1,213.5 270,242.6 548.1,242.6 	"/>
	<g>
		<g>
			<path style="fill:#FFFFFF;" d="M397.1,224.5c-0.4,0-0.8,0-1.2-0.1c-0.4-0.1-0.7-0.2-1-0.4c-0.3-0.2-0.5-0.5-0.7-0.9
				c-0.2-0.4-0.3-0.9-0.3-1.4v-10H393v-2.8h0.9v-4h3.4v4h1.8v2.8h-1.8v8.9c0,0.3,0.1,0.6,0.2,0.7c0.2,0.1,0.4,0.2,0.7,0.2
				c0.3,0,0.5-0.1,0.8-0.2v2.7c-0.3,0.2-0.6,0.3-1,0.4C397.8,224.4,397.5,224.5,397.1,224.5z"/>
			<path style="fill:#FFFFFF;" d="M404.3,215.8h-4.1v-3.3h4.1v-4.5h3.2v4.5h4.1v3.3h-4.1v4.5h-3.2V215.8z"/>
		</g>
	</g>
</g>
<g id="text-green-red">
	<g>
		<g>
			<path style="fill:#02B494;" d="M0.6,101.1h7.7v3.3H4.1v5h3.7v3.3H4.1v5.1h4.3v3.3H0.6V101.1z"/>
			<path style="fill:#02B494;" d="M10.1,101.1h3.3l3.6,10.2v-10.2h3.4v20.2h-3.1l-3.7-10.7v10.7h-3.4V101.1z"/>
			<path style="fill:#02B494;" d="M25.6,121.4c-0.7,0-1.3-0.1-1.9-0.2c-0.6-0.2-1.1-0.4-1.6-0.6v-3.7c0.6,0.4,1.2,0.7,1.7,0.9
				c0.5,0.2,1,0.3,1.5,0.3c0.5,0,0.9-0.1,1.3-0.4c0.4-0.3,0.6-0.7,0.6-1.3v-0.1c0-0.2,0-0.5-0.1-0.7c0-0.2-0.1-0.5-0.3-0.7
				c-0.1-0.3-0.3-0.6-0.6-0.9c-0.3-0.3-0.6-0.7-1-1.2c-0.6-0.7-1.1-1.3-1.5-1.8s-0.8-1-1.1-1.5c-0.3-0.5-0.5-1-0.6-1.5
				c-0.1-0.5-0.2-1-0.2-1.7v-0.1c0-0.8,0.1-1.5,0.4-2.2c0.2-0.7,0.6-1.2,1-1.7s1-0.8,1.6-1.1s1.3-0.4,1.9-0.4c0.7,0,1.3,0.1,1.8,0.2
				c0.5,0.1,0.9,0.3,1.4,0.5v3.7c-0.6-0.3-1-0.6-1.4-0.7c-0.4-0.1-0.8-0.2-1.3-0.2c-0.5,0-0.9,0.2-1.3,0.4c-0.4,0.3-0.5,0.7-0.5,1.3
				v0.1c0,0.2,0,0.4,0.1,0.6c0,0.2,0.1,0.4,0.3,0.6c0.1,0.2,0.3,0.5,0.6,0.8c0.2,0.3,0.6,0.7,1,1.2c0.7,0.8,1.3,1.5,1.7,2.1
				c0.4,0.6,0.8,1.1,1,1.6c0.2,0.5,0.4,1,0.5,1.5c0.1,0.5,0.1,1,0.1,1.6v0.1c0,0.8-0.1,1.5-0.4,2.2c-0.3,0.7-0.6,1.2-1.1,1.7
				c-0.5,0.5-1,0.8-1.6,1.1C27,121.3,26.3,121.4,25.6,121.4z"/>
			<path style="fill:#02B494;" d="M31.9,101.1h3.5v20.2h-3.5V101.1z"/>
			<path style="fill:#02B494;" d="M37.6,101.1h3.5v16.9h3.7v3.3h-7.2V101.1z"/>
			<path style="fill:#02B494;" d="M50.6,121.6c-0.8,0-1.5-0.2-2.2-0.6s-1.2-1-1.7-1.8c-0.5-0.8-0.8-1.8-1.1-3.1
				c-0.3-1.2-0.4-2.7-0.4-4.4v-1c0-1.7,0.1-3.1,0.4-4.4c0.3-1.2,0.6-2.3,1.1-3.1c0.5-0.8,1-1.4,1.7-1.8c0.7-0.4,1.4-0.6,2.2-0.6
				c0.8,0,1.5,0.2,2.2,0.6c0.7,0.4,1.2,1,1.7,1.8c0.5,0.8,0.8,1.8,1.1,3.1c0.3,1.2,0.4,2.7,0.4,4.4v1c0,1.7-0.1,3.1-0.4,4.4
				c-0.3,1.2-0.6,2.3-1.1,3.1c-0.5,0.8-1,1.4-1.7,1.8C52.1,121.4,51.4,121.6,50.6,121.6z M50.6,118.3c0.3,0,0.5-0.1,0.7-0.3
				c0.2-0.2,0.4-0.6,0.6-1.1c0.2-0.5,0.3-1.2,0.4-2.1c0.1-0.9,0.1-1.9,0.1-3.2v-1c0-1.3,0-2.4-0.1-3.2c-0.1-0.8-0.2-1.5-0.4-2
				c-0.2-0.5-0.3-0.9-0.6-1.1c-0.2-0.2-0.5-0.3-0.7-0.3c-0.3,0-0.5,0.1-0.7,0.3c-0.2,0.2-0.4,0.6-0.6,1.1c-0.2,0.5-0.3,1.2-0.4,2
				c-0.1,0.8-0.1,1.9-0.1,3.2v1c0,1.3,0,2.4,0.1,3.2c0.1,0.9,0.2,1.5,0.4,2.1c0.2,0.5,0.3,0.9,0.6,1.1
				C50,118.2,50.3,118.3,50.6,118.3z"/>
		</g>
	</g>
	<g>
		<g>
			<path style="fill:#EE2228;" d="M2.5,315.3H0V312h8.5v3.3H6v16.9H2.5V315.3z"/>
			<path style="fill:#EE2228;" d="M10,312h3.6c0.9,0,1.7,0.1,2.5,0.4s1.4,0.6,2,1.2c0.6,0.5,1,1.2,1.3,2s0.5,1.8,0.5,2.9v0.3
				c0,1.3-0.2,2.4-0.7,3.3c-0.5,0.9-1,1.5-1.7,2l2.7,8.2h-3.8l-2.3-7h-0.1h-0.6v7H10V312z M13.7,322c0.8,0,1.4-0.2,1.9-0.7
				c0.5-0.5,0.8-1.3,0.8-2.5v-0.2c0-0.6-0.1-1.2-0.2-1.6c-0.1-0.4-0.3-0.7-0.6-1c-0.2-0.2-0.5-0.4-0.9-0.5c-0.3-0.1-0.7-0.1-1.1-0.1
				h-0.1v6.7H13.7z"/>
			<path style="fill:#EE2228;" d="M24.3,311.9H28l3.8,20.3h-3.5l-0.7-4h-3.2l-0.6,4h-3.4L24.3,311.9z M27.2,325l-1.1-6.7L25,325
				H27.2z"/>
			<path style="fill:#EE2228;" d="M32.9,312h3.3c2.3,0,4,0.8,5.2,2.4c1.2,1.6,1.8,4.1,1.8,7.3v0.7c0,3.3-0.6,5.7-1.8,7.3
				c-1.2,1.6-3,2.4-5.2,2.4h-3.3V312z M36.6,328.9c0.4,0,0.8-0.1,1.2-0.3c0.4-0.2,0.7-0.6,1-1.1c0.3-0.5,0.5-1.2,0.7-2
				s0.2-1.9,0.2-3.2v-0.7c0-1.3-0.1-2.3-0.2-3.2c-0.2-0.8-0.4-1.5-0.7-2c-0.3-0.5-0.6-0.9-1-1.1c-0.4-0.2-0.8-0.3-1.2-0.3h-0.1v13.7
				H36.6z"/>
			<path style="fill:#EE2228;" d="M45.1,312h3.5v20.2h-3.5V312z"/>
			<path style="fill:#EE2228;" d="M52.6,315.3h-2.5V312h8.5v3.3h-2.5v16.9h-3.5V315.3z"/>
			<path style="fill:#EE2228;" d="M60.2,312h3.5v20.2h-3.5V312z"/>
			<path style="fill:#EE2228;" d="M70.9,332.5c-0.8,0-1.5-0.2-2.2-0.6s-1.2-1-1.7-1.8c-0.5-0.8-0.8-1.8-1.1-3.1
				c-0.3-1.2-0.4-2.7-0.4-4.4v-1c0-1.7,0.1-3.1,0.4-4.4c0.3-1.2,0.6-2.3,1.1-3.1c0.5-0.8,1-1.4,1.7-1.8s1.4-0.6,2.2-0.6
				c0.8,0,1.5,0.2,2.2,0.6c0.7,0.4,1.2,1,1.7,1.8c0.5,0.8,0.8,1.8,1.1,3.1c0.3,1.2,0.4,2.7,0.4,4.4v1c0,1.7-0.1,3.1-0.4,4.4
				c-0.3,1.2-0.6,2.3-1.1,3.1c-0.5,0.8-1,1.4-1.7,1.8C72.4,332.3,71.7,332.5,70.9,332.5z M70.9,329.2c0.3,0,0.5-0.1,0.7-0.3
				c0.2-0.2,0.4-0.6,0.6-1.1c0.2-0.5,0.3-1.2,0.4-2.1c0.1-0.9,0.1-1.9,0.1-3.2v-1c0-1.3,0-2.4-0.1-3.2s-0.2-1.5-0.4-2
				c-0.2-0.5-0.3-0.9-0.6-1.1c-0.2-0.2-0.5-0.3-0.7-0.3c-0.3,0-0.5,0.1-0.7,0.3c-0.2,0.2-0.4,0.6-0.6,1.1c-0.2,0.5-0.3,1.2-0.4,2
				c-0.1,0.8-0.1,1.9-0.1,3.2v1c0,1.3,0,2.4,0.1,3.2c0.1,0.9,0.2,1.5,0.4,2.1c0.2,0.5,0.3,0.9,0.6,1.1
				C70.3,329.1,70.6,329.2,70.9,329.2z"/>
			<path style="fill:#EE2228;" d="M78,312h3.3l3.6,10.2V312h3.4v20.2h-3.1l-3.7-10.7v10.7H78V312z"/>
			<path style="fill:#EE2228;" d="M93.1,311.9h3.8l3.8,20.3h-3.5l-0.7-4h-3.2l-0.6,4h-3.4L93.1,311.9z M96,325l-1.1-6.7l-1.1,6.7H96
				z"/>
			<path style="fill:#EE2228;" d="M101.8,312h3.5v16.9h3.7v3.3h-7.2V312z"/>
			<path style="fill:#EE2228;" d="M115.1,312h7.7v3.3h-4.2v5h3.7v3.3h-3.7v5.1h4.3v3.3h-7.8V312z"/>
			<path style="fill:#EE2228;" d="M124.6,312h3.3c2.3,0,4,0.8,5.2,2.4c1.2,1.6,1.8,4.1,1.8,7.3v0.7c0,3.3-0.6,5.7-1.8,7.3
				c-1.2,1.6-3,2.4-5.2,2.4h-3.3V312z M128.3,328.9c0.4,0,0.8-0.1,1.2-0.3c0.4-0.2,0.7-0.6,1-1.1c0.3-0.5,0.5-1.2,0.7-2
				s0.2-1.9,0.2-3.2v-0.7c0-1.3-0.1-2.3-0.2-3.2c-0.2-0.8-0.4-1.5-0.7-2c-0.3-0.5-0.6-0.9-1-1.1c-0.4-0.2-0.8-0.3-1.2-0.3h-0.1v13.7
				H128.3z"/>
			<path style="fill:#EE2228;" d="M136.7,312h3.6c0.9,0,1.7,0.1,2.5,0.4s1.4,0.6,2,1.2c0.6,0.5,1,1.2,1.3,2s0.5,1.8,0.5,2.9v0.3
				c0,1.3-0.2,2.4-0.7,3.3c-0.5,0.9-1,1.5-1.7,2l2.7,8.2h-3.8l-2.3-7h-0.1h-0.6v7h-3.5V312z M140.4,322c0.8,0,1.4-0.2,1.9-0.7
				c0.5-0.5,0.8-1.3,0.8-2.5v-0.2c0-0.6-0.1-1.2-0.2-1.6c-0.1-0.4-0.3-0.7-0.6-1c-0.2-0.2-0.5-0.4-0.9-0.5c-0.3-0.1-0.7-0.1-1.1-0.1
				h-0.1v6.7H140.4z"/>
		</g>
	</g>
</g>
<g id="end-points">
	<g>
		<g style="opacity:0.5;">
			<g>
				<path style="fill:#231F20;" d="M159.4,126.6h4.5v1.9h-2.4v2.9h2.1v1.9h-2.1v3h2.5v1.9h-4.5V126.6z"/>
				<path style="fill:#231F20;" d="M164.9,126.6h1.9l2.1,5.9v-5.9h2v11.7h-1.8l-2.2-6.2v6.2h-2V126.6z"/>
				<path style="fill:#231F20;" d="M172.1,126.6h1.9c1.3,0,2.3,0.5,3,1.4c0.7,0.9,1.1,2.3,1.1,4.2v0.4c0,1.9-0.4,3.3-1.1,4.2
					c-0.7,0.9-1.7,1.4-3,1.4h-1.9V126.6z M174.2,136.4c0.2,0,0.5-0.1,0.7-0.2c0.2-0.1,0.4-0.3,0.6-0.6c0.2-0.3,0.3-0.7,0.4-1.2
					c0.1-0.5,0.1-1.1,0.1-1.8v-0.4c0-0.7,0-1.3-0.1-1.8c-0.1-0.5-0.2-0.9-0.4-1.2c-0.2-0.3-0.4-0.5-0.6-0.6
					c-0.2-0.1-0.4-0.2-0.7-0.2h-0.1L174.2,136.4L174.2,136.4z"/>
				<path style="fill:#231F20;" d="M181.7,126.6h1.8c0.6,0,1.1,0.1,1.5,0.2c0.5,0.2,0.9,0.4,1.2,0.7c0.3,0.3,0.6,0.7,0.8,1.2
					c0.2,0.5,0.3,1.1,0.3,1.8v0c0,0.7-0.1,1.2-0.3,1.7c-0.2,0.5-0.4,0.9-0.7,1.2c-0.3,0.3-0.7,0.6-1.1,0.8s-0.9,0.3-1.4,0.3h0v3.7
					h-2V126.6z M183.7,132.7c0.4,0,0.8-0.2,1.1-0.5c0.3-0.3,0.4-0.8,0.4-1.6v0c0-0.7-0.1-1.3-0.4-1.6c-0.3-0.3-0.6-0.5-1.1-0.5h-0.1
					L183.7,132.7L183.7,132.7z"/>
				<path style="fill:#231F20;" d="M191,138.4c-0.5,0-0.9-0.1-1.3-0.4c-0.4-0.2-0.7-0.6-1-1.1c-0.3-0.5-0.5-1.1-0.6-1.8
					s-0.2-1.5-0.2-2.5v-0.6c0-1,0.1-1.8,0.2-2.5s0.4-1.3,0.6-1.8c0.3-0.5,0.6-0.8,1-1.1c0.4-0.2,0.8-0.3,1.3-0.3
					c0.5,0,0.9,0.1,1.3,0.3c0.4,0.2,0.7,0.6,1,1.1c0.3,0.5,0.5,1.1,0.6,1.8c0.1,0.7,0.2,1.5,0.2,2.5v0.6c0,1-0.1,1.8-0.2,2.5
					c-0.2,0.7-0.4,1.3-0.6,1.8c-0.3,0.5-0.6,0.8-1,1.1C191.9,138.3,191.5,138.4,191,138.4z M191,136.5c0.2,0,0.3-0.1,0.4-0.2
					c0.1-0.1,0.2-0.3,0.3-0.6c0.1-0.3,0.2-0.7,0.2-1.2c0.1-0.5,0.1-1.1,0.1-1.9v-0.6c0-0.8,0-1.4-0.1-1.9c0-0.5-0.1-0.9-0.2-1.2
					c-0.1-0.3-0.2-0.5-0.3-0.6c-0.1-0.1-0.3-0.2-0.4-0.2c-0.2,0-0.3,0.1-0.4,0.2c-0.1,0.1-0.2,0.3-0.3,0.6c-0.1,0.3-0.2,0.7-0.2,1.2
					c0,0.5-0.1,1.1-0.1,1.9v0.6c0,0.7,0,1.4,0.1,1.9c0.1,0.5,0.1,0.9,0.2,1.2c0.1,0.3,0.2,0.5,0.3,0.6
					C190.7,136.5,190.9,136.5,191,136.5z"/>
				<path style="fill:#231F20;" d="M195.1,126.6h2v11.7h-2V126.6z"/>
				<path style="fill:#231F20;" d="M198.4,126.6h1.9l2.1,5.9v-5.9h2v11.7h-1.8l-2.2-6.2v6.2h-2V126.6z"/>
				<path style="fill:#231F20;" d="M206.6,128.5h-1.4v-1.9h4.9v1.9h-1.4v9.7h-2V128.5z"/>
			</g>
		</g>
		<g>
			<g>
				<polygon style="fill:#231F20;" points="198.9,110.3 170.8,110.3 170.8,89.8 178.3,89.8 178.3,90.6 171.6,90.6 171.6,109.5 
					198.1,109.5 198.1,90.6 191.4,90.6 191.4,89.8 198.9,89.8 				"/>
				<path style="fill:#231F20;" d="M204.2,114h-38.6c-0.4,0-0.7-0.2-0.9-0.5l-1.8-2.4c-0.2-0.3-0.3-0.7-0.1-1.1
					c0.2-0.4,0.6-0.6,1-0.6h3.7V88.1c0-0.9,0.7-1.6,1.6-1.6h9.2v0.8h-9.2c-0.5,0-0.8,0.4-0.8,0.8v22.2h-4.4c-0.2,0-0.3,0.1-0.4,0.2
					c0,0.1-0.1,0.2,0,0.3l1.8,2.4c0.1,0.1,0.2,0.2,0.3,0.2h38.6c0.1,0,0.3-0.1,0.3-0.2l1.8-2.4c0.1-0.1,0.1-0.2,0-0.3
					c0-0.1-0.2-0.2-0.4-0.2h-4.4V88.1c0-0.5-0.4-0.8-0.8-0.8h-9.2v-0.8h9.2c0.9,0,1.6,0.7,1.6,1.6v21.4h3.7c0.5,0,0.9,0.2,1,0.6
					c0.2,0.3,0.1,0.7-0.1,1.1l-1.8,2.4C204.9,113.8,204.5,114,204.2,114z"/>
			</g>
			<rect x="167.9" y="109.5" style="fill:#231F20;" width="34" height="0.8"/>
			<g>
				<g>
					<circle style="fill:#00B594;" cx="184.9" cy="88.5" r="6.8"/>
				</g>
			</g>
			<polygon style="fill:#FFFFFF;" points="183.6,91.3 181.4,89.2 182,88.6 183.6,90.2 187.8,86 188.3,86.6 			"/>
		</g>
	</g>
	<g>
		<g style="opacity:0.5;">
			<g>
				<path style="fill:#231F20;" d="M219.4,336.5h4.5v1.9h-2.4v2.9h2.1v1.9h-2.1v3h2.5v1.9h-4.5V336.5z"/>
				<path style="fill:#231F20;" d="M224.9,336.5h1.9l2.1,5.9v-5.9h2v11.7h-1.8l-2.2-6.2v6.2h-2V336.5z"/>
				<path style="fill:#231F20;" d="M232.1,336.5h1.9c1.3,0,2.3,0.5,3,1.4c0.7,0.9,1.1,2.3,1.1,4.2v0.4c0,1.9-0.4,3.3-1.1,4.2
					c-0.7,0.9-1.7,1.4-3,1.4h-1.9V336.5z M234.2,346.3c0.2,0,0.5-0.1,0.7-0.2c0.2-0.1,0.4-0.3,0.6-0.6c0.2-0.3,0.3-0.7,0.4-1.2
					c0.1-0.5,0.1-1.1,0.1-1.8v-0.4c0-0.7,0-1.3-0.1-1.8c-0.1-0.5-0.2-0.9-0.4-1.2c-0.2-0.3-0.4-0.5-0.6-0.6
					c-0.2-0.1-0.4-0.2-0.7-0.2h-0.1L234.2,346.3L234.2,346.3z"/>
				<path style="fill:#231F20;" d="M241.7,336.5h1.8c0.6,0,1.1,0.1,1.5,0.2c0.5,0.2,0.9,0.4,1.2,0.7c0.3,0.3,0.6,0.7,0.8,1.2
					c0.2,0.5,0.3,1.1,0.3,1.8v0c0,0.7-0.1,1.2-0.3,1.7c-0.2,0.5-0.4,0.9-0.7,1.2c-0.3,0.3-0.7,0.6-1.1,0.8s-0.9,0.3-1.4,0.3h0v3.7
					h-2V336.5z M243.7,342.6c0.4,0,0.8-0.2,1.1-0.5c0.3-0.3,0.4-0.8,0.4-1.6v0c0-0.7-0.1-1.3-0.4-1.6c-0.3-0.3-0.6-0.5-1.1-0.5h-0.1
					L243.7,342.6L243.7,342.6z"/>
				<path style="fill:#231F20;" d="M251,348.3c-0.5,0-0.9-0.1-1.3-0.4c-0.4-0.2-0.7-0.6-1-1.1c-0.3-0.5-0.5-1.1-0.6-1.8
					s-0.2-1.5-0.2-2.5V342c0-1,0.1-1.8,0.2-2.5s0.4-1.3,0.6-1.8c0.3-0.5,0.6-0.8,1-1.1c0.4-0.2,0.8-0.3,1.3-0.3
					c0.5,0,0.9,0.1,1.3,0.3c0.4,0.2,0.7,0.6,1,1.1c0.3,0.5,0.5,1.1,0.6,1.8c0.1,0.7,0.2,1.5,0.2,2.5v0.6c0,1-0.1,1.8-0.2,2.5
					c-0.2,0.7-0.4,1.3-0.6,1.8c-0.3,0.5-0.6,0.8-1,1.1C251.9,348.2,251.5,348.3,251,348.3z M251,346.5c0.2,0,0.3-0.1,0.4-0.2
					c0.1-0.1,0.2-0.3,0.3-0.6c0.1-0.3,0.2-0.7,0.2-1.2c0.1-0.5,0.1-1.1,0.1-1.9V342c0-0.8,0-1.4-0.1-1.9c0-0.5-0.1-0.9-0.2-1.2
					c-0.1-0.3-0.2-0.5-0.3-0.6c-0.1-0.1-0.3-0.2-0.4-0.2c-0.2,0-0.3,0.1-0.4,0.2c-0.1,0.1-0.2,0.3-0.3,0.6c-0.1,0.3-0.2,0.7-0.2,1.2
					c0,0.5-0.1,1.1-0.1,1.9v0.6c0,0.7,0,1.4,0.1,1.9c0.1,0.5,0.1,0.9,0.2,1.2c0.1,0.3,0.2,0.5,0.3,0.6
					C250.7,346.4,250.9,346.5,251,346.5z"/>
				<path style="fill:#231F20;" d="M255.1,336.5h2v11.7h-2V336.5z"/>
				<path style="fill:#231F20;" d="M258.4,336.5h1.9l2.1,5.9v-5.9h2v11.7h-1.8l-2.2-6.2v6.2h-2V336.5z"/>
				<path style="fill:#231F20;" d="M266.6,338.4h-1.4v-1.9h4.9v1.9h-1.4v9.7h-2V338.4z"/>
			</g>
		</g>
		<g>
			<g>
				<polygon style="fill:#231F20;" points="258.9,322.2 230.8,322.2 230.8,301.7 238.3,301.7 238.3,302.5 231.6,302.5 231.6,321.4 
					258.1,321.4 258.1,302.5 251.4,302.5 251.4,301.7 258.9,301.7 				"/>
				<path style="fill:#231F20;" d="M264.2,325.9h-38.6c-0.4,0-0.7-0.2-0.9-0.5l-1.8-2.3c-0.2-0.3-0.3-0.7-0.1-1.1
					c0.2-0.4,0.6-0.6,1-0.6h3.7V300c0-0.9,0.7-1.6,1.6-1.6h9.2v0.8h-9.2c-0.5,0-0.8,0.4-0.8,0.8v22.2h-4.4c-0.2,0-0.3,0.1-0.4,0.2
					c0,0.1-0.1,0.2,0,0.3l1.8,2.4c0.1,0.1,0.2,0.2,0.3,0.2h38.6c0.1,0,0.3-0.1,0.3-0.2l1.8-2.4c0.1-0.1,0.1-0.2,0-0.3
					c0-0.1-0.2-0.2-0.4-0.2h-4.4V300c0-0.5-0.4-0.8-0.8-0.8h-9.2v-0.8h9.2c0.9,0,1.6,0.7,1.6,1.6v21.4h3.7c0.5,0,0.9,0.2,1,0.6
					c0.2,0.3,0.1,0.7-0.1,1.1l-1.8,2.4C264.9,325.7,264.5,325.9,264.2,325.9z"/>
			</g>
			<rect x="227.9" y="321.4" style="fill:#231F20;" width="34" height="0.8"/>
			<g>
				<g>
					<g>
						<g>
							<circle style="fill:#EE2228;" cx="244.9" cy="300.4" r="6.8"/>
						</g>
					</g>
				</g>
			</g>
			<g>
				<g>
					
						<rect x="241.7" y="300" transform="matrix(0.7071 0.7071 -0.7071 0.7071 284.1779 -85.1462)" style="fill:#FFFFFF;" width="6.3" height="0.9"/>
				</g>
				<g>
					
						<rect x="244.4" y="297.3" transform="matrix(0.7071 0.7071 -0.7071 0.7071 284.1569 -85.1483)" style="fill:#FFFFFF;" width="0.9" height="6.3"/>
				</g>
			</g>
		</g>
	</g>
</g>
<g id="text-infection">
	<g>
		<path style="fill:#010101;" d="M217.6,0.2h2.4v13.5h-2.4V0.2z"/>
		<path style="fill:#010101;" d="M221.4,0.2h2.2L226,7V0.2h2.3v13.5h-2.1l-2.5-7.1v7.1h-2.3V0.2z"/>
		<path style="fill:#010101;" d="M229.6,0.2h4.9v2.2H232v3.4h2.2v2.2H232v5.6h-2.4V0.2z"/>
		<path style="fill:#010101;" d="M235.6,0.2h5.2v2.2H238v3.4h2.5V8H238v3.4h2.9v2.2h-5.2V0.2z"/>
		<path style="fill:#010101;" d="M245.3,13.8c-0.5,0-1-0.1-1.5-0.4c-0.5-0.3-0.9-0.6-1.2-1.2c-0.3-0.5-0.6-1.2-0.8-2.1
			c-0.2-0.8-0.3-1.8-0.3-3V6.7c0-1.2,0.1-2.2,0.3-3c0.2-0.8,0.5-1.5,0.8-2.1c0.4-0.5,0.8-0.9,1.3-1.2c0.5-0.2,1-0.4,1.5-0.4
			c0.3,0,0.6,0,0.8,0.1c0.2,0,0.5,0.1,0.7,0.2v2.4c-0.2-0.1-0.5-0.3-0.7-0.3c-0.2-0.1-0.4-0.1-0.6-0.1c-0.3,0-0.5,0.1-0.7,0.2
			c-0.2,0.1-0.4,0.4-0.6,0.7c-0.2,0.3-0.3,0.8-0.4,1.3c-0.1,0.6-0.1,1.3-0.1,2.1v0.5c0,0.9,0,1.6,0.1,2.2c0.1,0.6,0.2,1,0.4,1.3
			s0.4,0.5,0.6,0.6s0.5,0.2,0.7,0.2c0.4,0,0.8-0.1,1.3-0.4v2.3c-0.3,0.2-0.5,0.3-0.8,0.3C246,13.7,245.7,13.8,245.3,13.8z"/>
		<path style="fill:#010101;" d="M249.5,2.4h-1.7V0.2h5.7v2.2h-1.7v11.3h-2.4V2.4z"/>
		<path style="fill:#010101;" d="M254.5,0.2h2.4v13.5h-2.4V0.2z"/>
		<path style="fill:#010101;" d="M261.7,13.9c-0.5,0-1-0.1-1.5-0.4c-0.4-0.3-0.8-0.7-1.1-1.2c-0.3-0.5-0.6-1.2-0.7-2.1
			s-0.3-1.8-0.3-2.9V6.6c0-1.1,0.1-2.1,0.3-2.9s0.4-1.5,0.7-2.1c0.3-0.5,0.7-1,1.1-1.2c0.4-0.3,0.9-0.4,1.5-0.4s1,0.1,1.5,0.4
			c0.4,0.3,0.8,0.7,1.1,1.2s0.6,1.2,0.7,2.1s0.3,1.8,0.3,2.9v0.7c0,1.1-0.1,2.1-0.3,2.9s-0.4,1.5-0.7,2.1s-0.7,1-1.1,1.2
			C262.7,13.7,262.2,13.9,261.7,13.9z M261.7,11.7c0.2,0,0.3-0.1,0.5-0.2c0.1-0.1,0.3-0.4,0.4-0.7c0.1-0.3,0.2-0.8,0.2-1.4
			c0.1-0.6,0.1-1.3,0.1-2.1V6.6c0-0.9,0-1.6-0.1-2.2c-0.1-0.6-0.1-1-0.2-1.4c-0.1-0.3-0.2-0.6-0.4-0.7c-0.1-0.1-0.3-0.2-0.5-0.2
			s-0.3,0.1-0.5,0.2c-0.1,0.1-0.3,0.4-0.4,0.7c-0.1,0.3-0.2,0.8-0.2,1.4c-0.1,0.6-0.1,1.3-0.1,2.2v0.7c0,0.9,0,1.6,0.1,2.1
			c0.1,0.6,0.1,1,0.2,1.4c0.1,0.3,0.2,0.6,0.4,0.7C261.3,11.6,261.5,11.7,261.7,11.7z"/>
		<path style="fill:#010101;" d="M266.4,0.2h2.2L271,7V0.2h2.3v13.5h-2.1l-2.5-7.1v7.1h-2.3V0.2z"/>
	</g>
</g>
<g id="green-line">
	<rect x="242.4" y="126.2" style="fill:#02B494;" width="6" height="61.7"/>
	<rect x="242.4" y="22.2" style="fill:#02B494;" width="6" height="70.7"/>
</g>
<g id="stop-1">
	<path style="fill:#BABABA;" d="M265.9,125.2h-3.5v-1h2.5v-0.5h1V125.2z M260.4,125.2h-3v-1h3V125.2z M255.4,125.2h-3v-1h3V125.2z
		 M250.4,125.2h-3v-1h3V125.2z M245.4,125.2h-3v-1h3V125.2z M240.4,125.2h-3v-1h3V125.2z M235.4,125.2h-3v-1h3V125.2z M230.4,125.2
		h-3v-1h3V125.2z M225.4,125.2h-3v-1h3V125.2z M222.9,122.7h-1v-3h1V122.7z M265.9,121.7h-1v-3h1V121.7z M222.9,117.7h-1v-3h1V117.7
		z M265.9,116.7h-1v-3h1V116.7z M222.9,112.7h-1v-3h1V112.7z M265.9,111.7h-1v-3h1V111.7z M222.9,107.7h-1v-3h1V107.7z M265.9,106.7
		h-1v-3h1V106.7z M222.9,102.7h-1v-3h1V102.7z M265.9,101.7h-1v-3h1V101.7z M222.9,97.7h-1v-3h1V97.7z M265.9,96.7h-1v-1.5h-0.5v-1
		h1.5V96.7z M262.4,95.2h-3v-1h3V95.2z M257.4,95.2h-3v-1h3V95.2z M252.4,95.2h-3v-1h3V95.2z M247.4,95.2h-3v-1h3V95.2z M242.4,95.2
		h-3v-1h3V95.2z M237.4,95.2h-3v-1h3V95.2z M232.4,95.2h-3v-1h3V95.2z M227.4,95.2h-3v-1h3V95.2z"/>
	<g>
		<g>
			<path style="fill:#231F20;" d="M233.5,116.6c-0.5,0-0.9-0.1-1.3-0.2c-0.4-0.1-0.8-0.2-1.1-0.4v-2.4c0.4,0.3,0.8,0.4,1.1,0.6
				c0.3,0.1,0.7,0.2,1,0.2c0.3,0,0.6-0.1,0.9-0.3c0.3-0.2,0.4-0.5,0.4-0.9v0c0-0.2,0-0.3,0-0.5c0-0.1-0.1-0.3-0.2-0.5
				c-0.1-0.2-0.2-0.4-0.4-0.6c-0.2-0.2-0.4-0.5-0.7-0.8c-0.4-0.5-0.7-0.9-1-1.2c-0.3-0.4-0.5-0.7-0.7-1s-0.3-0.7-0.4-1
				c-0.1-0.3-0.1-0.7-0.1-1.1v0c0-0.5,0.1-1,0.3-1.5s0.4-0.8,0.7-1.1c0.3-0.3,0.6-0.5,1-0.7s0.8-0.3,1.3-0.3c0.5,0,0.9,0,1.2,0.1
				c0.3,0.1,0.6,0.2,0.9,0.3v2.4c-0.4-0.2-0.7-0.4-0.9-0.5c-0.3-0.1-0.5-0.1-0.8-0.1c-0.3,0-0.6,0.1-0.9,0.3
				c-0.2,0.2-0.4,0.5-0.4,0.9v0c0,0.2,0,0.3,0,0.4s0.1,0.3,0.2,0.4c0.1,0.1,0.2,0.3,0.4,0.5s0.4,0.5,0.7,0.8c0.5,0.5,0.8,1,1.1,1.4
				c0.3,0.4,0.5,0.8,0.7,1.1c0.2,0.3,0.3,0.7,0.3,1c0.1,0.3,0.1,0.7,0.1,1.1v0c0,0.5-0.1,1-0.3,1.4s-0.4,0.8-0.7,1.1
				c-0.3,0.3-0.7,0.5-1.1,0.7C234.4,116.5,233.9,116.6,233.5,116.6z"/>
			<path style="fill:#231F20;" d="M238.6,105.2h-1.7V103h5.7v2.2h-1.7v11.3h-2.4V105.2z"/>
			<path style="fill:#231F20;" d="M246.6,116.7c-0.5,0-1-0.1-1.5-0.4c-0.4-0.3-0.8-0.7-1.1-1.2c-0.3-0.5-0.6-1.2-0.7-2.1
				s-0.3-1.8-0.3-2.9v-0.7c0-1.1,0.1-2.1,0.3-2.9s0.4-1.5,0.7-2.1c0.3-0.5,0.7-1,1.1-1.2c0.4-0.3,0.9-0.4,1.5-0.4s1,0.1,1.5,0.4
				c0.4,0.3,0.8,0.7,1.1,1.2s0.6,1.2,0.7,2.1s0.3,1.8,0.3,2.9v0.7c0,1.1-0.1,2.1-0.3,2.9s-0.4,1.5-0.7,2.1s-0.7,1-1.1,1.2
				C247.6,116.5,247.1,116.7,246.6,116.7z M246.6,114.5c0.2,0,0.3-0.1,0.5-0.2c0.1-0.1,0.3-0.4,0.4-0.7c0.1-0.3,0.2-0.8,0.2-1.4
				c0.1-0.6,0.1-1.3,0.1-2.1v-0.7c0-0.9,0-1.6-0.1-2.2c-0.1-0.6-0.1-1-0.2-1.4c-0.1-0.3-0.2-0.6-0.4-0.7c-0.1-0.1-0.3-0.2-0.5-0.2
				s-0.3,0.1-0.5,0.2c-0.1,0.1-0.3,0.4-0.4,0.7c-0.1,0.3-0.2,0.8-0.2,1.4c-0.1,0.6-0.1,1.3-0.1,2.2v0.7c0,0.9,0,1.6,0.1,2.1
				c0.1,0.6,0.1,1,0.2,1.4c0.1,0.3,0.2,0.6,0.4,0.7C246.2,114.4,246.4,114.5,246.6,114.5z"/>
			<path style="fill:#231F20;" d="M251.3,103h2.1c0.6,0,1.2,0.1,1.8,0.3s1,0.5,1.4,0.8c0.4,0.4,0.7,0.8,0.9,1.4s0.3,1.3,0.3,2.1v0
				c0,0.8-0.1,1.4-0.3,2c-0.2,0.6-0.5,1-0.8,1.4c-0.4,0.4-0.8,0.7-1.3,0.9c-0.5,0.2-1,0.3-1.6,0.4h0v4.2h-2.4V103z M253.7,110
				c0.5,0,0.9-0.2,1.2-0.6s0.5-1,0.5-1.8v0c0-0.9-0.2-1.5-0.5-1.9c-0.3-0.4-0.7-0.6-1.2-0.6h-0.1L253.7,110L253.7,110z"/>
		</g>
	</g>
</g>
<g id="red-line">
	<rect x="242.4" y="240.8" style="fill:#EE2228;" width="6" height="43.4"/>
	<rect x="242.4" y="356.8" style="fill:#EE2228;" width="6" height="43.4"/>
</g>
<g id="green-alert">
	<circle style="fill:#02B494;" cx="309" cy="110.5" r="31.3"/>
	<g>
		<path style="fill:#FFFFFF;" d="M305.5,91.9v-2.1h6.9v2.1l-2,26.9h-2.9L305.5,91.9z M305.6,123.8h6.7v7.2h-6.7V123.8z"/>
	</g>
</g>
<g id="red-alert-1">
	<circle style="fill:#EE2228;" cx="303.9" cy="319.1" r="15.5"/>
	<g>
		<path style="fill:#FFFFFF;" d="M302.2,309.9v-1h3.4v1l-1,13.3h-1.4L302.2,309.9z M302.3,325.7h3.3v3.5h-3.3V325.7z"/>
	</g>
</g>
<g id="red-alert-2">
	<circle style="fill:#EE2228;" cx="342.1" cy="275" r="20.7"/>
	<g>
		<path style="fill:#FFFFFF;" d="M339.8,262.8v-1.4h4.5v1.4l-1.3,17.7h-1.9L339.8,262.8z M339.9,283.8h4.5v4.7h-4.5V283.8z"/>
	</g>
</g>
<g id="red-alert-3">
	<circle style="fill:#EE2228;" cx="368" cy="328.4" r="31.3"/>
	<g>
		<path style="fill:#FFFFFF;" d="M364.5,309.8v-2.1h6.9v2.1l-2,26.9h-2.9L364.5,309.8z M364.6,341.7h6.7v7.2h-6.7V341.7z"/>
	</g>
</g>
<g id="red-alert-4">
	<circle style="fill:#EE2228;" cx="403" cy="278.5" r="23.6"/>
	<g>
		<path style="fill:#FFFFFF;" d="M400.4,264.5v-1.5h5.2v1.5l-1.5,20.3h-2.2L400.4,264.5z M400.5,288.5h5.1v5.4h-5.1V288.5z"/>
	</g>
</g>
<g id="red-alert-5">
	<circle style="fill:#EE2228;" cx="435.8" cy="353.3" r="26.4"/>
	<g>
		<path style="fill:#FFFFFF;" d="M432.9,337.6v-1.7h5.8v1.7l-1.7,22.7h-2.4L432.9,337.6z M433,364.5h5.7v6H433V364.5z"/>
	</g>
</g>
<g id="red-alert-6">
	<circle style="fill:#EE2228;" cx="467" cy="286.5" r="37.6"/>
	<g>
		<path style="fill:#FFFFFF;" d="M462.9,264.2v-2.5h8.2v2.5l-2.4,32.3h-3.5L462.9,264.2z M463,302.4h8.1v8.6H463V302.4z"/>
	</g>
</g>
<g id="grey-line">
	<rect x="540.4" y="339.2" style="opacity:0.2;fill:#010101;" width="6" height="60.7"/>
	<rect x="540.4" y="241.2" style="opacity:0.2;fill:#010101;" width="6" height="64.7"/>
</g>
<g id="stop-2">
	<path style="fill:#BABABA;" d="M563.9,337.7h-3.5v-1h2.5v-0.5h1V337.7z M558.4,337.7h-3v-1h3V337.7z M553.4,337.7h-3v-1h3V337.7z
		 M548.4,337.7h-3v-1h3V337.7z M543.4,337.7h-3v-1h3V337.7z M538.4,337.7h-3v-1h3V337.7z M533.4,337.7h-3v-1h3V337.7z M528.4,337.7
		h-3v-1h3V337.7z M523.4,337.7h-3v-1h3V337.7z M520.9,335.2h-1v-3h1V335.2z M563.9,334.2h-1v-3h1V334.2z M520.9,330.2h-1v-3h1V330.2
		z M563.9,329.2h-1v-3h1V329.2z M520.9,325.2h-1v-3h1V325.2z M563.9,324.2h-1v-3h1V324.2z M520.9,320.2h-1v-3h1V320.2z M563.9,319.2
		h-1v-3h1V319.2z M520.9,315.2h-1v-3h1V315.2z M563.9,314.2h-1v-3h1V314.2z M520.9,310.2h-1v-3h1V310.2z M563.9,309.2h-1v-1.5h-0.5
		v-1h1.5V309.2z M560.4,307.7h-3v-1h3V307.7z M555.4,307.7h-3v-1h3V307.7z M550.4,307.7h-3v-1h3V307.7z M545.4,307.7h-3v-1h3V307.7z
		 M540.4,307.7h-3v-1h3V307.7z M535.4,307.7h-3v-1h3V307.7z M530.4,307.7h-3v-1h3V307.7z M525.4,307.7h-3v-1h3V307.7z"/>
	<g>
		<g>
			<path style="fill:#231F20;" d="M531.5,329.1c-0.5,0-0.9-0.1-1.3-0.2c-0.4-0.1-0.8-0.2-1.1-0.4v-2.4c0.4,0.3,0.8,0.4,1.1,0.6
				c0.3,0.1,0.7,0.2,1,0.2c0.3,0,0.6-0.1,0.9-0.3c0.3-0.2,0.4-0.5,0.4-0.9v0c0-0.2,0-0.3,0-0.5c0-0.1-0.1-0.3-0.2-0.5
				s-0.2-0.4-0.4-0.6s-0.4-0.5-0.7-0.8c-0.4-0.5-0.7-0.9-1-1.2c-0.3-0.4-0.5-0.7-0.7-1c-0.2-0.3-0.3-0.7-0.4-1
				c-0.1-0.3-0.1-0.7-0.1-1.1v0c0-0.5,0.1-1,0.3-1.5c0.2-0.4,0.4-0.8,0.7-1.1c0.3-0.3,0.6-0.5,1-0.7c0.4-0.2,0.8-0.3,1.3-0.3
				c0.5,0,0.9,0,1.2,0.1c0.3,0.1,0.6,0.2,0.9,0.3v2.4c-0.4-0.2-0.7-0.4-0.9-0.5c-0.3-0.1-0.5-0.1-0.8-0.1c-0.3,0-0.6,0.1-0.9,0.3
				c-0.2,0.2-0.4,0.5-0.4,0.9v0c0,0.2,0,0.3,0,0.4c0,0.1,0.1,0.3,0.2,0.4c0.1,0.1,0.2,0.3,0.4,0.5c0.2,0.2,0.4,0.5,0.7,0.8
				c0.5,0.5,0.8,1,1.1,1.4s0.5,0.8,0.7,1.1c0.2,0.3,0.3,0.7,0.3,1s0.1,0.7,0.1,1.1v0c0,0.5-0.1,1-0.3,1.4c-0.2,0.4-0.4,0.8-0.7,1.1
				c-0.3,0.3-0.7,0.5-1.1,0.7C532.4,329,531.9,329.1,531.5,329.1z"/>
			<path style="fill:#231F20;" d="M536.6,317.8h-1.7v-2.2h5.7v2.2h-1.7V329h-2.4V317.8z"/>
			<path style="fill:#231F20;" d="M544.6,329.2c-0.5,0-1-0.1-1.5-0.4c-0.4-0.3-0.8-0.7-1.1-1.2c-0.3-0.5-0.6-1.2-0.7-2.1
				c-0.2-0.8-0.3-1.8-0.3-2.9v-0.7c0-1.1,0.1-2.1,0.3-2.9c0.2-0.8,0.4-1.5,0.7-2.1c0.3-0.5,0.7-1,1.1-1.2c0.4-0.3,0.9-0.4,1.5-0.4
				s1,0.1,1.5,0.4c0.4,0.3,0.8,0.7,1.1,1.2s0.6,1.2,0.7,2.1s0.3,1.8,0.3,2.9v0.7c0,1.1-0.1,2.1-0.3,2.9s-0.4,1.5-0.7,2.1
				s-0.7,1-1.1,1.2S545.1,329.2,544.6,329.2z M544.6,327.1c0.2,0,0.3-0.1,0.5-0.2c0.1-0.1,0.3-0.4,0.4-0.7c0.1-0.3,0.2-0.8,0.2-1.4
				c0.1-0.6,0.1-1.3,0.1-2.1v-0.7c0-0.9,0-1.6-0.1-2.2c-0.1-0.6-0.1-1-0.2-1.4c-0.1-0.3-0.2-0.6-0.4-0.7c-0.1-0.1-0.3-0.2-0.5-0.2
				s-0.3,0.1-0.5,0.2c-0.1,0.1-0.3,0.4-0.4,0.7c-0.1,0.3-0.2,0.8-0.2,1.4c-0.1,0.6-0.1,1.3-0.1,2.2v0.7c0,0.9,0,1.6,0.1,2.1
				c0.1,0.6,0.1,1,0.2,1.4c0.1,0.3,0.2,0.6,0.4,0.7C544.2,327,544.4,327.1,544.6,327.1z"/>
			<path style="fill:#231F20;" d="M549.3,315.5h2.1c0.6,0,1.2,0.1,1.8,0.3s1,0.5,1.4,0.8c0.4,0.4,0.7,0.8,0.9,1.4
				c0.2,0.6,0.3,1.3,0.3,2.1v0c0,0.8-0.1,1.4-0.3,2c-0.2,0.6-0.5,1-0.8,1.4c-0.4,0.4-0.8,0.7-1.3,0.9c-0.5,0.2-1,0.3-1.6,0.4h0v4.2
				h-2.4V315.5z M551.7,322.6c0.5,0,0.9-0.2,1.2-0.6s0.5-1,0.5-1.8v0c0-0.9-0.2-1.5-0.5-1.9c-0.3-0.4-0.7-0.6-1.2-0.6h-0.1
				L551.7,322.6L551.7,322.6z"/>
		</g>
	</g>
</g>
</svg>