<svg version="1.1" id="Layer_1" xmlns="http://www.w3.org/2000/svg" xmlns:xlink="http://www.w3.org/1999/xlink" x="0px" y="0px"
	 width="591.3px" height="173.6px" viewBox="0 0 591.3 173.6" style="enable-background:new 0 0 591.3 173.6;" xml:space="preserve"
	>
<g id="horizontal-line" style="opacity:0.2;">
	<rect x="2.1" y="47.9" style="fill:#231F20;" width="1.5" height="1"/>
	<path style="fill:#231F20;" d="M587.4,48.9h-3v-1h3V48.9z M582.4,48.9h-3v-1h3V48.9z M577.4,48.9h-3v-1h3V48.9z M572.4,48.9h-3v-1
		h3V48.9z M567.4,48.9h-3v-1h3V48.9z M562.4,48.9h-3v-1h3V48.9z M557.4,48.9h-3v-1h3V48.9z M552.4,48.9h-3v-1h3V48.9z M547.4,48.9
		h-3v-1h3V48.9z M542.5,48.9h-3v-1h3V48.9z M537.5,48.9h-3v-1h3V48.9z M532.5,48.9h-3v-1h3V48.9z M527.5,48.9h-3v-1h3V48.9z
		 M522.5,48.9h-3v-1h3V48.9z M517.5,48.9h-3v-1h3V48.9z M512.5,48.9h-3v-1h3V48.9z M507.5,48.9h-3v-1h3V48.9z M502.5,48.9h-3v-1h3
		V48.9z M497.5,48.9h-3v-1h3V48.9z M492.6,48.9h-3v-1h3V48.9z M487.6,48.9h-3v-1h3V48.9z M482.6,48.9h-3v-1h3V48.9z M477.6,48.9h-3
		v-1h3V48.9z M472.6,48.9h-3v-1h3V48.9z M467.6,48.9h-3v-1h3V48.9z M462.6,48.9h-3v-1h3V48.9z M457.6,48.9h-3v-1h3V48.9z
		 M452.6,48.9h-3v-1h3V48.9z M447.7,48.9h-3v-1h3V48.9z M442.7,48.9h-3v-1h3V48.9z M437.7,48.9h-3v-1h3V48.9z M432.7,48.9h-3v-1h3
		V48.9z M427.7,48.9h-3v-1h3V48.9z M422.7,48.9h-3v-1h3V48.9z M417.7,48.9h-3v-1h3V48.9z M412.7,48.9h-3v-1h3V48.9z M407.7,48.9h-3
		v-1h3V48.9z M402.8,48.9h-3v-1h3V48.9z M397.8,48.9h-3v-1h3V48.9z M392.8,48.9h-3v-1h3V48.9z M387.8,48.9h-3v-1h3V48.9z
		 M382.8,48.9h-3v-1h3V48.9z M377.8,48.9h-3v-1h3V48.9z M372.8,48.9h-3v-1h3V48.9z M367.8,48.9h-3v-1h3V48.9z M362.8,48.9h-3v-1h3
		V48.9z M357.8,48.9h-3v-1h3V48.9z M352.9,48.9h-3v-1h3V48.9z M347.9,48.9h-3v-1h3V48.9z M342.9,48.9h-3v-1h3V48.9z M337.9,48.9h-3
		v-1h3V48.9z M332.9,48.9h-3v-1h3V48.9z M327.9,48.9h-3v-1h3V48.9z M322.9,48.9h-3v-1h3V48.9z M317.9,48.9h-3v-1h3V48.9z
		 M312.9,48.9h-3v-1h3V48.9z M308,48.9h-3v-1h3V48.9z M303,48.9h-3v-1h3V48.9z M298,48.9h-3v-1h3V48.9z M293,48.9h-3v-1h3V48.9z
		 M288,48.9h-3v-1h3V48.9z M283,48.9h-3v-1h3V48.9z M278,48.9h-3v-1h3V48.9z M273,48.9h-3v-1h3V48.9z M268,48.9h-3v-1h3V48.9z
		 M263.1,48.9h-3v-1h3V48.9z M258.1,48.9h-3v-1h3V48.9z M253.1,48.9h-3v-1h3V48.9z M248.1,48.9h-3v-1h3V48.9z M243.1,48.9h-3v-1h3
		V48.9z M238.1,48.9h-3v-1h3V48.9z M233.1,48.9h-3v-1h3V48.9z M228.1,48.9h-3v-1h3V48.9z M223.1,48.9h-3v-1h3V48.9z M218.2,48.9h-3
		v-1h3V48.9z M213.2,48.9h-3v-1h3V48.9z M208.2,48.9h-3v-1h3V48.9z M203.2,48.9h-3v-1h3V48.9z M198.2,48.9h-3v-1h3V48.9z
		 M193.2,48.9h-3v-1h3V48.9z M188.2,48.9h-3v-1h3V48.9z M183.2,48.9h-3v-1h3V48.9z M178.2,48.9h-3v-1h3V48.9z M173.2,48.9h-3v-1h3
		V48.9z M168.3,48.9h-3v-1h3V48.9z M163.3,48.9h-3v-1h3V48.9z M158.3,48.9h-3v-1h3V48.9z M153.3,48.9h-3v-1h3V48.9z M148.3,48.9h-3
		v-1h3V48.9z M143.3,48.9h-3v-1h3V48.9z M138.3,48.9h-3v-1h3V48.9z M133.3,48.9h-3v-1h3V48.9z M128.3,48.9h-3v-1h3V48.9z
		 M123.4,48.9h-3v-1h3V48.9z M118.4,48.9h-3v-1h3V48.9z M113.4,48.9h-3v-1h3V48.9z M108.4,48.9h-3v-1h3V48.9z M103.4,48.9h-3v-1h3
		V48.9z M98.4,48.9h-3v-1h3V48.9z M93.4,48.9h-3v-1h3V48.9z M88.4,48.9h-3v-1h3V48.9z M83.4,48.9h-3v-1h3V48.9z M78.4,48.9h-3v-1h3
		V48.9z M73.5,48.9h-3v-1h3V48.9z M68.5,48.9h-3v-1h3V48.9z M63.5,48.9h-3v-1h3V48.9z M58.5,48.9h-3v-1h3V48.9z M53.5,48.9h-3v-1h3
		V48.9z M48.5,48.9h-3v-1h3V48.9z M43.5,48.9h-3v-1h3V48.9z M38.5,48.9h-3v-1h3V48.9z M33.5,48.9h-3v-1h3V48.9z M28.6,48.9h-3v-1h3
		V48.9z M23.6,48.9h-3v-1h3V48.9z M18.6,48.9h-3v-1h3V48.9z M13.6,48.9h-3v-1h3V48.9z M8.6,48.9h-3v-1h3V48.9z"/>
	<rect x="589.4" y="47.9" style="fill:#231F20;" width="1.5" height="1"/>
</g>
<g id="vertical-lines">
	<g id="vertical-line-left" style="opacity:0.2;">
		<rect x="136.4" y="0" style="fill:#231F20;" width="1" height="1.5"/>
		<path style="fill:#231F20;" d="M137.4,170.1h-1v-3h1V170.1z M137.4,165.2h-1v-3h1V165.2z M137.4,160.2h-1v-3h1V160.2z
			 M137.4,155.3h-1v-3h1V155.3z M137.4,150.3h-1v-3h1V150.3z M137.4,145.3h-1v-3h1V145.3z M137.4,140.4h-1v-3h1V140.4z M137.4,135.4
			h-1v-3h1V135.4z M137.4,130.5h-1v-3h1V130.5z M137.4,125.5h-1v-3h1V125.5z M137.4,120.5h-1v-3h1V120.5z M137.4,115.6h-1v-3h1
			V115.6z M137.4,110.6h-1v-3h1V110.6z M137.4,105.7h-1v-3h1V105.7z M137.4,100.7h-1v-3h1V100.7z M137.4,95.7h-1v-3h1V95.7z
			 M137.4,90.8h-1v-3h1V90.8z M137.4,85.8h-1v-3h1V85.8z M137.4,80.9h-1v-3h1V80.9z M137.4,75.9h-1v-3h1V75.9z M137.4,70.9h-1v-3h1
			V70.9z M137.4,66h-1v-3h1V66z M137.4,61h-1v-3h1V61z M137.4,56.1h-1v-3h1V56.1z M137.4,51.1h-1v-3h1V51.1z M137.4,46.1h-1v-3h1
			V46.1z M137.4,41.2h-1v-3h1V41.2z M137.4,36.2h-1v-3h1V36.2z M137.4,31.3h-1v-3h1V31.3z M137.4,26.3h-1v-3h1V26.3z M137.4,21.3h-1
			v-3h1V21.3z M137.4,16.4h-1v-3h1V16.4z M137.4,11.4h-1v-3h1V11.4z M137.4,6.5h-1v-3h1V6.5z"/>
		<rect x="136.4" y="172.1" style="fill:#231F20;" width="1" height="1.5"/>
	</g>
	<g id="vertical-line-right" style="opacity:0.2;">
		<rect x="476.8" y="0" style="fill:#231F20;" width="1" height="1.5"/>
		<path style="fill:#231F20;" d="M477.8,170.1h-1v-3h1V170.1z M477.8,165.2h-1v-3h1V165.2z M477.8,160.2h-1v-3h1V160.2z
			 M477.8,155.3h-1v-3h1V155.3z M477.8,150.3h-1v-3h1V150.3z M477.8,145.3h-1v-3h1V145.3z M477.8,140.4h-1v-3h1V140.4z M477.8,135.4
			h-1v-3h1V135.4z M477.8,130.5h-1v-3h1V130.5z M477.8,125.5h-1v-3h1V125.5z M477.8,120.5h-1v-3h1V120.5z M477.8,115.6h-1v-3h1
			V115.6z M477.8,110.6h-1v-3h1V110.6z M477.8,105.7h-1v-3h1V105.7z M477.8,100.7h-1v-3h1V100.7z M477.8,95.7h-1v-3h1V95.7z
			 M477.8,90.8h-1v-3h1V90.8z M477.8,85.8h-1v-3h1V85.8z M477.8,80.9h-1v-3h1V80.9z M477.8,75.9h-1v-3h1V75.9z M477.8,70.9h-1v-3h1
			V70.9z M477.8,66h-1v-3h1V66z M477.8,61h-1v-3h1V61z M477.8,56.1h-1v-3h1V56.1z M477.8,51.1h-1v-3h1V51.1z M477.8,46.1h-1v-3h1
			V46.1z M477.8,41.2h-1v-3h1V41.2z M477.8,36.2h-1v-3h1V36.2z M477.8,31.3h-1v-3h1V31.3z M477.8,26.3h-1v-3h1V26.3z M477.8,21.3h-1
			v-3h1V21.3z M477.8,16.4h-1v-3h1V16.4z M477.8,11.4h-1v-3h1V11.4z M477.8,6.5h-1v-3h1V6.5z"/>
		<rect x="476.8" y="172.1" style="fill:#231F20;" width="1" height="1.5"/>
	</g>
</g>
<g id="text-primary">
	<g id="text-prevention">
		<g>
			<path style="fill:#231F20;" d="M1.7,86.1h3.2c1,0,1.9,0.1,2.7,0.4c0.8,0.3,1.5,0.7,2.1,1.2c0.6,0.5,1,1.3,1.4,2.1
				c0.3,0.9,0.5,1.9,0.5,3.1V93c0,1.1-0.2,2.1-0.5,3c-0.3,0.9-0.7,1.6-1.3,2.2c-0.6,0.6-1.2,1-1.9,1.3c-0.7,0.3-1.6,0.5-2.5,0.6l0,0
				v6.4H1.7V86.1z M5.3,96.8c0.7,0,1.4-0.3,1.9-0.9C7.7,95.3,8,94.4,8,93.2v-0.1c0-1.3-0.2-2.2-0.7-2.8s-1.1-0.9-1.8-0.9H5.3V96.8
				L5.3,96.8z"/>
			<path style="fill:#231F20;" d="M12.9,86.1h3.7c0.9,0,1.7,0.1,2.5,0.4c0.8,0.3,1.4,0.6,2,1.2c0.6,0.5,1,1.2,1.3,2
				c0.3,0.8,0.5,1.8,0.5,2.9v0.3c0,1.3-0.2,2.4-0.7,3.3c-0.5,0.9-1,1.5-1.7,2l2.7,8.3h-3.8l-2.3-7.1H17h-0.6v7.1h-3.5V86.1z
				 M16.6,96.2c0.8,0,1.4-0.2,1.9-0.7s0.8-1.3,0.8-2.5v-0.2c0-0.6-0.1-1.2-0.2-1.6c-0.1-0.4-0.3-0.7-0.6-1c-0.3-0.3-0.5-0.4-0.9-0.5
				c-0.3-0.1-0.7-0.1-1.1-0.1h-0.1v6.7L16.6,96.2L16.6,96.2z"/>
			<path style="fill:#231F20;" d="M24.5,86.1h7.8v3.4H28v5.1h3.7V98H28v5.2h4.3v3.4h-7.9V86.1H24.5z"/>
			<path style="fill:#231F20;" d="M33,86.1h3.6l1.9,13.2l1.9-13.2H44l-3.6,20.4h-3.7L33,86.1z"/>
			<path style="fill:#231F20;" d="M45,86.1h7.8v3.4h-4.2v5.1h3.7V98h-3.7v5.2h4.3v3.4H45V86.1z"/>
			<path style="fill:#231F20;" d="M54.6,86.1H58l3.6,10.3V86.1H65v20.3h-3.2L58,95.6v10.8h-3.4V86.1z"/>
			<path style="fill:#231F20;" d="M69,89.5h-2.5v-3.4H75v3.4h-2.5v17H69V89.5z"/>
			<path style="fill:#231F20;" d="M76.5,86.1H80v20.3h-3.5V86.1z"/>
			<path style="fill:#231F20;" d="M87.3,106.7c-0.8,0-1.5-0.2-2.2-0.6c-0.7-0.4-1.2-1-1.7-1.8s-0.8-1.9-1.1-3.1
				c-0.3-1.2-0.4-2.7-0.4-4.4v-1c0-1.7,0.1-3.1,0.4-4.4c0.3-1.2,0.6-2.3,1.1-3.1s1-1.4,1.7-1.8c0.7-0.4,1.4-0.6,2.2-0.6
				c0.8,0,1.5,0.2,2.2,0.6c0.7,0.4,1.2,1,1.7,1.8s0.8,1.9,1.1,3.1c0.3,1.2,0.4,2.7,0.4,4.4v1c0,1.7-0.1,3.1-0.4,4.4
				c-0.3,1.2-0.6,2.3-1.1,3.1s-1,1.4-1.7,1.8C88.8,106.5,88.1,106.7,87.3,106.7z M87.3,103.5c0.3,0,0.5-0.1,0.7-0.3
				c0.2-0.2,0.4-0.6,0.6-1.1c0.2-0.5,0.3-1.2,0.4-2.1c0.1-0.9,0.1-1.9,0.1-3.2v-1c0-1.3,0-2.4-0.1-3.3c-0.1-0.9-0.2-1.5-0.4-2
				c-0.2-0.5-0.3-0.9-0.6-1.1c-0.2-0.2-0.5-0.3-0.7-0.3c-0.2,0-0.5,0.1-0.7,0.3c-0.2,0.2-0.4,0.6-0.6,1.1s-0.3,1.2-0.4,2
				c-0.1,0.9-0.1,1.9-0.1,3.3v1c0,1.3,0,2.4,0.1,3.2c0.1,0.9,0.2,1.5,0.4,2.1c0.2,0.5,0.3,0.9,0.6,1.1
				C86.8,103.4,87,103.5,87.3,103.5z"/>
			<path style="fill:#231F20;" d="M94.4,86.1h3.3l3.6,10.3V86.1h3.4v20.3h-3.2l-3.8-10.8v10.8h-3.4V86.1H94.4z"/>
		</g>
	</g>
	<g id="text-response">
		<g>
			<path style="fill:#231F20;" d="M507.6,86.1h3.7c0.9,0,1.7,0.1,2.5,0.4s1.4,0.6,2,1.2c0.6,0.5,1,1.2,1.3,2
				c0.3,0.8,0.5,1.8,0.5,2.9v0.3c0,1.3-0.2,2.4-0.7,3.3c-0.5,0.9-1,1.5-1.7,2l2.7,8.3h-3.8l-2.3-7.1h-0.1h-0.6v7.1h-3.5V86.1
				L507.6,86.1z M511.3,96.2c0.8,0,1.4-0.2,1.9-0.7s0.8-1.3,0.8-2.5v-0.2c0-0.6-0.1-1.2-0.2-1.6c-0.1-0.4-0.3-0.7-0.6-1
				c-0.3-0.3-0.5-0.4-0.9-0.5c-0.3-0.1-0.7-0.1-1.1-0.1h-0.1v6.7L511.3,96.2L511.3,96.2z"/>
			<path style="fill:#231F20;" d="M519.2,86.1h7.8v3.4h-4.2v5.1h3.7V98h-3.7v5.2h4.3v3.4h-7.9V86.1L519.2,86.1z"/>
			<path style="fill:#231F20;" d="M531.9,106.6c-0.7,0-1.3-0.1-1.9-0.2c-0.6-0.2-1.2-0.4-1.7-0.6v-3.7c0.6,0.4,1.2,0.7,1.7,0.9
				s1,0.3,1.5,0.3s0.9-0.1,1.3-0.4c0.4-0.3,0.6-0.7,0.6-1.3v-0.1c0-0.2,0-0.5-0.1-0.7c0-0.2-0.1-0.5-0.3-0.7
				c-0.1-0.3-0.3-0.6-0.6-0.9c-0.3-0.3-0.6-0.8-1-1.2c-0.6-0.7-1.1-1.3-1.5-1.8c-0.4-0.5-0.8-1-1.1-1.5s-0.5-1-0.6-1.5
				c-0.1-0.5-0.2-1.1-0.2-1.7v-0.1c0-0.8,0.1-1.6,0.4-2.2c0.3-0.7,0.6-1.2,1-1.7c0.4-0.5,1-0.8,1.6-1.1c0.6-0.3,1.3-0.4,2-0.4
				s1.3,0.1,1.8,0.2c0.5,0.1,0.9,0.3,1.4,0.5v3.7c-0.6-0.3-1-0.6-1.4-0.7c-0.4-0.1-0.8-0.2-1.3-0.2s-0.9,0.2-1.3,0.5
				c-0.4,0.3-0.5,0.7-0.5,1.3v0.1c0,0.2,0,0.4,0.1,0.6c0,0.2,0.1,0.4,0.3,0.6c0.1,0.2,0.3,0.5,0.6,0.8c0.3,0.3,0.6,0.7,1,1.2
				c0.7,0.8,1.3,1.5,1.7,2.1c0.4,0.6,0.8,1.1,1,1.6c0.2,0.5,0.4,1,0.5,1.5c0.1,0.5,0.1,1,0.1,1.6v0.1c0,0.8-0.1,1.5-0.4,2.2
				c-0.3,0.7-0.6,1.2-1.1,1.7s-1,0.8-1.6,1.1C533.3,106.5,532.6,106.6,531.9,106.6z"/>
			<path style="fill:#231F20;" d="M538.2,86.1h3.2c1,0,1.9,0.1,2.7,0.4c0.8,0.3,1.5,0.7,2.1,1.2c0.6,0.6,1,1.3,1.4,2.1
				c0.3,0.9,0.5,1.9,0.5,3.1V93c0,1.1-0.2,2.1-0.5,3c-0.3,0.9-0.7,1.6-1.3,2.2c-0.6,0.6-1.2,1-1.9,1.3c-0.7,0.3-1.6,0.5-2.5,0.6l0,0
				v6.4h-3.5V86.1H538.2z M541.8,96.8c0.7,0,1.4-0.3,1.9-0.9c0.5-0.6,0.8-1.5,0.8-2.7v-0.1c0-1.3-0.2-2.2-0.7-2.8s-1.1-0.9-1.8-0.9
				h-0.1L541.8,96.8L541.8,96.8z"/>
			<path style="fill:#231F20;" d="M554.4,106.7c-0.8,0-1.5-0.2-2.2-0.6c-0.7-0.4-1.2-1-1.7-1.8s-0.8-1.9-1.1-3.1
				c-0.3-1.2-0.4-2.7-0.4-4.4v-1c0-1.7,0.1-3.1,0.4-4.4c0.3-1.2,0.6-2.3,1.1-3.1s1-1.4,1.7-1.8c0.7-0.4,1.4-0.6,2.2-0.6
				c0.8,0,1.5,0.2,2.2,0.6c0.7,0.4,1.2,1,1.7,1.8s0.8,1.9,1.1,3.1c0.3,1.2,0.4,2.7,0.4,4.4v1c0,1.7-0.1,3.1-0.4,4.4
				c-0.3,1.2-0.6,2.3-1.1,3.1s-1,1.4-1.7,1.8C556,106.5,555.3,106.7,554.4,106.7z M554.4,103.5c0.3,0,0.5-0.1,0.7-0.3
				c0.2-0.2,0.4-0.6,0.6-1.1s0.3-1.2,0.4-2.1c0.1-0.9,0.1-1.9,0.1-3.2v-1c0-1.3,0-2.4-0.1-3.3c-0.1-0.9-0.2-1.5-0.4-2
				s-0.3-0.9-0.6-1.1c-0.2-0.2-0.5-0.3-0.7-0.3c-0.2,0-0.5,0.1-0.7,0.3c-0.2,0.2-0.4,0.6-0.6,1.1c-0.2,0.5-0.3,1.2-0.4,2
				c-0.1,0.9-0.1,1.9-0.1,3.3v1c0,1.3,0,2.4,0.1,3.2c0.1,0.9,0.2,1.5,0.4,2.1c0.2,0.5,0.3,0.9,0.6,1.1
				C553.9,103.4,554.2,103.5,554.4,103.5z"/>
			<path style="fill:#231F20;" d="M561.6,86.1h3.3l3.6,10.3V86.1h3.4v20.3h-3.2L565,95.7v10.8h-3.4V86.1z"/>
			<path style="fill:#231F20;" d="M577.2,106.6c-0.7,0-1.3-0.1-1.9-0.2c-0.6-0.2-1.2-0.4-1.7-0.6v-3.7c0.6,0.4,1.2,0.7,1.7,0.9
				s1,0.3,1.5,0.3s0.9-0.1,1.3-0.4c0.4-0.3,0.6-0.7,0.6-1.3v-0.1c0-0.2,0-0.5-0.1-0.7c0-0.2-0.1-0.5-0.3-0.7
				c-0.1-0.3-0.3-0.6-0.6-0.9c-0.3-0.3-0.6-0.8-1-1.2c-0.6-0.7-1.1-1.3-1.5-1.8c-0.4-0.5-0.8-1-1.1-1.5c-0.3-0.5-0.5-1-0.6-1.5
				s-0.2-1.1-0.2-1.7v-0.1c0-0.8,0.1-1.6,0.4-2.2c0.3-0.7,0.6-1.2,1-1.7c0.4-0.5,1-0.8,1.6-1.1c0.6-0.3,1.3-0.4,2-0.4
				s1.3,0.1,1.8,0.2c0.5,0.1,0.9,0.3,1.4,0.5v3.7c-0.6-0.3-1-0.6-1.4-0.7c-0.4-0.1-0.8-0.2-1.3-0.2s-0.9,0.2-1.3,0.5
				s-0.5,0.7-0.5,1.3v0.1c0,0.2,0,0.4,0.1,0.6c0,0.2,0.1,0.4,0.3,0.6c0.1,0.2,0.3,0.5,0.6,0.8c0.3,0.3,0.6,0.7,1,1.2
				c0.7,0.8,1.3,1.5,1.7,2.1c0.4,0.6,0.8,1.1,1,1.6s0.4,1,0.5,1.5c0.1,0.5,0.1,1,0.1,1.6v0.1c0,0.8-0.1,1.5-0.4,2.2
				c-0.3,0.7-0.6,1.2-1.1,1.7s-1,0.8-1.6,1.1C578.5,106.5,577.9,106.6,577.2,106.6z"/>
			<path style="fill:#231F20;" d="M583.5,86.1h7.8v3.4H587v5.1h3.7V98H587v5.2h4.3v3.4h-7.9L583.5,86.1L583.5,86.1z"/>
		</g>
	</g>
</g>
<g id="text-secondary">
	<g id="text-av-ngav" style="opacity:0.6;">
		<g>
			<path style="fill:#231F20;" d="M2.1,127.5c-0.5-0.5-0.9-1-1.2-1.6c-0.3-0.6-0.5-1.3-0.7-2.1C0.1,123,0,122.2,0,121.4
				c0-0.8,0.1-1.7,0.2-2.4c0.1-0.8,0.4-1.5,0.7-2.1c0.3-0.6,0.7-1.2,1.2-1.6s1.1-0.8,1.8-1v1.5c-0.4,0.2-0.7,0.5-0.9,0.8
				s-0.5,0.8-0.6,1.3c-0.2,0.5-0.3,1-0.3,1.6C2,120.1,2,120.7,2,121.4c0,0.7,0,1.3,0.1,1.9s0.2,1.2,0.3,1.6c0.2,0.5,0.4,0.9,0.6,1.3
				c0.2,0.4,0.6,0.6,0.9,0.8v1.5C3.1,128.3,2.5,128,2.1,127.5z"/>
			<path style="fill:#231F20;" d="M6.2,114.5h2.2l2.2,11.7h-2l-0.4-2.3H6.3l-0.4,2.3H4L6.2,114.5z M7.8,122.1l-0.6-3.9l-0.6,3.9H7.8
				z"/>
			<path style="fill:#231F20;" d="M10.4,114.5h2.1l1.1,7.6l1.1-7.6h2l-2.1,11.7h-2.1L10.4,114.5z"/>
			<path style="fill:#231F20;" d="M16.3,128.1c0.3-0.1,0.6-0.2,0.8-0.3c0.2-0.1,0.3-0.3,0.4-0.5s0.2-0.4,0.2-0.5c0-0.2,0-0.4,0-0.6
				h-1v-2.3H19v1.9c0,0.9-0.2,1.6-0.6,2.1s-1,0.9-1.9,1L16.3,128.1z"/>
			<path style="fill:#231F20;" d="M22.9,114.5h1.9l2.1,5.9v-5.9h2v11.7h-1.8l-2.2-6.2v6.2h-2V114.5z"/>
			<path style="fill:#231F20;" d="M33.6,126.3c-0.5,0-1-0.1-1.4-0.3c-0.4-0.2-0.8-0.6-1.2-1c-0.3-0.5-0.6-1-0.8-1.8
				c-0.2-0.7-0.3-1.6-0.3-2.6v-0.4c0-0.9,0.1-1.8,0.3-2.5c0.2-0.7,0.5-1.3,0.8-1.8s0.8-0.8,1.2-1.1c0.5-0.2,1-0.4,1.6-0.4
				c0.3,0,0.6,0,0.9,0.1c0.3,0.1,0.5,0.1,0.7,0.2v2.1c-0.3-0.2-0.5-0.3-0.7-0.4c-0.2-0.1-0.5-0.1-0.8-0.1c-0.6,0-1.1,0.3-1.4,0.9
				c-0.3,0.6-0.5,1.5-0.5,2.8v0.6c0,0.8,0,1.4,0.1,1.9s0.2,0.9,0.4,1.1c0.2,0.3,0.4,0.5,0.6,0.6c0.2,0.1,0.4,0.2,0.6,0.2h0.1h0.1v-3
				h-1v-1.8h2.8v6.2c-0.4,0.2-0.7,0.3-1,0.4C34.4,126.3,34,126.3,33.6,126.3z"/>
			<path style="fill:#231F20;" d="M38.4,114.5h2.2l2.2,11.7h-2l-0.4-2.3h-1.8l-0.4,2.3h-2L38.4,114.5z M40.1,122.1l-0.6-3.9
				l-0.6,3.9H40.1z"/>
			<path style="fill:#231F20;" d="M42.7,114.5h2.1l1.1,7.6l1.1-7.6h2l-2.1,11.7h-2.1L42.7,114.5z"/>
			<path style="fill:#231F20;" d="M49.4,127c0.4-0.2,0.7-0.5,0.9-0.8c0.2-0.3,0.5-0.8,0.6-1.3c0.2-0.5,0.3-1,0.3-1.6
				c0.1-0.6,0.1-1.2,0.1-1.9c0-0.7,0-1.3-0.1-1.9c-0.1-0.6-0.2-1.1-0.3-1.6c-0.2-0.5-0.4-0.9-0.6-1.3c-0.2-0.4-0.6-0.6-0.9-0.8v-1.5
				c0.7,0.2,1.3,0.5,1.8,1s0.9,1,1.2,1.6c0.3,0.6,0.5,1.3,0.7,2.1c0.1,0.8,0.2,1.6,0.2,2.4c0,0.9-0.1,1.7-0.2,2.4
				c-0.1,0.8-0.4,1.5-0.7,2.1c-0.3,0.6-0.7,1.2-1.2,1.6c-0.5,0.5-1.1,0.8-1.8,1V127z"/>
		</g>
	</g>
	<g id="text-manual-edr" style="opacity:0.6;">
		<g>
			<path style="fill:#231F20;" d="M507.7,127.5c-0.5-0.5-0.9-1-1.2-1.6c-0.3-0.6-0.5-1.3-0.7-2.1c-0.1-0.8-0.2-1.6-0.2-2.4
				c0-0.8,0.1-1.7,0.2-2.4c0.1-0.8,0.4-1.5,0.7-2.1c0.3-0.6,0.7-1.2,1.2-1.6s1.1-0.8,1.8-1v1.5c-0.4,0.2-0.7,0.5-0.9,0.8
				c-0.2,0.3-0.5,0.8-0.6,1.3c-0.2,0.5-0.3,1-0.3,1.6c-0.1,0.6-0.1,1.2-0.1,1.9c0,0.7,0,1.3,0.1,1.9c0.1,0.6,0.2,1.2,0.3,1.6
				c0.2,0.5,0.4,0.9,0.6,1.3c0.2,0.4,0.6,0.6,0.9,0.8v1.5C508.8,128.3,508.2,128,507.7,127.5z"/>
			<path style="fill:#231F20;" d="M510.6,114.5h2l1.4,4.3l1.4-4.3h2v11.7h-2v-7l-1.5,4.4l0,0l-1.5-4.4v7h-2v-11.7H510.6z"/>
			<path style="fill:#231F20;" d="M520.3,114.5h2.2l2.2,11.7h-2l-0.4-2.3h-1.8l-0.4,2.3h-2L520.3,114.5z M522,122.1l-0.6-3.9
				l-0.6,3.9H522z"/>
			<path style="fill:#231F20;" d="M525.3,114.5h1.9l2.1,5.9v-5.9h2v11.7h-1.8l-2.2-6.2v6.2h-2V114.5z"/>
			<path style="fill:#231F20;" d="M535.3,126.4c-0.4,0-0.8-0.1-1.2-0.2c-0.4-0.1-0.7-0.4-0.9-0.6c-0.3-0.3-0.5-0.7-0.6-1.1
				c-0.1-0.4-0.2-1-0.2-1.6v-8.3h2v8.5c0,0.5,0.1,0.9,0.2,1.1c0.1,0.2,0.4,0.3,0.6,0.3c0.3,0,0.5-0.1,0.6-0.3
				c0.2-0.2,0.2-0.6,0.2-1.1v-8.5h2v8.3c0,0.6-0.1,1.1-0.2,1.6c-0.1,0.5-0.3,0.8-0.6,1.1s-0.6,0.5-0.9,0.6
				C536,126.3,535.7,126.4,535.3,126.4z"/>
			<path style="fill:#231F20;" d="M540.9,114.5h2.2l2.2,11.7h-2l-0.4-2.3H541l-0.4,2.3h-2L540.9,114.5z M542.6,122.1l-0.6-3.9
				l-0.6,3.9H542.6z"/>
			<path style="fill:#231F20;" d="M545.9,114.5h2v9.7h2.1v1.9h-4.2v-11.6H545.9z"/>
			<path style="fill:#231F20;" d="M553.6,114.5h4.5v1.9h-2.4v2.9h2.2v1.9h-2.2v3h2.5v1.9h-4.5v-11.6H553.6z"/>
			<path style="fill:#231F20;" d="M559.1,114.5h1.9c1.3,0,2.3,0.5,3,1.4c0.7,0.9,1.1,2.3,1.1,4.2v0.4c0,1.9-0.4,3.3-1.1,4.2
				c-0.7,0.9-1.7,1.4-3,1.4h-1.9V114.5z M561.2,124.3c0.2,0,0.5-0.1,0.7-0.2c0.2-0.1,0.4-0.3,0.6-0.6s0.3-0.7,0.4-1.2
				c0.1-0.5,0.1-1.1,0.1-1.8v-0.4c0-0.7,0-1.3-0.1-1.8c-0.1-0.5-0.2-0.9-0.4-1.2s-0.4-0.5-0.6-0.6c-0.2-0.1-0.4-0.2-0.7-0.2h-0.1
				L561.2,124.3L561.2,124.3z"/>
			<path style="fill:#231F20;" d="M566,114.5h2.1c0.5,0,1,0.1,1.4,0.2c0.4,0.1,0.8,0.4,1.1,0.7c0.3,0.3,0.6,0.7,0.8,1.2
				c0.2,0.5,0.3,1,0.3,1.7v0.2c0,0.8-0.1,1.4-0.4,1.9s-0.6,0.9-1,1.2l1.6,4.7h-2.2l-1.3-4.1l0,0H568v4.1h-2V114.5L566,114.5z
				 M568.2,120.3c0.4,0,0.8-0.1,1.1-0.4c0.3-0.3,0.4-0.8,0.4-1.5v-0.1c0-0.4,0-0.7-0.1-0.9c-0.1-0.2-0.2-0.4-0.3-0.6
				c-0.1-0.1-0.3-0.2-0.5-0.3c-0.2-0.1-0.4-0.1-0.6-0.1h-0.1v3.9H568.2z"/>
			<path style="fill:#231F20;" d="M572.5,127c0.4-0.2,0.7-0.5,0.9-0.8c0.2-0.3,0.5-0.8,0.6-1.3c0.2-0.5,0.3-1,0.3-1.6
				c0.1-0.6,0.1-1.2,0.1-1.9c0-0.7,0-1.3-0.1-1.9c-0.1-0.6-0.2-1.1-0.3-1.6c-0.2-0.5-0.4-0.9-0.6-1.3c-0.2-0.4-0.6-0.6-0.9-0.8v-1.5
				c0.7,0.2,1.3,0.5,1.8,1s0.9,1,1.2,1.6c0.3,0.6,0.5,1.3,0.7,2.1c0.1,0.8,0.2,1.6,0.2,2.4c0,0.9-0.1,1.7-0.2,2.4
				c-0.1,0.8-0.4,1.5-0.7,2.1c-0.3,0.6-0.7,1.2-1.2,1.6c-0.5,0.5-1.1,0.8-1.8,1V127z"/>
		</g>
	</g>
</g>
<g id="text-top">
	<g>
		<path style="fill:#231F20;" d="M242.4,13.5h3.7c0.9,0,1.7,0.1,2.5,0.4c0.8,0.3,1.4,0.6,2,1.2c0.6,0.5,1,1.2,1.3,2
			c0.3,0.8,0.5,1.8,0.5,2.9v0.3c0,1.3-0.2,2.4-0.7,3.3c-0.5,0.9-1,1.5-1.7,2l2.7,8.3H249l-2.3-7.1h-0.1H246v7.1h-3.5V13.5H242.4z
			 M246.2,23.5c0.8,0,1.4-0.2,1.9-0.7s0.8-1.3,0.8-2.5V20c0-0.6-0.1-1.2-0.2-1.6c-0.1-0.4-0.3-0.7-0.6-1c-0.3-0.3-0.5-0.4-0.9-0.5
			c-0.3-0.1-0.7-0.1-1.1-0.1H246v6.7H246.2z"/>
		<path style="fill:#231F20;" d="M254,13.5h7.8v3.4h-4.2V22h3.7v3.4h-3.7v5.2h4.3V34H254V13.5z"/>
		<path style="fill:#231F20;" d="M266.8,34c-0.7,0-1.3-0.1-1.9-0.2c-0.6-0.2-1.2-0.4-1.7-0.6v-3.7c0.6,0.4,1.2,0.7,1.7,0.9
			c0.5,0.2,1,0.3,1.5,0.3s0.9-0.1,1.3-0.4c0.4-0.3,0.6-0.7,0.6-1.3v-0.1c0-0.2,0-0.5-0.1-0.7c0-0.2-0.1-0.5-0.3-0.7
			c-0.1-0.3-0.3-0.6-0.6-0.9c-0.3-0.3-0.6-0.8-1-1.2c-0.6-0.7-1.1-1.3-1.5-1.8c-0.4-0.5-0.8-1-1.1-1.5c-0.3-0.5-0.5-1-0.6-1.5
			s-0.2-1.1-0.2-1.7v-0.1c0-0.8,0.1-1.6,0.4-2.2c0.3-0.7,0.6-1.2,1-1.7c0.4-0.5,1-0.8,1.6-1.1s1.3-0.4,2-0.4c0.7,0,1.3,0.1,1.8,0.2
			c0.5,0.1,0.9,0.3,1.4,0.5v3.7c-0.6-0.3-1-0.6-1.4-0.7c-0.4-0.1-0.8-0.2-1.3-0.2s-0.9,0.2-1.3,0.5c-0.4,0.3-0.5,0.7-0.5,1.3v0.1
			c0,0.2,0,0.4,0.1,0.6c0,0.2,0.1,0.4,0.3,0.6c0.1,0.2,0.3,0.5,0.6,0.8c0.3,0.3,0.6,0.7,1,1.2c0.7,0.8,1.3,1.5,1.7,2.1
			c0.4,0.6,0.8,1.1,1,1.6c0.2,0.5,0.4,1,0.5,1.5c0.1,0.5,0.1,1,0.1,1.6v0.1c0,0.8-0.1,1.5-0.4,2.2s-0.6,1.2-1.1,1.7s-1,0.8-1.6,1.1
			C268.1,33.9,267.5,34,266.8,34z"/>
		<path style="fill:#231F20;" d="M273,13.5h3.2c1,0,1.9,0.1,2.7,0.4c0.8,0.3,1.5,0.7,2.1,1.2s1,1.3,1.4,2.1c0.3,0.9,0.5,1.9,0.5,3.1
			v0.1c0,1.1-0.2,2.1-0.5,3c-0.3,0.9-0.7,1.6-1.3,2.2c-0.6,0.6-1.2,1-1.9,1.3c-0.7,0.3-1.6,0.5-2.5,0.6l0,0v6.4H273V13.5z
			 M276.6,24.2c0.7,0,1.4-0.3,1.9-0.9s0.8-1.5,0.8-2.7v-0.1c0-1.3-0.2-2.2-0.7-2.8c-0.5-0.6-1.1-0.9-1.8-0.9h-0.1L276.6,24.2
			L276.6,24.2z"/>
		<path style="fill:#231F20;" d="M289.3,34.1c-0.8,0-1.5-0.2-2.2-0.6c-0.7-0.4-1.2-1-1.7-1.8c-0.5-0.8-0.8-1.9-1.1-3.1
			c-0.3-1.2-0.4-2.7-0.4-4.4v-1c0-1.7,0.1-3.1,0.4-4.4c0.3-1.2,0.6-2.3,1.1-3.1c0.5-0.8,1-1.4,1.7-1.8c0.7-0.4,1.4-0.6,2.2-0.6
			c0.8,0,1.5,0.2,2.2,0.6c0.7,0.4,1.2,1,1.7,1.8c0.5,0.8,0.8,1.9,1.1,3.1c0.3,1.2,0.4,2.7,0.4,4.4v1c0,1.7-0.1,3.1-0.4,4.4
			c-0.3,1.2-0.6,2.3-1.1,3.1c-0.5,0.8-1,1.4-1.7,1.8C290.8,33.9,290.1,34.1,289.3,34.1z M289.3,30.9c0.3,0,0.5-0.1,0.7-0.3
			s0.4-0.6,0.6-1.1c0.2-0.5,0.3-1.2,0.4-2.1c0.1-0.9,0.1-1.9,0.1-3.2v-1c0-1.3,0-2.4-0.1-3.3c-0.1-0.9-0.2-1.5-0.4-2
			c-0.2-0.5-0.3-0.9-0.6-1.1c-0.2-0.2-0.5-0.3-0.7-0.3c-0.2,0-0.5,0.1-0.7,0.3c-0.2,0.2-0.4,0.6-0.6,1.1s-0.3,1.2-0.4,2
			c-0.1,0.9-0.1,1.9-0.1,3.3v1c0,1.3,0,2.4,0.1,3.2c0.1,0.9,0.2,1.5,0.4,2.1c0.2,0.5,0.3,0.9,0.6,1.1
			C288.8,30.8,289,30.9,289.3,30.9z"/>
		<path style="fill:#231F20;" d="M296.4,13.5h3.3l3.6,10.3V13.5h3.4v20.3h-3.2L299.7,23v10.8h-3.4V13.5H296.4z"/>
		<path style="fill:#231F20;" d="M312,34c-0.7,0-1.3-0.1-1.9-0.2c-0.6-0.2-1.2-0.4-1.7-0.6v-3.7c0.6,0.4,1.2,0.7,1.7,0.9
			c0.5,0.2,1,0.3,1.5,0.3s0.9-0.1,1.3-0.4c0.4-0.3,0.6-0.7,0.6-1.3v-0.1c0-0.2,0-0.5-0.1-0.7c0-0.2-0.1-0.5-0.3-0.7
			c-0.1-0.3-0.3-0.6-0.6-0.9s-0.6-0.8-1-1.2c-0.6-0.7-1.1-1.3-1.5-1.8s-0.8-1-1.1-1.5c-0.3-0.5-0.5-1-0.6-1.5
			c-0.1-0.5-0.2-1.1-0.2-1.7v-0.1c0-0.8,0.1-1.6,0.4-2.2c0.3-0.7,0.6-1.2,1-1.7s1-0.8,1.6-1.1c0.6-0.3,1.3-0.4,2-0.4
			c0.7,0,1.3,0.1,1.8,0.2c0.5,0.1,0.9,0.3,1.4,0.5v3.7c-0.6-0.3-1-0.6-1.4-0.7c-0.4-0.1-0.8-0.2-1.3-0.2s-0.9,0.2-1.3,0.5
			c-0.4,0.3-0.5,0.7-0.5,1.3v0.1c0,0.2,0,0.4,0.1,0.6c0,0.2,0.1,0.4,0.3,0.6s0.3,0.5,0.6,0.8s0.6,0.7,1,1.2c0.7,0.8,1.3,1.5,1.7,2.1
			c0.4,0.6,0.8,1.1,1,1.6s0.4,1,0.5,1.5s0.1,1,0.1,1.6v0.1c0,0.8-0.1,1.5-0.4,2.2s-0.6,1.2-1.1,1.7s-1,0.8-1.6,1.1
			C313.4,33.9,312.7,34,312,34z"/>
		<path style="fill:#231F20;" d="M318.3,13.5h7.8v3.4h-4.2V22h3.7v3.4h-3.7v5.2h4.3V34h-7.9V13.5L318.3,13.5z"/>
		<path style="fill:#231F20;" d="M338.6,34c-0.9,0-1.7-0.2-2.5-0.6c-0.8-0.4-1.5-1-2.1-1.8s-1.1-1.8-1.4-3.1
			c-0.3-1.3-0.5-2.8-0.5-4.5v-0.7c0-1.6,0.2-3.1,0.5-4.3c0.3-1.2,0.8-2.3,1.4-3.1c0.6-0.8,1.3-1.5,2.2-1.9c0.8-0.4,1.8-0.6,2.8-0.6
			c0.5,0,1,0.1,1.5,0.2c0.4,0.1,0.9,0.2,1.2,0.4v3.7c-0.4-0.3-0.9-0.5-1.3-0.7c-0.4-0.2-0.8-0.2-1.3-0.2c-1,0-1.8,0.5-2.4,1.6
			c-0.6,1.1-0.9,2.7-0.9,4.9v1c0,1.3,0.1,2.4,0.3,3.3c0.2,0.8,0.4,1.5,0.7,2s0.6,0.8,1,1c0.4,0.2,0.7,0.3,1.1,0.3c0.1,0,0.1,0,0.1,0
			s0.1,0,0.2,0v-5.2h-1.7v-3.2h5v10.8c-0.6,0.3-1.2,0.5-1.8,0.6C339.9,33.9,339.3,34,338.6,34z"/>
		<path style="fill:#231F20;" d="M347.1,13.4h3.8l3.9,20.4h-3.5l-0.7-4h-3.2l-0.6,4h-3.4L347.1,13.4z M350,26.6l-1.1-6.7l-1.1,6.7
			H350z"/>
		<path style="fill:#231F20;" d="M355.8,13.5h3.2c1,0,1.9,0.1,2.7,0.4c0.8,0.3,1.5,0.7,2.1,1.2c0.6,0.6,1,1.3,1.4,2.1
			c0.3,0.9,0.5,1.9,0.5,3.1v0.1c0,1.1-0.2,2.1-0.5,3c-0.3,0.9-0.7,1.6-1.3,2.2c-0.6,0.6-1.2,1-1.9,1.3c-0.7,0.3-1.6,0.5-2.5,0.6l0,0
			v6.4H356V13.5H355.8z M359.4,24.2c0.7,0,1.4-0.3,1.9-0.9s0.8-1.5,0.8-2.7v-0.1c0-1.3-0.2-2.2-0.7-2.8c-0.5-0.6-1.1-0.9-1.8-0.9
			h-0.1L359.4,24.2L359.4,24.2z"/>
	</g>
</g>
<polygon id="arrow-left-side" style="fill:#231F20;" points="146.2,95.4 138.2,100 130.2,104.6 135.9,95.4 130.2,86.1 138.2,90.7 
	"/>
<polygon id="arrow-right-side" style="fill:#231F20;" points="467,95.4 475,90.7 483.1,86.1 477.4,95.4 483.1,104.6 475,100 "/>
<g id="icons">
	<g id="icon-people">
		<g>
			<g>
				<path style="fill:#231F20;" d="M193.1,117.8c0,0.6-0.1,1.1-0.4,1.6c-0.3,0.5-0.7,0.8-1.2,1.1s-1.1,0.4-1.7,0.4h-2.3v4.1h-1.6
					v-10.3h3.9c0.5,0,0.9,0.1,1.4,0.2c0.4,0.2,0.8,0.4,1.1,0.7c0.3,0.3,0.5,0.6,0.7,1C193,116.9,193.1,117.3,193.1,117.8z
					 M191.5,117.8c0-0.5-0.2-1-0.5-1.3s-0.8-0.5-1.3-0.5h-2.3v3.4h2.3c0.6,0,1-0.2,1.3-0.5C191.3,118.6,191.5,118.3,191.5,117.8z"/>
				<path style="fill:#231F20;" d="M200.7,121.7h-4.8c0,0.4,0.1,0.8,0.2,1.1s0.4,0.5,0.6,0.7c0.3,0.2,0.6,0.3,1,0.3
					c0.4,0,0.7-0.1,1-0.2c0.3-0.1,0.5-0.3,0.8-0.6l0.9,0.9c-0.4,0.4-0.8,0.7-1.2,0.9c-0.4,0.2-0.9,0.3-1.5,0.3
					c-0.5,0-0.9-0.1-1.3-0.2c-0.4-0.1-0.8-0.4-1.1-0.7c-0.3-0.3-0.5-0.7-0.7-1.2c-0.2-0.5-0.2-1.1-0.2-1.7c0-0.8,0.1-1.5,0.4-2
					c0.3-0.6,0.6-1,1.1-1.3s1-0.4,1.6-0.4s1.2,0.1,1.7,0.4s0.8,0.7,1.1,1.3c0.2,0.5,0.4,1.2,0.4,1.8V121.7z M199.2,120.7
					c0-0.4-0.1-0.7-0.2-1c-0.1-0.3-0.3-0.5-0.6-0.7c-0.3-0.2-0.6-0.3-0.9-0.3s-0.6,0.1-0.9,0.3c-0.3,0.2-0.4,0.4-0.6,0.7
					c-0.1,0.2-0.1,0.3-0.1,0.4c0,0.1,0,0.3-0.1,0.6H199.2z"/>
				<path style="fill:#231F20;" d="M208.4,121.3c0,0.7-0.1,1.2-0.2,1.7c-0.1,0.5-0.4,0.9-0.7,1.2c-0.6,0.6-1.3,0.9-2.2,0.9
					c-0.9,0-1.6-0.3-2.2-0.9c-0.3-0.3-0.6-0.7-0.7-1.2s-0.2-1-0.2-1.7s0.1-1.2,0.2-1.7s0.4-0.9,0.7-1.2c0.2-0.2,0.3-0.3,0.6-0.4
					c0.2-0.1,0.5-0.2,0.7-0.3c0.3-0.1,0.6-0.1,0.9-0.1c0.5,0,0.9,0.1,1.3,0.2c0.4,0.2,0.7,0.4,0.9,0.6c0.3,0.3,0.6,0.7,0.7,1.2
					C208.4,120.1,208.4,120.6,208.4,121.3z M206.9,121.3c0-0.5,0-0.9-0.1-1.2c-0.1-0.3-0.2-0.6-0.4-0.8c-0.3-0.3-0.6-0.4-1.1-0.4
					c-0.4,0-0.8,0.1-1.1,0.4c-0.2,0.2-0.3,0.5-0.4,0.8c-0.1,0.3-0.1,0.7-0.1,1.2s0,0.9,0.1,1.2c0.1,0.3,0.2,0.6,0.4,0.8
					c0.3,0.3,0.7,0.4,1.1,0.4c0.4,0,0.8-0.1,1.1-0.4c0.2-0.2,0.3-0.5,0.4-0.8C206.9,122.2,206.9,121.8,206.9,121.3z"/>
				<path style="fill:#231F20;" d="M216.5,121.3c0,0.5,0,0.9-0.1,1.2c0,0.4-0.1,0.7-0.2,1c-0.1,0.3-0.3,0.6-0.5,0.8
					c-0.2,0.2-0.5,0.4-0.8,0.5c-0.3,0.1-0.6,0.2-1,0.2s-0.8-0.1-1.1-0.2c-0.3-0.1-0.6-0.3-0.8-0.6v3.7h-1.5v-10.3h1.5v0.8
					c0.3-0.3,0.6-0.6,0.9-0.7c0.3-0.1,0.7-0.2,1.1-0.2s0.7,0.1,1,0.2c0.3,0.1,0.6,0.3,0.8,0.5c0.2,0.2,0.4,0.5,0.5,0.8
					c0.1,0.3,0.2,0.7,0.2,1C216.4,120.4,216.5,120.8,216.5,121.3z M215,121.3c0-0.5,0-0.9-0.1-1.3c-0.1-0.4-0.2-0.6-0.5-0.8
					c-0.3-0.2-0.5-0.3-1-0.3c-0.4,0-0.7,0.1-1,0.3c-0.2,0.2-0.4,0.5-0.5,0.8s-0.1,0.8-0.1,1.3s0,0.9,0.1,1.3
					c0.1,0.4,0.2,0.6,0.5,0.8c0.3,0.2,0.6,0.3,1,0.3c0.6,0,1-0.2,1.2-0.6C214.9,122.7,215,122.1,215,121.3z"/>
				<path style="fill:#231F20;" d="M221.4,125h-0.9c-0.7,0-1.2-0.2-1.5-0.6c-0.3-0.4-0.5-0.9-0.5-1.5v-8.3h1.5v8.2
					c0,0.3,0.1,0.5,0.2,0.6c0.1,0.1,0.3,0.2,0.6,0.2h0.7v1.4H221.4z"/>
				<path style="fill:#231F20;" d="M228.8,121.7H224c0,0.4,0.1,0.8,0.2,1.1c0.1,0.3,0.4,0.5,0.6,0.7c0.3,0.2,0.6,0.3,1,0.3
					c0.4,0,0.7-0.1,1-0.2c0.3-0.1,0.5-0.3,0.8-0.6l0.9,0.9c-0.4,0.4-0.8,0.7-1.2,0.9c-0.4,0.2-0.9,0.3-1.5,0.3
					c-0.5,0-0.9-0.1-1.3-0.2c-0.4-0.1-0.8-0.4-1.1-0.7c-0.3-0.3-0.5-0.7-0.7-1.2c-0.2-0.5-0.2-1.1-0.2-1.7c0-0.8,0.1-1.5,0.4-2
					c0.3-0.6,0.6-1,1.1-1.3s1-0.4,1.6-0.4s1.2,0.1,1.7,0.4s0.8,0.7,1.1,1.3c0.2,0.5,0.4,1.2,0.4,1.8V121.7z M227.4,120.7
					c0-0.4-0.1-0.7-0.2-1c-0.1-0.3-0.3-0.5-0.6-0.7c-0.3-0.2-0.6-0.3-0.9-0.3c-0.3,0-0.6,0.1-0.9,0.3c-0.3,0.2-0.4,0.4-0.6,0.7
					c-0.1,0.2-0.1,0.3-0.1,0.4c0,0.1,0,0.3-0.1,0.6H227.4z"/>
			</g>
		</g>
		<g>
			<g>
				<path style="fill:#993739;" d="M182.9,94.7c-2.7,0-4.9-2.6-5.5-6.5c-0.4-0.3-0.6-1-0.7-2c-0.1-0.6-0.1-2.1,0.6-2.5
					c0.5-3.9,2.7-6.4,5.6-6.4s5.1,2.5,5.6,6.4c0.7,0.4,0.7,1.9,0.6,2.5c-0.1,1-0.3,1.6-0.7,2C187.7,92.1,185.5,94.7,182.9,94.7z
					 M182.9,78.3c-2.4,0-4.2,2.2-4.6,5.6c0,0.3-0.2,0.5-0.5,0.6c0,0.1-0.2,0.6-0.1,1.5c0.1,1.1,0.3,1.3,0.3,1.3
					c0.2,0.1,0.3,0.3,0.3,0.5c0.6,3.4,2.4,5.7,4.6,5.7c2.2,0,4-2.3,4.6-5.7c0-0.2,0.2-0.4,0.3-0.5c0.1,0,0.2-0.3,0.3-1.3
					s0-1.5-0.1-1.6c-0.2,0-0.4-0.3-0.5-0.6C187.1,80.5,185.3,78.3,182.9,78.3z"/>
				<path style="fill:#221E1F;" d="M182.9,106.4L182.9,106.4c-4.1,0-8.3-0.3-11-0.7c-0.3-0.1-0.5-0.2-0.5-0.5v-0.5
					c0.3-4.5,3-8.1,7.3-9.5c0.2-0.1,0.4,0,0.4,0.2c0.3,0.6,1.6,2.4,3.8,2.4c2.2,0,3.4-1.9,3.7-2.4c0.1-0.2,0.3-0.2,0.4-0.2
					c4.3,1.4,7.1,4.9,7.4,9.5v0.5c0,0.4-0.2,0.5-0.5,0.6C191.2,106.1,187,106.4,182.9,106.4z M172.1,105c2.7,0.4,6.8,0.6,10.7,0.6
					c4,0,8.1-0.2,10.7-0.6v-0.3c-0.3-4.2-2.7-7.4-6.6-8.8c-0.5,0.8-1.8,2.5-4.2,2.5c-2.3,0-3.7-1.7-4.2-2.5
					c-3.8,1.4-6.2,4.6-6.5,8.7L172.1,105z"/>
			</g>
			<g>
				<path style="fill:#993739;" d="M207.1,94.7c-2.7,0-4.9-2.6-5.5-6.5c-0.4-0.3-0.6-1-0.7-2c-0.1-0.6-0.1-2.1,0.6-2.5
					c0.5-3.9,2.7-6.4,5.6-6.4s5.1,2.5,5.6,6.4c0.7,0.4,0.7,1.9,0.6,2.5c-0.1,1-0.3,1.6-0.7,2C211.9,92.1,209.7,94.7,207.1,94.7z
					 M207.1,78.3c-2.4,0-4.2,2.2-4.6,5.6c0,0.3-0.2,0.5-0.5,0.6c0,0.1-0.2,0.6-0.1,1.5c0.1,1.1,0.3,1.3,0.3,1.3
					c0.2,0.1,0.3,0.3,0.3,0.5c0.6,3.4,2.4,5.7,4.6,5.7c2.2,0,4-2.3,4.6-5.7c0-0.2,0.2-0.4,0.3-0.5c0.1,0,0.2-0.3,0.3-1.3
					c0.1-1,0-1.5-0.1-1.6c-0.2,0-0.4-0.3-0.5-0.6C211.3,80.5,209.4,78.3,207.1,78.3z"/>
				<path style="fill:#221E1F;" d="M207.1,106.4L207.1,106.4c-4.1,0-8.3-0.3-11-0.7c-0.3-0.1-0.5-0.2-0.5-0.5v-0.5
					c0.3-4.5,3-8.1,7.3-9.5c0.2-0.1,0.4,0,0.4,0.2c0.3,0.6,1.6,2.4,3.8,2.4c2.2,0,3.4-1.9,3.7-2.4c0.1-0.2,0.3-0.2,0.4-0.2
					c4.3,1.4,7.1,4.9,7.4,9.5v0.5c0,0.4-0.2,0.5-0.5,0.6C215.4,106.1,211.2,106.4,207.1,106.4z M196.3,105c2.7,0.4,6.8,0.6,10.7,0.6
					c4,0,8.1-0.2,10.7-0.6v-0.3c-0.3-4.2-2.7-7.4-6.6-8.8c-0.5,0.8-1.8,2.5-4.2,2.5c-2.3,0-3.7-1.7-4.2-2.5
					c-3.8,1.4-6.2,4.6-6.5,8.7L196.3,105z"/>
			</g>
			<g>
				<path style="fill:#993739;" d="M231.3,94.7c-2.7,0-4.9-2.6-5.5-6.5c-0.4-0.3-0.6-1-0.7-2c-0.1-0.6-0.1-2.1,0.6-2.5
					c0.5-3.9,2.7-6.4,5.6-6.4c2.9,0,5.1,2.5,5.6,6.4c0.7,0.4,0.7,1.9,0.6,2.5c-0.1,1-0.3,1.6-0.7,2
					C236.1,92.1,233.9,94.7,231.3,94.7z M231.3,78.3c-2.4,0-4.2,2.2-4.6,5.6c0,0.3-0.2,0.5-0.5,0.6c0,0.1-0.2,0.6-0.1,1.5
					c0.1,1.1,0.3,1.3,0.3,1.3c0.2,0.1,0.3,0.3,0.3,0.5c0.6,3.4,2.4,5.7,4.6,5.7c2.2,0,4-2.3,4.6-5.7c0-0.2,0.2-0.4,0.3-0.5
					c0.1,0,0.2-0.3,0.3-1.3s0-1.5-0.1-1.6c-0.2,0-0.4-0.3-0.5-0.6C235.5,80.5,233.6,78.3,231.3,78.3z"/>
				<path style="fill:#221E1F;" d="M231.3,106.4L231.3,106.4c-4.1,0-8.3-0.3-11-0.7c-0.3-0.1-0.5-0.2-0.5-0.5v-0.5
					c0.3-4.5,3-8.1,7.3-9.5c0.2-0.1,0.4,0,0.4,0.2c0.3,0.6,1.6,2.4,3.8,2.4c2.2,0,3.4-1.9,3.7-2.4c0.1-0.2,0.3-0.2,0.4-0.2
					c4.3,1.4,7.1,4.9,7.4,9.5v0.5c0,0.4-0.2,0.5-0.5,0.6C239.6,106.1,235.4,106.4,231.3,106.4z M220.5,105c2.7,0.4,6.8,0.6,10.7,0.6
					c4,0,8.1-0.2,10.7-0.6v-0.3c-0.3-4.2-2.7-7.4-6.6-8.8c-0.5,0.8-1.8,2.5-4.2,2.5c-2.3,0-3.7-1.7-4.2-2.5
					c-3.8,1.4-6.2,4.6-6.5,8.7L220.5,105z"/>
			</g>
		</g>
	</g>
	<g id="icon-process">
		<g>
			<g>
				<path style="fill:#231F20;" d="M292.6,117.8c0,0.6-0.1,1.1-0.4,1.6c-0.3,0.5-0.7,0.8-1.2,1.1s-1.1,0.4-1.7,0.4H287v4.1h-1.6
					v-10.3h3.9c0.5,0,0.9,0.1,1.4,0.2c0.4,0.2,0.8,0.4,1.1,0.7c0.3,0.3,0.5,0.6,0.7,1C292.6,116.9,292.6,117.3,292.6,117.8z
					 M291.1,117.8c0-0.5-0.2-1-0.5-1.3c-0.3-0.3-0.8-0.5-1.3-0.5H287v3.4h2.3c0.6,0,1-0.2,1.3-0.5
					C290.9,118.6,291.1,118.3,291.1,117.8z"/>
				<path style="fill:#231F20;" d="M299.5,118.2l-1.1,1.1c-0.2-0.2-0.3-0.3-0.5-0.4c-0.2-0.1-0.4-0.1-0.6-0.1
					c-0.3,0-0.5,0.1-0.7,0.2c-0.2,0.1-0.4,0.3-0.5,0.6s-0.2,0.5-0.2,0.9v4.5h-1.5v-7.4h1.5v0.8c0.2-0.3,0.5-0.5,0.8-0.6
					c0.4-0.2,0.7-0.2,1.1-0.2c0.4,0,0.7,0.1,1,0.2C299,117.8,299.3,118,299.5,118.2z"/>
				<path style="fill:#231F20;" d="M306.5,121.3c0,0.7-0.1,1.2-0.2,1.7c-0.1,0.5-0.4,0.9-0.7,1.2c-0.6,0.6-1.3,0.9-2.2,0.9
					c-0.9,0-1.6-0.3-2.2-0.9c-0.3-0.3-0.6-0.7-0.7-1.2s-0.2-1-0.2-1.7s0.1-1.2,0.2-1.7s0.4-0.9,0.7-1.2c0.2-0.2,0.3-0.3,0.6-0.4
					c0.2-0.1,0.5-0.2,0.7-0.3c0.3-0.1,0.6-0.1,0.9-0.1c0.5,0,0.9,0.1,1.3,0.2c0.4,0.2,0.7,0.4,0.9,0.6c0.3,0.3,0.6,0.7,0.7,1.2
					C306.4,120.1,306.5,120.6,306.5,121.3z M305.1,121.3c0-0.5,0-0.9-0.1-1.2s-0.2-0.6-0.4-0.8c-0.3-0.3-0.6-0.4-1.1-0.4
					c-0.4,0-0.8,0.1-1.1,0.4c-0.2,0.2-0.3,0.5-0.4,0.8s-0.1,0.7-0.1,1.2s0,0.9,0.1,1.2s0.2,0.6,0.4,0.8c0.3,0.3,0.7,0.4,1.1,0.4
					s0.8-0.1,1.1-0.4c0.2-0.2,0.3-0.5,0.4-0.8C305,122.2,305.1,121.8,305.1,121.3z"/>
				<path style="fill:#231F20;" d="M313.9,124c-0.2,0.2-0.5,0.4-0.7,0.6s-0.5,0.3-0.8,0.3c-0.3,0.1-0.6,0.1-0.9,0.1
					c-0.6,0-1.1-0.1-1.6-0.4s-0.9-0.7-1.2-1.2c-0.3-0.6-0.5-1.3-0.5-2.2c0-0.7,0.1-1.2,0.3-1.7s0.4-0.9,0.7-1.2s0.7-0.5,1.1-0.7
					c0.4-0.1,0.8-0.2,1.2-0.2c0.5,0,1,0.1,1.4,0.2c0.4,0.1,0.7,0.4,1.1,0.8l-1,1c-0.2-0.3-0.4-0.4-0.7-0.5c-0.2-0.1-0.5-0.2-0.8-0.2
					c-0.6,0-1,0.2-1.4,0.7c-0.2,0.2-0.3,0.4-0.3,0.7c-0.1,0.3-0.1,0.6-0.1,1.1c0,0.8,0.1,1.4,0.4,1.8c0.3,0.4,0.8,0.7,1.4,0.7
					c0.3,0,0.5-0.1,0.8-0.2c0.3-0.1,0.4-0.3,0.7-0.5L313.9,124z"/>
				<path style="fill:#231F20;" d="M321.5,121.7h-4.8c0,0.4,0.1,0.8,0.2,1.1c0.1,0.3,0.4,0.5,0.6,0.7c0.3,0.2,0.6,0.3,1,0.3
					s0.7-0.1,1-0.2c0.3-0.1,0.5-0.3,0.8-0.6l0.9,0.9c-0.4,0.4-0.8,0.7-1.2,0.9s-0.9,0.3-1.5,0.3c-0.5,0-0.9-0.1-1.3-0.2
					c-0.4-0.1-0.8-0.4-1.1-0.7c-0.3-0.3-0.5-0.7-0.7-1.2c-0.2-0.5-0.2-1.1-0.2-1.7c0-0.8,0.1-1.5,0.4-2c0.3-0.5,0.6-1,1.1-1.3
					s1-0.4,1.6-0.4c0.6,0,1.2,0.1,1.7,0.4s0.8,0.7,1.1,1.3c0.2,0.5,0.4,1.2,0.4,1.8V121.7z M320,120.7c0-0.4-0.1-0.7-0.2-1
					c-0.1-0.3-0.3-0.5-0.6-0.7s-0.6-0.3-0.9-0.3s-0.6,0.1-0.9,0.3c-0.3,0.2-0.4,0.4-0.6,0.7c-0.1,0.2-0.1,0.3-0.1,0.4
					c0,0.1,0,0.3-0.1,0.6H320z"/>
				<path style="fill:#231F20;" d="M328.9,122.7c0,0.5-0.1,0.9-0.4,1.3c-0.3,0.4-0.6,0.6-1.1,0.8s-1,0.3-1.6,0.3
					c-0.4,0-0.8,0-1.2-0.1c-0.4-0.1-0.7-0.2-1-0.3c-0.3-0.2-0.6-0.4-0.9-0.6l1-1c0.5,0.5,1.2,0.8,2.1,0.8c0.3,0,0.6,0,0.8-0.1
					c0.2-0.1,0.4-0.2,0.6-0.3c0.2-0.1,0.2-0.3,0.2-0.6c0-0.5-0.3-0.8-1-0.9l-1.2-0.1c-0.5,0-0.9-0.1-1.2-0.3s-0.6-0.4-0.7-0.7
					c-0.2-0.3-0.3-0.6-0.3-1.1c0-0.7,0.3-1.2,0.8-1.6c0.5-0.4,1.2-0.6,2-0.6c1.2,0,2.1,0.3,2.7,0.8l-0.9,0.9c-0.4-0.4-1-0.5-1.8-0.5
					c-0.4,0-0.8,0.1-1,0.3s-0.3,0.4-0.3,0.7c0,0.5,0.3,0.8,1,0.8l1.2,0.1c0.5,0,0.9,0.1,1.2,0.3c0.3,0.2,0.6,0.4,0.8,0.7
					C328.9,122,328.9,122.3,328.9,122.7z"/>
				<path style="fill:#231F20;" d="M336.1,122.7c0,0.5-0.1,0.9-0.4,1.3c-0.3,0.3-0.6,0.6-1.1,0.8s-1,0.3-1.6,0.3
					c-0.4,0-0.8,0-1.2-0.1c-0.4-0.1-0.7-0.2-1-0.3c-0.3-0.1-0.6-0.4-0.9-0.6l1-1c0.5,0.5,1.2,0.8,2.1,0.8c0.3,0,0.6,0,0.8-0.1
					s0.4-0.2,0.6-0.3c0.1-0.2,0.2-0.3,0.2-0.6c0-0.5-0.3-0.8-1-0.9l-1.2-0.1c-0.5,0-0.9-0.1-1.2-0.3s-0.6-0.4-0.7-0.7
					c-0.1-0.3-0.3-0.6-0.3-1.1c0-0.7,0.3-1.2,0.8-1.6c0.5-0.4,1.2-0.6,2-0.6c1.2,0,2.1,0.3,2.7,0.8l-0.9,0.9c-0.4-0.4-1-0.5-1.8-0.5
					c-0.4,0-0.8,0.1-1,0.3s-0.3,0.4-0.3,0.7c0,0.5,0.3,0.8,1,0.8l1.2,0.1c0.5,0,0.9,0.1,1.2,0.3c0.3,0.2,0.6,0.4,0.8,0.7
					C336,121.9,336.1,122.3,336.1,122.7z"/>
			</g>
		</g>
		<g>
			<g>
				<g>
					<path style="fill:#221E1F;" d="M310.4,107.8c-0.6,0-1.2,0-1.9-0.1h-0.3l-1.1-4.1l-0.5-0.1c-0.7-0.2-1.3-0.4-2-0.7l-0.5-0.2
						l-3.4,2.5l-0.2-0.1c-0.8-0.5-1.6-1.1-2.3-1.8L298,103l1.5-3.9l-0.3-0.4c-0.5-0.6-0.9-1.2-1.2-1.8l-0.3-0.4h-4.2l-0.1-0.2
						c-0.4-0.9-0.6-1.8-0.8-2.8l-0.1-0.3l3.5-2.3v-0.5c0-0.7,0-1.4,0.1-2.2l0.1-0.5l-3.4-2.5l0.1-0.2c0.1-0.5,0.3-1,0.4-1.4
						c0.2-0.4,0.3-0.9,0.5-1.3l0.1-0.2l4.2,0.2l0.3-0.4c0.4-0.7,0.9-1.2,1.3-1.7l0.3-0.4l-1.3-4l0.2-0.2c0.7-0.6,1.5-1.1,2.4-1.6
						l0.2-0.1l3.2,2.6l0.5-0.2c0.6-0.2,1.3-0.5,2.1-0.6l0.5-0.1l1.3-4h0.3c1-0.1,1.9,0,2.9,0.1h0.3l1.1,4.1l0.5,0.1
						c0.7,0.2,1.3,0.4,2,0.7l0.5,0.2l3.4-2.5l0.2,0.1c0.8,0.5,1.6,1.1,2.3,1.8l0.2,0.2l-1.5,3.9l0.3,0.4c0.5,0.6,0.9,1.2,1.2,1.8
						l0.3,0.4h4.2l0.1,0.2c0.4,0.9,0.6,1.8,0.8,2.8l0.1,0.3l-3.5,2.3V89c0,0.7,0,1.4-0.1,2.2l-0.1,0.5L328,94l-0.1,0.2
						c-0.1,0.5-0.3,1-0.4,1.4c-0.2,0.4-0.3,0.9-0.5,1.3l-0.1,0.2l-4.2-0.2l-0.3,0.4c-0.4,0.7-0.9,1.2-1.3,1.7l-0.3,0.4l1.3,4
						l-0.2,0.2c-0.7,0.6-1.5,1.1-2.4,1.6l-0.2,0.1l-3.2-2.6l-0.5,0.2c-0.6,0.2-1.3,0.5-2.1,0.6l-0.5,0.1l-1.3,4h-0.3
						C311,107.7,310.7,107.8,310.4,107.8z M308.8,106.9c0.7,0.1,1.5,0.1,2.3,0.1l1.3-3.9l0.9-0.2c0.7-0.2,1.4-0.3,2-0.6l0.9-0.3
						l3.2,2.6c0.7-0.4,1.3-0.8,1.9-1.3l-1.3-3.9l0.6-0.7c0.4-0.5,0.8-1,1.2-1.6l0.5-0.8l4.1,0.2c0.2-0.4,0.3-0.7,0.4-1
						c0.1-0.3,0.2-0.7,0.3-1.1l-3.3-2.4l0.1-0.9c0.1-0.7,0.1-1.4,0.1-2.1v-0.9l3.4-2.2c-0.2-0.7-0.4-1.4-0.7-2.2h-4.1l-0.5-0.8
						c-0.3-0.6-0.7-1.1-1.2-1.7l-0.6-0.7l1.5-3.8c-0.6-0.5-1.2-1-1.8-1.4l-3.3,2.4l-0.9-0.4c-0.7-0.3-1.2-0.5-1.9-0.7l-0.9-0.2
						l-0.3-0.9l-0.8-3.1c-0.7-0.1-1.5-0.1-2.3-0.1l-1.3,3.9l-0.9,0.2c-0.7,0.2-1.4,0.3-2,0.6l-0.9,0.3l-3.2-2.6
						c-0.7,0.4-1.3,0.8-1.9,1.3l1.3,3.9l-0.6,0.7c-0.4,0.5-0.8,1-1.2,1.6l-0.5,0.8l-4.1-0.2c-0.2,0.4-0.3,0.7-0.4,1
						s-0.2,0.7-0.3,1.1l3.3,2.4l-0.1,0.9c-0.1,0.7-0.1,1.4-0.1,2.1v0.9l-3.4,2.2c0.2,0.7,0.4,1.4,0.7,2.2h4.1l0.5,0.8
						c0.3,0.6,0.7,1.1,1.2,1.7l0.6,0.7l-1.5,3.8c0.6,0.5,1.2,1,1.8,1.4l3.3-2.4l0.9,0.4c0.7,0.3,1.2,0.5,1.9,0.7l0.9,0.2l0.3,0.9
						L308.8,106.9z"/>
				</g>
			</g>
			<path style="fill:#993739;" d="M310.4,99.1c-5.3,0-9.6-4.3-9.6-9.6s4.3-9.6,9.6-9.6s9.6,4.3,9.6,9.6S315.7,99.1,310.4,99.1z
				 M310.4,81c-4.7,0-8.6,3.8-8.6,8.6c0,4.7,3.8,8.6,8.6,8.6s8.6-3.8,8.6-8.6C319,84.9,315.1,81,310.4,81z"/>
		</g>
	</g>
	<g id="icon-delays">
		<g>
			<g>
				<path style="fill:#231F20;" d="M400.6,119.7v0.5c0,0.6,0,1-0.1,1.5s-0.1,0.8-0.3,1.2c-0.2,0.4-0.4,0.8-0.7,1.1
					c-0.6,0.6-1.5,1-2.7,1h-3.6v-10.3h3.6c1.1,0,2,0.3,2.7,1c0.3,0.3,0.5,0.7,0.7,1c0.2,0.4,0.3,0.8,0.3,1.2c0,0.4,0.1,0.9,0.1,1.4
					V119.7z M399,119.7c0-0.6,0-1.1,0-1.4s-0.1-0.6-0.2-0.9c-0.1-0.3-0.2-0.5-0.4-0.7c-0.4-0.5-1-0.7-1.8-0.7h-1.9v7.5h1.9
					c0.8,0,1.3-0.2,1.8-0.7c0.2-0.3,0.4-0.6,0.5-1.1C399,121.2,399,120.6,399,119.7z"/>
				<path style="fill:#231F20;" d="M408.6,121.7h-4.8c0,0.4,0.1,0.8,0.2,1.1s0.4,0.5,0.6,0.7c0.3,0.2,0.6,0.3,1,0.3
					c0.4,0,0.7-0.1,1-0.2c0.2-0.1,0.5-0.3,0.8-0.6l0.9,0.9c-0.4,0.4-0.8,0.7-1.2,0.9c-0.4,0.2-0.9,0.3-1.5,0.3
					c-0.5,0-0.9-0.1-1.3-0.2c-0.4-0.1-0.8-0.4-1.1-0.7c-0.3-0.3-0.5-0.7-0.7-1.2s-0.2-1.1-0.2-1.7c0-0.8,0.1-1.5,0.4-2
					s0.6-1,1.1-1.3s1-0.4,1.6-0.4c0.6,0,1.2,0.1,1.7,0.4s0.8,0.7,1.1,1.3c0.2,0.5,0.4,1.2,0.4,1.8V121.7z M407.1,120.7
					c0-0.4-0.1-0.7-0.2-1c-0.1-0.3-0.3-0.5-0.6-0.7s-0.6-0.3-0.9-0.3c-0.3,0-0.6,0.1-0.9,0.3s-0.4,0.4-0.6,0.7
					c-0.1,0.2-0.1,0.3-0.1,0.4c0,0.1,0,0.3-0.1,0.6H407.1z"/>
				<path style="fill:#231F20;" d="M413.4,125h-0.9c-0.7,0-1.2-0.2-1.5-0.6c-0.3-0.4-0.5-0.9-0.5-1.5v-8.3h1.5v8.2
					c0,0.3,0.1,0.5,0.2,0.6c0.1,0.1,0.3,0.2,0.6,0.2h0.7L413.4,125L413.4,125z"/>
				<path style="fill:#231F20;" d="M420.5,125H419v-0.7c-0.3,0.3-0.6,0.5-0.8,0.6c-0.3,0.1-0.7,0.2-1.1,0.2c-0.4,0-0.8-0.1-1.2-0.2
					c-0.3-0.1-0.6-0.3-0.8-0.5c-0.4-0.4-0.6-0.9-0.6-1.6c0-0.4,0.1-0.8,0.3-1.1c0.2-0.3,0.5-0.6,0.9-0.7c0.4-0.2,0.8-0.3,1.4-0.3h2
					v-0.5c0-0.5-0.1-0.8-0.4-1c-0.3-0.2-0.7-0.3-1.2-0.3c-0.4,0-0.7,0.1-1,0.2c-0.2,0.1-0.4,0.3-0.7,0.6l-1-0.9
					c0.3-0.4,0.7-0.7,1.1-0.8c0.4-0.2,0.9-0.2,1.5-0.2c2,0,3,0.8,3,2.5L420.5,125L420.5,125z M419,122.3v-0.6h-1.7
					c-0.4,0-0.8,0.1-1,0.3s-0.3,0.4-0.3,0.8c0,0.7,0.4,1,1.3,1c0.3,0,0.6,0,0.8-0.1c0.2-0.1,0.4-0.2,0.6-0.3
					C418.9,123.2,419,122.8,419,122.3z"/>
				<path style="fill:#231F20;" d="M428.3,117.6l-3.2,8.8c-0.1,0.4-0.3,0.7-0.5,0.9c-0.4,0.4-0.9,0.5-1.5,0.5h-0.6v-1.3h0.4
					c0.3,0,0.5-0.1,0.7-0.2c0.1-0.1,0.3-0.3,0.4-0.6l0.4-1.1l-2.6-7h1.6l1.8,5.2l1.7-5.2H428.3z"/>
				<path style="fill:#231F20;" d="M435,122.7c0,0.5-0.1,0.9-0.4,1.3c-0.3,0.4-0.6,0.6-1.1,0.8s-1,0.3-1.6,0.3c-0.4,0-0.8,0-1.2-0.1
					c-0.4-0.1-0.7-0.2-1-0.3c-0.3-0.2-0.6-0.4-0.9-0.6l1-1c0.5,0.5,1.2,0.8,2.1,0.8c0.3,0,0.6,0,0.8-0.1s0.4-0.2,0.6-0.3
					c0.2-0.1,0.2-0.3,0.2-0.6c0-0.5-0.3-0.8-1-0.9l-1.2-0.1c-0.5,0-0.9-0.1-1.2-0.3c-0.3-0.2-0.6-0.4-0.7-0.7
					c-0.2-0.3-0.3-0.6-0.3-1.1c0-0.7,0.3-1.2,0.8-1.6c0.5-0.4,1.2-0.6,2-0.6c1.2,0,2.1,0.3,2.7,0.8l-0.9,0.9c-0.4-0.4-1-0.5-1.8-0.5
					c-0.4,0-0.8,0.1-1,0.3c-0.2,0.2-0.3,0.4-0.3,0.7c0,0.5,0.3,0.8,1,0.8l1.2,0.1c0.5,0,0.9,0.1,1.2,0.3s0.6,0.4,0.8,0.7
					C435,122,435,122.3,435,122.7z"/>
			</g>
		</g>
		<g>
			<path style="fill:#010101;" d="M413.8,107.8c-10,0-18.2-8.2-18.2-18.2s8.2-18.2,18.2-18.2S432,79.6,432,89.6
				S423.8,107.8,413.8,107.8z M413.8,72.1c-9.6,0-17.4,7.8-17.4,17.4c0,9.6,7.8,17.4,17.4,17.4c9.6,0,17.4-7.8,17.4-17.4
				C431.2,80,423.4,72.1,413.8,72.1z"/>
			<polygon style="fill:#993739;" points="414.3,90.2 404.8,87.7 405.1,86.7 413.3,88.9 413.3,78.9 414.3,78.9 			"/>
		</g>
	</g>
</g>
</svg>
