<svg xmlns="http://www.w3.org/2000/svg" width="239.777" height="187.201"><g fill="#C6A437"><path d="M90.37 76.88c-.86.64-1.05 1.25-.57 1.82.48.72.34.95-.4.7-1.07-.1-1.2.05-.44.46.63.57 1.4.83 2.28.78.45-.02 1.17.24 2.17.78 1 .55 2.1 1.2 3.25 1.96 1.16.76 2.24 1.53 3.26 2.3 1.02.76 1.76 1.43 2.24 2 .95 1.15 2.37 2.57 4.25 4.26.93.7 1.82 1.48 2.7 2.33.86.85 1.45 1.5 1.77 1.92.96 1.14 1.67 1.92 2.14 2.34.63.42 1.5 1.8 2.58 4.12 1.1 2.34 1.9 4.3 2.44 5.92.88 2.65 1.3 5.4 1.2 8.23-.06 2.85-.65 5.2-1.75 7.05-1.36 2.46-1.96 3.83-1.8 4.12.02.45-.18.9-.6 1.38-.14.15-.28.4-.4.7-.15.3-.28.6-.4.9 0 .3-.17.62-.52.93-.36.32-.68.64-.96.95-.45.17-.96.53-1.52 1.08-.57.57-1.06 1.15-1.48 1.77-.28.46-.62.93-1.05 1.4-.42.47-.78.7-1.08.73-.44.02-1 .72-1.68 2.1-.55 1.23-1.56 2.44-3.07 3.64-1.5 1.2-2.77 1.97-3.8 2.32-.9.05-1.17.5-.82 1.4.06.88-.3 1.28-1.05 1.17-.75.03-1.18.28-1.3.74-.13.45-.94 1.32-2.45 2.6-1.5 1.26-2.47 1.9-2.92 1.93-.74.04-1.58.42-2.5 1.14-.95.72-1.48 1.4-1.6 2-.24.9-.73 1.52-1.46 1.85-.45.02-1.02.43-1.73 1.2-.55 1.08-3.08 2.7-7.6 4.88-.73.34-1.08.73-1.05 1.18 0 .3-.87.64-2.64 1.03-1.75.53-3.7 1.68-5.85 3.44-.86.8-1.94 1.63-3.23 2.52-1.3.88-2.64 1.7-4.02 2.45-1.38.75-2.7 1.38-3.93 1.9-1.25.5-2.3.86-3.2 1.06-.9.04-1.9.55-3.05 1.5-.72.63-2.17 1.35-4.37 2.13-2.2.78-4.6 1.58-7.16 2.4-2.58.8-5.12 1.45-7.63 1.95-2.52.5-4.37.8-5.56.85-3.28-.12-5.88-1.33-7.8-3.62-1.1-1.28-1.68-2.23-1.7-2.82-.18-.3-.58-.87-1.22-1.73-.8-.7-.97-1.45-.57-2.2.4-.93.24-1.37-.5-1.33-.47-.28-.96-1.22-1.5-2.83-.38-1.63-.72-2.43-1.02-2.4-.3 0-.62-.43-.96-1.3-.35-1.03-.68-1.47-.96-1.3-.45.02-.86-.63-1.23-1.95-.33-.58-.62-1.16-.87-1.75-.26-.58-.54-1-.85-1.3-.62-.56-.34-.95.84-1.16.44-.16.9-.38 1.42-.63.5-.25.9-.53 1.2-.84.7-.8 1.4-1.34 2.14-1.7.73-.32 1.13-.45 1.2-.38.1.07.15.48.2 1.22-.26.9-.1 1.35.5 1.32.46-.04.7.25.73.84.03.75.6 1.32 1.65 1.7.94.7 2.2.83 3.83.37 1.63-.45 4.78-1.62 9.46-3.5 2.04-.86 4.16-1.76 6.35-2.7 2.2-.93 3.88-1.65 5.05-2.16 1.18-.36 2.17-.75 2.97-1.17.8-.4 1.2-.77 1.17-1.07.42-.47 1-.8 1.73-.98 1.04-.05 2-.55 2.84-1.5.7-.62 1.43-1.08 2.17-1.34.73-.26 1.1-.24 1.12.05.16.3-.26.8-1.27 1.53-1 .72-2.18 1.34-3.5 1.86-.42.32-.9.6-1.4.85-.5.26-.9.54-1.2.85-.28.32-.16.42.36.32.52-.1 1.1-.28 1.77-.54.65-.26 1.35-.56 2.08-.9.74-.33 1.24-.65 1.53-.97.57-.48 1.3-.6 2.22-.34 1.06.38 1.73.27 2-.34.4-.77.24-.98-.48-.65-.45.04-.57-.1-.36-.42.2-.3.6-.66 1.18-1.06s1.23-.85 1.95-1.34c.72-.5 1.37-.8 1.96-1 .72-.33 1.34-.63 1.85-.88.5-.25.76-.52.74-.82-.02-.15.34-.47 1.06-.95.72-.5 1.6-1.06 2.6-1.7 1-.66 2-1.27 2.93-1.84.93-.58 1.76-1.03 2.5-1.37 1-.5 1.47-.94 1.38-1.3-.1-.37-.73-.38-1.9-.02-1.05.06-1.5-.06-1.37-.37.14-.45.65-.74 1.54-.86.9-.12 1.4-.04 1.58.25.03.6.55.57 1.56-.08.87-.5 1.17-.43.9.18-.3.16-.42.32-.42.47 0 .14.08.13.23-.03.58-.03 1.08-.42 1.5-1.2.25-.75.6-1.14 1.05-1.17.6-.18 1.52-.86 2.8-2.05 1.3-1.2 1.92-1.93 1.9-2.23-.33-.58-.27-.88.18-.9.58-.33.75-.04.5.87.03.6.75.1 2.16-1.47 1.54-1.72 2.47-2.6 2.77-2.6.3-.03.86-.58 1.7-1.67.84-1.08 1.25-1.78 1.23-2.08 0-.14-.3-.05-.88.27-.58.34-1.2.74-1.84 1.22-.64.48-1.3 1-1.93 1.56-.65.56-1.18 1.07-1.6 1.54-.56.78-1.28 1.34-2.15 1.68-.75.04-1.25.5-1.5 1.42-.55.93-1.12 1.48-1.7 1.66-.3 0-.7.1-1.22.3-.52.17-.92.34-1.2.5-.87.64-1.3.74-1.33.3-.02-.3.47-.82 1.48-1.54 1-.74 1.88-1.2 2.62-1.38.73-.34 1.08-.73 1.06-1.18 0-.44.4-.84 1.3-1.18.72-.34 1.22-.74 1.5-1.2-.03-.45.75-1.16 2.35-2.14.58-.33 1.08-.7 1.5-1.1.44-.38.72-.66.86-.82.14-.3.45-.8.94-1.5.5-.7 1.05-1.4 1.7-2.1.62-.7 1.22-1.38 1.78-2 .57-.63 1-.95 1.3-.97.44-.02.65-.33.62-.93 0-.3.18-.8.6-1.48.4-.7.96-1.5 1.66-2.44s1.35-2 1.96-3.24c.6-1.23 1.1-2.3 1.5-3.22.68-1.52 1-2.48.98-2.85-.02-.37-.4-.68-1.17-.95-.9-.25-1.66-.36-2.25-.32-.74.33-1.48.37-2.24.1-.45-.1-1.57-.13-3.36-.04-1.8.1-3.8.28-6.02.54-2.23.27-4.5.57-6.8.92-2.28.34-4.17.7-5.64 1.08-2.66.58-4.97 1.42-6.93 2.5-1.96 1.06-3.7 2.46-5.27 4.18-1.97 2.2-4.04 2.76-6.18 1.67-1.86-1.25-2.52-1-1.98.78.2.73-.07 1.42-.8 2.05-.72.34-1.05 1.1-1 2.3.08 1.2-.27 1.8-1 1.84-.74.34-1.28.82-1.6 1.43-.36.62-.22 1.06.4 1.32.45.13.37 1.48-.25 4.05-.24 1.06-.52 2.15-.83 3.3-.32 1.13-.53 2.07-.64 2.82-.27.6-.46 1.26-.57 1.94-.1.68-.23 1.17-.36 1.47-.13.3-.26.8-.37 1.48-.1.68-.3 1.32-.57 1.93-.12.6-.27 1.18-.47 1.7-.2.54-.3.96-.27 1.25-.28.48-.48 1.53-.62 3.18-.14 1.65-.2 2.85-.15 3.6.07 1.48-.77 2.57-2.53 3.26-1.3.52-2 .4-2.03-.34-.32-.43-.85-.55-1.6-.36-.87.2-2.17-.3-3.87-1.48-1.7-1.18-3.2-2.63-4.5-4.36-.47-.72-1-1.36-1.54-1.94-.56-.56-.9-.77-1.04-.6-.76.03-1.23-.4-1.42-1.28-.32-.28-.87-.77-1.65-1.48-.8-.7-1.64-1.4-2.57-2.1-1.1-.7-1.98-1.32-2.68-1.88-.7-.56-1.06-1-1.07-1.3-.17-.43-.48-.7-.93-.84-.3.02-.34-.65-.1-2 .1-.46.3-1 .58-1.6.14-.16.2-.32.2-.47.3.3.34.82.08 1.58-.5 1.96-.38 2.78.35 2.44.3-.02.5-.3.63-.82s.32-1.17.58-1.93c.1-.75.36-1.77.74-3.06.38-1.28.77-2.46 1.16-3.53.93-2.13 1.38-3.5 1.35-4.1-.03-.6.17-1.13.6-1.6.12-.3.25-.65.4-1.03.1-.37.1-.7-.07-1-.04-.75.28-1.73.97-2.97.26-.6.5-1.14.7-1.6.2-.46.22-.76.06-.9-.02-.14.1-.7.35-1.7.25-.98.5-2.04.73-3.17.24-1.13.52-2.2.84-3.18.32-1 .62-1.64.9-1.95.27-.76.52-1.6.77-2.5-.05-.9.43-1.67 1.44-2.32.72-.5.85-.87.4-1.14-.32-.12-.5-1-.6-2.65-.04-.74-.1-1.4-.22-2-.1-.6-.23-.96-.4-1.1-1.25-1.28-1.37-2.1-.34-2.45.44-.17 1.23-.7 2.38-1.58 1.15-.88 1.64-1.47 1.48-1.76-.03-.6.3-1.5.97-2.74.28-.6.54-1.37.8-2.28.24-.9.5-1.74.76-2.5.34-1.96.82-2.8 1.43-2.54.3.28.45.87.42 1.77-.03.9-.34 1.44-.92 1.6-.45.04-.52.26-.2.7.16.14.47.2.9.17.15-.15.25.2.3 1.1.03.76-.3 1.3-1.04 1.63-1.18.36-1.14 1.18.13 2.46.46.42.6.34.42-.25-.04-.74.1-1.12.4-1.14.42-.47.62-.93.6-1.38.23-1.05.72-1.82 1.44-2.3.86-.65.98-1.18.36-1.6-.3-.28-.4-.65-.28-1.1.3-.17.4-.7.37-1.6-.03-.73.16-1.26.6-1.6.43-.16.64-.62.6-1.36-.34-.58-.05-.9.84-.94.74-.2.94-.65.6-1.38-.8-1.3-.38-1.62 1.3-.96.3.28.54.42.7.4.14 0 .13-.14-.03-.44 0-.44-.57-1-1.65-1.7-1.07-.4-1.25-.98-.54-1.77.57-.6.7-1.14.38-1.57-.17-.3-.43-.2-.78.26-.35.46-.76 1.08-1.24 1.85-.5.77-.93 1.62-1.33 2.53-.4.92-.65 1.75-.76 2.5-.5 1.97-.9 2.96-1.2 2.98-.28.17-.46.2-.54.14-.08-.07-.2-.1-.34-.1-.02-.14.07-.56.26-1.24.2-.68.37-1.4.56-2.16.18-.75.37-1.4.57-1.93.18-.53.36-.8.5-.8.15-.17.2-.47.18-.92 0-.3.1-.86.36-1.7.26-.83.5-1.85.74-3.06.4-1.07.68-2.02.86-2.86.18-.82.26-1.32.26-1.47-.04-.74.28-1.73.96-2.96 1.3-3.5.95-4.74-1.1-3.74-.86.5-1.73 1.07-2.6 1.7-.28.32-.92.88-1.92 1.67-1 .8-2.16 1.6-3.46 2.43-2.45 1.77-4.3 3.2-5.6 4.32-1.28 1.1-2.7 2.68-4.23 4.7-1.4 1.72-2.62 2.72-3.65 3-1.03.27-2.24-.07-3.64-1.05-1.55-1.1-2.66-2.2-3.3-3.3-.66-1.08-1.43-2.87-2.3-5.37-.9-2.78-1.58-4.4-2.05-4.82-.16-.3-.36-.65-.6-1.08-.25-.44-.47-1.02-.66-1.76-.85-1.9-1.52-3.43-2.03-4.6-.5-1.17-.92-2.04-1.25-2.62-1.3-1.73-1.7-2.82-1.3-3.3.3-.3.8-.26 1.58.15.47.27 1.43.07 2.88-.6.88-.64 2.68-1.9 5.42-3.76 2.74-1.85 5.12-3.43 7.14-4.74.72-.48 1.8-1.17 3.25-2.07 1.46-.9 3.05-1.84 4.8-2.83 1.73-1 3.5-1.94 5.33-2.85 1.82-.92 3.53-1.72 5.14-2.4 1.16-.66 2.3-1.3 3.37-1.97 1.1-.64 1.77-1.12 2.06-1.44.43-.32.82-.57 1.2-.73.35-.17.9-.13 1.68.13 1.65.22 3.83-.12 6.55-1 2.72-.9 4.64-1.97 5.77-3.23 1.28-1.1 2.07-1.67 2.37-1.7.16.15.57.1 1.23-.17.66-.25 1.35-.55 2.08-.9 1.02-.5 2.22-1.04 3.6-1.63 1.4-.6 2.75-1.08 4.08-1.45 1.32-.37 2.46-.65 3.42-.85.96-.2 1.6-.23 1.9-.1.63.57 1.37.45 2.23-.34.44-.33.94-.62 1.53-.87.58-.26 1.1-.4 1.54-.42l1.56-.3-1.76.77c-.72.48-1.04.76-.96.83.1.07.7-.07 1.9-.43.73-.2 1.3-.37 1.75-.54.44-.17.58-.33.43-.48-.02-.3.78-.63 2.4-1.02 1.03-.35 1.66-.5 1.9-.43.22.06.2.25-.1.56-.28.32 0 .42.8.3.82-.12 2.25-.53 4.3-1.24 3.1-.9 5.8-1.45 8.1-1.65 2.3-.2 4.52.02 6.64.66.46.13 1.07.43 1.84.9.77.5 1.6 1 2.44 1.56.84.55 1.58 1.1 2.2 1.67.64.56.96.92.96 1.07 0 .15.33.5.96 1.07.62.58 1.3 1.25 2 2.03.72.8 1.43 1.53 2.14 2.24.7.7 1.3 1.2 1.76 1.48.3.13.7.56 1.18 1.28.5.72 1.05 1.5 1.7 2.38 1.3 1.88 2.4 4.1 3.37 6.66.95 2.57 1.4 4.67 1.34 6.32.04.6-.04 1.27-.22 2.03-.2.76-.4 1.45-.68 2.06-.53 1.22-.8 2.05-.76 2.5.15.14.02.37-.42.7-.3 0-.43.32-.4.9.02.3-.25.96-.8 1.96-.53 1-1.22 2.15-2.05 3.46-.82 1.32-1.73 2.67-2.7 4.07-.97 1.4-1.88 2.56-2.73 3.5-.7.78-1.4 1.64-2.1 2.57-.7.93-1.25 1.8-1.66 2.55-.42.62-.9 1.2-1.48 1.76-.56.55-1.07.92-1.5 1.1-.3.3-.72.66-1.3 1.06-.57.4-1 .83-1.27 1.3-.3.3-1.14 1.14-2.56 2.48-1.42 1.34-2.92 2.73-4.5 4.15-1.7 1.44-3.24 2.8-4.6 4.05-1.35 1.27-2.16 2.06-2.44 2.37-.42.62-1 .95-1.74 1-.76.03-1.2.2-1.33.5.02.45-.48.93-1.5 1.43zM11.02 37.35c.72-.5 1.08-.84 1.07-1.07-.03-.22-.4-.16-1.12.17-2.46 1.63-3.67 2.66-3.65 3.1.02.3.42.2 1.22-.28.8-.5 1.62-1.13 2.47-1.92zm2.55-2.6c-.85.8-.92 1.02-.18.68.27-.3.7-.6 1.28-.85.6-.25 1.1-.54 1.53-.86.6-.33 1.56-.9 2.94-1.72s2.8-1.64 4.24-2.47c1.6-.98 3.22-1.96 4.9-2.94 1.65-1 2.92-1.73 3.8-2.23 2.03-1 3.15-1.65 3.36-1.96.2-.3-.5-.12-2.1.56-.73.34-2.07 1.05-4.03 2.12-1.95 1.08-4.02 2.26-6.2 3.57-2.16 1.3-4.2 2.57-6.06 3.8-1.88 1.2-3.03 1.98-3.47 2.3zm1.06 3.08c.88-.34.94-.5.2-.46-.45-.12-.82-.03-1.1.28-.15.16.15.22.9.18zm77.83 87.55c.72-.63.85-.98.4-1.03-.45-.05-1.03.24-1.75.88-1.42 1.27-3.45 2.98-6.1 5.13-2.65 2.16-5.3 4.28-7.96 6.35-2.65 2.1-5.02 3.94-7.1 5.54s-3.2 2.4-3.35 2.4c-.3.03-1.18.6-2.6 1.72-1.16.8-2.97 1.98-5.42 3.53-2.46 1.54-5.03 3.1-7.7 4.65-2.7 1.56-5.12 2.92-7.3 4.07-2.18 1.17-3.5 1.76-3.94 1.78-.3 0-.7.2-1.2.5-.52.34-1.7 1.15-3.58 2.44-1.3.96-2.45 1.62-3.48 1.97-1.02.36-1.63.32-1.8-.12 0-.3-.28-.43-.8-.4-.52.02-1.15.2-1.88.54-1.32.37-2.02.56-2.1.56-.07 0 .4-.02 1.46-.08.9-.04 1.23 0 1 .17-.2.16-1.2.6-2.94 1.28-2.5.88-3.44 1.37-2.84 1.5.3-.02 1.04-.17 2.22-.46 1.18-.3 2.57-.7 4.2-1.24 1.6-.53 3.25-1.1 4.94-1.7 1.68-.63 3.1-1.18 4.28-1.7 1.46-.66 2.4-1.02 2.86-1.04.3-.02.66-.26 1.08-.73.27-.47 1.3-1.05 3.05-1.74 2.06-.7 3.22-1.28 3.5-1.75.55-.76 1.48-1.52 2.8-2.26 1.3-.74 2.32-1.05 3.08-.95.74-.04 1.1-.2 1.1-.5-.17-.15.55-.7 2.14-1.7 1.45-.8 2.6-1.55 3.47-2.2.27-.3.67-.5 1.2-.6.5-.1.9-.24 1.2-.4.74-.2.88-.43.4-.7-1.05-.4-.4-1.02 1.93-1.9 1.3-.66 2.6-1.44 3.9-2.33 1.3-.9 3.54-2.46 6.7-4.72.73-.48 1.42-.9 2.07-1.23.66-.33 1.13-.58 1.42-.74.45-.03.58-.26.4-.7-.3-.28.05-.74 1.06-1.4.86-.63 1.57-1.27 2.14-1.9.13-.3.45-.7.95-1.17.5-.46 1.03-.86 1.6-1.2 1.32-.66 1.97-1.14 1.95-1.44 0-.3.27-.6.85-.94.43-.32 1.04-.84 1.82-1.55.78-.72 1.67-1.54 2.66-2.5zm-74.8-89.5c.44-.32.76-.6.97-.83.2-.24.24-.35.1-.35-.16-.14-.75.12-1.76.77-1.02.5-1.37.9-1.06 1.17.17.15.75-.1 1.77-.76zm7.08 139.4c.3 0 .43-.24.4-.68 0-.3-.24-.44-.7-.4-.3 0-.42.23-.4.68.02.3.25.44.7.4zm-.67-55.5c.8-2 1.34-3.7 1.64-5.13.3-1.44.16-2.06-.43-1.9l-.63.72c-.3.3-.5.66-.62 1.04-.13.4-.34.74-.62 1.05-.8 1.7-1.05 2.82-.72 3.4.35.88.32 1.77-.08 2.7-.4 1.06-.58 1.7-.57 1.92 0 .23.3.25.9.07.74-.04.95-.42.6-1.15-.04-.9.14-1.8.54-2.73zm4.16 41c-2.34.86-3.66 1.4-3.94 1.65-.3.24.22.18 1.55-.2.73-.17 1.6-.4 2.65-.7 1.02-.26 1.98-.6 2.85-1.03s1.6-.76 2.2-1c.57-.27.8-.46.63-.6-.15 0-.77.18-1.87.54-1.1.36-2.45.8-4.07 1.33zM20.9 33.67c.44-.46.57-.76.4-.9-.3 0-.72.26-1.3.74-1 .95-.7 1 .9.17zm18.57-9.25c.88-.34 1.75-.83 2.6-1.48.87-.64 1.2-1.25 1.03-1.84-.02-.44-.4-.5-1.13-.16-.28.32-.64.56-1.08.73-.45.17-.88.42-1.3.74-.9.36-1.47.76-1.74 1.22-.43.47-1 .73-1.76.76-.74.2-1.76.62-3.07 1.3-1.3.65-2.3 1.38-3.02 2.16-.28.16-.68.34-1.2.5-.5.2-.98.36-1.42.53-1.18.37-1.84.62-1.98.78-.27.46-.92 1.02-1.93 1.67l-1.74.98 1.8.13c1.05.1 1.78-.24 2.2-1 .24-.92.67-1.24 1.28-.97.6-.03 1.05-.13 1.34-.3.13-.3.42-.54.86-.7.44-.18.8-.35 1.1-.52 1.47-.37 2.7-.85 3.73-1.42 1-.58 1.88-1.1 2.6-1.6 1.15-.95 2.1-1.45 2.84-1.5zm-12.33 85.55c.6-.03.72-.56.37-1.6-.05-1.03-.37-1.4-.94-1.06-.44.33-.6.9-.48 1.7.12.82.47 1.14 1.06.96zm3.7-10.72c1.38-2.16 1.2-2.98-.58-2.44-.87.35-1.5 1.2-1.88 2.57-.26.75-.44 1.5-.55 2.26-.1.75-.23 1.35-.36 1.8-.24 1.07-.35 1.7-.34 1.93 0 .2.38.23 1.12.04.6-.03 1-.8 1.22-2.3.22-1.5.68-2.8 1.37-3.88zm.47 8.93l.2-.47c0-.14.07-.22.22-.23 0-.15-.24-.2-.68-.2-.3.03-.44.26-.42.7.04.6.26.66.7.2zm3.94 45.26c-.6.18-.9.12-.9-.18.14-.15.5-.25 1.1-.28.3.14.24.3-.2.46zm-1.04-45.64c.74-.04.88-.27.4-.7 0-.44-.25-.58-.68-.4-.3 0-.44.24-.42.7.02.3.25.42.7.4zm4.34 48.83c-1.73 1-2.35 1.43-1.83 1.32.53-.1 1.8-.57 3.86-1.43.72-.33 1.3-.66 1.73-.98.43-.32.5-.48.2-.46-.3 0-.82.2-1.55.53-.73.34-1.53.68-2.4 1.02zm.23-77.07c.3-.02.43-.25.4-.7-.02-.6-.25-.65-.67-.18-.14.15-.2.3-.2.45 0 .15-.07.23-.2.24 0 .14.22.2.67.18zm1.9-6.6c.42-.47.53-1.07.35-1.8-.03-.6-.25-.44-.65.47-.4.92-.56 1.53-.46 1.82.1.3.35.13.76-.5zm-2.1-52.76c-.72.34-1 .66-.84.95 0 .3.36.4 1.02.28.67-.1 1.36-.4 2.08-.9.58-.32.78-.7.6-1.15 0-.3-.3-.28-.88.05-.3.17-.62.33-.98.5-.37.17-.7.26-1 .28zm3.76 37.44c.54-1.07.76-1.75.67-2.05-.1-.28-.35-.27-.78.05-.44.18-.64.48-.62.93.3.3.18.6-.4.92-.44.17-.5.55-.17 1.13.47.27.9-.05 1.3-.97zm14.28 88.86c-.14.16-.46.32-.98.5-.5.18-1.13.43-1.86.77l-2.2 1 1.5-1.42c.72-.64 1.63-1.1 2.74-1.38 1.1-.28 1.37-.1.8.52zm-1.68 14.87c.28-.32.2-.54-.26-.67-.6.03-.9.13-.88.27-.28.47-.22.73.15.78.38.06.7-.07 1-.4zm1.32-4.78c.3-.02.44-.25.4-.7-.02-.6-.25-.65-.67-.18l-.4.9.67-.02zm-6.4-139.67c-.88.5-.86.87.05 1.12 1.06.54 2.8.4 5.23-.4 2.42-.8 6.62-2.6 12.6-5.47 1.02-.35 3.27-1 6.73-1.92 3.46-.92 7.92-1.98 13.4-3.16 7.2-1.72 11.7-2.82 13.48-3.28 1.77-.47 2.12-.75 1.07-.84-.74-.1-2.45 0-5.12.38-2.67.36-5.48.84-8.44 1.45-3.1.46-5.77.94-8 1.42-2.2.5-3.38.74-3.53.75-.13.16-.83.46-2.07.9-1.25.43-2.68.9-4.3 1.45-1.76.54-3.85 1.25-6.27 2.12-2.42.87-4.43 1.72-6.02 2.55-1.76.7-3.3 1.26-4.62 1.7-1.32.45-2.13.67-2.43.7-.32-.3-.9-.1-1.77.53zm8.94 136.85c-.28.46-.05.52.68.2.9-.06 1.04-.22.43-.48-.3 0-.53.06-.68.14-.14.1-.3.13-.44.14zm2.64 3.44c.3 0 .4-.05.33-.13-.08-.05-.26-.08-.56-.07-.46-.12-.98.13-1.54.75-.57.48-.57.56.02.23.87-.34 1.45-.6 1.74-.76zm4.5-16.6c-.43.04-.98.26-1.63.66-.66.4-1.28.85-1.85 1.33-1.58 1.13-2.6 1.7-3.04 1.73-.28.16-.18 0 .32-.47.5-.48 1.1-1.04 1.8-1.67 1.87-1.6 3.46-2.57 4.8-2.94 1.18-.07 1.64.05 1.35.37-.13.3-.7.64-1.74 1zm-2.8 14.72c.28-.3.42-.54.4-.7 0-.14-.23-.2-.67-.18-.3.32-.42.62-.4.92.16.3.38.28.67-.04zm.56-79.1c.6-.18.73-.34.43-.47-.74.03-1.1.12-1.1.27-.14.16-.13.27.02.34s.37.02.66-.14zm5.1 75.9c1-.5 1-.73-.04-.68-.6.03-1.18.37-1.74 1l.22-.02c-.28.3-.27.46.03.45.3 0 .8-.26 1.53-.75zM81.56 58.3c1.15-.96 1.86-1.52 2.15-1.68.3-.02.64-.15 1-.4.36-.23.68-.5.97-.82.54-.93 1.27-1.42 2.16-1.46.88-.35 1.38-.67 1.52-.98.14-.15.5-.55 1.06-1.17.57-.64 1.2-1.34 1.9-2.13 1.56-1.72 2.4-2.74 2.54-3.04.13-.3-.52.1-1.95 1.22-.6.48-1.27 1.04-2.05 1.67-.8.64-1.55 1.2-2.27 1.7-.72.48-1.4 1-2.04 1.55-.65.56-1.18 1-1.6 1.32-.73.62-1.8 1.58-3.23 2.84-1.4 1.28-3.56 3.1-6.42 5.5-2.14 1.9-3.5 2.87-4.1 2.9-.3-.13-.5-.16-.57-.1-.06.1-.02.2.14.34.03.6-.46 1.15-1.48 1.65-1 .8-1.5 1.27-1.5 1.42.02.3-.76 1-2.35 2.14-1.14.8-1.85 1.47-2.12 2-.27.55-.04.72.7.53.44-.17 1.05-.58 1.84-1.22.8-.62 1.17-1.1 1.16-1.4-.02-.44.6-1.07 1.92-1.88 1.43-1.12 2.14-1.83 2.12-2.13-.15-.15-.16-.26 0-.35.13-.08.35-.05.66.08.15 0 .7-.3 1.64-.87.94-.57 1.95-1.3 3.02-2.17 1.07-.9 2.1-1.8 3.1-2.75s1.7-1.73 2.12-2.35zm22.7-32.78c.7-.93.75-1.45.15-1.57-.6-.12-2.16.04-4.67.47-1.63.38-2.92.67-3.88.87-.96.2-1.96.43-2.98.7-1.04.3-2.32.7-3.86 1.22-1.53.53-3.7 1.24-6.5 2.13-3.37 1.07-5.94 1.92-7.7 2.53-1.76.62-3.03 1.17-3.83 1.66-.8.5-1.26.96-1.38 1.4-.14.47-.26 1.07-.36 1.83-.12.75-.2 1.46-.23 2.14-.03.68-.12 1.17-.25 1.48-.42.46-.58 1.67-.48 3.6-.1.76-.3 1.63-.54 2.6-.25 1-.58 1.8-1 2.4-.67 1.4-.86 2.07-.55 2.06.58-.18.86.06.82.74-.04.67-.35 1.33-.9 1.95-.72.64-.84 1.16-.37 1.6.3.27.05 1.03-.78 2.27-.83 1.24-1.02 1.84-.58 1.82.47.28.64.72.52 1.32-.13.6-.4.84-.87.7-.6.05-.8.36-.62.94.06.9.67 1.3 1.87 1.25l1.8.13-1.73 1.2c-1.17.52-1.74 1.07-1.7 1.67.16.44.47.57.9.4.45-.17 1.23-.8 2.37-1.92 1.16-.8 1.77-1.27 1.84-1.43.07-.15-.13-.3-.58-.42-.76-.1-1.1-.2-1.02-.28.07-.08.46-.43 1.17-1.07.87-.64 1.3-1.1 1.28-1.4-.02-.45.26-.77.85-.95.28-.3.78-.7 1.5-1.2.73-.48 1.44-1.1 2.15-1.9.7-.78 1.38-1.42 2.03-1.9.65-.48 1.12-.73 1.42-.74.3 0 .66-.22 1.1-.6.42-.4.84-.84 1.27-1.3.4-.48 1.08-1.1 2-1.9.94-.8 1.84-1.6 2.7-2.4.7-.62 1.42-1.26 2.13-1.9.7-.62 1.2-1.1 1.5-1.4.26-.62.7-.95 1.3-.98.57-.33 1.56-1.27 2.98-2.84.7-.8 1.38-1.53 2.02-2.24.63-.7 1.1-1.2 1.37-1.52.27-.32.74-.8 1.38-1.42.63-.63 1.3-1.34 2-2.12 1.56-1.73 2.5-2.6 2.8-2.6.3-.03.67-.57 1.13-1.64.48-1.07.63-1.75.47-2.04-.03-.45.17-.9.6-1.38zM72.9 149.48c1.3-.97 1.7-1.5 1.25-1.64-.6.03-1.54.6-2.82 1.72-1.85 1.74-1.33 1.7 1.56-.08zm-.8-130.56c2.36-.72 3.53-1.23 3.5-1.53-.14-.15-.66-.1-1.54.2-.9.26-1.92.57-3.1.93-2.63.9-4.46 1.66-5.47 2.3-.44.47-.06.53 1.12.17.57-.33 1.38-.67 2.4-1.02 1.03-.36 2.06-.7 3.1-1.06zm.73 116.45c-.57.62-.94.72-1.1.28-.33-.28-.2-.6.4-.92 1.3-.66 1.54-.45.7.64zm.77-62.32c.72-.48.82-.67.3-.57-.52.1-1.2.4-2.08.9-1.6.82-2.24 1.38-1.93 1.66 0 .3.52.12 1.53-.53.87-.63 1.6-1.12 2.17-1.45zM71.2 61.3c.87-.34 1-.5.4-.47-.75-.25-1.1-.16-1.1.3-.13.14.1.2.7.17zm3.97 84.7c-.14.15.1.22.7.18.86-.34 1-.5.4-.47-.75-.24-1.12-.15-1.1.3zM68.87 8.34c-.15.15-.14.23 0 .22.16 0 .38-.1.67-.26.3-.02.52-.06.66-.15.15-.08.07-.1-.23-.1-.76-.25-1.13-.16-1.1.3zm4.7 51.05c1.17-.07 1.9-.4 2.17-1.02.27-.6.25-.9-.04-.9-.3.02-1.03.36-2.2 1.02l-1.94 1.22 2-.33zm8.48 93.85c1.16-.65 1.88-1.14 2.16-1.46.3-.32.43-.62.4-.92-.3-.28-.8-.03-1.52.75-1 .8-1.8 1.2-2.4 1.25-.58.33-1.15.8-1.7 1.43l-1.07 1.2 1.1-.52c.72-.5 1.74-1.06 3.05-1.73zM71.35 21.42c-.15.16.15.22.9.18.74-.04 1.56-.16 2.44-.35.88-.2 1.72-.43 2.53-.7.8-.26 1.28-.47 1.43-.63.27-.46 0-.7-.82-.74-.83-.03-1.38.18-1.65.64-.3.47-1.17.74-2.66.82-1.34.07-2.07.33-2.2.78zm1.7-14.65c-.3.17-.33.24-.1.23.2 0 .47-.1.76-.26 1.05-.06 1.27-.22.66-.48-.75.04-1.2.2-1.32.5zm5 18.78c.28-.46.34-.72.2-.8-.16-.06-.68 0-1.57.2-1.18.36-1.75.7-1.74 1 .16.28.65.37 1.47.25s1.37-.33 1.66-.65zm3.5 28.27c.53-1.22.3-1.66-.74-1.3-.6.02-.86.4-.82 1.16.34.88.86.92 1.57.14zm.25 21.94c.45-.03.78-.2 1-.5.2-.3.14-.53-.16-.67-.32-.3-.6-.12-.87.5-.12.6-.1.82.03.66zm7.12 71.76c.88-.35.94-.5.2-.46-.46-.13-.83-.03-1.1.28 0 .15.3.2.9.18zm-5.6-132.55c1.48-.37 1.84-.54 1.1-.5-.6-.12-1.27 0-2 .33-.44.17-.14.23.9.17zm4.3 56.45c.45-.02.5-.32.18-.9l-.47-.43c-.15 0-.23-.07-.23-.22-.15 0-.2.3-.18.9.33.6.56.8.7.64zm2.5-50.76c-3.7.95-5.52 1.56-5.5 1.86.02.45.77.5 2.24.1.74-.18 1.62-.4 2.66-.7 1.02-.27 2.05-.58 3.08-.94 1.03-.35 2.2-.78 3.52-1.3-.16-.14-.8-.1-1.9.1-1.1.2-2.48.5-4.1.88zm-2.4 26.8c-.17-.3-.32-.37-.46-.2.03.58.12.95.28 1.1.15.13.26.1.33-.14.06-.22 0-.48-.16-.77zm6.6 75.13c.73-.64 1-1.03.85-1.17-.32-.28-.75.04-1.3.96l-.4.9.86-.7zm.2-5.17c1-.5 1.83-1.33 2.44-2.48.6-1.15.55-1.63-.2-1.44-.13.16-.38.44-.73.83-.36.4-.8.98-1.37 1.75-.7.8-1.1 1.3-1.15 1.52-.05.22.28.17 1-.17zm4.2-9.63c1.17-.35 1.44-.82.8-1.38-.3-.3-.58-.05-.84.7-.43.48-.4.7.03.68zM238.46 17.15c.78.7 1.22 1.88 1.3 3.5.1 1.65-.23 2.8-.94 3.42-.86.64-1.58 1.28-2.14 1.9-1.13 1.26-2.08 2.28-2.86 3.07-.78.8-1.3 1.34-1.6 1.65-.3.16-1.88 1.88-4.77 5.17-2.9 3.28-6.37 7.35-10.45 12.2-1.13 1.25-2.2 2.42-3.17 3.52-1 1.1-1.7 1.8-2.13 2.1-1 .67-1.5 1.3-1.47 1.88.03.6-.94 2-2.92 4.2-.84.78-1.7 1.7-2.53 2.7-.85 1.02-1.48 1.76-1.9 2.23-.43.48-1 1.14-1.7 2-.7.86-1.4 1.68-2.1 2.46-.7.8-1.27 1.45-1.7 2-.4.54-.6.9-.6 1.03.02.44-.76 1.38-2.32 2.8-1.58 1.43-2.35 2.37-2.32 2.8 0 .3-.32 1-1 2.08-.7 1.1-1.62 2.25-2.74 3.5-2.27 2.52-3.38 4.2-3.33 5.1-.72.64-1.35 1.3-1.9 2-.57.7-1.13 1.45-1.7 2.23 1.16 2.04 2.17 4.12 3.03 6.24.85 2.12 1.8 4.2 2.8 6.23 0 .45.1 1 .3 1.67.18.66.37 1.36.56 2.1 1.26 4.26 2.45 8.23 3.53 11.9 1.08 3.7 2.1 6.95 3.08 9.82.97 2.86 1.77 5.2 2.4 7.04.6 1.83 1.07 2.9 1.38 3.17.32.43.82 1.3 1.48 2.6.67 1.32 1.27 2.7 1.8 4.18 1.34 3.06 2.9 6.12 4.6 9.16 1.74 3.06 3.32 5.36 4.74 6.94l2.14 2.35-1.45 2.08c-.7.93-1.3 1.52-1.82 1.77-.5.26-1.88.36-4.13.33-6.27-.12-11.57-1.48-15.9-4.1-1.22-.68-2.5-1.32-3.8-1.93-1.3-.6-2.32-1.1-3.1-1.5-1.52-.68-3.32-2.15-5.38-4.44-2.06-2.27-3.6-4.5-4.6-6.7-.34-.72-.84-1.77-1.5-3.16-.68-1.38-1.35-2.65-2-3.82-1.34-2.6-2.23-4.77-2.7-6.46-.46-1.7-.3-2.4.46-2.15.6.28 1.1 1.22 1.5 2.84.36 1.48.83 2.6 1.4 3.4.56.8.97.8 1.23.05.13-.32.06-1-.22-2.02-.26-1.03-.58-2.13-.94-3.3-.37-1.18-.76-2.28-1.18-3.3-.43-1.03-.8-1.68-1.1-1.97-.48-.26-1.1-1.46-1.88-3.58-.8-2.13-1.9-5.54-3.34-10.25-1.2-.08-2.6-1.2-4.2-3.36-.28.47-.64.72-1.1.74-.7.48-1.04 1.32-.98 2.5-.1.77-.3 1.6-.54 2.5-.25.9-.5 1.75-.76 2.5-.4.78-.93 2.26-1.56 4.46-.64 2.2-1.26 4.58-1.87 7.15-.62 2.43-1.15 4.5-1.58 6.25-.43 1.74-.72 2.7-.85 2.84-.15.16-.34.7-.6 1.6-.25.9-.53 1.97-.84 3.18-.3 1.22-.65 2.5-1.03 3.86-.37 1.37-.6 2.5-.7 3.4-.27.76-.46 1.48-.57 2.16-.12.68-.24 1.17-.37 1.47-.63 2.14-1.15 4.37-1.55 6.7-.4 2.34-.56 4.18-.5 5.52.23 4.32-2.16 5.78-7.16 4.4-1.2-.23-2.2-.48-2.96-.74-.76-.26-1.14-.53-1.16-.83-.02-.45-.34-.66-.93-.63-.44.17-1.4-.15-2.85-.97-1.46-.82-2.97-1.75-4.5-2.8-1.56-1.02-2.96-2.07-4.2-3.13-1.26-1.05-1.9-1.8-1.92-2.25-.03-.6-.74-1.23-2.12-1.9-1.08-.7-1.85-1.88-2.3-3.58-.47-1.7-.53-3.6-.2-5.7.24-1.22.44-2.3.62-3.3.17-.97.76-3.2 1.77-6.7.64-2.1 1.16-3.64 1.56-4.55.4-.92.7-1 .9-.27.02.6.48.87 1.37.82.74-.18 1.06-.54.96-1.06-.1-.5-.6-.97-1.53-1.37-.76-.26-1.1-.4-1.03-.4.07 0 .56-.1 1.44-.3 1.35-.07 2-.77 1.9-2.1-.05-1.2.15-1.8.6-1.84.44-.02.64-.4.6-1.15-.17-.44.1-1.2.78-2.28.28-.3.48-.84.6-1.6.1-.75.2-1.5.32-2.25-.1-1.64.4-2.5 1.43-2.54 1.03-.35 1.52-.97 1.47-1.86.24-1.2.55-2.5.92-3.86.52-1.52.6-3.1.2-4.7-.18-.75-.25-1.34-.2-1.8.05-.44.23-.6.53-.47.32.3.78-.07 1.4-1.07.62-1 .84-1.72.67-2.16-.15-.14-.2-.44-.15-.9.05-.44.14-.9.26-1.35.22-1.5.1-2.4-.36-2.67-.17-.3-.03-.6.4-.92.6-.03.7-.56.36-1.58-.35-1.03.06-1.72 1.24-2.08 1.2-.07 1.95-1.23 2.28-3.48.22-1.52.38-2.72.48-3.62.1-.9.04-2.17-.2-3.8-.03-.6.47-1.07 1.5-1.42 2.22-.42 2.03-1.15-.57-2.2-1.06-.26-1.48-1.2-1.26-2.86.52-1.37.93-2.06 1.23-2.08.44-.17.67-.04.7.4.02.46-.18 1.07-.58 1.83-.42.62-.33.92.27.9.73-.2 1.54-1.18 2.42-2.94.88-1.75 1.4-3.6 1.6-5.56.1-1.05.33-2.45.7-4.18.35-1.74.7-3.36 1.08-4.88.5-1.52.96-2.96 1.34-4.32.37-1.37.63-2.2.76-2.5.13-.46.28-1.1.46-1.94.2-.82.4-1.62.66-2.38.26-.76.44-1.56.55-2.38.1-.83.14-1.4.13-1.7-.34-.72-.22-1.25.36-1.58.13-.15.5-1.14 1.07-2.97.57-1.8 1.1-3.82 1.6-6 .47-2.2.85-4.2 1.13-6 .28-1.8.34-2.78.18-2.92-.3 0-.5.55-.6 1.6.05.74-.28 1.5-1 2.3-.57.32-.84.1-.8-.64.03-.75.35-2.5.96-5.2.24-1.06.42-2 .52-2.83.1-.82.08-1.38-.1-1.67-.02-.6.1-1.35.34-2.26.37-1.5.72-3.4 1.05-5.65.33-2.26.46-4.06.4-5.4s.32-2.3 1.2-2.86c.85-.57 1.68-.5 2.46.2.18.3.75.6 1.74.92 1 .33 2.08.6 3.3.84 3.47.86 6.86 2.14 10.16 3.84 3.3 1.7 5.9 3.53 7.8 5.52 1.72 1.56 2.75 2.74 3.1 3.54.33.8.56 2.25.67 4.33.07 1.34.04 2.95-.1 4.82-.1 1.88-.34 3.87-.68 5.97-.35 2.12-.8 4.12-1.38 6-.57 1.9-1.12 3.54-1.64 4.9-.4 1.08-.75 2.26-1.05 3.54-.3 1.3-.6 2.3-.85 3.07-.5 2.12-.8 3.4-.92 3.86l-.2.24c.3-.02.44.13.46.42.02.45-.18.76-.62.93v.22l.02.22c.16.3.08.9-.24 1.8-.33.92-.77 1.84-1.3 2.76-.4 1.07-.77 1.98-1.1 2.75-.33.76-.5 1.3-.48 1.6.32.42.06 1.1-.78 2.05-.7.78-.76 1.38-.14 1.8V72c-.3 2.7-.97 5.43-2.02 8.17.15.13.24.35.26.65.15.14.24.3.24.43l.92.4c.28-.3.48-.84.6-1.6.1-.75 0-1.27-.3-1.55-.34-.43-.1-.96.68-1.6.8-.64 1.9-1.3 3.37-1.97 1.18-.36 1.87-.7 2.08-1 .22-.32.3-1 .24-2.03-.04-.75-.08-1.46-.1-2.13-.05-.67.07-1.16.36-1.47.26-.76.1-1.13-.5-1.1-.45.03-.7-.26-.72-.85-.04-.6.25-.9.84-.94.58-.33.9-.2.92.4.2.73.72.9 1.6.47.87-.4 1.58-1.08 2.13-2 .26-.76.84-1.65 1.77-2.67.9-1.02 1.38-1.38 1.4-1.08.14 0 .3-.1.43-.25.14 0 .5-.17 1.1-.5.85-.65 1.12-1.33.78-2.06-.17-.3 0-.82.48-1.6.48-.77 1.07-1.58 1.77-2.44.7-.86 1.45-1.64 2.23-2.36.78-.7 1.4-1.08 1.85-1.1.74-.04 1.28-.4 1.62-1.1.34-.68.27-1.16-.2-1.44 0-.15-.03-.18-.1-.1-.08.07-.1.26-.1.56.04.45-.18.68-.62.7-.58.34-.6.03-.05-.9.7-.77 1.36-1.18 1.95-1.2 1.04-.07 1.25-.38.63-.94-.33-.73.14-1.65 1.43-2.76 1.13-1.26 1.7-2.03 1.67-2.33-.02-.45.32-.9 1.05-1.4.56-.63.7-1.08.37-1.36-.15-.14-.8.4-1.92 1.67-1.14 1.25-2.54 2.9-4.23 4.92-1.68 2.03-3.47 4.25-5.36 6.66-1.88 2.42-3.66 4.72-5.34 6.9-1.4 2-2.5 3.2-3.3 3.53-.8.34-.65-.42.45-2.27.43-.6.9-1.3 1.47-2.1.55-.76 1.12-1.4 1.7-1.87l2.53-2.8c.28-.32.74-.9 1.37-1.76.62-.85 1.28-1.75 1.98-2.68.7-.93 1.54-2.02 2.52-3.27s1.82-2.27 2.53-3.05c.7-.8 1.5-1.8 2.42-3.04.9-1.23 1.7-2.32 2.4-3.26.7-.78 1.55-1.8 2.53-3.04.98-1.24 1.82-2.26 2.53-3.04.7-.94 1.68-2.1 2.95-3.52 1.27-1.4 2.4-2.66 3.4-3.76 3.8-4.08 5.7-6.57 5.65-7.46s-1.98.7-5.8 4.78c-1.14 1.1-2.06 1.98-2.78 2.6-.7.65-1.15.9-1.3.75-.3-.13-.3-.43.06-.9.35-.47.8-1 1.37-1.64 1.13-1.24 1.6-2 1.45-2.3-.3-.3-.82.1-1.5 1.2-.85.93-1.5 1.42-1.95 1.44-.73.2-.9-.03-.48-.65.42-.63 1.27-1.57 2.54-2.83.7-.78 1.3-1.45 1.8-2 .5-.54.73-.97.7-1.27-.32-.58.04-.9 1.08-.95.74-.2 1.28-1.2 1.64-3 .1-.75.22-1.5.33-2.25.1-.76.16-1.2.15-1.36.12-.45.56-.73 1.3-.85s1.56-.1 2.47.1c.9.16 1.78.45 2.62.86.83.4 1.5.9 1.97 1.46.5 1.02 1.27 1.5 2.32 1.45.73-.04 1.1.16 1.14.6.03.6 1.26 1.36 3.7 2.28 1.67.5 3.16 1.1 4.46 1.78 1.3.7 2.9 1.72 4.76 3.12zM118.34 144.62c.46.28.67.04.64-.7-.35-.9-.75-1.46-1.22-1.73-.44 0-.65.32-.62.9.34.75.74 1.25 1.2 1.52zm6.2-5.7c.57-.33.7-1 .34-2.03-.2-1.2-.52-1.33-.92-.4-.5 1.66-.32 2.47.58 2.42zm5.13-21.77c-.5 1.8-.74 2.87-.73 3.17.02.3.24.36.68.2.45-.03.65-.5.6-1.4-.35-.86-.22-1.32.38-1.35.15 0 .4-.4.72-1.16.34-.75.63-1.6.88-2.5.25-.9.47-1.8.64-2.72.18-.9.26-1.5.24-1.8-.18-.6-.5-.54-1 .16-.48.7-.85 1.5-1.1 2.4-.12.6-.3 1.4-.55 2.4-.25.98-.5 1.85-.76 2.6zm3.6-12.3c-.36 1.37-.55 2.17-.54 2.4.02.2.24.24.68.07.16 0 .4-.36.74-1.05.34-.7.63-1.5.88-2.4.25-.9.47-1.77.65-2.6.18-.84.26-1.4.25-1.7-.17-.44-.47-.46-.9-.06-.43.4-.7.98-.8 1.73-.14.3-.27.83-.37 1.6-.1.74-.3 1.42-.57 2.03zm3.2-12.03c-1 3.94-1.05 5.8-.16 5.6.6-.02 1-1 1.2-2.97.2-1.65.58-3 1.13-4.1.56-.6.8-1.6.74-2.94-.55-1.9-1.52-.43-2.9 4.42zm2.2-26.1c-.43.02-.75-.18-.92-.62-.02-.45.18-.9.6-1.38.58-.33.9-.12.93.63.34.87.14 1.33-.6 1.37zm1.7 14.92c-.45.33-.65.63-.64.93.03.45.25.5.68.2.6-.04.9-.36.86-.95-.33-.58-.63-.64-.9-.18zm.44-21.3c-.6 2.42-1.1 2.9-1.48 1.42-.03-.6.3-1.28 1-2.07.85-1.1 1-.88.5.64zm1.3 15.83c-.84 1.4-1.3 2.3-1.44 2.77-.12.45.03.6.47.42.45-.02.92-1.02 1.42-3l.97-2.72-1.43 2.53zm.7-25.12c-.6.03-.93-.32-.96-1.07-.34-.73-.14-1.1.6-1.15.3-.32.6-.03.95.84.03.9-.16 1.35-.6 1.38zm1.53-4.8c-.58.35-.88.28-.9-.16-.03-.6.17-1.06.6-1.4.13-.3.27-.4.43-.35.15.07.23.25.25.55.02.15-.1.6-.37 1.36zm1.14-3.85c-.7.78-1.08.73-1.12-.17-.35-.88-.23-1.48.35-1.8.57-.5.98-.47 1.23.04.25.5.1 1.15-.46 1.93zm16.5 79.78c.87-.5 1.8 1.4 2.76 5.67.35 1.03.5 1.85.46 2.45-.05.6-.23.76-.54.47-.3-.13-.63-.64-.98-1.52-.35-.87-.65-1.8-.93-2.75-.27-.95-.5-1.87-.7-2.76-.2-.9-.23-1.4-.08-1.56zm11.18 25.4c.45-.03.66-.33.62-.93-.32-.43-.7-.78-1.17-1.06-.45-.13-.66.18-.63.92.34.73.74 1.08 1.18 1.05zm-3-74.44c.25-.9.53-1.37.83-1.4.14 0 .1.45-.16 1.36-.55.93-.9 1.4-1.04 1.4l-.02-.22c0-.15.13-.53.4-1.14zm5 78.14c.26-.46.16-.9-.3-1.33-.16-.14-.27-.1-.33.13-.07.23-.02.5.15.78.18.6.3.88.38.87.07 0 .1-.15.1-.45zm3.5-95.4c.13-.44.5-.7 1.1-.72.44-.02.67.2.7.64.02.44-.34.7-1.1.73-.73.04-.97-.18-.7-.64zm9.75-15.06c-.58.33-.9.5-.98.5-.08 0-.06-.3.06-.9-.04-.9.3-1.36 1.05-1.4.74-.04 1.1.14 1.03.5-.06.4-.44.82-1.16 1.3zm6.76-7.74c-.84 1.1-1.55 1.8-2.13 2.12-.58.34-.88.2-.9-.4-.03-.3.28-.76.92-1.4.64-.62 1.46-1.33 2.47-2.13.85-.8 1.3-1 1.3-.63.03.37-.53 1.18-1.66 2.44zm-1.3 5.22c-.85.64-1.3.8-1.3.5-.02-.28.25-.75.82-1.37.56-.63 1-.95 1.3-.97.28-.16.36-.02.24.44-.13.45-.48.92-1.05 1.4zm4.02-4.7c-.42.48-.66.34-.7-.4-.03-.75.1-1.13.4-1.15.44-.02.68.2.7.64.15.13.02.44-.4.9zm2.58-6.4c-1.26 1.7-2.05 2.27-2.38 1.7-.17-.3 0-.83.47-1.6.5-.77 1.12-1.6 1.9-2.45.77-.86 1.5-1.6 2.23-2.25.7-.63 1.3-.96 1.74-1 .9-.18 1.05.1.5.88-.42.78-.6 1.53-.56 2.27-.1.9-.57 1.94-1.4 3.1-.84 1.17-1.63 1.77-2.38 1.8-.6.2-.25-.5 1.02-2.06 1.27-1.42 1.74-2.27 1.43-2.55-.45.02-1.3.74-2.57 2.15zm2.9 8.36c.72-.34 1.1-.7 1.17-1.07.06-.4-.3-.56-1.03-.52-.44.18-1.02.58-1.73 1.2-.72.65-1.06 1.12-1.05 1.4.02.3.3.3.9-.03l1.74-1zm9.7-11.5c.44-.15.36-.23-.23-.2-.6.04-1.9 1.15-3.86 3.34l-2.74 3.28 2.2-.8c1.62-.37 2.42-.7 2.4-1l-.66.03c-.75.05-.56-.64.56-2.04.97-1.4 1.75-2.25 2.33-2.6z"/></g></svg>