<?xml version="1.0" encoding="utf-8"?>
<!-- Generator: Adobe Illustrator 16.0.4, SVG Export Plug-In . SVG Version: 6.00 Build 0)  -->
<!DOCTYPE svg PUBLIC "-//W3C//DTD SVG 1.1//EN" "http://www.w3.org/Graphics/SVG/1.1/DTD/svg11.dtd">
<svg version="1.1" id="Layer_1" xmlns="http://www.w3.org/2000/svg" xmlns:xlink="http://www.w3.org/1999/xlink" x="0px" y="0px"
	 width="239.777px" height="187.201px" viewBox="0 0 239.777 187.201" enable-background="new 0 0 239.777 187.201"
	 xml:space="preserve">
<g>
	<path fill="#C6A437" d="M90.374,76.877c-0.862,0.644-1.054,1.252-0.577,1.822c0.486,0.724,0.348,0.955-0.41,0.694
		c-1.053-0.092-1.195,0.062-0.424,0.47c0.625,0.566,1.387,0.824,2.279,0.777c0.447-0.023,1.168,0.239,2.17,0.781
		c0.998,0.548,2.079,1.201,3.238,1.96c1.16,0.762,2.243,1.527,3.256,2.294c1.01,0.769,1.756,1.44,2.234,2.011
		c0.955,1.147,2.374,2.563,4.254,4.258c0.934,0.701,1.831,1.474,2.698,2.322c0.864,0.851,1.458,1.493,1.781,1.925
		c0.955,1.146,1.669,1.927,2.14,2.352c0.615,0.416,1.473,1.791,2.566,4.121c1.092,2.334,1.904,4.307,2.438,5.92
		c0.885,2.642,1.291,5.386,1.215,8.226c-0.075,2.842-0.663,5.187-1.76,7.036c-1.365,2.462-1.965,3.838-1.8,4.126
		c0.023,0.446-0.177,0.905-0.601,1.376c-0.143,0.157-0.281,0.39-0.411,0.693c-0.136,0.307-0.27,0.612-0.4,0.917
		c0.016,0.3-0.157,0.607-0.513,0.924c-0.357,0.319-0.676,0.634-0.957,0.945c-0.439,0.172-0.945,0.536-1.512,1.087
		c-0.57,0.555-1.061,1.141-1.477,1.756c-0.277,0.464-0.623,0.93-1.047,1.4c-0.423,0.471-0.785,0.712-1.082,0.728
		c-0.446,0.023-1.008,0.727-1.682,2.104c-0.535,1.226-1.553,2.434-3.059,3.634c-1.505,1.198-2.773,1.976-3.799,2.326
		c-0.893,0.047-1.17,0.508-0.822,1.387c0.047,0.895-0.309,1.286-1.059,1.176c-0.748,0.039-1.183,0.286-1.306,0.741
		c-0.126,0.453-0.939,1.319-2.44,2.591c-1.502,1.275-2.476,1.923-2.922,1.946c-0.748,0.039-1.585,0.417-2.518,1.138
		c-0.936,0.723-1.461,1.387-1.576,1.987c-0.252,0.91-0.742,1.534-1.47,1.867c-0.447,0.023-1.024,0.43-1.729,1.214
		c-0.542,1.072-3.072,2.698-7.584,4.875c-0.732,0.337-1.082,0.729-1.059,1.175c0.016,0.298-0.863,0.642-2.635,1.035
		c-1.764,0.541-3.72,1.686-5.867,3.444c-0.855,0.788-1.932,1.63-3.229,2.52c-1.297,0.887-2.638,1.705-4.016,2.449
		c-1.382,0.746-2.692,1.375-3.934,1.888c-1.243,0.511-2.307,0.865-3.192,1.062c-0.895,0.047-1.914,0.549-3.058,1.505
		c-0.716,0.632-2.17,1.345-4.368,2.132c-2.199,0.789-4.586,1.585-7.155,2.391c-2.572,0.807-5.114,1.463-7.626,1.968
		c-2.515,0.502-4.365,0.787-5.556,0.85c-3.293-0.128-5.894-1.337-7.806-3.622c-1.114-1.286-1.685-2.229-1.716-2.823
		c-0.166-0.292-0.57-0.867-1.21-1.728c-0.787-0.708-0.973-1.445-0.564-2.211c0.4-0.918,0.227-1.356-0.518-1.317
		c-0.462-0.277-0.959-1.221-1.492-2.835c-0.386-1.624-0.725-2.426-1.021-2.41c-0.3,0.016-0.62-0.415-0.963-1.294
		c-0.355-1.026-0.676-1.458-0.965-1.292c-0.446,0.022-0.855-0.63-1.223-1.953c-0.33-0.579-0.62-1.16-0.875-1.745
		c-0.254-0.584-0.536-1.017-0.852-1.302c-0.625-0.561-0.348-0.95,0.835-1.163c0.439-0.171,0.911-0.384,1.423-0.634
		c0.508-0.253,0.904-0.53,1.188-0.848c0.705-0.781,1.421-1.34,2.152-1.681c0.729-0.334,1.131-0.469,1.211-0.398
		c0.078,0.073,0.138,0.48,0.177,1.223c-0.254,0.91-0.081,1.35,0.517,1.318c0.447-0.023,0.686,0.265,0.717,0.856
		c0.039,0.747,0.59,1.314,1.657,1.706c0.933,0.7,2.206,0.819,3.827,0.36c1.617-0.455,4.766-1.628,9.448-3.519
		c2.045-0.854,4.165-1.748,6.356-2.685c2.19-0.934,3.868-1.658,5.038-2.169c1.175-0.358,2.163-0.744,2.964-1.163
		c0.797-0.412,1.191-0.77,1.176-1.069c0.424-0.471,1.002-0.797,1.74-0.985c1.041-0.054,1.987-0.553,2.834-1.493
		c0.713-0.631,1.436-1.084,2.17-1.345c0.732-0.265,1.107-0.245,1.123,0.053c0.162,0.291-0.26,0.797-1.265,1.522
		c-1.009,0.724-2.17,1.345-3.487,1.862c-0.43,0.323-0.902,0.607-1.41,0.856c-0.512,0.252-0.906,0.534-1.188,0.848
		c-0.285,0.315-0.168,0.421,0.352,0.316c0.518-0.1,1.105-0.281,1.764-0.539c0.659-0.26,1.351-0.556,2.082-0.894
		c0.728-0.337,1.232-0.658,1.518-0.977c0.57-0.476,1.312-0.59,2.222-0.339c1.063,0.393,1.729,0.282,1.999-0.327
		c0.407-0.769,0.246-0.983-0.481-0.649c-0.447,0.023-0.567-0.115-0.358-0.43c0.207-0.307,0.598-0.664,1.176-1.066
		c0.573-0.404,1.223-0.851,1.946-1.336c0.72-0.487,1.374-0.816,1.964-0.998c0.728-0.336,1.346-0.633,1.857-0.883
		c0.51-0.249,0.757-0.521,0.741-0.82c-0.008-0.147,0.347-0.468,1.071-0.953c0.719-0.486,1.586-1.053,2.598-1.704
		c1.01-0.649,1.986-1.26,2.929-1.834c0.94-0.569,1.774-1.022,2.505-1.363c1.017-0.5,1.48-0.934,1.388-1.305
		c-0.097-0.365-0.729-0.371-1.905-0.012c-1.043,0.055-1.498-0.069-1.363-0.377c0.123-0.455,0.633-0.741,1.523-0.862
		c0.889-0.122,1.416-0.038,1.58,0.252c0.031,0.597,0.553,0.569,1.564-0.082c0.87-0.494,1.172-0.433,0.905,0.178
		c-0.292,0.166-0.431,0.323-0.423,0.468c0.008,0.152,0.08,0.148,0.223-0.012c0.594-0.031,1.098-0.428,1.506-1.198
		c0.258-0.758,0.611-1.151,1.059-1.175c0.585-0.177,1.522-0.862,2.805-2.05c1.282-1.187,1.915-1.927,1.899-2.228
		c-0.331-0.579-0.271-0.883,0.177-0.906c0.577-0.328,0.744-0.039,0.494,0.871c0.031,0.597,0.75,0.111,2.163-1.458
		c1.552-1.722,2.476-2.595,2.776-2.61c0.297-0.016,0.865-0.566,1.705-1.657c0.839-1.086,1.25-1.779,1.234-2.08
		c-0.008-0.146-0.303-0.058-0.881,0.271c-0.582,0.331-1.194,0.733-1.841,1.216c-0.647,0.482-1.292,1.003-1.935,1.558
		c-0.643,0.56-1.176,1.069-1.6,1.541c-0.558,0.778-1.274,1.337-2.152,1.681c-0.747,0.039-1.244,0.511-1.493,1.421
		c-0.551,0.926-1.12,1.479-1.706,1.657c-0.301,0.016-0.705,0.115-1.217,0.289c-0.516,0.178-0.916,0.349-1.205,0.509
		c-0.862,0.644-1.306,0.742-1.329,0.295c-0.016-0.297,0.479-0.811,1.487-1.534c1.006-0.725,1.878-1.18,2.617-1.368
		c0.729-0.336,1.082-0.73,1.059-1.175c-0.023-0.447,0.404-0.841,1.282-1.187c0.728-0.337,1.228-0.739,1.505-1.201
		c-0.023-0.445,0.758-1.16,2.352-2.139c0.578-0.328,1.084-0.69,1.512-1.088c0.428-0.393,0.711-0.671,0.854-0.828
		c0.131-0.306,0.44-0.806,0.929-1.505c0.485-0.697,1.047-1.397,1.683-2.104c0.635-0.706,1.233-1.37,1.799-1.998
		c0.562-0.625,0.993-0.948,1.294-0.964c0.446-0.023,0.655-0.332,0.624-0.93c-0.016-0.296,0.182-0.793,0.594-1.485
		c0.411-0.694,0.964-1.508,1.664-2.44c0.697-0.932,1.352-2.01,1.959-3.238c0.608-1.225,1.111-2.298,1.512-3.215
		c0.666-1.526,0.99-2.478,0.971-2.851c-0.02-0.37-0.41-0.686-1.17-0.947c-0.908-0.25-1.664-0.36-2.257-0.329
		c-0.731,0.339-1.475,0.378-2.234,0.117c-0.454-0.123-1.575-0.143-3.362-0.049c-1.787,0.093-3.794,0.276-6.021,0.539
		c-2.226,0.267-4.488,0.57-6.784,0.915c-2.299,0.344-4.185,0.705-5.655,1.08c-2.658,0.587-4.966,1.418-6.927,2.49
		c-1.959,1.075-3.717,2.473-5.269,4.195c-1.978,2.195-4.039,2.753-6.185,1.667c-1.857-1.247-2.516-0.988-1.977,0.776
		c0.187,0.739-0.075,1.424-0.787,2.057c-0.732,0.339-1.062,1.103-1.001,2.292c0.062,1.195-0.28,1.808-1.022,1.847
		c-0.732,0.339-1.268,0.815-1.606,1.427c-0.343,0.617-0.206,1.058,0.405,1.324c0.455,0.127,0.375,1.475-0.236,4.044
		c-0.246,1.06-0.523,2.156-0.836,3.292c-0.314,1.138-0.528,2.082-0.635,2.833c-0.27,0.613-0.461,1.256-0.571,1.936
		c-0.115,0.678-0.24,1.171-0.372,1.474c-0.133,0.308-0.259,0.8-0.37,1.476c-0.114,0.679-0.306,1.325-0.57,1.936
		c-0.12,0.604-0.274,1.173-0.472,1.704c-0.195,0.533-0.286,0.948-0.271,1.246c-0.276,0.462-0.479,1.52-0.618,3.168
		c-0.138,1.653-0.188,2.848-0.148,3.593c0.078,1.489-0.76,2.579-2.518,3.268c-1.316,0.518-1.994,0.405-2.033-0.341
		c-0.324-0.433-0.852-0.553-1.587-0.366c-0.886,0.197-2.182-0.296-3.886-1.477c-1.707-1.179-3.2-2.632-4.484-4.357
		c-0.485-0.719-1.006-1.366-1.557-1.937c-0.555-0.564-0.902-0.771-1.041-0.616c-0.746,0.039-1.217-0.385-1.41-1.269
		c-0.315-0.282-0.863-0.774-1.646-1.482c-0.786-0.705-1.642-1.408-2.574-2.107c-1.083-0.688-1.973-1.312-2.675-1.874
		c-0.701-0.56-1.06-0.989-1.075-1.289c-0.173-0.439-0.485-0.721-0.94-0.848c-0.301,0.016-0.336-0.653-0.105-2.008
		c0.124-0.456,0.32-0.987,0.589-1.6c0.14-0.155,0.208-0.31,0.2-0.46c0.312,0.285,0.34,0.805,0.082,1.564
		c-0.496,1.968-0.379,2.785,0.352,2.444c0.297-0.016,0.506-0.286,0.629-0.815c0.119-0.527,0.311-1.173,0.571-1.936
		c0.107-0.749,0.354-1.771,0.735-3.062c0.381-1.285,0.768-2.464,1.16-3.532c0.931-2.138,1.385-3.507,1.354-4.103
		c-0.031-0.594,0.164-1.128,0.588-1.6c0.131-0.305,0.264-0.647,0.395-1.028c0.127-0.378,0.109-0.712-0.053-1.006
		c-0.039-0.743,0.279-1.729,0.965-2.963c0.266-0.608,0.5-1.146,0.699-1.603c0.201-0.46,0.221-0.757,0.066-0.9
		c-0.008-0.146,0.109-0.713,0.359-1.699c0.245-0.981,0.488-2.041,0.729-3.174c0.238-1.132,0.52-2.19,0.842-3.181
		c0.32-0.986,0.622-1.635,0.906-1.951c0.258-0.759,0.512-1.595,0.765-2.504c-0.046-0.893,0.435-1.665,1.447-2.315
		c0.721-0.485,0.851-0.864,0.39-1.141c-0.309-0.131-0.503-1.018-0.588-2.657c-0.039-0.744-0.113-1.412-0.218-2.005
		c-0.107-0.59-0.239-0.957-0.393-1.1c-1.265-1.277-1.38-2.091-0.353-2.445c0.439-0.17,1.23-0.699,2.382-1.581
		c1.147-0.879,1.638-1.465,1.476-1.758c-0.031-0.593,0.293-1.507,0.977-2.738c0.266-0.609,0.523-1.372,0.777-2.281
		c0.25-0.909,0.504-1.742,0.766-2.505c0.345-1.957,0.822-2.804,1.434-2.539c0.312,0.285,0.455,0.873,0.43,1.77
		c-0.03,0.898-0.338,1.438-0.924,1.617c-0.447,0.022-0.512,0.25-0.188,0.682c0.154,0.143,0.458,0.2,0.904,0.177
		c0.139-0.154,0.235,0.211,0.282,1.105c0.039,0.747-0.308,1.286-1.035,1.622c-1.179,0.362-1.136,1.179,0.129,2.457
		c0.47,0.424,0.612,0.343,0.435-0.246c-0.039-0.744,0.088-1.126,0.389-1.142c0.424-0.469,0.623-0.927,0.6-1.375
		c0.242-1.056,0.723-1.829,1.447-2.316c0.862-0.64,0.982-1.171,0.365-1.587c-0.316-0.28-0.408-0.65-0.282-1.104
		c0.289-0.163,0.411-0.693,0.364-1.587c-0.039-0.743,0.158-1.275,0.589-1.599c0.439-0.17,0.64-0.628,0.601-1.375
		c-0.332-0.578-0.047-0.894,0.846-0.94c0.736-0.186,0.937-0.644,0.601-1.375c-0.816-1.301-0.386-1.622,1.294-0.964
		c0.312,0.285,0.543,0.419,0.693,0.412c0.146-0.007,0.139-0.154-0.022-0.446c-0.023-0.447-0.579-1.013-1.658-1.706
		c-1.066-0.392-1.248-0.978-0.54-1.764c0.562-0.625,0.686-1.155,0.365-1.586c-0.166-0.289-0.424-0.202-0.771,0.264
		c-0.35,0.467-0.766,1.087-1.247,1.857c-0.484,0.774-0.924,1.617-1.323,2.533c-0.4,0.917-0.657,1.753-0.765,2.504
		c-0.496,1.968-0.893,2.959-1.189,2.974c-0.292,0.166-0.475,0.214-0.552,0.141c-0.081-0.069-0.194-0.102-0.341-0.094
		c-0.008-0.147,0.082-0.564,0.271-1.246c0.188-0.682,0.374-1.399,0.56-2.158c0.184-0.755,0.375-1.398,0.57-1.935
		c0.195-0.531,0.367-0.803,0.518-0.811c0.139-0.154,0.2-0.458,0.177-0.905c-0.015-0.296,0.102-0.863,0.359-1.699
		c0.253-0.833,0.497-1.853,0.735-3.063c0.393-1.063,0.679-2.013,0.859-2.845c0.181-0.829,0.268-1.32,0.259-1.47
		c-0.038-0.744,0.28-1.73,0.965-2.962c1.308-3.502,0.945-4.754-1.091-3.751c-0.871,0.494-1.737,1.064-2.6,1.704
		c-0.285,0.316-0.928,0.871-1.93,1.669c-1.004,0.801-2.156,1.607-3.457,2.421c-2.449,1.773-4.312,3.214-5.598,4.325
		c-1.286,1.113-2.699,2.683-4.234,4.702c-1.404,1.719-2.623,2.713-3.651,2.991c-1.032,0.278-2.244-0.068-3.64-1.042
		c-1.553-1.113-2.656-2.213-3.309-3.299c-0.654-1.086-1.42-2.873-2.297-5.369c-0.895-2.788-1.574-4.398-2.045-4.821
		c-0.164-0.289-0.369-0.652-0.616-1.087c-0.247-0.436-0.466-1.019-0.651-1.758c-0.85-1.895-1.524-3.428-2.033-4.597
		c-0.509-1.167-0.929-2.042-1.258-2.623c-1.287-1.724-1.715-2.822-1.291-3.292c0.28-0.312,0.805-0.266,1.574,0.142
		c0.463,0.276,1.422,0.076,2.881-0.599c0.863-0.64,2.664-1.893,5.404-3.755c2.738-1.858,5.119-3.438,7.145-4.742
		c0.72-0.485,1.804-1.176,3.251-2.074c1.444-0.895,3.04-1.839,4.781-2.827c1.739-0.987,3.517-1.938,5.339-2.855
		c1.817-0.915,3.529-1.714,5.139-2.397c1.159-0.656,2.283-1.313,3.369-1.968c1.086-0.652,1.768-1.135,2.053-1.451
		c0.431-0.32,0.827-0.565,1.192-0.734c0.363-0.167,0.925-0.122,1.688,0.136c1.652,0.214,3.836-0.124,6.555-1.015
		c2.715-0.889,4.637-1.958,5.768-3.214c1.286-1.11,2.076-1.676,2.375-1.692c0.155,0.142,0.565,0.083,1.225-0.176
		c0.658-0.258,1.35-0.553,2.08-0.893c1.018-0.501,2.221-1.048,3.611-1.645c1.385-0.594,2.743-1.075,4.068-1.445
		c1.324-0.367,2.465-0.651,3.427-0.852c0.96-0.197,1.591-0.23,1.899-0.099c0.624,0.565,1.367,0.453,2.223-0.341
		c0.431-0.32,0.937-0.609,1.522-0.863c0.581-0.255,1.1-0.394,1.546-0.417l1.553-0.305l-1.753,0.764
		C79.35,4.651,79.029,4.93,79.109,5c0.077,0.073,0.703-0.072,1.881-0.435c0.736-0.185,1.325-0.367,1.764-0.54
		c0.439-0.17,0.578-0.328,0.424-0.471c-0.016-0.296,0.785-0.636,2.411-1.022c1.024-0.351,1.653-0.496,1.881-0.434
		c0.228,0.065,0.198,0.251-0.083,0.564c-0.283,0.316-0.016,0.414,0.8,0.294C89,2.84,90.435,2.429,92.49,1.723
		c3.089-0.907,5.783-1.457,8.09-1.655c2.304-0.194,4.516,0.026,6.643,0.661c0.455,0.126,1.066,0.431,1.841,0.912
		c0.771,0.485,1.582,1.002,2.433,1.553c0.848,0.555,1.587,1.114,2.215,1.676c0.627,0.565,0.945,0.923,0.953,1.07
		c0.008,0.15,0.324,0.508,0.953,1.07c0.623,0.566,1.296,1.241,2.008,2.022c0.715,0.786,1.426,1.532,2.135,2.241
		c0.709,0.711,1.294,1.203,1.756,1.476c0.307,0.134,0.702,0.562,1.188,1.282c0.486,0.723,1.049,1.513,1.691,2.376
		c1.293,1.875,2.417,4.094,3.373,6.655c0.954,2.565,1.399,4.669,1.339,6.315c0.031,0.596-0.045,1.272-0.23,2.028
		c-0.184,0.758-0.411,1.442-0.676,2.051c-0.534,1.226-0.789,2.057-0.766,2.504c0.155,0.142,0.02,0.374-0.412,0.693
		c-0.3,0.016-0.431,0.323-0.399,0.917c0.016,0.301-0.252,0.948-0.793,1.946c-0.547,1.001-1.232,2.157-2.06,3.468
		c-0.827,1.313-1.73,2.667-2.7,4.062c-0.973,1.395-1.882,2.562-2.729,3.503c-0.707,0.786-1.408,1.642-2.105,2.574
		c-0.7,0.932-1.25,1.784-1.658,2.55c-0.416,0.621-0.91,1.207-1.477,1.758c-0.568,0.554-1.071,0.917-1.511,1.087
		c-0.284,0.316-0.714,0.675-1.288,1.075c-0.577,0.405-1.002,0.837-1.275,1.3c-0.285,0.315-1.138,1.144-2.559,2.485
		c-1.424,1.345-2.92,2.729-4.486,4.155c-1.718,1.434-3.254,2.785-4.605,4.049c-1.354,1.268-2.17,2.056-2.451,2.368
		c-0.416,0.62-0.998,0.948-1.741,0.987c-0.747,0.039-1.186,0.213-1.317,0.518C91.891,75.901,91.391,76.376,90.374,76.877z
		 M11.021,37.347c0.721-0.485,1.077-0.84,1.065-1.063c-0.012-0.223-0.384-0.166-1.111,0.17c-2.456,1.624-3.669,2.656-3.646,3.103
		c0.017,0.3,0.421,0.202,1.218-0.287C9.34,38.779,10.168,38.141,11.021,37.347z M13.574,34.749c-0.854,0.794-0.92,1.021-0.188,0.683
		c0.281-0.312,0.714-0.598,1.299-0.852c0.582-0.254,1.092-0.541,1.523-0.864c0.578-0.327,1.555-0.9,2.934-1.721
		c1.375-0.818,2.788-1.637,4.239-2.462c1.591-0.979,3.22-1.961,4.886-2.944c1.664-0.983,2.935-1.722,3.805-2.215
		c2.037-1.002,3.162-1.656,3.369-1.968c0.208-0.308-0.493-0.122-2.099,0.558c-0.731,0.339-2.073,1.043-4.033,2.115
		c-1.96,1.076-4.025,2.265-6.197,3.572c-2.172,1.311-4.199,2.572-6.075,3.79C15.158,33.658,14.006,34.429,13.574,34.749z
		 M14.632,37.83c0.878-0.343,0.943-0.497,0.2-0.458c-0.455-0.124-0.824-0.031-1.105,0.281C13.584,37.812,13.885,37.87,14.632,37.83z
		 M92.464,125.378c0.712-0.631,0.845-0.976,0.394-1.029c-0.45-0.05-1.033,0.243-1.746,0.877c-1.428,1.271-3.467,2.98-6.115,5.136
		c-2.652,2.155-5.303,4.274-7.956,6.353c-2.656,2.082-5.024,3.925-7.104,5.523c-2.082,1.604-3.199,2.407-3.346,2.415
		c-0.3,0.016-1.167,0.587-2.599,1.704c-1.155,0.81-2.959,1.984-5.416,3.531c-2.459,1.552-5.029,3.101-7.709,4.659
		c-2.684,1.563-5.111,2.921-7.291,4.078c-2.179,1.161-3.492,1.751-3.939,1.774c-0.299,0.016-0.7,0.187-1.205,0.511
		c-0.508,0.328-1.697,1.136-3.569,2.426c-1.293,0.966-2.456,1.62-3.48,1.977c-1.028,0.35-1.629,0.309-1.798-0.132
		c-0.016-0.299-0.286-0.433-0.807-0.405c-0.523,0.027-1.147,0.208-1.875,0.546c-1.325,0.367-2.025,0.555-2.1,0.559
		c-0.076,0.004,0.408-0.021,1.453-0.076c0.893-0.047,1.232,0.008,1.017,0.17c-0.216,0.159-1.201,0.586-2.958,1.276
		c-2.495,0.875-3.438,1.373-2.834,1.491c0.297-0.016,1.034-0.166,2.217-0.45c1.18-0.287,2.574-0.697,4.191-1.228
		c1.614-0.532,3.265-1.105,4.951-1.716c1.684-0.613,3.109-1.171,4.28-1.681c1.456-0.67,2.411-1.022,2.857-1.046
		c0.296-0.016,0.658-0.258,1.082-0.729c0.273-0.462,1.29-1.037,3.046-1.728c2.053-0.7,3.216-1.287,3.492-1.751
		c0.555-0.773,1.488-1.534,2.793-2.273c1.305-0.74,2.332-1.054,3.087-0.945c0.743-0.039,1.108-0.206,1.093-0.505
		c-0.156-0.14,0.559-0.701,2.152-1.682c1.449-0.821,2.607-1.554,3.47-2.197c0.281-0.313,0.681-0.518,1.2-0.622
		c0.516-0.101,0.918-0.233,1.211-0.401c0.735-0.184,0.874-0.416,0.411-0.692c-1.067-0.393-0.428-1.02,1.918-1.892
		c1.31-0.665,2.612-1.443,3.91-2.332c1.297-0.888,3.528-2.462,6.696-4.719c0.721-0.486,1.41-0.893,2.064-1.229
		c0.655-0.331,1.125-0.58,1.417-0.746c0.446-0.023,0.581-0.254,0.412-0.692c-0.315-0.282,0.034-0.749,1.046-1.4
		c0.863-0.639,1.575-1.274,2.141-1.902c0.132-0.306,0.447-0.695,0.947-1.171c0.497-0.474,1.036-0.872,1.617-1.204
		c1.31-0.664,1.956-1.146,1.94-1.446c-0.016-0.297,0.267-0.608,0.847-0.94c0.432-0.319,1.037-0.838,1.823-1.55
		C90.576,127.155,91.467,126.326,92.464,125.378z M17.666,35.879c0.432-0.32,0.753-0.6,0.964-0.834
		c0.212-0.235,0.241-0.349,0.095-0.341c-0.158-0.139-0.744,0.116-1.752,0.763c-1.02,0.502-1.375,0.895-1.059,1.176
		C16.068,36.786,16.654,36.531,17.666,35.879z M24.736,175.292c0.296-0.016,0.434-0.248,0.41-0.692
		c-0.016-0.303-0.246-0.436-0.693-0.413c-0.299,0.017-0.435,0.246-0.411,0.693C24.058,175.178,24.289,175.315,24.736,175.292z
		 M24.071,119.772c0.792-1.98,1.337-3.689,1.636-5.126c0.297-1.434,0.151-2.06-0.435-1.881l-0.635,0.704
		c-0.284,0.316-0.491,0.663-0.618,1.04c-0.131,0.382-0.336,0.728-0.617,1.041c-0.809,1.687-1.05,2.82-0.719,3.398
		c0.344,0.878,0.316,1.774-0.083,2.69c-0.392,1.068-0.582,1.712-0.57,1.936c0.012,0.223,0.31,0.245,0.899,0.064
		c0.743-0.039,0.947-0.421,0.611-1.152C23.494,121.593,23.671,120.689,24.071,119.772z M28.232,160.773
		c-2.346,0.871-3.66,1.422-3.945,1.662c-0.289,0.238,0.232,0.175,1.559-0.195c0.735-0.184,1.619-0.419,2.65-0.698
		c1.029-0.277,1.984-0.625,2.858-1.044s1.602-0.758,2.187-1.011c0.582-0.257,0.795-0.451,0.642-0.594
		c-0.151,0.008-0.774,0.19-1.876,0.547C31.205,159.798,29.846,160.239,28.232,160.773z M20.912,33.693
		c0.423-0.47,0.555-0.775,0.399-0.917c-0.3,0.016-0.735,0.262-1.306,0.74C19.01,34.465,19.311,34.527,20.912,33.693z M39.469,24.435
		c0.878-0.343,1.747-0.838,2.609-1.481c0.863-0.64,1.201-1.256,1.024-1.846c-0.022-0.446-0.4-0.5-1.129-0.165
		c-0.284,0.316-0.643,0.559-1.081,0.729c-0.439,0.173-0.875,0.42-1.307,0.74c-0.877,0.347-1.455,0.748-1.729,1.21
		c-0.423,0.47-1.008,0.725-1.752,0.763c-0.739,0.19-1.76,0.618-3.069,1.281c-1.309,0.667-2.318,1.391-3.022,2.174
		c-0.293,0.165-0.691,0.337-1.205,0.511c-0.516,0.178-0.99,0.353-1.428,0.523c-1.18,0.362-1.838,0.621-1.977,0.775
		c-0.276,0.462-0.92,1.021-1.93,1.668l-1.739,0.987l1.798,0.13c1.049,0.095,1.78-0.241,2.188-1.011
		c0.25-0.909,0.682-1.229,1.294-0.964c0.593-0.031,1.037-0.127,1.329-0.293c0.131-0.305,0.42-0.544,0.857-0.717
		c0.439-0.17,0.803-0.339,1.094-0.505c1.473-0.375,2.718-0.85,3.734-1.427c1.013-0.575,1.881-1.106,2.605-1.592
		C37.777,24.971,38.721,24.474,39.469,24.435z M27.143,109.979c0.594-0.031,0.717-0.559,0.365-1.588
		c-0.055-1.04-0.373-1.398-0.951-1.07c-0.432,0.324-0.592,0.892-0.473,1.705C26.201,109.843,26.554,110.161,27.143,109.979z
		 M30.838,99.257c1.379-2.161,1.188-2.975-0.575-2.434c-0.878,0.347-1.505,1.199-1.882,2.562c-0.262,0.763-0.445,1.519-0.553,2.271
		c-0.111,0.754-0.23,1.355-0.354,1.811c-0.246,1.059-0.359,1.698-0.348,1.921c0.012,0.225,0.383,0.242,1.123,0.053
		c0.593-0.031,1.001-0.797,1.223-2.303C29.691,101.635,30.146,100.341,30.838,99.257z M31.306,108.193l0.2-0.459
		c-0.008-0.146,0.061-0.226,0.212-0.233c-0.008-0.147-0.235-0.212-0.683-0.188c-0.299,0.016-0.435,0.246-0.411,0.692
		C30.655,108.602,30.883,108.664,31.306,108.193z M35.242,153.462c-0.59,0.181-0.891,0.122-0.906-0.178
		c0.141-0.152,0.51-0.25,1.106-0.281C35.746,153.138,35.682,153.292,35.242,153.462z M34.198,107.817
		c0.743-0.039,0.882-0.27,0.412-0.692c-0.023-0.447-0.255-0.582-0.694-0.412c-0.3,0.016-0.435,0.246-0.411,0.694
		C33.521,107.706,33.752,107.841,34.198,107.817z M38.545,156.648c-1.74,0.988-2.354,1.432-1.834,1.327
		c0.516-0.1,1.797-0.576,3.845-1.433c0.728-0.336,1.31-0.662,1.739-0.987c0.433-0.318,0.498-0.475,0.201-0.459
		c-0.301,0.016-0.812,0.195-1.541,0.529C40.225,155.967,39.423,156.305,38.545,156.648z M38.77,79.577
		c0.297-0.016,0.435-0.246,0.411-0.693c-0.031-0.594-0.259-0.658-0.682-0.188c-0.143,0.158-0.208,0.312-0.2,0.458
		c0.008,0.151-0.065,0.229-0.211,0.235C38.096,79.539,38.322,79.601,38.77,79.577z M40.664,72.982
		c0.424-0.47,0.539-1.071,0.354-1.811c-0.031-0.593-0.248-0.435-0.647,0.482c-0.399,0.917-0.557,1.523-0.465,1.816
		C39.994,73.766,40.248,73.603,40.664,72.982z M38.576,20.225c-0.73,0.339-1.013,0.651-0.848,0.94
		c0.016,0.301,0.357,0.395,1.023,0.283c0.666-0.108,1.357-0.408,2.082-0.893c0.577-0.328,0.781-0.713,0.611-1.152
		c-0.016-0.296-0.316-0.281-0.895,0.047c-0.292,0.165-0.619,0.333-0.981,0.499C39.203,20.118,38.873,20.209,38.576,20.225z
		 M42.326,57.663c0.539-1.072,0.767-1.755,0.677-2.051c-0.092-0.293-0.351-0.28-0.782,0.041c-0.438,0.173-0.646,0.482-0.623,0.929
		c0.312,0.284,0.178,0.589-0.399,0.917c-0.439,0.173-0.497,0.551-0.165,1.129C41.496,58.903,41.927,58.58,42.326,57.663z
		 M56.608,146.521c-0.143,0.156-0.47,0.324-0.983,0.499c-0.515,0.178-1.135,0.433-1.863,0.77l-2.188,1.008l1.494-1.421
		c0.713-0.633,1.623-1.093,2.729-1.374C56.902,145.72,57.17,145.895,56.608,146.521z M54.922,161.394
		c0.281-0.313,0.196-0.534-0.258-0.661c-0.598,0.031-0.891,0.124-0.883,0.271c-0.277,0.463-0.225,0.723,0.152,0.775
		C54.309,161.837,54.638,161.708,54.922,161.394z M56.24,156.619c0.297-0.016,0.436-0.247,0.412-0.695
		c-0.031-0.592-0.259-0.657-0.682-0.187l-0.4,0.917L56.24,156.619z M49.829,16.948c-0.87,0.494-0.851,0.867,0.059,1.117
		c1.071,0.543,2.821,0.412,5.243-0.386c2.423-0.799,6.619-2.622,12.596-5.475c1.023-0.351,3.27-0.99,6.731-1.92
		c3.458-0.927,7.922-1.982,13.387-3.165c7.226-1.722,11.725-2.815,13.493-3.282c1.768-0.464,2.124-0.746,1.075-0.841
		c-0.755-0.107-2.463,0.017-5.132,0.38c-2.67,0.364-5.482,0.847-8.438,1.449c-3.111,0.464-5.774,0.94-7.989,1.426
		c-2.214,0.49-3.397,0.738-3.545,0.746c-0.142,0.158-0.837,0.458-2.081,0.893c-1.248,0.44-2.68,0.924-4.293,1.457
		c-1.763,0.541-3.854,1.248-6.273,2.12c-2.418,0.876-4.428,1.726-6.025,2.556c-1.756,0.69-3.295,1.257-4.615,1.698
		c-1.322,0.444-2.132,0.671-2.429,0.687C51.277,16.126,50.691,16.308,49.829,16.948z M58.781,153.798
		c-0.277,0.461-0.05,0.527,0.682,0.188c0.893-0.047,1.032-0.201,0.423-0.47c-0.3,0.016-0.521,0.066-0.664,0.146
		C59.076,153.747,58.928,153.791,58.781,153.798z M61.425,157.243c0.298-0.016,0.407-0.056,0.33-0.129
		c-0.081-0.069-0.269-0.098-0.565-0.082c-0.453-0.125-0.965,0.128-1.527,0.751c-0.574,0.479-0.57,0.556,0.012,0.226
		C60.551,157.664,61.133,157.408,61.425,157.243z M65.934,140.655c-0.447,0.023-0.996,0.242-1.646,0.646
		c-0.65,0.408-1.264,0.849-1.834,1.327c-1.586,1.131-2.6,1.705-3.047,1.729c-0.291,0.165-0.188,0.01,0.312-0.466
		c0.496-0.474,1.102-1.026,1.816-1.663c1.857-1.588,3.45-2.567,4.775-2.938c1.189-0.062,1.645,0.064,1.363,0.377
		C67.539,139.976,66.959,140.305,65.934,140.655z M63.119,155.362c0.281-0.312,0.42-0.543,0.412-0.693
		c-0.008-0.146-0.236-0.212-0.683-0.188c-0.284,0.317-0.415,0.62-0.399,0.917C62.611,155.689,62.834,155.678,63.119,155.362z
		 M63.684,76.258c0.586-0.178,0.729-0.336,0.424-0.47c-0.747,0.039-1.113,0.135-1.105,0.282c-0.141,0.157-0.135,0.27,0.018,0.335
		C63.171,76.474,63.392,76.423,63.684,76.258z M68.775,152.155c1.018-0.501,1.006-0.726-0.035-0.672
		c-0.598,0.031-1.178,0.363-1.74,0.988l0.224-0.012c-0.284,0.316-0.276,0.463,0.023,0.447
		C67.543,152.892,68.052,152.64,68.775,152.155z M81.562,58.297c1.144-0.956,1.86-1.514,2.152-1.681
		c0.297-0.016,0.626-0.145,0.987-0.387c0.359-0.243,0.681-0.519,0.965-0.834c0.547-0.925,1.271-1.411,2.164-1.458
		c0.878-0.343,1.383-0.667,1.517-0.976c0.14-0.154,0.493-0.547,1.06-1.175c0.562-0.625,1.197-1.33,1.904-2.116
		c1.552-1.723,2.395-2.736,2.529-3.044c0.131-0.304-0.52,0.104-1.952,1.222c-0.573,0.478-1.255,1.038-2.04,1.674
		c-0.789,0.64-1.545,1.202-2.264,1.687c-0.725,0.486-1.404,1.008-2.047,1.563c-0.643,0.559-1.18,0.997-1.611,1.316
		c-0.716,0.636-1.786,1.588-3.211,2.856c-1.428,1.271-3.572,3.099-6.434,5.489c-2.141,1.904-3.51,2.872-4.104,2.903
		c-0.309-0.131-0.495-0.16-0.564-0.083c-0.072,0.081-0.029,0.191,0.129,0.33c0.031,0.597-0.465,1.144-1.481,1.646
		c-1.005,0.802-1.501,1.275-1.493,1.422c0.016,0.3-0.77,1.013-2.354,2.139c-1.154,0.81-1.865,1.48-2.135,2.016
		c-0.271,0.54-0.039,0.713,0.7,0.523c0.438-0.17,1.051-0.576,1.841-1.216c0.785-0.636,1.174-1.104,1.158-1.405
		c-0.023-0.446,0.615-1.075,1.917-1.893c1.433-1.118,2.144-1.827,2.128-2.127c-0.156-0.138-0.162-0.25-0.018-0.334
		c0.144-0.081,0.369-0.055,0.677,0.077c0.147-0.008,0.691-0.295,1.635-0.87c0.939-0.571,1.948-1.296,3.022-2.175
		c1.074-0.875,2.107-1.79,3.104-2.738C80.438,59.7,81.146,58.918,81.562,58.297z M104.265,25.524
		c0.696-0.933,0.742-1.457,0.142-1.575c-0.605-0.116-2.165,0.039-4.68,0.468c-1.625,0.386-2.916,0.678-3.875,0.875
		c-0.963,0.2-1.958,0.438-2.986,0.716c-1.032,0.278-2.316,0.681-3.857,1.209c-1.54,0.529-3.708,1.241-6.496,2.132
		c-3.382,1.073-5.949,1.917-7.708,2.531c-1.761,0.617-3.04,1.167-3.833,1.657c-0.797,0.49-1.26,0.962-1.383,1.417
		c-0.127,0.455-0.246,1.059-0.354,1.811c-0.111,0.755-0.186,1.466-0.225,2.14c-0.041,0.674-0.127,1.165-0.258,1.47
		c-0.424,0.469-0.585,1.675-0.483,3.609c-0.111,0.755-0.29,1.622-0.536,2.604c-0.249,0.986-0.579,1.788-0.994,2.404
		c-0.677,1.379-0.865,2.062-0.564,2.045c0.585-0.177,0.86,0.067,0.822,0.741c-0.042,0.674-0.344,1.327-0.906,1.951
		c-0.716,0.636-0.835,1.164-0.365,1.587c0.312,0.285,0.055,1.043-0.776,2.281c-0.831,1.241-1.022,1.846-0.576,1.823
		c0.462,0.277,0.632,0.716,0.517,1.317c-0.119,0.604-0.404,0.843-0.858,0.717c-0.597,0.031-0.805,0.343-0.624,0.929
		c0.047,0.894,0.664,1.31,1.857,1.247l1.799,0.13l-1.729,1.21c-1.17,0.509-1.736,1.064-1.705,1.657
		c0.17,0.439,0.478,0.574,0.916,0.4c0.439-0.169,1.225-0.809,2.365-1.915c1.151-0.806,1.76-1.286,1.828-1.44
		c0.066-0.15-0.127-0.291-0.582-0.418c-0.754-0.107-1.096-0.201-1.023-0.282c0.07-0.078,0.461-0.434,1.177-1.07
		c0.862-0.64,1.286-1.11,1.271-1.41c-0.023-0.446,0.258-0.759,0.848-0.94c0.28-0.312,0.78-0.713,1.505-1.198
		c0.72-0.487,1.433-1.119,2.14-1.905c0.705-0.782,1.383-1.416,2.029-1.898c0.647-0.482,1.117-0.73,1.416-0.746
		c0.297-0.016,0.662-0.221,1.088-0.617c0.428-0.394,0.854-0.829,1.277-1.299c0.423-0.47,1.097-1.101,2.028-1.898
		c0.928-0.794,1.821-1.586,2.675-2.379c0.713-0.632,1.426-1.269,2.141-1.905c0.713-0.632,1.21-1.105,1.494-1.422
		c0.266-0.609,0.697-0.933,1.293-0.964c0.579-0.328,1.576-1.276,2.988-2.844c0.704-0.783,1.376-1.528,2.012-2.233
		c0.635-0.705,1.091-1.212,1.375-1.528c0.282-0.312,0.744-0.785,1.383-1.417c0.639-0.628,1.309-1.335,2.018-2.122
		c1.551-1.723,2.475-2.593,2.775-2.609c0.297-0.016,0.678-0.557,1.146-1.628c0.466-1.067,0.615-1.747,0.453-2.04
		C103.641,26.453,103.84,25.995,104.265,25.524z M72.892,149.476c1.294-0.964,1.713-1.507,1.259-1.634
		c-0.598,0.031-1.537,0.606-2.822,1.716C69.477,151.301,69.996,151.273,72.892,149.476z M72.109,18.918
		c2.35-0.718,3.52-1.227,3.504-1.527c-0.158-0.139-0.676-0.077-1.558,0.194c-0.882,0.27-1.912,0.587-3.087,0.945
		c-2.642,0.887-4.471,1.655-5.479,2.303c-0.424,0.47-0.05,0.528,1.128,0.166c0.578-0.328,1.383-0.667,2.411-1.022
		C70.053,19.625,71.08,19.273,72.109,18.918z M72.825,135.365c-0.565,0.628-0.936,0.721-1.105,0.284
		c-0.315-0.282-0.181-0.587,0.4-0.918C73.43,134.066,73.665,134.279,72.825,135.365z M73.598,73.051
		c0.72-0.485,0.821-0.676,0.306-0.576c-0.521,0.104-1.212,0.399-2.081,0.893c-1.602,0.833-2.245,1.388-1.93,1.669
		c0.016,0.3,0.528,0.123,1.541-0.529C72.296,73.868,73.017,73.382,73.598,73.051z M71.19,61.305
		c0.878-0.344,1.017-0.502,0.423-0.471c-0.762-0.257-1.128-0.165-1.104,0.282C70.366,61.273,70.594,61.336,71.19,61.305z
		 M75.174,145.997c-0.143,0.157,0.084,0.218,0.682,0.187c0.877-0.344,1.018-0.501,0.424-0.47
		C75.517,145.455,75.15,145.55,75.174,145.997z M68.867,8.335c-0.143,0.158-0.139,0.231,0.012,0.224
		c0.146-0.008,0.366-0.093,0.658-0.259c0.297-0.016,0.52-0.062,0.664-0.147c0.144-0.081,0.068-0.115-0.229-0.1
		C69.21,7.796,68.844,7.889,68.867,8.335z M73.555,59.389c1.189-0.062,1.918-0.398,2.188-1.011c0.265-0.609,0.249-0.909-0.047-0.893
		c-0.301,0.016-1.028,0.354-2.188,1.01l-1.953,1.222L73.555,59.389z M82.049,153.253c1.16-0.657,1.88-1.141,2.164-1.459
		c0.281-0.311,0.416-0.615,0.4-0.915c-0.316-0.281-0.824-0.032-1.529,0.751c-1.004,0.802-1.805,1.214-2.398,1.245
		c-0.582,0.332-1.154,0.81-1.717,1.436l-1.059,1.175l1.094-0.505C79.724,154.494,80.74,153.92,82.049,153.253z M71.344,21.422
		c-0.143,0.158,0.158,0.216,0.905,0.177c0.743-0.039,1.56-0.155,2.446-0.352c0.886-0.193,1.73-0.426,2.539-0.693
		c0.806-0.266,1.281-0.477,1.424-0.634c0.272-0.462-0.002-0.707-0.823-0.742c-0.824-0.03-1.373,0.185-1.646,0.647
		c-0.277,0.462-1.16,0.732-2.646,0.811C72.203,20.706,71.467,20.968,71.344,21.422z M73.041,6.773
		c-0.292,0.165-0.322,0.24-0.1,0.229c0.224-0.012,0.479-0.098,0.771-0.264c1.04-0.055,1.255-0.213,0.647-0.482
		C73.611,6.295,73.173,6.469,73.041,6.773z M78.057,25.551c0.273-0.462,0.333-0.724,0.182-0.793c-0.153-0.066-0.672,0-1.557,0.193
		c-1.179,0.363-1.756,0.69-1.741,0.987c0.163,0.293,0.653,0.379,1.47,0.26C77.223,26.081,77.771,25.867,78.057,25.551z
		 M81.551,53.818c0.531-1.222,0.285-1.656-0.74-1.305c-0.597,0.031-0.873,0.42-0.834,1.164
		C80.318,54.555,80.844,54.604,81.551,53.818z M81.803,75.758c0.447-0.023,0.774-0.188,0.982-0.499
		c0.207-0.308,0.158-0.53-0.146-0.665c-0.316-0.28-0.605-0.115-0.871,0.494C81.649,75.692,81.661,75.915,81.803,75.758z
		 M88.918,147.518c0.877-0.344,0.943-0.498,0.199-0.459c-0.453-0.124-0.823-0.029-1.105,0.28
		C88.02,147.489,88.321,147.549,88.918,147.518z M83.327,14.971c1.472-0.374,1.837-0.544,1.093-0.505
		c-0.604-0.115-1.27-0.007-1.998,0.329C81.982,14.968,82.283,15.026,83.327,14.971z M87.625,71.421
		c0.445-0.023,0.504-0.324,0.176-0.905l-0.47-0.424c-0.149,0.008-0.228-0.062-0.235-0.211c-0.15,0.008-0.207,0.311-0.176,0.905
		C87.248,71.367,87.482,71.579,87.625,71.421z M90.121,20.664c-3.686,0.942-5.519,1.559-5.503,1.856
		c0.023,0.447,0.771,0.485,2.245,0.106c0.736-0.186,1.619-0.42,2.652-0.699c1.028-0.277,2.059-0.59,3.086-0.945
		c1.025-0.351,2.199-0.787,3.516-1.304c-0.157-0.139-0.789-0.105-1.898,0.099C93.11,19.986,91.743,20.281,90.121,20.664z
		 M87.715,47.447c-0.166-0.289-0.32-0.354-0.459-0.2c0.031,0.597,0.125,0.966,0.281,1.105c0.155,0.143,0.265,0.098,0.33-0.129
		C87.929,47.996,87.877,47.74,87.715,47.447z M94.334,122.592c0.713-0.632,0.99-1.021,0.836-1.164
		c-0.316-0.281-0.748,0.039-1.295,0.965l-0.4,0.917L94.334,122.592z M94.512,117.431c1.018-0.501,1.835-1.328,2.446-2.479
		c0.612-1.152,0.548-1.633-0.188-1.446c-0.142,0.157-0.39,0.433-0.741,0.822c-0.354,0.394-0.81,0.978-1.364,1.752
		c-0.708,0.786-1.091,1.288-1.152,1.516C93.447,117.821,93.78,117.77,94.512,117.431z M98.713,107.804
		c1.175-0.359,1.447-0.822,0.822-1.388c-0.315-0.282-0.6-0.042-0.857,0.717C98.254,107.603,98.266,107.827,98.713,107.804z"/>
	<path fill="#C6A437" d="M238.46,17.146c0.781,0.708,1.218,1.879,1.304,3.516c0.086,1.641-0.23,2.777-0.941,3.409
		c-0.863,0.644-1.579,1.28-2.143,1.905c-1.129,1.255-2.084,2.275-2.861,3.062c-0.783,0.79-1.314,1.339-1.594,1.651
		c-0.295,0.166-1.885,1.89-4.771,5.178c-2.89,3.287-6.373,7.354-10.451,12.195c-1.131,1.256-2.189,2.432-3.175,3.526
		c-0.989,1.098-1.698,1.808-2.128,2.127c-1.013,0.652-1.502,1.276-1.471,1.87c0.031,0.597-0.943,1.992-2.917,4.185
		c-0.855,0.794-1.705,1.696-2.547,2.709c-0.843,1.018-1.476,1.758-1.899,2.228c-0.424,0.47-0.988,1.137-1.689,1.993
		c-0.704,0.859-1.405,1.68-2.11,2.462c-0.708,0.786-1.267,1.449-1.688,1.992c-0.419,0.547-0.624,0.894-0.616,1.04
		c0.023,0.447-0.752,1.384-2.318,2.81c-1.571,1.426-2.342,2.362-2.318,2.81c0.016,0.299-0.321,0.989-1.012,2.068
		c-0.692,1.083-1.601,2.25-2.728,3.503c-2.261,2.51-3.364,4.209-3.317,5.103c-0.716,0.636-1.353,1.303-1.911,2.004
		c-0.562,0.701-1.123,1.441-1.676,2.217c1.148,2.032,2.154,4.107,3.014,6.226c0.855,2.123,1.788,4.202,2.789,6.239
		c0.023,0.446,0.128,1.001,0.312,1.662c0.183,0.664,0.37,1.364,0.56,2.101c1.266,4.266,2.447,8.235,3.534,11.91
		c1.089,3.678,2.117,6.946,3.089,9.809c0.969,2.86,1.764,5.208,2.385,7.042c0.617,1.836,1.082,2.894,1.397,3.176
		c0.32,0.431,0.815,1.302,1.481,2.609c0.662,1.311,1.262,2.699,1.787,4.163c1.353,3.065,2.896,6.121,4.624,9.167
		c1.725,3.047,3.302,5.351,4.729,6.922l2.139,2.351l-1.458,2.093c-0.7,0.934-1.304,1.525-1.812,1.774
		c-0.514,0.252-1.887,0.358-4.129,0.328c-6.278-0.118-11.577-1.486-15.893-4.097c-1.233-0.685-2.5-1.326-3.797-1.929
		c-1.305-0.604-2.337-1.109-3.104-1.518c-1.531-0.669-3.326-2.141-5.385-4.423c-2.061-2.279-3.596-4.516-4.606-6.703
		c-0.339-0.729-0.843-1.784-1.509-3.169c-0.671-1.383-1.337-2.654-1.993-3.817c-1.334-2.618-2.229-4.771-2.689-6.467
		c-0.464-1.691-0.314-2.409,0.447-2.151c0.608,0.269,1.105,1.213,1.49,2.833c0.376,1.476,0.845,2.61,1.412,3.4
		c0.562,0.792,0.974,0.81,1.234,0.047c0.131-0.306,0.061-0.974-0.217-2.007c-0.279-1.026-0.599-2.13-0.958-3.309
		c-0.362-1.173-0.755-2.275-1.181-3.297c-0.428-1.022-0.798-1.675-1.109-1.959c-0.462-0.273-1.085-1.473-1.87-3.599
		c-0.782-2.123-1.894-5.536-3.335-10.243c-1.202-0.083-2.604-1.207-4.209-3.362c-0.276,0.462-0.635,0.706-1.082,0.729
		c-0.724,0.484-1.051,1.324-0.988,2.515c-0.111,0.754-0.291,1.582-0.54,2.492c-0.254,0.908-0.509,1.745-0.766,2.504
		c-0.409,0.771-0.928,2.253-1.559,4.45c-0.635,2.2-1.256,4.583-1.865,7.152c-0.622,2.426-1.149,4.506-1.578,6.245
		c-0.436,1.74-0.72,2.691-0.859,2.844c-0.144,0.157-0.339,0.689-0.589,1.599c-0.253,0.91-0.534,1.973-0.843,3.181
		c-0.309,1.214-0.651,2.499-1.029,3.861c-0.376,1.365-0.618,2.498-0.719,3.399c-0.26,0.763-0.448,1.478-0.558,2.157
		c-0.115,0.678-0.24,1.172-0.372,1.474c-0.638,2.128-1.155,4.354-1.555,6.691c-0.401,2.333-0.563,4.175-0.494,5.514
		c0.227,4.319-2.162,5.787-7.162,4.407c-1.209-0.236-2.191-0.483-2.952-0.742c-0.762-0.26-1.147-0.538-1.163-0.836
		c-0.023-0.444-0.335-0.654-0.928-0.623c-0.438,0.171-1.391-0.15-2.852-0.971c-1.464-0.82-2.97-1.749-4.513-2.788
		c-1.549-1.039-2.948-2.085-4.197-3.14c-1.252-1.055-1.887-1.807-1.91-2.251c-0.031-0.595-0.735-1.229-2.115-1.907
		c-1.082-0.689-1.855-1.88-2.316-3.574c-0.461-1.691-0.523-3.592-0.186-5.703c0.234-1.205,0.439-2.299,0.613-3.28
		c0.172-0.979,0.762-3.212,1.777-6.702c0.634-2.122,1.153-3.643,1.553-4.561c0.4-0.918,0.693-1.006,0.883-0.271
		c0.03,0.598,0.493,0.871,1.387,0.824c0.735-0.184,1.054-0.538,0.953-1.058c-0.104-0.516-0.611-0.977-1.527-1.374
		c-0.764-0.259-1.106-0.392-1.029-0.396c0.072-0.004,0.555-0.104,1.439-0.301c1.341-0.07,1.975-0.774,1.904-2.116
		c-0.062-1.188,0.132-1.798,0.578-1.821c0.447-0.022,0.651-0.405,0.612-1.151c-0.174-0.439,0.084-1.197,0.775-2.281
		c0.28-0.312,0.478-0.843,0.589-1.598c0.107-0.753,0.219-1.504,0.33-2.259c-0.086-1.638,0.392-2.484,1.436-2.538
		c1.024-0.353,1.517-0.977,1.47-1.87c0.233-1.206,0.542-2.491,0.919-3.855c0.515-1.519,0.582-3.091,0.2-4.716
		c-0.188-0.735-0.258-1.33-0.205-1.779c0.051-0.451,0.228-0.607,0.535-0.477c0.312,0.284,0.78-0.076,1.399-1.082
		c0.62-1.001,0.841-1.723,0.672-2.163c-0.158-0.138-0.212-0.437-0.158-0.888c0.05-0.45,0.138-0.903,0.264-1.357
		c0.22-1.503,0.1-2.393-0.362-2.669c-0.167-0.289-0.031-0.593,0.399-0.918c0.594-0.03,0.716-0.559,0.364-1.587
		c-0.354-1.023,0.058-1.718,1.236-2.079c1.188-0.062,1.952-1.224,2.281-3.481c0.218-1.502,0.381-2.707,0.484-3.609
		c0.099-0.901,0.033-2.165-0.199-3.797c-0.031-0.594,0.466-1.068,1.493-1.424c2.219-0.413,2.029-1.148-0.563-2.21
		c-1.06-0.242-1.483-1.189-1.269-2.846c0.521-1.371,0.934-2.065,1.233-2.081c0.439-0.169,0.671-0.035,0.694,0.413
		c0.023,0.445-0.169,1.055-0.577,1.821c-0.415,0.62-0.325,0.914,0.271,0.883c0.734-0.187,1.541-1.163,2.422-2.928
		c0.878-1.761,1.414-3.62,1.612-5.573c0.093-1.047,0.32-2.442,0.678-4.179c0.358-1.734,0.721-3.359,1.088-4.873
		c0.518-1.519,0.968-2.963,1.342-4.327c0.377-1.364,0.632-2.196,0.766-2.504c0.124-0.454,0.28-1.096,0.46-1.928
		c0.182-0.829,0.397-1.624,0.66-2.387c0.256-0.759,0.44-1.552,0.548-2.381c0.104-0.825,0.15-1.387,0.135-1.688
		c-0.34-0.728-0.217-1.255,0.364-1.586c0.14-0.155,0.501-1.146,1.076-2.969c0.578-1.823,1.106-3.828,1.59-6.02
		c0.482-2.188,0.862-4.189,1.144-5.996c0.275-1.807,0.337-2.78,0.182-2.921c-0.3,0.016-0.495,0.55-0.589,1.599
		c0.039,0.747-0.293,1.51-0.999,2.292c-0.581,0.332-0.854,0.122-0.815-0.629c0.033-0.748,0.353-2.483,0.959-5.202
		c0.243-1.056,0.417-2,0.522-2.828c0.105-0.825,0.076-1.383-0.087-1.675c-0.031-0.594,0.078-1.349,0.33-2.258
		c0.37-1.511,0.72-3.398,1.05-5.655c0.328-2.258,0.459-4.057,0.389-5.397s0.329-2.292,1.193-2.863
		c0.866-0.567,1.689-0.498,2.476,0.207c0.163,0.292,0.739,0.598,1.729,0.917c0.985,0.323,2.081,0.602,3.291,0.836
		c3.479,0.864,6.866,2.143,10.169,3.836c3.298,1.696,5.898,3.538,7.793,5.529c1.726,1.555,2.756,2.733,3.099,3.534
		c0.34,0.804,0.565,2.249,0.675,4.332c0.07,1.341,0.041,2.949-0.084,4.821c-0.125,1.875-0.358,3.865-0.695,5.973
		c-0.339,2.111-0.795,4.112-1.366,6.007c-0.572,1.899-1.124,3.531-1.648,4.903c-0.393,1.067-0.743,2.244-1.047,3.527
		c-0.309,1.287-0.59,2.309-0.848,3.068c-0.488,2.119-0.794,3.402-0.919,3.856l-0.211,0.234c0.296-0.015,0.453,0.127,0.469,0.424
		c0.023,0.446-0.184,0.758-0.622,0.928l0.012,0.224l0.012,0.223c0.163,0.293,0.083,0.892-0.24,1.805
		c-0.328,0.914-0.767,1.833-1.313,2.757c-0.392,1.067-0.756,1.982-1.089,2.745c-0.334,0.766-0.493,1.296-0.478,1.593
		c0.321,0.431,0.059,1.117-0.786,2.057c-0.708,0.786-0.752,1.383-0.132,1.799l0.012,0.223c-0.306,2.705-0.986,5.428-2.034,8.171
		c0.153,0.143,0.241,0.362,0.257,0.658c0.155,0.143,0.238,0.289,0.246,0.437l0.918,0.398c0.281-0.312,0.477-0.843,0.588-1.598
		c0.108-0.751,0.008-1.269-0.305-1.553c-0.323-0.432-0.089-0.964,0.699-1.604c0.786-0.636,1.91-1.293,3.37-1.968
		c1.173-0.359,1.868-0.693,2.075-1.005c0.207-0.309,0.286-0.985,0.231-2.028c-0.039-0.744-0.076-1.452-0.111-2.123
		c-0.035-0.67,0.084-1.159,0.371-1.475c0.256-0.759,0.087-1.125-0.505-1.094c-0.448,0.023-0.688-0.262-0.72-0.858
		c-0.031-0.593,0.25-0.909,0.849-0.94c0.578-0.328,0.886-0.194,0.917,0.4c0.184,0.739,0.718,0.897,1.593,0.476
		c0.873-0.416,1.584-1.09,2.134-2.015c0.259-0.759,0.845-1.648,1.767-2.668c0.916-1.018,1.382-1.378,1.397-1.082
		c0.147-0.008,0.294-0.089,0.435-0.247c0.147-0.008,0.513-0.173,1.094-0.505c0.863-0.64,1.125-1.326,0.789-2.057
		c-0.165-0.289-0.009-0.819,0.477-1.593c0.481-0.771,1.073-1.585,1.777-2.445c0.699-0.856,1.443-1.644,2.228-2.357
		c0.782-0.712,1.4-1.081,1.847-1.104c0.742-0.039,1.284-0.403,1.623-1.093c0.335-0.689,0.273-1.169-0.187-1.446
		c-0.008-0.147-0.049-0.183-0.12-0.106c-0.07,0.081-0.098,0.268-0.082,0.564c0.023,0.447-0.188,0.682-0.634,0.705
		c-0.581,0.332-0.597,0.031-0.047-0.893c0.705-0.783,1.355-1.191,1.952-1.223c1.04-0.055,1.248-0.363,0.623-0.928
		c-0.339-0.728,0.137-1.649,1.424-2.763c1.127-1.252,1.685-2.027,1.669-2.328c-0.023-0.446,0.323-0.912,1.047-1.398
		c0.563-0.625,0.689-1.079,0.378-1.364c-0.158-0.139-0.801,0.417-1.928,1.669c-1.132,1.256-2.538,2.898-4.224,4.925
		c-1.686,2.031-3.475,4.252-5.364,6.665c-1.891,2.416-3.673,4.711-5.353,6.888c-1.388,2.016-2.484,3.193-3.286,3.533
		c-0.804,0.343-0.659-0.414,0.441-2.263c0.416-0.617,0.901-1.314,1.459-2.092c0.553-0.775,1.119-1.402,1.693-1.881l2.539-2.821
		c0.282-0.312,0.738-0.896,1.365-1.751c0.628-0.851,1.288-1.748,1.988-2.68c0.698-0.933,1.535-2.02,2.518-3.268
		c0.979-1.245,1.82-2.259,2.528-3.045c0.705-0.782,1.51-1.793,2.417-3.039c0.905-1.241,1.706-2.329,2.406-3.262
		c0.705-0.782,1.547-1.796,2.529-3.044c0.976-1.244,1.819-2.258,2.527-3.044c0.698-0.933,1.684-2.104,2.953-3.515
		c1.271-1.41,2.398-2.663,3.388-3.761c3.817-4.082,5.703-6.571,5.656-7.464s-1.979,0.702-5.797,4.784
		c-1.139,1.106-2.062,1.977-2.776,2.609c-0.716,0.636-1.151,0.882-1.304,0.74c-0.308-0.13-0.285-0.433,0.064-0.899
		c0.346-0.466,0.805-1.012,1.371-1.64c1.126-1.252,1.607-2.023,1.446-2.316c-0.315-0.281-0.817,0.12-1.505,1.199
		c-0.848,0.94-1.494,1.422-1.942,1.445c-0.737,0.189-0.897-0.026-0.481-0.647c0.416-0.617,1.265-1.557,2.541-2.82
		c0.705-0.783,1.303-1.448,1.8-1.999c0.493-0.547,0.732-0.97,0.717-1.27c-0.331-0.578,0.028-0.897,1.069-0.952
		c0.737-0.186,1.283-1.188,1.638-2.998c0.105-0.751,0.219-1.502,0.33-2.257c0.106-0.752,0.16-1.202,0.152-1.352
		c0.123-0.455,0.558-0.736,1.301-0.852c0.738-0.113,1.563-0.082,2.467,0.094c0.906,0.177,1.779,0.467,2.623,0.871
		c0.839,0.404,1.503,0.895,1.981,1.464c0.501,1.021,1.271,1.502,2.314,1.448c0.744-0.039,1.129,0.164,1.152,0.611
		c0.031,0.597,1.263,1.355,3.703,2.27c1.668,0.511,3.155,1.105,4.461,1.783C235.007,14.715,236.594,15.752,238.46,17.146z
		 M118.34,144.619c0.461,0.278,0.674,0.042,0.635-0.705c-0.348-0.879-0.748-1.451-1.211-1.728c-0.445,0.023-0.655,0.335-0.624,0.927
		C117.477,143.845,117.877,144.348,118.34,144.619z M124.537,138.919c0.576-0.328,0.691-1.006,0.342-2.034
		c-0.213-1.182-0.517-1.316-0.917-0.397C123.45,138.156,123.643,138.966,124.537,138.919z M129.67,117.146
		c-0.504,1.819-0.745,2.878-0.729,3.175c0.016,0.299,0.242,0.361,0.682,0.188c0.447-0.023,0.646-0.481,0.599-1.375
		c-0.347-0.878-0.22-1.332,0.377-1.363c0.147-0.008,0.39-0.392,0.726-1.157c0.331-0.765,0.622-1.602,0.875-2.511
		c0.25-0.909,0.466-1.817,0.642-2.723c0.178-0.904,0.259-1.504,0.243-1.804c-0.183-0.585-0.516-0.532-1,0.164
		c-0.489,0.698-0.856,1.501-1.106,2.41c-0.119,0.604-0.301,1.397-0.548,2.38C130.18,115.516,129.928,116.387,129.67,117.146z
		 M133.283,104.861c-0.376,1.363-0.56,2.157-0.548,2.38c0.012,0.224,0.238,0.251,0.677,0.076c0.146-0.008,0.391-0.355,0.729-1.045
		c0.334-0.69,0.63-1.489,0.883-2.398c0.25-0.91,0.467-1.777,0.646-2.61c0.181-0.829,0.263-1.393,0.247-1.692
		c-0.172-0.439-0.472-0.459-0.899-0.066c-0.427,0.397-0.698,0.972-0.804,1.724c-0.136,0.307-0.259,0.835-0.366,1.586
		C133.738,103.57,133.548,104.252,133.283,104.861z M136.462,92.821c-0.991,3.938-1.041,5.807-0.155,5.608
		c0.594-0.031,0.989-1.021,1.188-2.975c0.211-1.652,0.588-3.017,1.131-4.091c0.562-0.624,0.812-1.61,0.741-2.951
		C138.82,86.503,137.85,87.972,136.462,92.821z M138.68,66.72c-0.445,0.023-0.758-0.184-0.928-0.623
		c-0.023-0.447,0.176-0.906,0.6-1.375c0.578-0.328,0.89-0.121,0.929,0.624C139.622,66.223,139.423,66.682,138.68,66.72z
		 M140.355,81.641c-0.431,0.324-0.638,0.632-0.622,0.929c0.023,0.446,0.25,0.512,0.681,0.189c0.596-0.031,0.879-0.345,0.848-0.941
		C140.932,81.24,140.63,81.179,140.355,81.641z M140.81,60.336c-0.622,2.424-1.119,2.897-1.494,1.423
		c-0.031-0.593,0.304-1.283,1.012-2.069C141.167,58.603,141.326,58.819,140.81,60.336z M142.086,76.174
		c-0.823,1.388-1.299,2.307-1.423,2.762c-0.127,0.455,0.031,0.597,0.471,0.424c0.447-0.023,0.916-1.018,1.412-2.986l0.977-2.739
		L142.086,76.174z M142.788,51.049c-0.597,0.031-0.913-0.324-0.952-1.07c-0.339-0.728-0.136-1.113,0.611-1.152
		c0.281-0.312,0.595-0.031,0.94,0.847C143.435,50.567,143.236,51.025,142.788,51.049z M144.33,46.264
		c-0.582,0.331-0.881,0.27-0.904-0.176c-0.031-0.594,0.169-1.052,0.6-1.375c0.13-0.305,0.276-0.424,0.43-0.359
		c0.149,0.07,0.236,0.25,0.252,0.547C144.715,45.05,144.588,45.505,144.33,46.264z M145.473,42.396
		c-0.708,0.786-1.082,0.729-1.128-0.165c-0.35-0.878-0.229-1.479,0.351-1.81c0.571-0.479,0.984-0.461,1.236,0.047
		C146.182,40.979,146.025,41.621,145.473,42.396z M161.967,122.176c0.871-0.494,1.789,1.401,2.762,5.679
		c0.351,1.029,0.506,1.843,0.462,2.441c-0.046,0.601-0.221,0.761-0.534,0.477c-0.308-0.132-0.632-0.641-0.975-1.518
		c-0.349-0.878-0.655-1.793-0.929-2.751c-0.272-0.956-0.51-1.878-0.704-2.765C161.852,122.854,161.825,122.333,161.967,122.176z
		 M173.153,147.575c0.444-0.023,0.653-0.329,0.622-0.927c-0.322-0.432-0.712-0.781-1.175-1.059
		c-0.454-0.124-0.664,0.186-0.625,0.928C172.312,147.249,172.706,147.599,173.153,147.575z M170.152,73.138
		c0.251-0.909,0.525-1.372,0.824-1.387c0.147-0.008,0.097,0.443-0.152,1.352c-0.55,0.924-0.901,1.391-1.048,1.398l-0.012-0.223
		C169.757,74.132,169.885,73.75,170.152,73.138z M175.138,151.281c0.274-0.462,0.176-0.905-0.293-1.329
		c-0.159-0.141-0.269-0.098-0.329,0.129c-0.066,0.229-0.014,0.487,0.152,0.777c0.178,0.589,0.305,0.878,0.382,0.874
		C175.122,151.729,175.153,151.582,175.138,151.281z M178.659,55.892c0.124-0.455,0.485-0.697,1.082-0.729
		c0.446-0.023,0.681,0.188,0.704,0.635c0.023,0.446-0.337,0.689-1.082,0.729C178.617,56.566,178.384,56.354,178.659,55.892z
		 M188.4,40.822c-0.582,0.332-0.91,0.495-0.982,0.499c-0.078,0.004-0.055-0.294,0.064-0.899c-0.047-0.894,0.3-1.36,1.047-1.399
		c0.744-0.039,1.09,0.132,1.034,0.506C189.505,39.907,189.118,40.336,188.4,40.822z M195.162,33.076
		c-0.838,1.09-1.55,1.799-2.129,2.127c-0.581,0.332-0.884,0.197-0.915-0.4c-0.016-0.297,0.295-0.761,0.933-1.393
		c0.642-0.628,1.459-1.343,2.465-2.145c0.854-0.79,1.293-0.999,1.312-0.629C196.848,31.01,196.291,31.823,195.162,33.076z
		 M193.866,38.295c-0.86,0.644-1.3,0.817-1.315,0.517c-0.016-0.297,0.259-0.759,0.824-1.387c0.561-0.625,0.993-0.948,1.292-0.964
		c0.29-0.162,0.37-0.02,0.249,0.435C194.786,37.351,194.438,37.818,193.866,38.295z M197.88,33.605
		c-0.424,0.471-0.656,0.335-0.695-0.412c-0.039-0.744,0.089-1.125,0.388-1.141c0.448-0.023,0.683,0.188,0.705,0.635
		C198.433,32.832,198.301,33.136,197.88,33.605z M200.456,27.198c-1.256,1.711-2.048,2.274-2.377,1.692
		c-0.166-0.289-0.007-0.818,0.476-1.593c0.484-0.771,1.112-1.587,1.89-2.451c0.773-0.859,1.52-1.609,2.235-2.245
		c0.711-0.632,1.292-0.963,1.74-0.987c0.887-0.193,1.047,0.096,0.493,0.87c-0.408,0.771-0.591,1.526-0.553,2.27
		c-0.103,0.901-0.572,1.933-1.406,3.098c-0.836,1.164-1.626,1.765-2.37,1.803c-0.59,0.182-0.249-0.508,1.012-2.069
		c1.271-1.411,1.748-2.254,1.435-2.539C202.584,25.071,201.727,25.788,200.456,27.198z M203.357,35.559
		c0.727-0.335,1.118-0.692,1.176-1.07c0.054-0.374-0.29-0.545-1.035-0.506c-0.438,0.174-1.016,0.579-1.728,1.211
		c-0.716,0.635-1.062,1.102-1.046,1.398c0.016,0.3,0.31,0.285,0.892-0.047L203.357,35.559z M213.061,24.075
		c0.439-0.17,0.358-0.242-0.233-0.211c-0.599,0.031-1.885,1.145-3.859,3.338l-2.74,3.28l2.199-0.788
		c1.621-0.382,2.425-0.722,2.409-1.022l-0.67,0.035c-0.747,0.039-0.557-0.643,0.564-2.046
		C211.702,25.267,212.479,24.406,213.061,24.075z"/>
</g>
</svg>
