<?xml version="1.0" encoding="utf-8"?>
<!-- Generator: Adobe Illustrator 16.0.4, SVG Export Plug-In . SVG Version: 6.00 Build 0)  -->
<!DOCTYPE svg PUBLIC "-//W3C//DTD SVG 1.1//EN" "http://www.w3.org/Graphics/SVG/1.1/DTD/svg11.dtd">
<svg version="1.1" id="Layer_1" xmlns="http://www.w3.org/2000/svg" xmlns:xlink="http://www.w3.org/1999/xlink" x="0px" y="0px"
	 width="361.067px" height="361.068px" viewBox="0 0 361.067 361.068" enable-background="new 0 0 361.067 361.068"
	 xml:space="preserve">
<g>
	<path fill="#C6A437" d="M180.534,20c42.88,0,83.193,16.698,113.515,47.019c30.32,30.321,47.019,70.634,47.019,113.515
		c0,42.88-16.698,83.194-47.019,113.515c-30.321,30.321-70.635,47.02-113.515,47.02c-42.88,0-83.194-16.698-113.515-47.02
		C36.698,263.728,20,223.414,20,180.534c0-42.88,16.698-83.194,47.019-113.515S137.654,20,180.534,20 M180.534,0
		C80.827,0,0,80.827,0,180.534c0,99.706,80.827,180.534,180.534,180.534c99.706,0,180.533-80.828,180.533-180.534
		C361.067,80.827,280.24,0,180.534,0L180.534,0z"/>
</g>
<g>
	<polygon fill="#C6A437" points="212.711,171.565 266.518,108.714 242.375,108.714 198.785,159.552 198.785,108.714 
		177.318,108.714 177.318,168.537 177.318,211.417 177.318,274.375 198.785,261.572 198.785,215.958 198.785,187.832 
		199.111,187.451 236.975,245.08 255.154,234.642 213.084,171.193 	"/>
	<path fill="#C6A437" d="M104.56,108.714v50.82v8.555v43.328l65.058,62.957v-62.957V108.714H104.56z M146.783,218.437
		l-20.755-18.654v-20.057l20.755,18.654V218.437z M146.783,169.029l-20.755-18.654v-19.611h20.755V169.029z"/>
</g>
</svg>
