<?xml version="1.0" encoding="utf-8"?>
<!-- Generator: Adobe Illustrator 16.0.4, SVG Export Plug-In . SVG Version: 6.00 Build 0)  -->
<!DOCTYPE svg PUBLIC "-//W3C//DTD SVG 1.1//EN" "http://www.w3.org/Graphics/SVG/1.1/DTD/svg11.dtd">
<svg version="1.1" id="Layer_1" xmlns="http://www.w3.org/2000/svg" xmlns:xlink="http://www.w3.org/1999/xlink" x="0px" y="0px"
	 width="360px" height="360px" viewBox="0.534 0 360 360" enable-background="new 0.534 0 360 360" xml:space="preserve">
<g>
	<path fill="#C6A437" d="M180.534,20c42.737,0,82.917,16.643,113.137,46.863c30.221,30.22,46.863,70.4,46.863,113.137
		s-16.643,82.917-46.863,113.137C263.451,323.357,223.271,340,180.534,340s-82.917-16.643-113.137-46.863
		C37.177,262.917,20.534,222.737,20.534,180S37.177,97.083,67.396,66.863C97.617,36.643,137.796,20,180.534,20 M180.534,0
		c-99.411,0-180,80.589-180,180s80.589,180,180,180s180-80.589,180-180S279.945,0,180.534,0L180.534,0z"/>
</g>
<g>
	<path fill="#C6A437" d="M107.294,150.772v46.029v9.086v53.987h69.11V150.772V83.892L107.294,150.772z M152.148,236.45h-22.049
		v-20.832l22.049-19.818V236.45z M152.148,164.62l-22.049,19.815v-21.304l22.049-19.818V164.62z"/>
	<polygon fill="#C6A437" points="253.773,229.975 207.39,175.887 207.39,175.828 244.734,142.263 228.812,126.692 207.39,145.947 
		207.39,105.96 184.585,83.892 184.585,150.772 184.585,196.324 184.585,259.874 207.39,259.874 207.39,205.893 253.773,260.092 	
		"/>
</g>
</svg>
