<?xml version="1.0" encoding="utf-8"?>
<!-- Generator: Adobe Illustrator 16.0.4, SVG Export Plug-In . SVG Version: 6.00 Build 0)  -->
<!DOCTYPE svg PUBLIC "-//W3C//DTD SVG 1.1//EN" "http://www.w3.org/Graphics/SVG/1.1/DTD/svg11.dtd">
<svg version="1.1" id="Layer_1" xmlns="http://www.w3.org/2000/svg" xmlns:xlink="http://www.w3.org/1999/xlink" x="0px" y="0px"
	 width="161.957px" height="165.66px" viewBox="0 0 161.957 165.66" enable-background="new 0 0 161.957 165.66"
	 xml:space="preserve">
<path fill="#C6A437" d="M0,62.957v43.328h9.519L0,114.84v50.82h65.058V62.957V0L0,62.957z M42.223,143.611H21.468V124l20.755-18.654
	V143.611z M42.223,75.994L21.468,94.648V74.592l20.755-18.654V75.994z"/>
<polygon fill="#C6A437" points="108.151,102.81 108.523,103.182 150.595,39.732 132.415,29.295 94.552,86.924 94.226,86.543 
	94.226,58.416 94.226,12.803 72.758,0 72.758,62.957 72.758,105.838 72.758,165.66 94.226,165.66 94.226,114.822 137.815,165.66 
	161.957,165.66 "/>
<polygon fill="#C6A437" points="0,106.285 0,114.84 9.519,106.285 "/>
</svg>
