<?xml version="1.0" encoding="utf-8"?>
<!-- Generator: Adobe Illustrator 16.0.4, SVG Export Plug-In . SVG Version: 6.00 Build 0)  -->
<!DOCTYPE svg PUBLIC "-//W3C//DTD SVG 1.1//EN" "http://www.w3.org/Graphics/SVG/1.1/DTD/svg11.dtd">
<svg version="1.1" id="Layer_1" xmlns="http://www.w3.org/2000/svg" xmlns:xlink="http://www.w3.org/1999/xlink" x="0px" y="0px"
	 width="361.067px" height="361.068px" viewBox="0 0 361.067 361.068" enable-background="new 0 0 361.067 361.068"
	 xml:space="preserve">
<g>
	<path fill="#C6A437" d="M180.534,20c42.88,0,83.193,16.698,113.515,47.02c30.32,30.32,47.02,70.634,47.02,113.515
		c0,42.88-16.699,83.194-47.02,113.515c-30.321,30.321-70.635,47.021-113.515,47.021S97.34,324.371,67.019,294.049
		C36.698,263.728,20,223.414,20,180.534S36.698,97.34,67.019,67.019C97.34,36.698,137.654,20,180.534,20 M180.534,0
		C80.827,0,0,80.827,0,180.534c0,99.706,80.827,180.534,180.534,180.534c99.707,0,180.533-80.828,180.533-180.534
		C361.067,80.827,280.241,0,180.534,0L180.534,0z"/>
</g>
<g>
	<polygon fill="#C6A437" points="213.084,193.877 255.154,130.427 236.975,119.99 199.111,177.619 198.786,177.238 198.786,149.112 
		198.786,103.498 177.318,90.695 177.318,153.653 177.318,196.533 177.318,256.356 198.786,256.356 198.786,205.518 
		242.375,256.356 266.518,256.356 212.711,193.505 	"/>
	<path fill="#C6A437" d="M169.618,256.356V153.653V90.696l-65.058,62.957v43.328v8.555v50.82H169.618z M146.783,166.69
		l-20.755,18.653v-20.057l20.755-18.654V166.69z M146.783,234.305h-20.755v-19.61l20.755-18.654V234.305z"/>
</g>
</svg>
