<?xml version="1.0" encoding="utf-8"?>
<!-- Generator: Adobe Illustrator 16.0.4, SVG Export Plug-In . SVG Version: 6.00 Build 0)  -->
<!DOCTYPE svg PUBLIC "-//W3C//DTD SVG 1.1//EN" "http://www.w3.org/Graphics/SVG/1.1/DTD/svg11.dtd">
<svg version="1.1" id="Layer_1" xmlns="http://www.w3.org/2000/svg" xmlns:xlink="http://www.w3.org/1999/xlink" x="0px" y="0px"
	 width="228.681px" height="205.506px" viewBox="0 0 228.681 205.506" enable-background="new 0 0 228.681 205.506"
	 xml:space="preserve">
<rect x="-14.319" y="-13.922" display="none" fill="#EAFEF5" width="253" height="232"/>
<g>
	<path fill="#222222" d="M0,205.506v-7.923h22.111V7.922H0V0h39.484v205.506H0z"/>
	<path fill="#222222" d="M48.958,205.506v-2.476c5.893-0.167,10.473-0.866,13.741-2.105c3.261-1.238,5.734-2.972,7.421-5.199
		c1.685-2.229,2.735-4.953,3.16-8.17c0.418-3.219,0.632-6.811,0.632-10.771v-28.721c0-6.6,0.157-12.418,0.474-17.455
		c0.315-5.035,1.42-9.366,3.316-13c1.894-3.629,4.788-6.601,8.686-8.913c3.896-2.311,9.526-4.209,16.899-5.694
		c-6.741-1.486-12.057-3.549-15.95-6.191c-3.9-2.638-6.846-5.857-8.846-9.655c-2.004-3.796-3.266-8.294-3.79-13.494
		c-0.528-5.2-0.789-11.181-0.789-17.952V26.493c0-3.629-0.213-6.933-0.632-9.905c-0.425-2.97-1.475-5.485-3.16-7.55
		c-1.687-2.063-4.16-3.716-7.421-4.952c-3.268-1.239-7.848-1.858-13.741-1.858V0h3.79c9.685,0,17.161,0.579,22.426,1.733
		C80.436,2.89,84.335,4.912,86.861,7.8c2.528,2.889,4,6.77,4.424,11.636c0.418,4.872,0.63,11.019,0.63,18.446v29.96
		c0,5.447,0.262,10.194,0.791,14.236c0.524,4.048,1.896,7.39,4.107,10.03c2.211,2.642,5.472,4.703,9.791,6.189
		c4.314,1.485,10.37,2.475,18.163,2.972v2.476c-7.793,0.494-13.849,1.485-18.163,2.972c-4.318,1.485-7.58,3.551-9.791,6.188
		c-2.211,2.643-3.583,5.944-4.107,9.905c-0.529,3.961-0.791,8.751-0.791,14.36v26.74c0,8.257-0.211,15.022-0.63,20.303
		c-0.425,5.282-1.896,9.533-4.424,12.752c-2.526,3.219-6.474,5.447-11.843,6.686c-5.371,1.234-13.005,1.856-22.899,1.856H48.958z"/>
	<path fill="#222222" d="M129.499,205.506V0h38.852v7.922h-21.479v189.661h21.479v7.923H129.499z"/>
	<path fill="#222222" d="M225.522,205.506c-9.9,0-17.48-0.622-22.741-1.856c-5.268-1.238-9.161-3.467-11.687-6.686
		c-2.528-3.219-4.003-7.47-4.422-12.752c-0.425-5.28-0.632-12.046-0.632-20.303v-26.74c0-5.609-0.266-10.399-0.791-14.36
		c-0.528-3.961-1.896-7.263-4.107-9.905c-2.211-2.638-5.527-4.703-9.949-6.188c-4.422-1.486-10.533-2.478-18.319-2.972v-2.476
		c7.787-0.497,13.897-1.486,18.319-2.972c4.422-1.486,7.738-3.547,9.949-6.189c2.211-2.64,3.579-5.982,4.107-10.03
		c0.524-4.042,0.791-8.789,0.791-14.236v-29.96c0-7.427,0.208-13.574,0.632-18.446c0.418-4.866,1.894-8.747,4.422-11.636
		c2.526-2.888,6.419-4.91,11.687-6.066C208.042,0.579,215.415,0,224.891,0h3.79v2.228c-5.897,0-10.478,0.619-13.739,1.858
		c-3.268,1.236-5.738,2.889-7.423,4.952c-1.688,2.065-2.74,4.581-3.158,7.55c-0.425,2.972-0.632,6.276-0.632,9.905v29.216
		c0,6.771-0.315,12.714-0.947,17.827c-0.632,5.12-1.951,9.618-3.948,13.494c-2.004,3.88-4.95,7.1-8.844,9.658
		c-3.9,2.56-9.112,4.665-15.635,6.313c7.155,1.485,12.737,3.384,16.741,5.694c3.997,2.312,6.947,5.284,8.844,8.913
		c1.894,3.634,2.999,7.965,3.316,13c0.314,5.037,0.474,10.855,0.474,17.455v28.721c0,3.961,0.207,7.553,0.632,10.771
		c0.418,3.217,1.471,5.941,3.158,8.17c1.685,2.228,4.155,3.961,7.423,5.199c3.262,1.239,7.842,1.938,13.739,2.105v2.476H225.522z"/>
</g>
</svg>
