<?xml version="1.0" encoding="utf-8"?>
<!-- Generator: Adobe Illustrator 16.0.4, SVG Export Plug-In . SVG Version: 6.00 Build 0)  -->
<!DOCTYPE svg PUBLIC "-//W3C//DTD SVG 1.1//EN" "http://www.w3.org/Graphics/SVG/1.1/DTD/svg11.dtd">
<svg version="1.1" id="Layer_1" xmlns="http://www.w3.org/2000/svg" xmlns:xlink="http://www.w3.org/1999/xlink" x="0px" y="0px"
	 width="360.196px" height="339.688px" viewBox="0 0 360.196 339.688" enable-background="new 0 0 360.196 339.688"
	 xml:space="preserve">
<path fill-rule="evenodd" clip-rule="evenodd" fill="#F5F5F5" d="M195.079,104.229c-16.601-3.985-31.195-0.514-42.487,12.054
	c-6.555,7.296-10.341,16.5-9.849,26.489c1.07,21.745,13.992,35.646,34.952,39.013c14.84,2.383,27.51-3.649,36.627-14.973
	c9.14-11.351,10.131-25.077,5.759-39.281c0.624-0.199,1.247-0.397,1.871-0.596c3.486,3.748,7.212,7.304,10.403,11.287
	c5.092,6.354,9.992,12.878,14.666,19.546c3.638,5.192,6.895,10.659,10.163,16.098c5.245,8.729,11.037,17.214,15.365,26.385
	c6.202,13.14,11.387,26.767,16.836,40.254c5.66,14.013,9.438,28.63,13.484,43.156c1.523,5.468,1.288,5.916-4.279,6.862
	c-34.888,5.924-69.782,11.805-104.667,17.737c-29.103,4.949-58.189,9.997-87.296,14.916c-32.84,5.55-65.688,11.053-98.561,16.403
	C5.491,340,2.694,339.062,0,338.755c0.398-2.878,0.135-6.063,1.303-8.584c7.478-16.131,15.402-32.053,22.925-48.162
	c9.9-21.198,19.471-42.55,29.361-63.753c7.46-15.995,15.328-31.8,22.77-47.805c4.763-10.243,8.979-20.739,13.631-31.035
	c2.936-6.499,6.399-12.759,9.317-19.264c5.575-12.427,10.718-25.051,16.455-37.4c3.437-7.396,7.592-14.464,11.563-21.603
	c1.661-2.985,4.215-2.006,6.464-0.769c5.579,3.07,11.28,5.975,16.588,9.471c10.954,7.215,21.714,14.726,32.486,22.213
	c3.288,2.286,6.4,4.836,9.499,7.378c1.14,0.936,2.011,2.198,3.005,3.312C195.271,103.246,195.175,103.738,195.079,104.229z
	 M78.243,236.379c-23.883,0.14-39.623,18.112-40.082,39.615c-0.443,20.798,17.715,40.261,40.5,39.777
	c21.071-0.447,38.98-17.86,39.199-39.559C118.08,254.266,99.28,235.999,78.243,236.379z M257.76,224.267
	c-0.126-10.593-9.271-20.316-20.062-20.291c-10.7,0.023-20.02,9.305-20.033,19.935c-0.013,10.941,9.261,20.736,19.955,20.448
	C249.776,244.03,257.123,236.475,257.76,224.267z M153.069,215.546c-0.053-9.92-5.223-17.46-13.178-20.337
	c-9.247-3.345-20.65,1.501-25.02,10.631c-4.134,8.639-0.889,19.801,7.339,24.963c6.403,4.017,13.129,5.017,19.978,1.284
	C149.11,228.314,154.061,223.154,153.069,215.546z M200.314,296.075c10.969,0.07,20.383-9.051,20.374-19.923
	c-0.008-9.416-7.877-20.423-22.157-20.108c-8.038,0.178-18.311,9.951-18.335,20.041
	C180.172,286.006,191.304,297.021,200.314,296.075z"/>
<path fill-rule="evenodd" clip-rule="evenodd" fill="#F5F5F5" d="M159.843,0c1.322,0.537,3.103,1.02,4.64,1.92
	c17.049,9.99,34.118,19.938,49.161,32.947c6.08,5.257,12.726,9.875,18.663,15.279c8.627,7.851,16.992,16.005,25.19,24.306
	c6.271,6.352,12.291,12.977,18.086,19.768c5.027,5.891,9.754,12.061,14.304,18.333c6.256,8.626,12.921,17.068,18.147,26.304
	c8.404,14.85,16.404,30.003,23.403,45.555c6.869,15.264,12.497,31.104,18.26,46.842c4.943,13.501,7.48,27.67,10.311,41.725
	c0.864,4.291-1.31,7.197-5.574,8.178c-8.24,1.896-16.496,3.727-24.766,5.493c-4.487,0.958-6.587-0.346-7.891-5.276
	c-1.595-6.034-2.769-12.178-4.266-18.239c-6.204-25.107-14.951-49.284-27.402-71.984c-5.219-9.516-10.974-18.777-17.06-27.765
	c-5.566-8.221-11.7-16.087-17.965-23.798c-7.106-8.747-14.89-16.947-21.905-25.762c-5.887-7.395-13.237-13.025-20.391-18.977
	c-6.254-5.203-11.901-11.184-18.415-16.015c-12.603-9.347-25.58-18.192-38.501-27.101c-4.267-2.942-8.876-5.384-13.261-8.16
	c-4.413-2.794-5.022-5.5-2.87-10.232c3.813-8.386,7.305-16.924,11.31-25.216C152.748,4.614,154.655,0.775,159.843,0z"/>
<path fill-rule="evenodd" clip-rule="evenodd" fill="#FFFFFF" d="M78.243,236.379c21.038-0.38,39.837,17.887,39.617,39.834
	c-0.219,21.698-18.128,39.111-39.199,39.559c-22.784,0.483-40.943-18.979-40.5-39.777C38.62,254.491,54.359,236.519,78.243,236.379z
	"/>
<path fill-rule="evenodd" clip-rule="evenodd" fill="#FFFFFF" d="M257.76,224.267c-0.638,12.208-7.984,19.764-20.14,20.092
	c-10.694,0.288-19.968-9.507-19.955-20.448c0.014-10.63,9.333-19.911,20.033-19.935C248.489,203.95,257.634,213.674,257.76,224.267z
	"/>
<path fill-rule="evenodd" clip-rule="evenodd" fill="#FFFFFF" d="M153.069,215.546c0.992,7.608-3.959,12.769-10.882,16.541
	c-6.848,3.732-13.575,2.732-19.978-1.284c-8.228-5.162-11.473-16.324-7.339-24.963c4.37-9.13,15.773-13.976,25.02-10.631
	C147.846,198.086,153.016,205.626,153.069,215.546z"/>
<path fill-rule="evenodd" clip-rule="evenodd" fill="#FFFFFF" d="M200.314,296.075c-9.01,0.945-20.142-10.069-20.118-19.99
	c0.024-10.09,10.297-19.863,18.335-20.041c14.28-0.314,22.149,10.692,22.157,20.108
	C220.697,287.024,211.283,296.146,200.314,296.075z"/>
</svg>
