<?xml version="1.0" encoding="utf-8"?>
<!-- Generator: Adobe Illustrator 16.0.4, SVG Export Plug-In . SVG Version: 6.00 Build 0)  -->
<!DOCTYPE svg PUBLIC "-//W3C//DTD SVG 1.1//EN" "http://www.w3.org/Graphics/SVG/1.1/DTD/svg11.dtd">
<svg version="1.1" id="Layer_1" xmlns="http://www.w3.org/2000/svg" xmlns:xlink="http://www.w3.org/1999/xlink" x="0px" y="0px"
	 width="914.047px" height="352.616px" viewBox="0 0 914.047 352.616" enable-background="new 0 0 914.047 352.616"
	 xml:space="preserve">
<g>
	<path fill="#F5F5F5" d="M726.018,4.244C724.564,1.91,721.125,0,718.375,0h-42.733c-2.75,0-3.727,1.855-2.17,4.122l93.104,138.498
		c2.207,1.642,1.763,2.983-0.987,2.983H5c-2.75,0-5,2.25-5,5v51.411c0,2.75,2.25,5,5,5h760.588c2.75,0,3.194,1.343,0.987,2.983
		l-93.104,138.496c-1.557,2.267-0.58,4.122,2.17,4.122h42.733c2.75,0,6.189-1.91,7.643-4.245l186.507-168.688
		c2.03-1.855,2.03-4.893,0-6.748L726.018,4.244z"/>
</g>
</svg>
