<?xml version="1.0" encoding="utf-8"?>
<!-- Generator: Adobe Illustrator 16.0.4, SVG Export Plug-In . SVG Version: 6.00 Build 0)  -->
<!DOCTYPE svg PUBLIC "-//W3C//DTD SVG 1.1//EN" "http://www.w3.org/Graphics/SVG/1.1/DTD/svg11.dtd">
<svg version="1.1" id="Layer_1" xmlns="http://www.w3.org/2000/svg" xmlns:xlink="http://www.w3.org/1999/xlink" x="0px" y="0px"
	 width="318.29px" height="318.294px" viewBox="0 0 318.29 318.294" enable-background="new 0 0 318.29 318.294"
	 xml:space="preserve">
<rect x="-61.855" y="-84.689" display="none" fill="#222222" width="450" height="479"/>
<g>
	<g>
		<path fill="#F5F5F5" d="M51.514,44.814l-0.931,4.189c-1.346-0.316-2.364-0.371-3.059-0.165c-0.749,0.19-1.476,0.661-2.179,1.41
			c-0.864,0.922-1.32,1.931-1.368,3.029c-0.057,1.089,0.304,1.999,1.083,2.729c1.073,1.007,2.686,1.019,4.837,0.039l2.955-1.353
			c2.396-1.108,4.502-1.588,6.317-1.438c1.814,0.149,3.478,0.932,4.987,2.348c2.023,1.897,3.062,4.14,3.117,6.726
			c0.057,2.605-0.86,4.915-2.749,6.928c-1.789,1.909-3.834,2.956-6.13,3.139c-2.28,0.166-4.588-0.562-6.924-2.182l2.412-4.057
			c1.434,1.059,2.576,1.631,3.426,1.714c1.592,0.207,3.002-0.345,4.231-1.656c0.971-1.035,1.43-2.22,1.378-3.554
			s-0.609-2.5-1.674-3.498c-0.427-0.401-0.875-0.708-1.342-0.924c-0.468-0.215-0.969-0.336-1.504-0.366s-1.12,0.033-1.756,0.187
			c-0.636,0.154-1.33,0.396-2.084,0.724l-2.875,1.293c-4.096,1.818-7.369,1.577-9.819-0.721c-1.652-1.55-2.442-3.477-2.369-5.783
			c0.064-2.314,0.979-4.412,2.742-6.292C44.617,44.746,47.708,43.923,51.514,44.814z"/>
		<path fill="#F5F5F5" d="M94.996,12.352l2.522,4.765c-3.354-0.714-6.274-0.413-8.761,0.902c-2.738,1.451-4.524,3.656-5.358,6.616
			c-0.852,2.956-0.528,5.849,0.972,8.68c1.479,2.796,3.672,4.656,6.576,5.579c2.905,0.922,5.727,0.658,8.466-0.792
			c1.416-0.749,2.496-1.616,3.241-2.601c0.432-0.522,0.839-1.136,1.225-1.841c0.387-0.705,0.76-1.508,1.125-2.407l2.566,4.85
			c-1.612,2.519-3.686,4.449-6.217,5.79c-3.809,2.016-7.764,2.408-11.863,1.175c-4.102-1.262-7.153-3.785-9.158-7.571
			c-1.797-3.395-2.277-7.016-1.44-10.861c1.037-4.719,3.748-8.24,8.132-10.561C89.417,12.809,92.075,12.234,94.996,12.352z"/>
		<path fill="#F5F5F5" d="M138.23,16.647l11.23,11.233l-5.497,0.871l-10.438-10.844l-0.81,0.128l1.931,12.192l-4.495,0.712
			l-4.717-29.785l5.266-0.834c3.937-0.624,6.895-0.334,8.878,0.868c2.189,1.341,3.498,3.361,3.927,6.062
			c0.333,2.109,0.017,4.019-0.952,5.728C141.583,14.685,140.142,15.909,138.23,16.647z M132.094,14.119l1.428-0.227
			c4.257-0.674,6.128-2.638,5.612-5.892c-0.482-3.048-2.795-4.244-6.936-3.588l-1.602,0.253L132.094,14.119z"/>
		<path fill="#F5F5F5" d="M171.797,12.528c0.839-4.161,3.085-7.427,6.738-9.798c3.64-2.374,7.593-3.131,11.854-2.271
			c4.213,0.849,7.521,3.084,9.926,6.704c2.417,3.624,3.199,7.546,2.347,11.771c-0.856,4.25-3.103,7.55-6.738,9.898
			c-3.651,2.359-7.633,3.103-11.947,2.232c-3.816-0.77-6.978-2.782-9.481-6.037C171.742,21.43,170.841,17.263,171.797,12.528z
			 M176.285,13.493c-0.659,3.268-0.104,6.175,1.667,8.724c1.758,2.547,4.066,4.108,6.925,4.685c3.103,0.625,5.935,0.082,8.499-1.632
			c2.568-1.74,4.168-4.167,4.796-7.281c0.636-3.152,0.116-6.007-1.561-8.563c-1.66-2.567-4.034-4.162-7.123-4.785
			c-3.076-0.621-5.89-0.072-8.441,1.644C178.5,7.976,176.913,10.378,176.285,13.493z"/>
		<path fill="#F5F5F5" d="M239.619,19.904l-13.205,22.255l7.625,4.525l-2.183,3.678l-11.539-6.847l15.389-25.934L239.619,19.904z"/>
		<path fill="#F5F5F5" d="M273.673,46.681l-18.675,17.915l6.138,6.399l-3.087,2.961l-9.289-9.683l21.763-20.876L273.673,46.681z"/>
	</g>
	<g>
		<path fill="#F5F5F5" d="M59.57,283.565l17.046-24.876l5.22,3.576c2.502,1.715,4.31,3.316,5.421,4.805
			c1.226,1.55,2.076,3.34,2.548,5.368c0.962,4.101,0.137,8.058-2.475,11.871c-2.621,3.823-6.078,6.001-10.371,6.531
			c-2.152,0.262-4.123,0.119-5.91-0.428c-1.692-0.48-3.799-1.585-6.324-3.314L59.57,283.565z M65.742,282.609l1.692,1.159
			c1.686,1.155,3.209,1.938,4.569,2.35c1.375,0.39,2.793,0.485,4.254,0.287c3.003-0.42,5.432-1.983,7.287-4.69
			c1.87-2.729,2.473-5.566,1.81-8.515c-0.605-2.641-2.509-5.058-5.71-7.251l-1.691-1.159L65.742,282.609z"/>
		<path fill="#F5F5F5" d="M111.557,295.448c0.938-4.14,3.261-7.352,6.969-9.636c3.695-2.287,7.664-2.95,11.905-1.989
			c4.191,0.949,7.445,3.262,9.764,6.938c2.331,3.679,3.02,7.619,2.067,11.823c-0.958,4.229-3.282,7.474-6.972,9.735
			c-3.705,2.271-7.704,2.921-11.996,1.948c-3.797-0.86-6.909-2.947-9.336-6.261C111.29,304.347,110.489,300.16,111.557,295.448z
			 M116.02,296.52c-0.736,3.251-0.25,6.172,1.46,8.762c1.697,2.587,3.968,4.203,6.812,4.848c3.086,0.699,5.931,0.222,8.535-1.431
			c2.609-1.679,4.266-4.067,4.967-7.166c0.711-3.137,0.259-6.002-1.356-8.598c-1.6-2.605-3.936-4.256-7.009-4.952
			c-3.061-0.693-5.887-0.212-8.478,1.443C118.365,291.057,116.722,293.421,116.02,296.52z"/>
		<path fill="#F5F5F5" d="M168.096,288.27l11.52,18.31l3.971-22.781l11.795,19.748l4.381-21.369l4.852-0.934l-7.174,34.039
			l-11.65-19.518l-3.9,22.529l-18.645-29.091L168.096,288.27z"/>
		<path fill="#F5F5F5" d="M239.952,296.554l-18.428-26.414l31.201,6.286l-11.992-17.188l3.732-2.604l18.305,26.237l-31.166-6.238
			l12.08,17.316L239.952,296.554z"/>
	</g>
</g>
<circle display="none" fill="none" stroke="#C41010" stroke-miterlimit="10" cx="159.145" cy="157.311" r="145.487"/>
</svg>
