<?xml version="1.0" encoding="utf-8"?>
<!-- Generator: Adobe Illustrator 16.0.4, SVG Export Plug-In . SVG Version: 6.00 Build 0)  -->
<!DOCTYPE svg PUBLIC "-//W3C//DTD SVG 1.1//EN" "http://www.w3.org/Graphics/SVG/1.1/DTD/svg11.dtd">
<svg version="1.1" id="Layer_1" xmlns="http://www.w3.org/2000/svg" xmlns:xlink="http://www.w3.org/1999/xlink" x="0px" y="0px"
	 width="357.132px" height="147.557px" viewBox="0 0 357.132 147.557" enable-background="new 0 0 357.132 147.557"
	 xml:space="preserve">
<path fill-rule="evenodd" clip-rule="evenodd" stroke="#000000" stroke-width="2" d="M69.687,68.112
	c-1.294-0.385-2.271-0.713-3.267-0.966c-9.682-2.458-19.423-4.705-29.039-7.402C24.181,56.042,13.709,48.133,5.2,37.575
	c-9.175-11.383-5.914-26.383,7.472-33.022c10.476-5.196,21.448-5.369,32.58-3.372c25.667,4.606,51.253,9.688,76.963,14.032
	c35.198,5.948,70.476,11.431,105.73,17.034c21.695,3.448,43.363,7.144,65.143,9.947c10.604,1.364,21.438,0.899,32.164,1.337
	c7.105,0.29,14.275,0.216,21.291,1.197c9.563,1.338,13.177,7.98,8.657,16.528c-2.604,4.924-6.603,9.431-10.862,13.09
	c-8.817,7.577-19.429,12.193-30.344,15.978c-3.315,1.148-5.601,2.917-7.689,5.912c-6.358,9.116-15.64,15.991-28.11,11.543
	c-2.875-1.026-6.784,3.238-5.626,6.139c5.491,13.748-1.519,23.026-10.967,29.953c-7.388,5.417-17.523,4.715-24.75-1.14
	c-6.919-5.604-9.146-15.344-5.858-23.79c3.357-8.623,8.19-15.547,18.011-17.158c2.65-0.436,5.438-0.026,8.162-0.01
	c1.357,0.007,2.714,0.001,4.071,0.001c0.027-0.303,0.055-0.606,0.082-0.91c-0.242-0.2-0.479-0.569-0.729-0.577
	c-31.312-1.124-61.955-7.222-92.668-12.663c-20.65-3.658-41.183-7.975-61.792-11.867c-1.855-0.351-4.021-0.144-5.813,0.472
	c-4.777,1.641-9.476,1.863-14.369,0.641c-1.233-0.309-3.188-0.137-3.92,0.647c-0.713,0.764-0.715,2.747-0.291,3.93
	c3.247,9.069,1.454,16.905-5.262,23.746c-3.798,3.867-7.663,7.438-13.29,8.587c-14.718,3.005-27.815-9.958-24.298-24.563
	c1.029-4.276,2.994-8.571,5.483-12.204c5.182-7.563,12.905-9.766,21.761-8.534c0.858,0.119,1.712,0.281,2.573,0.361
	C68.873,68.855,69.068,68.583,69.687,68.112z M259.085,90.71c9.898-1.071,18.631-1.645,27.235-3.024
	c18.357-2.943,36.215-7.758,52.127-17.754c4.637-2.913,9.261-6.772,12.173-11.303c5.231-8.137,2.688-11.735-5.981-12.352
	c-8.21-0.583-16.463-0.538-24.688-0.941c-10.837-0.53-21.775-0.458-32.476-1.999c-30.751-4.429-61.411-9.491-92.093-14.396
	c-33.146-5.298-66.305-10.532-99.401-16.126C77.292,9.655,58.763,5.552,40.073,2.409c-9.777-1.644-19.472-0.447-28.241,4.817
	C1.367,13.507-0.348,21.764,7.417,31.139c8.614,10.4,19.792,17.045,32.911,20.315c7.752,1.933,15.508,3.865,23.31,5.582
	c49.866,10.971,99.986,20.634,150.479,28.244C229.395,87.582,244.806,89.009,259.085,90.71z M354.818,54.964
	c-1.962,5.701-5.646,10.144-10.547,13.296c-5.755,3.701-11.637,7.423-17.917,10.054c-30.949,12.961-63.11,16.444-96.206,11.133
	c-26.988-4.332-54.069-8.206-80.894-13.394c-36.885-7.134-73.627-15.047-110.308-23.18C24.226,49.61,12.26,41.304,3.396,28.875
	c-0.116-0.163-0.418-0.192-0.909-0.403c2.525,7.095,7.25,11.994,12.442,16.607c10.458,9.292,23.163,13.393,36.451,16.476
	C111.97,75.609,172.894,87.833,234.55,96.3c20.677,2.839,41.068,2.553,61.326-2.558c16.947-4.276,33.291-10.011,47.352-20.81
	C349.167,68.372,354.16,63.02,354.818,54.964z M77.749,93.85c0.031-10.303-8.476-18.961-18.741-19.074
	c-10.131-0.112-18.859,8.549-18.998,18.854c-0.135,10.012,8.83,18.911,18.98,18.843C69.114,112.402,77.719,103.86,77.749,93.85z
	 M250.242,108.31c-10.626-0.057-18.975,8.069-19.033,18.525c-0.058,10.126,8.339,18.617,18.516,18.729
	c10.661,0.115,19.221-8.242,19.229-18.777C268.961,116.583,260.638,108.365,250.242,108.31z M278.312,105.182
	c8.81,5.421,22.88-0.734,24.615-11.046c-4.594,1.039-8.967,2.477-13.438,2.927C283.939,97.62,281.081,101.122,278.312,105.182z
	 M239.73,108.734c8.19-3.302,15.687-3.493,22.496,1.56c6.812,5.056,9.391,12.068,8.187,21.104
	c4.163-9.644,1.478-19.188-6.484-24.748C256.562,101.504,246.334,102.173,239.73,108.734z M79.813,96.139
	c3.6-7.573,0.601-17.483-6.847-22.624c-7.631-5.267-18.121-4.563-23.999,1.608C67.362,67.954,80.397,80.971,79.813,96.139z
	 M280.562,99.575c-5.616-1.498-16.66,0.951-17.802,3.711c2.674,2.226,5.325,4.435,8.285,6.899
	C274.202,106.666,277.329,103.181,280.562,99.575z M79.955,77.01c1.513-1.873,2.92-3.615,4.761-5.894
	c-4.916-0.981-9.012-1.8-13.108-2.618c-0.108,0.406-0.215,0.812-0.323,1.216C74.001,72.001,76.718,74.287,79.955,77.01z
	 M97.886,74.978c-0.007-0.346-0.015-0.691-0.022-1.037c-4.098,0.222-8.148-3.774-12.279-0.611c-0.003,0.55-0.006,1.1-0.009,1.648
	C89.678,74.978,93.782,74.978,97.886,74.978z"/>
<path fill-rule="evenodd" clip-rule="evenodd" fill="#FFFFFF" stroke="#000000" stroke-width="2" d="M259.085,90.71
	c-14.279-1.701-29.69-3.128-44.969-5.431C163.623,77.67,113.503,68.006,63.637,57.036c-7.802-1.717-15.558-3.649-23.31-5.582
	c-13.119-3.271-24.296-9.916-32.911-20.315c-7.765-9.375-6.05-17.631,4.415-23.913c8.77-5.264,18.464-6.461,28.241-4.817
	c18.69,3.143,37.22,7.247,55.908,10.406c33.097,5.595,66.255,10.828,99.401,16.126c30.682,4.905,61.342,9.967,92.093,14.396
	c10.7,1.541,21.639,1.469,32.476,1.999c8.226,0.403,16.479,0.357,24.688,0.941c8.669,0.617,11.213,4.215,5.981,12.352
	c-2.912,4.53-7.536,8.39-12.173,11.303c-15.912,9.996-33.77,14.811-52.127,17.754C277.716,89.065,268.984,89.639,259.085,90.71z"/>
<path fill-rule="evenodd" clip-rule="evenodd" fill="#FFFFFF" stroke="#000000" stroke-width="2" d="M354.818,54.964
	c-0.658,8.055-5.651,13.408-11.59,17.968c-14.061,10.799-30.404,16.533-47.352,20.81c-20.258,5.11-40.649,5.396-61.326,2.558
	c-61.656-8.467-122.58-20.69-183.17-34.745c-13.288-3.083-25.993-7.184-36.451-16.476c-5.192-4.614-9.917-9.512-12.442-16.607
	c0.491,0.21,0.792,0.24,0.909,0.403c8.864,12.429,20.83,20.735,35.551,23.999c36.68,8.133,73.422,16.046,110.308,23.18
	c26.825,5.188,53.905,9.062,80.894,13.394c33.096,5.312,65.257,1.828,96.206-11.133c6.28-2.631,12.162-6.353,17.917-10.054
	C349.171,65.108,352.856,60.666,354.818,54.964z"/>
<path fill-rule="evenodd" clip-rule="evenodd" fill="#FFFFFF" stroke="#000000" stroke-width="2" d="M77.749,93.85
	c-0.03,10.011-8.635,18.553-18.759,18.622c-10.15,0.068-19.115-8.831-18.98-18.843c0.139-10.305,8.867-18.966,18.998-18.854
	C69.273,74.889,77.78,83.547,77.749,93.85z M66.267,93.813c-0.058-4.722-3.708-8.305-8.323-8.173
	c-4.331,0.125-7.913,3.861-7.936,8.277c-0.023,4.589,3.667,8.345,8.227,8.373C62.709,102.319,66.324,98.504,66.267,93.813z"/>
<path fill-rule="evenodd" clip-rule="evenodd" fill="#FFFFFF" stroke="#000000" stroke-width="2" d="M250.242,108.31
	c10.396,0.056,18.72,8.273,18.712,18.477c-0.009,10.535-8.568,18.893-19.229,18.777c-10.177-0.111-18.573-8.603-18.516-18.729
	C231.267,116.379,239.616,108.253,250.242,108.31z M249.343,135.435c4.812-0.004,8.155-3.415,8.112-8.279
	c-0.039-4.581-3.425-8.057-7.944-8.155c-4.654-0.101-8.262,3.453-8.296,8.175C241.181,132.037,244.527,135.438,249.343,135.435z"/>
<path fill-rule="evenodd" clip-rule="evenodd" fill="#FFFFFF" stroke="#000000" stroke-width="2" d="M278.312,105.182
	c2.769-4.06,5.627-7.562,11.177-8.119c4.472-0.45,8.845-1.888,13.438-2.927C301.192,104.447,287.122,110.603,278.312,105.182z"/>
<path fill-rule="evenodd" clip-rule="evenodd" fill="#FFFFFF" stroke="#000000" stroke-width="2" d="M239.73,108.734
	c6.604-6.562,16.832-7.23,24.198-2.084c7.962,5.561,10.647,15.104,6.484,24.748c1.204-9.036-1.374-16.049-8.187-21.104
	C255.417,105.241,247.92,105.433,239.73,108.734z"/>
<path fill-rule="evenodd" clip-rule="evenodd" fill="#FFFFFF" stroke="#000000" stroke-width="2" d="M79.813,96.139
	c0.584-15.168-12.451-28.185-30.846-21.016c5.878-6.172,16.368-6.875,23.999-1.608C80.414,78.655,83.413,88.565,79.813,96.139z"/>
<path fill-rule="evenodd" clip-rule="evenodd" fill="#FFFFFF" stroke="#000000" stroke-width="2" d="M280.562,99.575
	c-3.233,3.605-6.36,7.091-9.517,10.61c-2.96-2.465-5.611-4.674-8.285-6.899C263.902,100.526,274.946,98.077,280.562,99.575z"/>
<path fill-rule="evenodd" clip-rule="evenodd" fill="#FFFFFF" stroke="#000000" stroke-width="2" d="M79.955,77.01
	c-3.237-2.723-5.954-5.009-8.67-7.295c0.107-0.405,0.215-0.811,0.323-1.216c4.096,0.818,8.193,1.636,13.108,2.618
	C82.875,73.395,81.468,75.137,79.955,77.01z"/>
<path fill-rule="evenodd" clip-rule="evenodd" fill="#FFFFFF" stroke="#000000" stroke-width="2" d="M97.886,74.978
	c-4.104,0-8.208,0-12.311,0c0.003-0.549,0.006-1.099,0.009-1.648c4.131-3.163,8.182,0.833,12.279,0.611
	C97.871,74.286,97.878,74.632,97.886,74.978z"/>
<path fill-rule="evenodd" clip-rule="evenodd" stroke="#000000" stroke-width="2" d="M66.267,93.813
	c0.058,4.69-3.557,8.506-8.032,8.478c-4.56-0.028-8.25-3.784-8.227-8.373c0.023-4.416,3.605-8.152,7.936-8.277
	C62.559,85.509,66.208,89.092,66.267,93.813z M58.144,87.506c-3.434,0.008-6.312,3.043-6.25,6.59c0.06,3.39,2.836,6.269,6.122,6.348
	c3.408,0.082,6.381-2.899,6.405-6.425C64.444,90.367,61.678,87.497,58.144,87.506z"/>
<path fill-rule="evenodd" clip-rule="evenodd" stroke="#000000" stroke-width="2" d="M249.343,135.435
	c-4.816,0.004-8.162-3.397-8.128-8.26c0.034-4.722,3.642-8.275,8.296-8.175c4.52,0.099,7.905,3.574,7.944,8.155
	C257.499,132.02,254.155,135.431,249.343,135.435z M249.336,121.013c-3.74-0.002-6.315,2.611-6.27,6.363
	c0.044,3.593,2.498,6.082,6.079,6.168c3.764,0.09,6.408-2.435,6.455-6.164C255.65,123.626,253.08,121.015,249.336,121.013z"/>
<path fill-rule="evenodd" clip-rule="evenodd" fill="#FFFFFF" stroke="#000000" stroke-width="2" d="M58.144,87.506
	c3.535-0.009,6.301,2.861,6.276,6.513c-0.024,3.525-2.997,6.507-6.405,6.425c-3.286-0.079-6.062-2.958-6.122-6.348
	C51.832,90.549,54.71,87.514,58.144,87.506z"/>
<path fill-rule="evenodd" clip-rule="evenodd" fill="#FFFFFF" stroke="#000000" stroke-width="2" d="M249.336,121.013
	c3.743,0.002,6.313,2.613,6.265,6.367c-0.047,3.729-2.691,6.254-6.455,6.164c-3.581-0.086-6.035-2.575-6.079-6.168
	C243.021,123.624,245.596,121.011,249.336,121.013z"/>
</svg>
