<svg xmlns="http://www.w3.org/2000/svg" width="357.132" height="147.557"><path fill-rule="evenodd" stroke="#000" stroke-width="2" d="M69.7 68.1c-1.3-.37-2.28-.7-3.28-.95-9.68-2.46-19.42-4.7-29.04-7.4-13.2-3.7-23.67-11.62-32.18-22.17-9.17-11.4-5.9-26.4 7.47-33.03C23.15-.65 34.12-.82 45.25 1.18c25.67 4.6 51.26 9.7 76.97 14.03 35.2 5.96 70.47 11.44 105.73 17.05 21.7 3.44 43.36 7.14 65.14 9.94 10.6 1.36 21.43.9 32.15 1.33 7.1.3 14.28.22 21.3 1.2 9.56 1.34 13.17 7.98 8.65 16.53-2.6 4.92-6.6 9.43-10.86 13.1C335.52 81.9 324.9 86.53 314 90.3c-3.32 1.15-5.6 2.92-7.7 5.92-6.35 9.1-15.64 16-28.1 11.54-2.88-1.03-6.8 3.24-5.63 6.14 5.5 13.75-1.52 23.02-10.97 29.95-7.4 5.42-17.52 4.72-24.75-1.14-6.92-5.6-9.14-15.34-5.86-23.8 3.35-8.6 8.18-15.54 18-17.15 2.65-.43 5.44-.02 8.17 0 1.35 0 2.7 0 4.07 0 .02-.3.05-.6.08-.92-.24-.2-.48-.56-.73-.57-31.32-1.14-61.96-7.23-92.68-12.68-20.65-3.65-41.18-7.97-61.8-11.86-1.84-.35-4-.15-5.8.47-4.78 1.64-9.48 1.86-14.37.64-1.23-.3-3.2-.14-3.92.65-.7.76-.72 2.74-.3 3.93 3.25 9.07 1.46 16.9-5.25 23.74-3.8 3.86-7.67 7.43-13.3 8.58-14.7 3-27.8-9.96-24.3-24.56 1.04-4.28 3-8.57 5.5-12.2 5.17-7.57 12.9-9.77 21.75-8.54.86.12 1.7.28 2.57.36.17.02.37-.26 1-.73zm189.38 22.6c9.9-1.06 18.64-1.64 27.24-3 18.36-2.96 36.22-7.77 52.13-17.77 4.63-2.9 9.26-6.77 12.17-11.3 5.23-8.14 2.7-11.74-5.98-12.35-8.2-.6-16.46-.54-24.7-.94-10.83-.53-21.76-.46-32.46-2-30.76-4.43-61.42-9.5-92.1-14.4-33.14-5.3-66.3-10.53-99.4-16.13-18.7-3.15-37.22-7.25-55.9-10.4C30.3.77 20.6 1.97 11.82 7.24 1.37 13.5-.35 21.76 7.43 31.13c8.6 10.4 19.78 17.05 32.9 20.32 7.75 1.94 15.5 3.87 23.3 5.6 49.87 10.96 100 20.62 150.5 28.23 15.27 2.3 30.68 3.73 44.95 5.43zm95.74-35.74c-1.96 5.7-5.65 10.15-10.55 13.3-5.75 3.7-11.64 7.42-17.92 10.05-30.95 12.97-63.1 16.46-96.2 11.15-27-4.34-54.07-8.2-80.9-13.4C112.37 68.92 75.63 61 38.95 52.87c-14.72-3.26-26.7-11.57-35.55-24-.12-.16-.42-.2-.9-.4 2.5 7.1 7.24 12 12.43 16.6 10.46 9.3 23.16 13.4 36.45 16.48 60.6 14.06 121.5 26.28 183.17 34.75 20.68 2.84 41.07 2.55 61.33-2.56 16.94-4.27 33.3-10 47.35-20.8 5.94-4.57 10.93-9.92 11.6-17.98zM77.75 93.86c.03-10.3-8.48-18.97-18.74-19.08-10.12-.12-18.85 8.54-19 18.85-.12 10 8.84 18.9 19 18.84 10.1-.07 18.72-8.6 18.75-18.62zm172.5 14.45c-10.63-.05-18.98 8.08-19.04 18.54-.05 10.12 8.35 18.6 18.53 18.72 10.66.12 19.22-8.24 19.22-18.77 0-10.22-8.3-18.44-18.7-18.5zm28.06-3.12c8.82 5.42 22.9-.73 24.63-11.04-4.6 1.03-8.97 2.47-13.44 2.92-5.56.56-8.42 4.06-11.2 8.12zm-38.57 3.55c8.2-3.3 15.7-3.5 22.5 1.56 6.8 5.05 9.4 12.06 8.18 21.1 4.18-9.65 1.5-19.2-6.47-24.75-7.37-5.15-17.6-4.48-24.2 2.08zM79.8 96.13c3.6-7.56.6-17.47-6.83-22.6-7.63-5.28-18.12-4.58-24 1.6 18.4-7.18 31.43 5.84 30.84 21zm200.76 3.45c-5.6-1.5-16.66.95-17.8 3.7 2.67 2.23 5.33 4.44 8.29 6.9 3.15-3.5 6.28-7 9.5-10.6zM79.96 77c1.5-1.86 2.9-3.6 4.76-5.88-4.92-1-9.02-1.8-13.1-2.62-.12.4-.23.8-.34 1.2C74 72 76.72 74.3 79.95 77zM97.88 75c-.02-.35-.03-.7-.04-1.04-4.1.22-8.14-3.77-12.28-.6 0 .54 0 1.1 0 1.64 4.1 0 8.2 0 12.3 0z" clip-rule="evenodd"/><path fill="#fff" fill-rule="evenodd" stroke="#000" stroke-width="2" d="M259.08 90.7c-14.27-1.7-29.7-3.12-44.96-5.42C163.62 77.68 113.5 68 63.64 57.04c-7.8-1.72-15.56-3.65-23.3-5.6-13.13-3.26-24.3-9.9-32.92-20.3-7.77-9.38-6.05-17.63 4.4-23.9C20.6 1.95 30.3.75 40.08 2.4c18.7 3.15 37.22 7.26 55.9 10.4 33.1 5.6 66.26 10.84 99.4 16.14 30.7 4.9 61.35 9.97 92.1 14.4 10.7 1.54 21.64 1.47 32.48 2 8.23.4 16.48.35 24.7.94 8.66.6 11.2 4.2 5.97 12.35-2.9 4.53-7.54 8.4-12.17 11.3-15.92 10-33.77 14.8-52.13 17.76-8.6 1.36-17.34 1.94-27.24 3zM354.82 54.96c-.66 8.06-5.65 13.4-11.6 17.97-14.05 10.8-30.4 16.53-47.34 20.8-20.26 5.12-40.65 5.4-61.33 2.57-61.66-8.47-122.58-20.7-183.17-34.74-13.3-3.1-26-7.2-36.45-16.48-5.2-4.6-9.92-9.5-12.44-16.6.48.2.78.23.9.4 8.86 12.42 20.83 20.73 35.55 24C75.63 61 112.37 68.9 149.25 76.04c26.83 5.2 53.9 9.07 80.9 13.4 33.1 5.3 65.26 1.83 96.2-11.13 6.3-2.64 12.17-6.36 17.92-10.06 4.9-3.15 8.6-7.6 10.55-13.3zM77.75 93.85c-.03 10-8.64 18.55-18.76 18.62-10.16.07-19.13-8.83-19-18.84.15-10.3 8.88-18.97 19-18.86 10.27.12 18.78 8.78 18.75 19.08zm-11.48-.04c-.06-4.7-3.7-8.3-8.33-8.16-4.33.13-7.9 3.86-7.93 8.28-.02 4.6 3.67 8.34 8.23 8.37 4.48.02 8.1-3.8 8.04-8.5zM250.24 108.3c10.4.07 18.72 8.28 18.7 18.5 0 10.52-8.55 18.88-19.2 18.76-10.2-.1-18.6-8.6-18.53-18.72.07-10.46 8.42-18.6 19.04-18.53zm-.9 27.14c4.8 0 8.16-3.42 8.1-8.28-.02-4.58-3.4-8.06-7.93-8.16-4.64-.1-8.25 3.45-8.3 8.18-.02 4.86 3.33 8.26 8.14 8.25zM278.3 105.18c2.78-4.06 5.64-7.56 11.2-8.12 4.46-.45 8.83-1.88 13.43-2.92-1.74 10.3-15.8 16.46-24.62 11.04zM239.73 108.73c6.6-6.56 16.83-7.23 24.2-2.08 7.96 5.56 10.64 15.1 6.48 24.75 1.22-9.04-1.36-16.05-8.17-21.1-6.8-5.06-14.3-4.87-22.5-1.57zM79.8 96.14c.6-15.17-12.44-28.2-30.83-21.02 5.88-6.17 16.36-6.87 24-1.6 7.44 5.14 10.44 15.05 6.84 22.62zM280.56 99.58c-3.23 3.6-6.36 7.1-9.5 10.6-2.97-2.46-5.63-4.67-8.3-6.9 1.14-2.75 12.2-5.2 17.8-3.7zM79.95 77c-3.23-2.7-5.95-5-8.67-7.28.1-.4.22-.82.33-1.22 4.1.82 8.2 1.64 13.12 2.62-1.84 2.27-3.25 4.02-4.77 5.9zM97.9 74.98c-4.12 0-8.22 0-12.33 0 0-.55 0-1.1 0-1.65 4.14-3.16 8.2.83 12.3.6 0 .36 0 .7.02 1.05z" clip-rule="evenodd"/><path fill-rule="evenodd" stroke="#000" stroke-width="2" d="M66.27 93.8c.05 4.7-3.56 8.52-8.04 8.5-4.55-.04-8.24-3.8-8.22-8.38.03-4.42 3.6-8.15 7.94-8.28 4.62-.13 8.27 3.45 8.33 8.17zm-8.13-6.3c-3.43 0-6.3 3.05-6.25 6.6.05 3.4 2.83 6.27 6.12 6.34 3.4.1 6.38-2.9 6.4-6.42.02-3.65-2.74-6.52-6.28-6.5zM249.34 135.44c-4.8 0-8.16-3.4-8.13-8.26.05-4.73 3.66-8.28 8.3-8.18 4.53.1 7.92 3.57 7.95 8.15.05 4.87-3.3 8.28-8.1 8.28zm0-14.43c-3.74 0-6.32 2.62-6.27 6.38.04 3.6 2.5 6.08 6.08 6.16 3.76.1 6.4-2.43 6.45-6.16.05-3.75-2.52-6.36-6.26-6.37z" clip-rule="evenodd"/><path fill="#fff" fill-rule="evenodd" stroke="#000" stroke-width="2" d="M58.14 87.5c3.54 0 6.3 2.87 6.28 6.52-.02 3.52-3 6.5-6.4 6.42-3.3-.07-6.07-2.95-6.13-6.34-.07-3.55 2.8-6.6 6.24-6.6zM249.34 121c3.74.02 6.3 2.63 6.26 6.38-.05 3.73-2.7 6.25-6.45 6.16-3.6-.08-6.04-2.57-6.08-6.16-.05-3.76 2.53-6.37 6.27-6.37z" clip-rule="evenodd"/></svg>