<?xml version="1.0" encoding="utf-8"?>
<!-- Generator: Adobe Illustrator 16.0.4, SVG Export Plug-In . SVG Version: 6.00 Build 0)  -->
<!DOCTYPE svg PUBLIC "-//W3C//DTD SVG 1.1//EN" "http://www.w3.org/Graphics/SVG/1.1/DTD/svg11.dtd">
<svg version="1.1" id="Layer_1" xmlns="http://www.w3.org/2000/svg" xmlns:xlink="http://www.w3.org/1999/xlink" x="0px" y="0px"
	 width="1042.292px" height="252.149px" viewBox="220.655 -208.154 1042.292 252.149"
	 enable-background="new 220.655 -208.154 1042.292 252.149" xml:space="preserve">
<g>
	<g>
		<g>
			<g>
				<defs>
					<rect id="SVGID_1_" x="220.655" y="-208.15" width="765.242" height="252.149"/>
				</defs>
				<clipPath id="SVGID_2_">
					<use xlink:href="#SVGID_1_"  overflow="visible"/>
				</clipPath>
				<path clip-path="url(#SVGID_2_)" fill="#FFFFFF" d="M775.935-7.721c3.094-14.859,38.85-178.377,43.67-200.429l-54.147,7.402
					l-6.525,27.899h20.784L748.568-28.96l-0.125-0.127c-3.386,15.016-9.84,25.5-17.176,32.264c-0.125,0.107-0.249,0.222-0.371,0.326
					c-1.248,1.129-2.538,2.03-3.821,2.944c-1.926,1.32-3.881,2.501-5.836,3.425c-29.2,11.14-21.874-12.819-21.874-12.819
					l15.108-65.833h17.404l6.778-29.624h-49.631l-4.517,19.754c-6.168-15.072-19.857-23.387-37.783-23.387
					c-40.536,0-80.426,33.521-89.639,73.795c-3.356,14.69-2.104,28.507,2.854,40.043c0.006,0,0.019-0.01,0.023-0.01
					c-0.005,0.01-0.008,0.015-0.015,0.025c-0.002-0.005-0.002-0.01-0.009-0.015c-23.557,11.994-34.841-2.536-29.326-26.843
					c3.927-17.325,31.173-132.226,37.459-158.737l-48.411,6.618l-6.027,24.802h15.337l-15.815,64.226
					c-7.646-14.292-22.896-22.609-40.566-22.609c-39.232,0-77.966,33.002-86.816,71.723c-2.73,11.932-2.254,23.336,0.854,33.399
					c-0.029,0.02-0.05,0.04-0.074,0.055c-11.005,4.541-35.628,12.858-31.147-5.899c0.1-0.426,23.979-96.926,23.979-96.926h-49.753
					l-6.624,26.764h18.047L324.11-3.396c0,0-7.219,7.934-20.364,13.773c-0.329,0.117-0.655,0.236-0.983,0.351
					c-0.676,0.209-1.341,0.411-2.091,0.666c-31.673,11.314-39.204-11.661-35.897-25.005c3.31-13.344,13.32-58.016,13.32-58.016
					h27.166l6.622-26.764h-27.16l8.9-37.869l-29.748,4.067l-9.098,33.802H227.67l-7.015,26.767h25.735
					c0,0-14.695,58.987-14.774,59.361c-0.005,0-0.01,0-0.015,0.005c-9.77,37.378,22.654,55.304,43.703,55.304
					c12.615,0,35.729-5.304,46.518-21.934c0.125,15.802,18.73,21.934,31.344,21.934c16.974,0,32.613-7.456,44.168-19.313
					c6.415,7.438,14.965,12.924,25.027,15.973c3.609,1.312,7.406,2.226,11.344,2.761c0.064,0.01,0.129,0.024,0.192,0.034
					c2.458,0.326,4.955,0.547,7.518,0.547c18.929,0,45.987-8.549,54.435-23.518c3.889,9.672,10.838,16.433,20.125,20.147
					c5.587,2.234,12.01,3.371,19.12,3.371c3.466,0,6.866-0.34,10.195-0.93c0.021,0,0.036,0,0.051-0.006
					c10.058-1.791,19.381-6.18,27.356-12.435c9.737,8.935,23.09,14.323,39.067,14.323c17.479,0,36.463-7.174,50.021-21.333
					c3.213,9.68,11.922,16.259,23.476,18.949c3.536,0.984,7.585,1.541,12.269,1.41c0.109,0,0.212,0.021,0.319,0.021
					c0.204,0,0.414-0.061,0.618-0.061c21.701-0.854,31.686-7.854,45.127-20.579c0.906-0.814,1.793-1.631,2.678-2.486
					c8.041,13.78,34.466,44.918,87.353-15.415c0.194-0.473,0.323-0.805,0.323-0.805s-24.215,7.035-36.013,7.035
					C786.143,10.738,772.616,8.216,775.935-7.721 M502.818-29.541c-5.348,23.388-28.25,42.873-51.896,42.873
					c-23.129,0-37.496-18.969-32.269-41.834c5.403-23.647,28.457-42.615,52.101-42.615
					C493.362-71.116,508.053-52.405,502.818-29.541 M673.854-29.796c-5.408,23.645-28.253,42.873-52.162,42.873
					c-22.344,0-37.034-18.713-31.861-41.316c5.348-23.386,27.993-42.876,51.641-42.876
					C664.336-71.116,679.086-52.665,673.854-29.796 M382.411-111.636l8.652-37.934l-31.69,4.33l-8.664,33.604H382.411
					L382.411-111.636z"/>
			</g>
		</g>
		<path fill="#FFFFFF" d="M850.896-121.243h-14.333l-1.953,8.544h5.176l-8.342,36.488h-5.555l-1.958,8.543h19.888l1.958-8.543
			h-5.179L850.896-121.243L850.896-121.243z M878.044-67.668h14.333l1.956-8.543h-5.026l5.256-22.975h5.026l1.953-8.549h-14.334
			l-1.3,5.698c-1.784-4.348-5.739-6.746-10.916-6.746c-11.713,0-23.229,9.67-25.89,21.307c-2.594,11.339,4.308,20.861,15.791,20.861
			c5.256,0,10.447-2.025,14.386-6.449L878.044-67.668L878.044-67.668z M867.759-75.535c-6.451,0-10.693-5.407-9.199-11.939
			c1.547-6.757,8.086-12.387,14.917-12.387c6.604,0,10.859,5.327,9.354,11.935C881.265-81.095,874.663-75.535,867.759-75.535
			 M923.318-121.243h-14.334l-1.955,8.544h5.179l-8.342,36.488h-5.18l-1.955,8.543h14.331l1.372-5.996
			c2.085,4.349,6.599,6.599,11.928,6.599c5.25,0,11.256-2.628,15.676-6.524c4.398-3.823,7.45-8.932,8.637-14.109
			c2.586-11.339-4.589-20.637-15.926-20.637c-5.104,0-10.025,2.173-13.84,6.373L923.318-121.243L923.318-121.243z M930.248-100.016
			c6.677,0,10.903,5.48,9.379,12.163c-1.497,6.534-8.001,12.317-14.752,12.317c-6.907,0-11.148-5.407-9.554-12.392
			C916.854-94.608,923.567-100.016,930.248-100.016 M950.121-79.288l-2.66,11.621h6.979l0.755-3.295
			c1.923,3.074,5.313,4.349,9.364,4.349c7.506,0,15.363-4.499,17.215-12.604c2.064-9.006-5.15-11.261-11.979-12.914
			c-2.773-0.675-6.261-1.5-5.398-5.252c0.633-2.78,3.582-4.205,6.062-4.205c2.851,0.005,4.597,1.877,4.094,4.727h8.859l2.483-10.872
			h-6.758l-0.632,2.775c-1.599-2.85-4.654-3.6-8.258-3.6c-7.129,0-14.597,4.423-16.348,12.074
			c-2.011,8.787,5.148,10.962,11.717,12.764c2.891,0.823,6.489,1.499,5.578,5.48c-0.688,3.003-3.834,4.955-6.609,4.955
			c-3.756-0.005-5.608-2.404-5.08-6.002L950.121-79.288L950.121-79.288z"/>
	</g>
	<g>
		<path fill="#66CC00" d="M1044.003-109.812h28.304l25.6,55.048l25.599-55.048h27.473L1097.49-3.67L1044.003-109.812z"/>
		<path fill="#66CC00" d="M1159.197-40.715l20.812-12.176c1.041,2.708,2.394,5.412,4.058,8.118c1.665,2.706,3.815,5.168,6.453,7.388
			c2.565,2.151,5.582,3.921,9.053,5.308c3.329,1.318,7.422,1.976,12.279,1.976c7.839,0,14.048-1.872,18.626-5.618
			c4.579-3.746,6.87-8.846,6.87-15.297c0-3.676-0.745-6.799-2.226-9.365c-1.432-2.428-3.499-4.508-6.204-6.243
			c-2.499-1.595-5.343-2.811-8.534-3.643c-2.982-0.763-6.312-1.145-9.988-1.145h-10.614v-23.413h8.117
			c7.839,0,14.081-1.591,18.729-4.775c4.717-3.252,7.077-8.338,7.077-15.257c0-6.573-2.082-11.834-6.242-15.778
			c-4.164-3.945-9.574-5.917-16.235-5.917c-3.191,0-6.278,0.553-9.261,1.659c-2.638,0.969-5.031,2.319-7.181,4.049
			c-1.873,1.455-3.643,3.392-5.307,5.812c-1.598,2.285-2.775,4.465-3.539,6.54l-22.164-10.38c1.732-4.034,3.85-7.789,6.346-11.27
			c2.708-3.825,6-7.199,9.887-10.12c4.021-3.061,8.601-5.529,13.736-7.409c5.201-1.877,11.133-2.817,17.794-2.817
			c6.589,0,12.903,1.077,18.938,3.231c5.675,2.014,10.688,5.001,15.041,8.959c4.214,3.82,7.565,8.44,10.053,13.858
			c2.487,5.418,3.732,11.322,3.732,17.712c0,4.572-0.558,8.521-1.666,11.844c-1.111,3.463-2.566,6.475-4.371,9.037
			c-1.804,2.703-3.78,4.952-5.93,6.753c-2.013,1.731-4.129,3.29-6.349,4.674c2.774,0.832,5.516,2.22,8.222,4.162
			c2.705,1.943,5.062,4.267,7.076,6.973c1.941,2.638,3.573,5.932,4.891,9.886c1.18,3.538,1.77,7.77,1.77,12.694
			c0,6.8-1.319,13.008-3.955,18.628c-2.566,5.411-6.209,10.06-10.926,13.943c-4.578,3.746-10.06,6.695-16.442,8.845
			c-6.242,2.081-12.973,3.122-20.188,3.122c-7.217,0-13.736-1.006-19.563-3.018c-5.688-1.941-10.717-4.543-15.087-7.804
			c-4.441-3.261-8.083-6.938-10.927-11.03C1163.013-32.042,1160.793-36.274,1159.197-40.715z"/>
	</g>
</g>
</svg>
