<svg version="1.1" id="Layer_1" xmlns="http://www.w3.org/2000/svg" xmlns:xlink="http://www.w3.org/1999/xlink" x="0px" y="0px"
	 width="704.6px" height="246.8px" viewBox="0 0 704.6 246.8" style="enable-background:new 0 0 704.6 246.8;" xml:space="preserve"
	>
<g id="text-ensilo-automation">
  <path style="fill:#00B695;" d="M45.7,12.7h4.6v2h-2.5v3H50v2h-2.2v3h2.5v2h-4.6V12.7z"/>
  <path style="fill:#00B695;" d="M51.3,12.7h2l2.1,6v-6h2v12h-1.9l-2.2-6.3v6.3h-2V12.7L51.3,12.7z"/>
  <path style="fill:#00B695;" d="M60.5,24.7c-0.4,0-0.8,0-1.1-0.1c-0.4-0.1-0.7-0.2-1-0.4V22c0.4,0.2,0.7,0.4,1,0.5
    c0.3,0.1,0.6,0.2,0.9,0.2c0.3,0,0.6-0.1,0.8-0.2c0.2-0.2,0.3-0.4,0.3-0.8l0,0c0-0.1,0-0.3,0-0.4c0-0.1-0.1-0.3-0.2-0.4
    c-0.1-0.2-0.2-0.3-0.4-0.5c-0.1-0.2-0.3-0.4-0.6-0.7c-0.4-0.4-0.7-0.8-0.9-1.1c-0.3-0.3-0.5-0.6-0.6-0.9c-0.1-0.3-0.3-0.6-0.4-0.9
    c-0.1-0.3-0.1-0.6-0.1-1l0,0c0-0.5,0.1-0.9,0.2-1.3s0.3-0.7,0.6-1s0.6-0.5,0.9-0.6c0.4-0.1,0.7-0.2,1.2-0.2c0.4,0,0.8,0,1,0.1
    c0.2,0.1,0.5,0.2,0.8,0.3v2.2c-0.3-0.2-0.6-0.3-0.8-0.4c-0.2-0.1-0.5-0.1-0.8-0.1c-0.3,0-0.5,0.1-0.8,0.3c-0.2,0.2-0.3,0.4-0.3,0.8
    l0,0c0,0.1,0,0.3,0,0.4c0,0.1,0.1,0.2,0.2,0.4c0.1,0.1,0.2,0.3,0.4,0.5c0.1,0.2,0.3,0.4,0.6,0.7c0.4,0.5,0.7,0.9,1,1.2
    c0.3,0.3,0.5,0.7,0.6,1c0.1,0.3,0.2,0.6,0.3,0.9c0.1,0.3,0.1,0.6,0.1,0.9l0,0c0,0.5-0.1,0.9-0.2,1.3c-0.2,0.4-0.4,0.7-0.6,1
    c-0.3,0.3-0.6,0.5-0.9,0.6C61.3,24.6,60.9,24.7,60.5,24.7z"/>
  <path style="fill:#00B695;" d="M64.2,12.7h2.1v12h-2.1V12.7z"/>
  <path style="fill:#00B695;" d="M67.6,12.7h2.1v10h2.2v2h-4.3V12.7L67.6,12.7z"/>
  <path style="fill:#00B695;" d="M75.3,24.8c-0.5,0-0.9-0.1-1.3-0.4c-0.4-0.2-0.7-0.6-1-1.1s-0.5-1.1-0.6-1.8
    c-0.2-0.7-0.2-1.6-0.2-2.6v-0.6c0-1,0.1-1.8,0.2-2.6c0.2-0.7,0.4-1.3,0.6-1.8c0.3-0.5,0.6-0.8,1-1.1c0.4-0.2,0.8-0.4,1.3-0.4
    s0.9,0.1,1.3,0.4c0.4,0.2,0.7,0.6,1,1.1c0.3,0.5,0.5,1.1,0.6,1.8c0.2,0.7,0.2,1.6,0.2,2.6V19c0,1-0.1,1.9-0.2,2.6
    c-0.2,0.7-0.4,1.3-0.6,1.8c-0.3,0.5-0.6,0.8-1,1.1C76.2,24.7,75.7,24.8,75.3,24.8z M75.3,22.9c0.2,0,0.3-0.1,0.4-0.2
    c0.1-0.1,0.2-0.3,0.3-0.6c0.1-0.3,0.2-0.7,0.2-1.2c0.1-0.5,0.1-1.1,0.1-1.9v-0.6c0-0.8,0-1.4-0.1-1.9c-0.1-0.5-0.1-0.9-0.2-1.2
    c-0.1-0.3-0.2-0.5-0.3-0.6c-0.1-0.1-0.3-0.2-0.4-0.2c-0.1,0-0.3,0.1-0.4,0.2c-0.1,0.1-0.2,0.3-0.3,0.6c-0.1,0.3-0.2,0.7-0.2,1.2
    c-0.1,0.5-0.1,1.1-0.1,1.9V19c0,0.8,0,1.4,0.1,1.9s0.1,0.9,0.2,1.2c0.1,0.3,0.2,0.5,0.3,0.6C75,22.8,75.1,22.9,75.3,22.9z"/>
  <path style="fill:#00B695;" d="M17,27.8h2.2l2.3,12h-2.1L19,37.4h-1.9l-0.4,2.4h-2L17,27.8z M18.7,35.6l-0.7-4l-0.6,3.9h1.3V35.6z"
    />
  <path style="fill:#00B695;" d="M24.9,40c-0.4,0-0.8-0.1-1.2-0.2c-0.4-0.1-0.7-0.4-0.9-0.7c-0.2-0.3-0.5-0.7-0.6-1.1
    C22,37.5,22,37,22,36.3v-8.5h2v8.7c0,0.5,0.1,0.9,0.3,1.2c0.2,0.2,0.4,0.3,0.6,0.3c0.2,0,0.5-0.1,0.6-0.3c0.2-0.2,0.3-0.6,0.3-1.2
    v-8.7h2.1v8.5c0,0.6-0.1,1.2-0.2,1.6c-0.1,0.5-0.4,0.8-0.6,1.1c-0.2,0.3-0.6,0.5-0.9,0.7C25.8,39.9,25.4,40,24.9,40z"/>
  <path style="fill:#00B695;" d="M30.2,29.8h-1.5v-2h5v2h-1.5v10h-2.1v-10H30.2z"/>
  <path style="fill:#00B695;" d="M37.3,40c-0.5,0-0.9-0.1-1.3-0.4c-0.4-0.2-0.7-0.6-1-1.1s-0.5-1.1-0.6-1.8c-0.2-0.7-0.2-1.6-0.2-2.6
    v-0.6c0-1,0.1-1.8,0.2-2.6c0.2-0.7,0.4-1.3,0.6-1.8c0.3-0.5,0.6-0.8,1-1.1c0.4-0.2,0.8-0.4,1.3-0.4s0.9,0.1,1.3,0.4
    c0.4,0.2,0.7,0.6,1,1.1c0.3,0.5,0.5,1.1,0.6,1.8c0.2,0.7,0.2,1.6,0.2,2.6v0.6c0,1-0.1,1.9-0.2,2.6c-0.2,0.7-0.4,1.3-0.6,1.8
    c-0.3,0.5-0.6,0.8-1,1.1C38.2,39.9,37.7,40,37.3,40z M37.3,38.1c0.2,0,0.3-0.1,0.4-0.2c0.1-0.1,0.2-0.3,0.3-0.6
    c0.1-0.3,0.2-0.7,0.2-1.2c0.1-0.5,0.1-1.1,0.1-1.9v-0.6c0-0.8,0-1.4-0.1-1.9c-0.1-0.5-0.1-0.9-0.2-1.2s-0.2-0.5-0.3-0.6
    c-0.1-0.1-0.3-0.2-0.4-0.2c-0.1,0-0.3,0.1-0.4,0.2s-0.2,0.3-0.3,0.6s-0.2,0.7-0.2,1.2c-0.1,0.5-0.1,1.1-0.1,1.9v0.6
    c0,0.8,0,1.4,0.1,1.9s0.1,0.9,0.2,1.2c0.1,0.3,0.2,0.5,0.3,0.6S37.1,38.1,37.3,38.1z"/>
  <path style="fill:#00B695;" d="M41.5,27.9h2.1l1.5,4.4l1.5-4.4h2.1v12h-2v-7.2L45,37.1l0,0l-1.5-4.5v7.2h-2V27.9z"/>
  <path style="fill:#00B695;" d="M51.4,27.8h2.2l2.3,12h-2.1l-0.4-2.4h-1.9l-0.4,2.4h-2L51.4,27.8z M53.2,35.6l-0.6-3.9L52,35.6H53.2
    z"/>
  <path style="fill:#00B695;" d="M57.2,29.8h-1.5v-2h5v2h-1.5v10h-2.1v-10H57.2z"/>
  <path style="fill:#00B695;" d="M61.6,27.9h2.1v12h-2.1V27.9z"/>
  <path style="fill:#00B695;" d="M67.9,40c-0.5,0-0.9-0.1-1.3-0.4c-0.4-0.2-0.7-0.6-1-1.1c-0.3-0.5-0.5-1.1-0.6-1.8
    c-0.2-0.7-0.2-1.6-0.2-2.6v-0.6c0-1,0.1-1.8,0.2-2.6c0.2-0.7,0.4-1.3,0.6-1.8c0.3-0.5,0.6-0.8,1-1.1c0.4-0.2,0.8-0.4,1.3-0.4
    s0.9,0.1,1.3,0.4c0.4,0.2,0.7,0.6,1,1.1c0.3,0.5,0.5,1.1,0.6,1.8c0.2,0.7,0.2,1.6,0.2,2.6v0.6c0,1-0.1,1.9-0.2,2.6
    c-0.2,0.7-0.4,1.3-0.6,1.8c-0.3,0.5-0.6,0.8-1,1.1C68.9,39.9,68.4,40,67.9,40z M67.9,38.1c0.2,0,0.3-0.1,0.4-0.2
    c0.1-0.1,0.2-0.3,0.3-0.6c0.1-0.3,0.2-0.7,0.2-1.2c0.1-0.5,0.1-1.1,0.1-1.9v-0.6c0-0.8,0-1.4-0.1-1.9c-0.1-0.5-0.1-0.9-0.2-1.2
    s-0.2-0.5-0.3-0.6c-0.1-0.1-0.3-0.2-0.4-0.2s-0.3,0.1-0.4,0.2s-0.2,0.3-0.3,0.6c-0.1,0.3-0.2,0.6-0.2,1.1c-0.1,0.5-0.1,1.1-0.1,1.9
    v0.6c0,0.8,0,1.4,0.1,1.9s0.1,0.9,0.2,1.2c0.1,0.3,0.2,0.5,0.3,0.6C67.6,38,67.8,38.1,67.9,38.1z"/>
  <path style="fill:#00B695;" d="M72.1,27.9h2l2.1,6v-6h2v12h-1.9l-2.2-6.3v6.3h-2V27.9z"/>
</g>
<g id="text-security-process">
	<g>
		<path style="fill:#231F20;" d="M35.4,88.3c-0.4,0-0.8,0-1.1-0.1c-0.4-0.1-0.7-0.2-1-0.4v-2.2c0.4,0.2,0.7,0.4,1,0.5
			c0.3,0.1,0.6,0.2,0.9,0.2c0.3,0,0.6-0.1,0.8-0.2c0.2-0.2,0.3-0.4,0.3-0.8l0,0c0-0.1,0-0.3,0-0.4s-0.1-0.3-0.2-0.4
			c-0.1-0.2-0.2-0.3-0.4-0.5c-0.1-0.2-0.3-0.4-0.6-0.7c-0.4-0.4-0.7-0.8-0.9-1.1c-0.3-0.3-0.5-0.6-0.6-0.9c-0.1-0.3-0.3-0.6-0.4-0.9
			c-0.1-0.3-0.1-0.6-0.1-1l0,0c0-0.5,0.1-0.9,0.2-1.3c0.1-0.4,0.3-0.7,0.6-1c0.3-0.3,0.6-0.5,0.9-0.6c0.4-0.1,0.7-0.2,1.2-0.2
			c0.4,0,0.8,0,1,0.1s0.5,0.2,0.8,0.3v2.2c-0.3-0.2-0.6-0.3-0.8-0.4s-0.5-0.1-0.8-0.1c-0.3,0-0.5,0.1-0.8,0.3
			c-0.2,0.2-0.3,0.4-0.3,0.8l0,0c0,0.1,0,0.3,0,0.4s0.1,0.2,0.2,0.4c0.1,0.1,0.2,0.3,0.4,0.5c0.1,0.2,0.3,0.4,0.6,0.7
			c0.4,0.5,0.7,0.9,1,1.2c0.3,0.3,0.5,0.7,0.6,1c0.1,0.3,0.2,0.6,0.3,0.9c0.1,0.3,0.1,0.6,0.1,0.9l0,0c0,0.5-0.1,0.9-0.2,1.3
			c-0.2,0.4-0.4,0.7-0.6,1c-0.3,0.3-0.6,0.5-0.9,0.6C36.2,88.2,35.8,88.3,35.4,88.3z"/>
		<path style="fill:#231F20;" d="M39.1,76.2h4.6v2h-2.5v3h2.2v2h-2.2v3h2.5v2h-4.6V76.2z"/>
		<path style="fill:#231F20;" d="M47.7,88.3c-0.5,0-0.9-0.1-1.3-0.3s-0.8-0.6-1.1-1c-0.3-0.4-0.5-1.1-0.7-1.8
			c-0.2-0.7-0.3-1.6-0.3-2.7V82c0-1,0.1-1.9,0.3-2.7c0.2-0.7,0.4-1.4,0.8-1.8c0.3-0.5,0.7-0.8,1.1-1s0.9-0.3,1.4-0.3
			c0.3,0,0.5,0,0.7,0.1c0.2,0,0.4,0.1,0.6,0.2v2.2c-0.2-0.1-0.4-0.2-0.6-0.3c-0.2-0.1-0.4-0.1-0.6-0.1s-0.4,0.1-0.6,0.2
			c-0.2,0.1-0.4,0.3-0.5,0.6c-0.1,0.3-0.3,0.7-0.3,1.2c-0.1,0.5-0.1,1.1-0.1,1.9v0.4c0,0.8,0,1.4,0.1,1.9s0.2,0.9,0.3,1.2
			c0.1,0.3,0.3,0.5,0.5,0.6c0.2,0.1,0.4,0.2,0.7,0.2c0.4,0,0.7-0.1,1.2-0.4v2c-0.2,0.1-0.5,0.2-0.7,0.3C48.3,88.3,48,88.3,47.7,88.3
			z"/>
		<path style="fill:#231F20;" d="M53.2,88.4c-0.4,0-0.8-0.1-1.2-0.2c-0.4-0.1-0.7-0.4-0.9-0.7c-0.2-0.3-0.5-0.7-0.6-1.1
			c-0.1-0.5-0.2-1-0.2-1.6v-8.5h2.1V85c0,0.5,0.1,0.9,0.3,1.2c0.2,0.2,0.4,0.3,0.6,0.3c0.2,0,0.5-0.1,0.6-0.3
			c0.2-0.2,0.3-0.6,0.3-1.2v-8.7h2.1v8.5c0,0.6-0.1,1.2-0.2,1.6c-0.1,0.5-0.4,0.8-0.6,1.1s-0.6,0.5-0.9,0.7
			C54.1,88.3,53.7,88.4,53.2,88.4z"/>
		<path style="fill:#231F20;" d="M57.4,76.2h2.2c0.5,0,1,0.1,1.5,0.2c0.4,0.1,0.8,0.4,1.2,0.7c0.3,0.3,0.6,0.7,0.8,1.2
			c0.2,0.5,0.3,1.1,0.3,1.7v0.2c0,0.8-0.1,1.4-0.4,1.9s-0.6,0.9-1,1.2l1.6,4.9h-2.2L59.9,84l0,0h-0.4v4.2h-2.1V76.2z M59.6,82.2
			c0.5,0,0.8-0.1,1.1-0.4c0.3-0.3,0.4-0.8,0.4-1.5v-0.1c0-0.4,0-0.7-0.1-0.9c-0.1-0.2-0.2-0.4-0.3-0.6c-0.1-0.1-0.3-0.2-0.5-0.3
			c-0.2-0.1-0.4-0.1-0.6-0.1h-0.1v4L59.6,82.2L59.6,82.2z"/>
		<path style="fill:#231F20;" d="M64.2,76.2h2.1v12h-2.1V76.2z"/>
		<path style="fill:#231F20;" d="M68.7,78.2h-1.5v-2h5v2h-1.5v10h-2.1v-10H68.7z"/>
		<path style="fill:#231F20;" d="M74.5,83.5l-2.2-7.2h2.2l1.1,4.5l1.1-4.5h2.1l-2.2,7.2v4.7h-2.1V83.5z"/>
		<path style="fill:#231F20;" d="M36.4,91.4h1.9c0.6,0,1.1,0.1,1.6,0.2c0.5,0.2,0.9,0.4,1.2,0.7c0.3,0.3,0.6,0.7,0.8,1.2
			c0.2,0.5,0.3,1.1,0.3,1.8l0,0c0,0.7-0.1,1.3-0.3,1.8c-0.2,0.5-0.4,0.9-0.8,1.3c-0.3,0.3-0.7,0.6-1.1,0.8c-0.4,0.2-0.9,0.3-1.5,0.3
			l0,0v3.8h-2.1V91.4L36.4,91.4z M38.5,97.7c0.4,0,0.8-0.2,1.1-0.5c0.3-0.3,0.4-0.9,0.4-1.6l0,0c0-0.8-0.1-1.3-0.4-1.7
			c-0.3-0.3-0.6-0.5-1.1-0.5h-0.1L38.5,97.7L38.5,97.7z"/>
		<path style="fill:#231F20;" d="M43,91.4h2.2c0.5,0,1,0.1,1.5,0.2c0.4,0.1,0.8,0.4,1.2,0.7c0.3,0.3,0.6,0.7,0.8,1.2
			c0.2,0.5,0.3,1.1,0.3,1.7v0.2c0,0.8-0.1,1.4-0.4,1.9c-0.3,0.5-0.6,0.9-1,1.2l1.6,4.9H47l-1.3-4.2l0,0h-0.4v4.2H43V91.4z
			 M45.2,97.3c0.5,0,0.8-0.1,1.1-0.4c0.3-0.3,0.4-0.8,0.4-1.5v-0.1c0-0.4,0-0.7-0.1-0.9c-0.1-0.2-0.2-0.4-0.3-0.6
			c-0.1-0.1-0.3-0.2-0.5-0.3c-0.2-0.1-0.4-0.1-0.6-0.1h-0.1v4h0.1V97.3z"/>
		<path style="fill:#231F20;" d="M52.8,103.6c-0.5,0-0.9-0.1-1.3-0.4c-0.4-0.2-0.7-0.6-1-1.1s-0.5-1.1-0.6-1.8
			c-0.2-0.7-0.2-1.6-0.2-2.6v-0.6c0-1,0.1-1.8,0.2-2.6c0.2-0.7,0.4-1.3,0.6-1.8c0.3-0.5,0.6-0.8,1-1.1c0.4-0.2,0.8-0.4,1.3-0.4
			s0.9,0.1,1.3,0.4c0.4,0.2,0.7,0.6,1,1.1c0.3,0.5,0.5,1.1,0.6,1.8c0.2,0.7,0.2,1.6,0.2,2.6v0.6c0,1-0.1,1.9-0.2,2.6
			c-0.2,0.7-0.4,1.3-0.6,1.8c-0.3,0.5-0.6,0.8-1,1.1C53.7,103.4,53.3,103.6,52.8,103.6z M52.8,101.6c0.2,0,0.3-0.1,0.4-0.2
			c0.1-0.1,0.2-0.3,0.3-0.6c0.1-0.3,0.2-0.7,0.2-1.2c0.1-0.5,0.1-1.1,0.1-1.9v-0.6c0-0.8,0-1.4-0.1-1.9c-0.1-0.5-0.1-0.9-0.2-1.2
			s-0.2-0.5-0.3-0.6c-0.1-0.1-0.3-0.2-0.4-0.2c-0.1,0-0.3,0.1-0.4,0.2S52.1,93.7,52,94s-0.2,0.7-0.2,1.2c-0.1,0.5-0.1,1.1-0.1,1.9
			v0.6c0,0.8,0,1.4,0.1,1.9c0.1,0.5,0.1,0.9,0.2,1.2c0.1,0.3,0.2,0.5,0.3,0.6C52.5,101.6,52.6,101.6,52.8,101.6z"/>
		<path style="fill:#231F20;" d="M60.1,103.5c-0.5,0-0.9-0.1-1.3-0.3c-0.4-0.2-0.8-0.6-1.1-1c-0.3-0.4-0.5-1.1-0.7-1.8
			c-0.2-0.7-0.3-1.6-0.3-2.7v-0.4c0-1,0.1-1.9,0.3-2.7c0.2-0.7,0.4-1.4,0.8-1.8c0.3-0.5,0.7-0.8,1.1-1c0.4-0.2,0.9-0.3,1.4-0.3
			c0.3,0,0.5,0,0.7,0.1c0.2,0,0.4,0.1,0.6,0.2V94c-0.2-0.1-0.4-0.2-0.6-0.3c-0.2-0.1-0.4-0.1-0.6-0.1c-0.2,0-0.4,0.1-0.6,0.2
			c-0.2,0.1-0.4,0.3-0.5,0.6c-0.1,0.3-0.3,0.7-0.3,1.2c-0.1,0.5-0.1,1.1-0.1,1.9v0.4c0,0.8,0,1.4,0.1,1.9s0.2,0.9,0.3,1.2
			c0.1,0.3,0.3,0.5,0.5,0.6c0.2,0.1,0.4,0.2,0.7,0.2c0.4,0,0.7-0.1,1.2-0.4v2c-0.2,0.1-0.5,0.2-0.7,0.3
			C60.7,103.4,60.4,103.5,60.1,103.5z"/>
		<path style="fill:#231F20;" d="M62.7,91.4h4.6v2h-2.5v3H67v2h-2.2v3h2.5v2h-4.6V91.4z"/>
		<path style="fill:#231F20;" d="M70.2,103.5c-0.4,0-0.8,0-1.1-0.1c-0.4-0.1-0.7-0.2-1-0.4v-2.2c0.4,0.2,0.7,0.4,1,0.5
			c0.3,0.1,0.6,0.2,0.9,0.2s0.6-0.1,0.8-0.2c0.2-0.2,0.3-0.4,0.3-0.8l0,0c0-0.1,0-0.3,0-0.4s-0.1-0.3-0.2-0.4
			c-0.1-0.2-0.2-0.3-0.4-0.5c-0.1-0.2-0.3-0.4-0.6-0.7c-0.4-0.4-0.7-0.8-0.9-1.1c-0.3-0.3-0.5-0.6-0.6-0.9s-0.3-0.6-0.4-0.9
			c-0.1-0.3-0.1-0.6-0.1-1l0,0c0-0.5,0.1-0.9,0.2-1.3c0.1-0.4,0.3-0.7,0.6-1c0.3-0.3,0.6-0.5,0.9-0.6c0.4-0.1,0.7-0.2,1.2-0.2
			c0.4,0,0.8,0,1,0.1c0.2,0.1,0.5,0.2,0.8,0.3v2.2c-0.3-0.2-0.6-0.3-0.8-0.4c-0.2-0.1-0.5-0.1-0.8-0.1s-0.5,0.1-0.8,0.3
			C70.1,93.8,70,94,70,94.4l0,0c0,0.1,0,0.3,0,0.4c0,0.1,0.1,0.2,0.2,0.4c0.1,0.1,0.2,0.3,0.4,0.5c0.1,0.2,0.3,0.4,0.6,0.7
			c0.4,0.5,0.7,0.9,1,1.2c0.3,0.3,0.5,0.7,0.6,1c0.1,0.3,0.2,0.6,0.3,0.9s0.1,0.6,0.1,0.9l0,0c0,0.5-0.1,0.9-0.2,1.3
			c-0.2,0.4-0.4,0.7-0.6,1c-0.3,0.3-0.6,0.5-0.9,0.6C71,103.4,70.6,103.5,70.2,103.5z"/>
		<path style="fill:#231F20;" d="M75.8,103.5c-0.4,0-0.8,0-1.1-0.1c-0.4-0.1-0.7-0.2-1-0.4v-2.2c0.4,0.2,0.7,0.4,1,0.5
			c0.3,0.1,0.6,0.2,0.9,0.2c0.3,0,0.6-0.1,0.8-0.2c0.2-0.2,0.3-0.4,0.3-0.8l0,0c0-0.1,0-0.3,0-0.4s-0.1-0.3-0.2-0.4
			c-0.1-0.2-0.2-0.3-0.4-0.5c-0.1-0.2-0.3-0.4-0.6-0.7c-0.4-0.4-0.7-0.8-0.9-1.1c-0.3-0.3-0.5-0.6-0.6-0.9s-0.3-0.6-0.4-0.9
			c-0.1-0.3-0.1-0.6-0.1-1l0,0c0-0.5,0.1-0.9,0.2-1.3c0.1-0.4,0.3-0.7,0.6-1c0.3-0.3,0.6-0.5,0.9-0.6c0.4-0.1,0.7-0.2,1.2-0.2
			c0.4,0,0.8,0,1,0.1c0.2,0.1,0.5,0.2,0.8,0.3v2.2c-0.3-0.2-0.6-0.3-0.8-0.4c-0.2-0.1-0.5-0.1-0.8-0.1c-0.3,0-0.5,0.1-0.8,0.3
			c-0.2,0.2-0.3,0.4-0.3,0.8l0,0c0,0.1,0,0.3,0,0.4s0.1,0.2,0.2,0.4c0.1,0.1,0.2,0.3,0.4,0.5c0.1,0.2,0.3,0.4,0.6,0.7
			c0.4,0.5,0.7,0.9,1,1.2c0.3,0.3,0.5,0.7,0.6,1c0.1,0.3,0.2,0.6,0.3,0.9c0.1,0.3,0.1,0.6,0.1,0.9l0,0c0,0.5-0.1,0.9-0.2,1.3
			c-0.2,0.4-0.4,0.7-0.6,1c-0.3,0.3-0.6,0.5-0.9,0.6C76.6,103.4,76.2,103.5,75.8,103.5z"/>
	</g>
</g>
<g id="text-red">
  <g>
    <g>
      <path style="fill:#EE2228;" d="M15.6,142.8h-1.5v-2h5v2h-1.5v10h-2.1v-10H15.6z"/>
      <path style="fill:#EE2228;" d="M20,140.8h2.2c0.5,0,1,0.1,1.5,0.2c0.4,0.1,0.8,0.4,1.2,0.7c0.3,0.3,0.6,0.7,0.8,1.2
        c0.2,0.5,0.3,1.1,0.3,1.7v0.2c0,0.8-0.1,1.4-0.4,1.9c-0.3,0.5-0.6,0.9-1,1.2l1.6,4.9H24l-1.3-4.2l0,0h-0.4v4.2H20V140.8z
         M22.2,146.7c0.5,0,0.8-0.1,1.1-0.4c0.3-0.3,0.4-0.8,0.4-1.5v-0.1c0-0.4,0-0.7-0.1-0.9c-0.1-0.2-0.2-0.4-0.3-0.6
        c-0.1-0.1-0.3-0.2-0.5-0.3c-0.2-0.1-0.4-0.1-0.6-0.1h-0.1v4L22.2,146.7L22.2,146.7z"/>
      <path style="fill:#EE2228;" d="M28.5,140.7h2.2l2.3,12h-2.1l-0.4-2.4h-1.9l-0.4,2.4h-2L28.5,140.7z M30.2,148.5l-0.6-3.9
        l-0.6,3.9H30.2z"/>
      <path style="fill:#EE2228;" d="M33.6,140.8h1.9c1.3,0,2.4,0.5,3.1,1.4c0.7,1,1.1,2.4,1.1,4.3v0.4c0,1.9-0.4,3.4-1.1,4.3
        c-0.7,1-1.8,1.4-3.1,1.4h-1.9V140.8z M35.8,150.8c0.2,0,0.5-0.1,0.7-0.2s0.4-0.3,0.6-0.6c0.2-0.3,0.3-0.7,0.4-1.2
        s0.1-1.1,0.1-1.9v-0.4c0-0.8,0-1.4-0.1-1.9s-0.2-0.9-0.4-1.2c-0.2-0.3-0.4-0.5-0.6-0.6s-0.5-0.2-0.7-0.2h-0.1L35.8,150.8
        L35.8,150.8z"/>
      <path style="fill:#EE2228;" d="M40.8,140.8h2.1v12h-2.1V140.8z"/>
      <path style="fill:#EE2228;" d="M45.2,142.8h-1.5v-2h5v2h-1.5v10h-2.1v-10H45.2z"/>
      <path style="fill:#EE2228;" d="M49.7,140.8h2.1v12h-2.1V140.8z"/>
      <path style="fill:#EE2228;" d="M56,152.9c-0.5,0-0.9-0.1-1.3-0.4c-0.4-0.2-0.7-0.6-1-1.1c-0.3-0.5-0.5-1.1-0.6-1.8
        c-0.2-0.7-0.2-1.6-0.2-2.6v-0.6c0-1,0.1-1.8,0.2-2.6c0.2-0.7,0.4-1.3,0.6-1.8c0.3-0.5,0.6-0.8,1-1.1c0.4-0.2,0.8-0.4,1.3-0.4
        s0.9,0.1,1.3,0.4c0.4,0.2,0.7,0.6,1,1.1c0.3,0.5,0.5,1.1,0.6,1.8c0.2,0.7,0.2,1.6,0.2,2.6v0.6c0,1-0.1,1.9-0.2,2.6
        c-0.2,0.7-0.4,1.3-0.6,1.8c-0.3,0.5-0.6,0.8-1,1.1C56.9,152.8,56.5,152.9,56,152.9z M56,151c0.2,0,0.3-0.1,0.4-0.2
        s0.2-0.3,0.3-0.6c0.1-0.3,0.2-0.7,0.2-1.2c0.1-0.5,0.1-1.1,0.1-1.9v-0.6c0-0.8,0-1.4-0.1-1.9s-0.1-0.9-0.2-1.2
        c-0.1-0.3-0.2-0.5-0.3-0.6s-0.3-0.2-0.4-0.2s-0.3,0.1-0.4,0.2s-0.2,0.3-0.3,0.6c-0.1,0.3-0.2,0.7-0.2,1.2
        c-0.1,0.5-0.1,1.1-0.1,1.9v0.6c0,0.8,0,1.4,0.1,1.9s0.1,0.9,0.2,1.2c0.1,0.3,0.2,0.5,0.3,0.6S55.9,151,56,151z"/>
      <path style="fill:#EE2228;" d="M60.2,140.8h2l2.1,6v-6h2v12h-1.9l-2.2-6.3v6.3h-2V140.8z"/>
      <path style="fill:#EE2228;" d="M69.2,140.7h2.2l2.3,12h-2.1l-0.4-2.4h-1.9l-0.4,2.4h-2L69.2,140.7z M70.9,148.5l-0.6-3.9
        l-0.6,3.9H70.9z"/>
      <path style="fill:#EE2228;" d="M74.3,140.8h2.1v10h2.2v2h-4.3V140.8z"/>
      <path style="fill:#EE2228;" d="M5.7,156h4.6v2H7.8v3H10v2H7.8v3h2.5v2H5.7V156z"/>
      <path style="fill:#EE2228;" d="M11.3,156h1.9c1.3,0,2.4,0.5,3.1,1.4c0.7,1,1.1,2.4,1.1,4.3v0.4c0,1.9-0.4,3.4-1.1,4.3
        c-0.7,1-1.8,1.4-3.1,1.4h-1.9V156z M13.5,166c0.2,0,0.5-0.1,0.7-0.2c0.2-0.1,0.4-0.3,0.6-0.6c0.2-0.3,0.3-0.7,0.4-1.2
        c0.1-0.5,0.1-1.1,0.1-1.9v-0.4c0-0.8,0-1.4-0.1-1.9c-0.1-0.5-0.2-0.9-0.4-1.2c-0.2-0.3-0.4-0.5-0.6-0.6c-0.2-0.1-0.5-0.2-0.7-0.2
        h-0.1L13.5,166L13.5,166z"/>
      <path style="fill:#EE2228;" d="M18.5,156h2.2c0.5,0,1,0.1,1.5,0.2c0.4,0.1,0.8,0.4,1.2,0.7c0.3,0.3,0.6,0.7,0.8,1.2
        c0.2,0.5,0.3,1.1,0.3,1.7v0.2c0,0.8-0.1,1.4-0.4,1.9c-0.3,0.5-0.6,0.9-1,1.2l1.6,4.9h-2.2l-1.3-4.2l0,0h-0.4v4.2h-2.1v-12H18.5z
         M20.7,161.9c0.5,0,0.8-0.1,1.1-0.4c0.3-0.3,0.4-0.8,0.4-1.5v-0.1c0-0.4,0-0.7-0.1-0.9c-0.1-0.2-0.2-0.4-0.3-0.6
        c-0.1-0.1-0.3-0.2-0.5-0.3c-0.2-0.1-0.4-0.1-0.6-0.1h-0.1v4L20.7,161.9L20.7,161.9z"/>
      <path style="fill:#EE2228;" d="M28,156h1.9c0.6,0,1.1,0.1,1.6,0.2c0.5,0.2,0.9,0.4,1.2,0.7c0.3,0.3,0.6,0.7,0.8,1.2
        s0.3,1.1,0.3,1.8l0,0c0,0.7-0.1,1.3-0.3,1.8s-0.4,0.9-0.8,1.3c-0.3,0.3-0.7,0.6-1.1,0.8c-0.4,0.2-0.9,0.3-1.5,0.3l0,0v3.8H28V156
        z M30.1,162.2c0.4,0,0.8-0.2,1.1-0.5c0.3-0.3,0.4-0.9,0.4-1.6l0,0c0-0.8-0.1-1.3-0.4-1.7c-0.3-0.3-0.6-0.5-1.1-0.5H30L30.1,162.2
        L30.1,162.2z"/>
      <path style="fill:#EE2228;" d="M34.6,156h4.6v2h-2.5v3h2.2v2h-2.2v3h2.5v2h-4.6V156z"/>
      <path style="fill:#EE2228;" d="M40.2,156h2.2c0.5,0,1,0.1,1.5,0.2c0.4,0.1,0.8,0.4,1.2,0.7c0.3,0.3,0.6,0.7,0.8,1.2
        c0.2,0.5,0.3,1.1,0.3,1.7v0.2c0,0.8-0.1,1.4-0.4,1.9c-0.3,0.5-0.6,0.9-1,1.2l1.6,4.9h-2.2l-1.3-4.2l0,0h-0.4v4.2h-2.1v-12H40.2z
         M42.4,161.9c0.5,0,0.8-0.1,1.1-0.4c0.3-0.3,0.4-0.8,0.4-1.5v-0.1c0-0.4,0-0.7-0.1-0.9c-0.1-0.2-0.2-0.4-0.3-0.6
        c-0.1-0.1-0.3-0.2-0.5-0.3s-0.4-0.1-0.6-0.1h-0.1v4L42.4,161.9L42.4,161.9z"/>
      <path style="fill:#EE2228;" d="M51.4,155.9h2.2l2.3,12h-2.1l-0.4-2.4h-1.9l-0.4,2.4h-2L51.4,155.9z M53.1,163.7l-0.6-3.9
        l-0.6,3.9H53.1z"/>
      <path style="fill:#EE2228;" d="M56.5,156h2.1v10h2.2v2h-4.3V156z"/>
      <path style="fill:#EE2228;" d="M61.7,156h4.6v2h-2.5v3H66v2h-2.2v3h2.5v2h-4.6V156L61.7,156z"/>
      <path style="fill:#EE2228;" d="M67.3,156h2.2c0.5,0,1,0.1,1.5,0.2c0.4,0.1,0.8,0.4,1.2,0.7c0.3,0.3,0.6,0.7,0.8,1.2
        s0.3,1.1,0.3,1.7v0.2c0,0.8-0.1,1.4-0.4,1.9c-0.3,0.5-0.6,0.9-1,1.2l1.6,4.9h-2.2l-1.3-4.2l0,0h-0.4v4.2h-2.1v-12H67.3z
         M69.5,161.9c0.5,0,0.8-0.1,1.1-0.4c0.3-0.3,0.4-0.8,0.4-1.5v-0.1c0-0.4,0-0.7-0.1-0.9c-0.1-0.2-0.2-0.4-0.3-0.6
        c-0.1-0.1-0.3-0.2-0.5-0.3c-0.2-0.1-0.4-0.1-0.6-0.1h-0.1v4L69.5,161.9L69.5,161.9z"/>
      <path style="fill:#EE2228;" d="M75,157.9h-1.5v-2h5v2H77v10h-2V157.9z"/>
    </g>
  </g>
  <g>
    <g>
      <path style="fill:#EE2228;" d="M47.5,217.3c-0.4,0-0.8,0-1.1-0.1c-0.4-0.1-0.7-0.2-1-0.4v-2.2c0.4,0.2,0.7,0.4,1,0.5
        c0.3,0.1,0.6,0.2,0.9,0.2c0.3,0,0.6-0.1,0.8-0.2c0.2-0.2,0.3-0.4,0.3-0.8l0,0c0-0.1,0-0.3,0-0.4s-0.1-0.3-0.2-0.4
        c-0.1-0.2-0.2-0.3-0.4-0.5c-0.1-0.2-0.3-0.4-0.6-0.7c-0.4-0.4-0.7-0.8-0.9-1.1c-0.3-0.3-0.5-0.6-0.6-0.9
        c-0.1-0.3-0.3-0.6-0.4-0.9c-0.1-0.3-0.1-0.6-0.1-1l0,0c0-0.5,0.1-0.9,0.2-1.3s0.3-0.7,0.6-1s0.6-0.5,0.9-0.6
        c0.4-0.1,0.7-0.2,1.2-0.2c0.4,0,0.8,0,1,0.1c0.2,0.1,0.5,0.2,0.8,0.3v2.2c-0.3-0.2-0.6-0.3-0.8-0.4c-0.2-0.1-0.5-0.1-0.8-0.1
        c-0.3,0-0.5,0.1-0.8,0.3c-0.2,0.2-0.3,0.4-0.3,0.8l0,0c0,0.1,0,0.3,0,0.4s0.1,0.2,0.2,0.4c0.1,0.1,0.2,0.3,0.4,0.5
        c0.1,0.2,0.3,0.4,0.6,0.7c0.4,0.5,0.7,0.9,1,1.2c0.3,0.3,0.5,0.7,0.6,1c0.1,0.3,0.2,0.6,0.3,0.9c0.1,0.3,0.1,0.6,0.1,0.9l0,0
        c0,0.5-0.1,0.9-0.2,1.3c-0.2,0.4-0.4,0.7-0.6,1c-0.3,0.3-0.6,0.5-0.9,0.6C48.3,217.3,47.9,217.3,47.5,217.3z"/>
      <path style="fill:#EE2228;" d="M54.1,217.4c-0.5,0-0.9-0.1-1.3-0.4c-0.4-0.2-0.7-0.6-1-1.1c-0.3-0.5-0.5-1.1-0.6-1.8
        c-0.2-0.7-0.2-1.6-0.2-2.6V211c0-1,0.1-1.8,0.2-2.6c0.2-0.7,0.4-1.3,0.6-1.8c0.3-0.5,0.6-0.8,1-1.1c0.4-0.2,0.8-0.4,1.3-0.4
        s0.9,0.1,1.3,0.4c0.4,0.2,0.7,0.6,1,1.1c0.3,0.5,0.5,1.1,0.6,1.8c0.2,0.7,0.2,1.6,0.2,2.6v0.6c0,1-0.1,1.9-0.2,2.6
        c-0.2,0.7-0.4,1.3-0.6,1.8c-0.3,0.5-0.6,0.8-1,1.1C55,217.3,54.6,217.4,54.1,217.4z M54.1,215.5c0.2,0,0.3-0.1,0.4-0.2
        s0.2-0.3,0.3-0.6c0.1-0.3,0.2-0.7,0.2-1.2c0.1-0.5,0.1-1.1,0.1-1.9V211c0-0.8,0-1.4-0.1-1.9s-0.1-0.9-0.2-1.2
        c-0.1-0.3-0.2-0.5-0.3-0.6s-0.3-0.2-0.4-0.2s-0.3,0.1-0.4,0.2c-0.1,0.1-0.2,0.3-0.3,0.6c-0.1,0.3-0.2,0.7-0.2,1.2
        c-0.1,0.5-0.1,1.1-0.1,1.9v0.6c0,0.8,0,1.4,0.1,1.9c0.1,0.5,0.1,0.9,0.2,1.2c0.1,0.3,0.2,0.5,0.3,0.6
        C53.8,215.4,53.9,215.5,54.1,215.5z"/>
      <path style="fill:#EE2228;" d="M61.4,217.3c-0.5,0-0.9-0.1-1.3-0.3c-0.4-0.2-0.8-0.6-1.1-1c-0.3-0.4-0.5-1.1-0.7-1.8
        c-0.2-0.7-0.3-1.6-0.3-2.7v-0.4c0-1,0.1-1.9,0.3-2.7c0.2-0.7,0.4-1.4,0.8-1.8c0.3-0.5,0.7-0.8,1.1-1c0.4-0.2,0.9-0.3,1.4-0.3
        c0.3,0,0.5,0,0.7,0.1c0.2,0,0.4,0.1,0.6,0.2v2.2c-0.2-0.1-0.4-0.2-0.6-0.3c-0.2-0.1-0.4-0.1-0.6-0.1c-0.2,0-0.4,0.1-0.6,0.2
        c-0.2,0.1-0.4,0.3-0.5,0.6c-0.1,0.3-0.3,0.7-0.3,1.2s-0.1,1.1-0.1,1.9v0.4c0,0.8,0,1.4,0.1,1.9c0.1,0.5,0.2,0.9,0.3,1.2
        c0.1,0.3,0.3,0.5,0.5,0.6c0.2,0.1,0.4,0.2,0.7,0.2c0.4,0,0.7-0.1,1.2-0.4v2.1c-0.2,0.1-0.5,0.2-0.7,0.3
        C62.1,217.7,61.7,217.3,61.4,217.3z"/>
      <path style="fill:#EE2228;" d="M67,204.1h1.7L65,218.9h-1.7L67,204.1z"/>
      <path style="fill:#EE2228;" d="M69.3,205.3h2.1v12h-2.1V205.3z"/>
      <path style="fill:#EE2228;" d="M72.7,205.3h2.2c0.5,0,1,0.1,1.5,0.2c0.4,0.1,0.8,0.4,1.2,0.7c0.3,0.3,0.6,0.7,0.8,1.2
        c0.2,0.5,0.3,1.1,0.3,1.7v0.2c0,0.8-0.1,1.4-0.4,1.9c-0.3,0.5-0.6,0.9-1,1.2l1.6,4.9h-2.2l-1.3-4.2l0,0H75v4.2h-2.1v-12H72.7z
         M74.8,211.2c0.5,0,0.8-0.1,1.1-0.4c0.3-0.3,0.4-0.8,0.4-1.5v-0.1c0-0.4,0-0.7-0.1-0.9c-0.1-0.2-0.2-0.4-0.3-0.6
        c-0.1-0.1-0.3-0.2-0.5-0.3c-0.2-0.1-0.4-0.1-0.6-0.1h-0.1L74.8,211.2L74.8,211.2L74.8,211.2z"/>
      <path style="fill:#EE2228;" d="M0,220.5h2.1l1.5,4.4l1.5-4.4h2.1v12h-2v-7.2l-1.5,4.5l0,0L2,225.2v7.2H0V220.5z"/>
      <path style="fill:#EE2228;" d="M10,220.5h2.2l2.3,12h-2.1l-0.4-2.4h-1.9l-0.4,2.4h-2L10,220.5z M11.7,228.2l-0.6-3.9l-0.6,3.9
        H11.7z"/>
      <path style="fill:#EE2228;" d="M15.1,220.5h2l2.1,6v-6h2v12h-1.9l-2.2-6.3v6.3h-2V220.5z"/>
      <path style="fill:#EE2228;" d="M25.3,232.6c-0.4,0-0.8-0.1-1.2-0.2s-0.7-0.4-0.9-0.7c-0.3-0.3-0.5-0.7-0.6-1.1
        c-0.1-0.5-0.2-1-0.2-1.6v-8.5h2.1v8.7c0,0.5,0.1,0.9,0.3,1.2c0.2,0.2,0.4,0.3,0.6,0.3c0.2,0,0.5-0.1,0.6-0.3
        c0.2-0.2,0.3-0.6,0.3-1.2v-8.7h2.1v8.5c0,0.6-0.1,1.2-0.2,1.6c-0.1,0.5-0.4,0.8-0.6,1.1c-0.3,0.3-0.6,0.5-0.9,0.7
        C26.2,232.5,25.8,232.6,25.3,232.6z"/>
      <path style="fill:#EE2228;" d="M31.1,220.5h2.2l2.3,12h-2.1l-0.4-2.4h-1.9l-0.4,2.4h-2L31.1,220.5z M32.8,228.2l-0.6-3.9
        l-0.6,3.9H32.8z"/>
      <path style="fill:#EE2228;" d="M36.2,220.5h2.1v10h2.2v2h-4.3V220.5z"/>
      <path style="fill:#EE2228;" d="M44.1,220.5h4.6v2h-2.5v3h2.2v2h-2.2v3h2.5v2h-4.6V220.5z"/>
      <path style="fill:#EE2228;" d="M49.7,220.5h4.4v2h-2.3v3h2v2h-2v5h-2.1V220.5L49.7,220.5z"/>
      <path style="fill:#EE2228;" d="M55,220.5h4.4v2h-2.3v3h2v2h-2v5H55V220.5z"/>
      <path style="fill:#EE2228;" d="M63.1,232.6c-0.5,0-0.9-0.1-1.3-0.4c-0.4-0.2-0.7-0.6-1-1.1c-0.3-0.5-0.5-1.1-0.6-1.8
        c-0.2-0.7-0.2-1.6-0.2-2.6v-0.6c0-1,0.1-1.8,0.2-2.6c0.2-0.7,0.4-1.3,0.6-1.8c0.3-0.5,0.6-0.8,1-1.1c0.4-0.2,0.8-0.4,1.3-0.4
        s0.9,0.1,1.3,0.4c0.4,0.2,0.7,0.6,1,1.1c0.3,0.5,0.5,1.1,0.6,1.8c0.2,0.7,0.2,1.6,0.2,2.6v0.6c0,1-0.1,1.9-0.2,2.6
        c-0.2,0.7-0.4,1.3-0.6,1.8c-0.3,0.5-0.6,0.8-1,1.1C64,232.5,63.6,232.6,63.1,232.6z M63.1,230.7c0.2,0,0.3-0.1,0.4-0.2
        c0.1-0.1,0.2-0.3,0.3-0.6c0.1-0.3,0.2-0.7,0.2-1.2c0.1-0.5,0.1-1.1,0.1-1.9v-0.6c0-0.8,0-1.4-0.1-1.9s-0.1-0.9-0.2-1.2
        c-0.1-0.3-0.2-0.5-0.3-0.6c-0.1-0.1-0.3-0.2-0.4-0.2s-0.3,0.1-0.4,0.2c-0.1,0.1-0.2,0.3-0.3,0.6s-0.2,0.7-0.2,1.2
        c-0.1,0.5-0.1,1.1-0.1,1.9v0.6c0,0.8,0,1.4,0.1,1.9c0.1,0.5,0.1,0.9,0.2,1.2c0.1,0.3,0.2,0.5,0.3,0.6
        C62.8,230.6,62.9,230.7,63.1,230.7z"/>
      <path style="fill:#EE2228;" d="M67.3,220.5h2.2c0.5,0,1,0.1,1.5,0.2c0.4,0.1,0.8,0.4,1.2,0.7c0.3,0.3,0.6,0.7,0.8,1.2
        s0.3,1.1,0.3,1.7v0.2c0,0.8-0.1,1.4-0.4,1.9c-0.3,0.5-0.6,0.9-1,1.2l1.6,4.9h-2.2l-1.3-4.2l0,0h-0.4v4.2h-2.1v-12H67.3z
         M69.5,226.4c0.5,0,0.8-0.1,1.1-0.4c0.3-0.3,0.4-0.8,0.4-1.5v-0.1c0-0.4,0-0.7-0.1-0.9c-0.1-0.2-0.2-0.4-0.3-0.6
        c-0.1-0.1-0.3-0.2-0.5-0.3c-0.2-0.1-0.4-0.1-0.6-0.1h-0.1v4L69.5,226.4L69.5,226.4z"/>
      <path style="fill:#EE2228;" d="M75,222.5h-1.5v-2h5v2H77v10h-2V222.5z"/>
    </g>
  </g>
</g>
<g id="green-arrow-1">
  <polygon style="fill:#00B695;" points="545.2,0.5 94.9,0.9 94.9,54 545.3,53.6 564.2,26.2   "/>
  <g>
    <g>
      <path style="fill:#FFFFFF;" d="M120.3,35.3c-0.5,0-1-0.1-1.4-0.4c-0.4-0.3-0.8-0.6-1.1-1.2c-0.3-0.5-0.5-1.2-0.7-1.9
        c-0.2-0.8-0.2-1.7-0.2-2.8v-0.7c0-1.1,0.1-2,0.2-2.8c0.2-0.8,0.4-1.4,0.7-1.9c0.3-0.5,0.7-0.9,1.1-1.2c0.4-0.3,0.9-0.4,1.4-0.4
        s1,0.1,1.4,0.4c0.4,0.3,0.8,0.6,1.1,1.2c0.3,0.5,0.5,1.2,0.7,1.9c0.2,0.8,0.2,1.7,0.2,2.8V29c0,1.1-0.1,2-0.2,2.8
        c-0.2,0.8-0.4,1.4-0.7,1.9c-0.3,0.5-0.7,0.9-1.1,1.2C121.3,35.2,120.8,35.3,120.3,35.3z M120.3,33.3c0.2,0,0.3-0.1,0.5-0.2
        c0.1-0.1,0.3-0.4,0.4-0.7c0.1-0.3,0.2-0.8,0.2-1.3c0.1-0.5,0.1-1.2,0.1-2v-0.7c0-0.8,0-1.5-0.1-2s-0.1-1-0.2-1.3
        c-0.1-0.3-0.2-0.5-0.4-0.7c-0.1-0.1-0.3-0.2-0.5-0.2c-0.2,0-0.3,0.1-0.5,0.2c-0.1,0.1-0.3,0.4-0.4,0.7c-0.1,0.3-0.2,0.8-0.2,1.3
        c-0.1,0.5-0.1,1.2-0.1,2v0.7c0,0.8,0,1.5,0.1,2c0.1,0.5,0.1,1,0.2,1.3c0.1,0.3,0.2,0.5,0.4,0.7C120,33.2,120.2,33.3,120.3,33.3z"
        />
      <path style="fill:#FFFFFF;" d="M128,35.3c-0.5,0-0.9-0.1-1.3-0.2c-0.4-0.2-0.7-0.4-1-0.7c-0.3-0.3-0.5-0.7-0.7-1.2
        s-0.2-1.1-0.2-1.7v-9.1h2.2v9.3c0,0.6,0.1,1,0.3,1.2c0.2,0.2,0.4,0.4,0.7,0.4s0.5-0.1,0.7-0.4c0.2-0.2,0.3-0.7,0.3-1.2v-9.3h2.2
        v9.1c0,0.7-0.1,1.2-0.2,1.7s-0.4,0.9-0.7,1.2c-0.3,0.3-0.6,0.6-1,0.7C128.9,35.2,128.4,35.3,128,35.3z"/>
      <path style="fill:#FFFFFF;" d="M133.6,24.5H132v-2.1h5.4v2.1h-1.6v10.7h-2.2V24.5L133.6,24.5z"/>
      <path style="fill:#FFFFFF;" d="M144.4,35.3c-0.5,0-1-0.1-1.4-0.4c-0.4-0.3-0.8-0.6-1.1-1.2c-0.3-0.5-0.5-1.2-0.7-1.9
        C141,31,141,30.1,141,29v-0.7c0-1.1,0.1-2,0.2-2.8c0.2-0.8,0.4-1.4,0.7-1.9c0.3-0.5,0.7-0.9,1.1-1.2c0.4-0.3,0.9-0.4,1.4-0.4
        s1,0.1,1.4,0.4c0.4,0.3,0.8,0.6,1.1,1.2c0.3,0.5,0.5,1.2,0.7,1.9c0.2,0.8,0.2,1.7,0.2,2.8V29c0,1.1-0.1,2-0.2,2.8
        c-0.2,0.8-0.4,1.4-0.7,1.9c-0.3,0.5-0.7,0.9-1.1,1.2C145.4,35.2,145,35.3,144.4,35.3z M144.4,33.3c0.2,0,0.3-0.1,0.5-0.2
        c0.1-0.1,0.3-0.4,0.4-0.7c0.1-0.3,0.2-0.8,0.2-1.3c0.1-0.5,0.1-1.2,0.1-2v-0.7c0-0.8,0-1.5-0.1-2s-0.1-1-0.2-1.3
        c-0.1-0.3-0.2-0.5-0.4-0.7c-0.1-0.1-0.3-0.2-0.5-0.2c-0.2,0-0.3,0.1-0.5,0.2c-0.1,0.1-0.3,0.4-0.4,0.7c-0.1,0.3-0.2,0.8-0.2,1.3
        c-0.1,0.5-0.1,1.2-0.1,2v0.7c0,0.8,0,1.5,0.1,2c0.1,0.5,0.1,1,0.2,1.3c0.1,0.3,0.2,0.5,0.4,0.7C144.1,33.2,144.3,33.3,144.4,33.3
        z"/>
      <path style="fill:#FFFFFF;" d="M148.9,22.3h4.7v2.1h-2.4v3.2h2.1v2.1h-2.1V35H149V22.3H148.9z"/>
      <path style="fill:#FFFFFF;" d="M158.7,24.5h-1.6v-2.1h5.4v2.1h-1.6v10.7h-2.2V24.5L158.7,24.5z"/>
      <path style="fill:#FFFFFF;" d="M163.4,22.3h2.2v5.3h1.9v-5.3h2.2v12.8h-2.2v-5.4h-1.9v5.4h-2.2V22.3z"/>
      <path style="fill:#FFFFFF;" d="M171.2,22.3h4.9v2.1h-2.7v3.2h2.4v2.1h-2.4V33h2.7v2.1h-5V22.3H171.2z"/>
      <path style="fill:#FFFFFF;" d="M180.1,22.3h1.9c0.5,0,1.1,0.1,1.6,0.2s1,0.3,1.3,0.6c0.4,0.3,0.7,0.6,0.9,1
        c0.2,0.4,0.3,0.9,0.3,1.5v0.1c0,0.4-0.1,0.8-0.2,1.1c-0.1,0.3-0.2,0.6-0.4,0.8c-0.2,0.2-0.4,0.4-0.6,0.6
        c-0.2,0.2-0.4,0.3-0.7,0.4c0.3,0.1,0.5,0.3,0.8,0.4c0.2,0.2,0.5,0.4,0.6,0.6c0.2,0.2,0.3,0.5,0.4,0.8c0.1,0.3,0.2,0.7,0.2,1.1
        v0.2c0,0.6-0.1,1.1-0.3,1.5c-0.2,0.4-0.5,0.8-0.9,1.1c-0.4,0.3-0.8,0.5-1.3,0.7s-1.1,0.2-1.7,0.2h-2V22.3H180.1z M182.4,27.7
        c0.5,0,0.9-0.1,1.2-0.4c0.3-0.3,0.4-0.7,0.4-1.3l0,0c0-0.6-0.1-1-0.4-1.2c-0.3-0.3-0.7-0.4-1.2-0.4l0,0V27.7L182.4,27.7z
         M182.4,33.1c0.5,0,0.9-0.1,1.3-0.4c0.3-0.3,0.5-0.7,0.5-1.2v-0.1c0-0.5-0.2-0.9-0.5-1.2c-0.3-0.3-0.8-0.4-1.3-0.4h-0.1
        L182.4,33.1L182.4,33.1z"/>
      <path style="fill:#FFFFFF;" d="M190.5,35.3c-0.5,0-1-0.1-1.4-0.4c-0.4-0.3-0.8-0.6-1.1-1.2c-0.3-0.5-0.5-1.2-0.7-1.9
        c-0.2-0.8-0.2-1.7-0.2-2.8v-0.7c0-1.1,0.1-2,0.2-2.8c0.2-0.8,0.4-1.4,0.7-1.9s0.7-0.9,1.1-1.2c0.4-0.3,0.9-0.4,1.4-0.4
        s1,0.1,1.4,0.4c0.4,0.3,0.8,0.6,1.1,1.2c0.3,0.5,0.5,1.2,0.7,1.9c0.2,0.8,0.2,1.7,0.2,2.8V29c0,1.1-0.1,2-0.2,2.8
        c-0.2,0.8-0.4,1.4-0.7,1.9s-0.7,0.9-1.1,1.2C191.5,35.2,191,35.3,190.5,35.3z M190.5,33.3c0.2,0,0.3-0.1,0.5-0.2
        c0.1-0.1,0.3-0.4,0.4-0.7c0.1-0.3,0.2-0.8,0.2-1.3c0.1-0.5,0.1-1.2,0.1-2v-0.7c0-0.8,0-1.5-0.1-2s-0.1-1-0.2-1.3
        c-0.1-0.3-0.2-0.5-0.4-0.7c-0.1-0.1-0.3-0.2-0.5-0.2s-0.3,0.1-0.5,0.2c-0.1,0.1-0.3,0.4-0.4,0.7c-0.1,0.3-0.2,0.8-0.2,1.3
        c-0.1,0.5-0.1,1.2-0.1,2v0.7c0,0.8,0,1.5,0.1,2s0.1,1,0.2,1.3c0.1,0.3,0.2,0.5,0.4,0.7C190.2,33.2,190.3,33.3,190.5,33.3z"/>
      <path style="fill:#FFFFFF;" d="M196.2,28.6l-2-6.3h2.4l1,3.7l1-3.7h2.3l-2,6.3l2.1,6.5h-2.4l-1.1-3.9l-1.1,3.9h-2.3L196.2,28.6z"
        />
    </g>
  </g>
  <g>
    <g>
      <path style="fill:#FFFFFF;" d="M468.3,22.3h2.3c0.6,0,1.1,0.1,1.6,0.2c0.5,0.2,0.9,0.4,1.3,0.7c0.4,0.3,0.6,0.8,0.8,1.3
        s0.3,1.1,0.3,1.8v0.2c0,0.8-0.1,1.5-0.4,2.1c-0.3,0.5-0.6,1-1.1,1.3l1.7,5.2h-2.4l-1.4-4.5l0,0h-0.4v4.5h-2.2V22.3H468.3z
         M470.6,28.7c0.5,0,0.9-0.2,1.2-0.5c0.3-0.3,0.5-0.8,0.5-1.6v-0.1c0-0.4,0-0.7-0.1-1c-0.1-0.3-0.2-0.5-0.4-0.6
        c-0.2-0.2-0.3-0.3-0.5-0.3c-0.2-0.1-0.4-0.1-0.7-0.1h-0.1L470.6,28.7L470.6,28.7z"/>
      <path style="fill:#FFFFFF;" d="M475.5,22.3h4.9v2.1h-2.7v3.2h2.4v2.1h-2.4V33h2.7v2.1h-5L475.5,22.3L475.5,22.3z"/>
      <path style="fill:#FFFFFF;" d="M483.4,22.3h2.4l2.4,12.8H486l-0.4-2.5h-2l-0.4,2.5H481L483.4,22.3z M485.2,30.6l-0.7-4.2
        l-0.7,4.2H485.2z"/>
      <path style="fill:#FFFFFF;" d="M488.8,22.3h2.2V33h2.4v2.1h-4.6V22.3z"/>
      <path style="fill:#FFFFFF;" d="M493.7,28.4h4.7v2.2h-4.7V28.4z"/>
      <path style="fill:#FFFFFF;" d="M500.1,24.5h-1.6v-2.1h5.4v2.1h-1.6v10.7h-2.2V24.5z"/>
      <path style="fill:#FFFFFF;" d="M504.9,22.3h2.2v12.8h-2.2V22.3z"/>
      <path style="fill:#FFFFFF;" d="M508.5,22.3h2.2l1.6,4.7l1.6-4.7h2.2v12.8h-2.2v-7.7l-1.6,4.8l0,0l-1.6-4.8v7.7h-2.2V22.3z"/>
      <path style="fill:#FFFFFF;" d="M517.3,22.3h4.9v2.1h-2.7v3.2h2.4v2.1h-2.4V33h2.7v2.1h-5L517.3,22.3L517.3,22.3z"/>
    </g>
  </g>
  <path style="fill:#F2F2F2;" d="M327.4,23.1l0.6-0.7c0.2-0.3,0.6-0.3,0.9-0.1l6.5,5.3c0.2,0,0.3-0.1,0.5-0.1c0.2,0,0.4,0,0.6,0.1
    l4.4-4c0.2-0.2,0.6-0.2,0.9,0l0.6,0.7c0.2,0.2,0.2,0.6,0,0.9l-0.3,0.3c0,0.1-0.1,0.2-0.2,0.2l-4,3.6v0.1c0,1-0.9,1.9-1.9,1.9
    s-1.9-0.9-1.9-1.9c0-0.1,0-0.1,0-0.2l-6.5-5.3C327.2,23.7,327.2,23.3,327.4,23.1L327.4,23.1z M335.8,14.1c4.2,0,8,1.7,10.7,4.5
    c2.8,2.8,4.5,6.6,4.5,10.7c0,4.1-1.7,8-4.5,10.7c-2.8,2.8-6.6,4.5-10.7,4.5c-4.1,0-8-1.7-10.7-4.5c-1.1-1.1-2-2.4-2.8-3.8
    c-0.5,0.4-1.1,1-2.6,1.3c-2.4,0.5-4.1-0.4-5.7-2c-1.1-1.1-4-0.2-5.1,0.1c1.2-1.9,4.5-2.6,6.7-1.8c3.9,1.4,3.5-4.2-1.2-2.7
    c-1.6,0.2-5.7,2.8-7.6,0.3c-2.2-2.9-4-6-8.1-4.4c0.3-1.4,4.6-3.9,6.2-2.2c2.7,3,8.4,3.2,5.8-0.2c-0.5-0.7-1.9-1.9-2.8-2
    c-0.9-0.4-2-0.3-3-0.3c1.3-0.7,1.2-0.7,2.8-1.1c1.7-0.4,2.6-0.4,4.2,0.3c1.8,0.9,3,2,5.2,1.5h0.2c1.5-0.4,2.1-1.5,1.5-2.9
    c-0.5-1.4-2.1-1.6-3.3-1.6c-1.7,0-5.6-1.4-5.6-3.5c3.6,2.3,5.7,0.1,6.9,0.1c4.9-0.1,3.7,1.9,6,3.1c1.3,0.7,1,0.2,1.6,0.3
    c2.7-2.7-3.4-0.5-1.8-5.4c0.9,1.9,3.8,2.8,6.3,2.5C330.9,14.7,333.3,14.1,335.8,14.1L335.8,14.1z M336.9,17.9v1.6
    c0,0.4-0.3,0.7-0.7,0.7h-0.6c-0.4,0-0.7-0.3-0.7-0.7v-1.7c-2.8,0.2-5.3,1.4-7.2,3.3c-1.8,1.8-3,4.2-3.3,6.9h1.6
    c0.4,0,0.7,0.3,0.7,0.7v0.6c0,0.4-0.3,0.7-0.7,0.7h-1.7c0.2,2.8,1.4,5.3,3.3,7.2c1.8,1.8,4.2,3,6.9,3.3V39c0-0.4,0.3-0.7,0.7-0.7
    h0.6c0.4,0,0.7,0.3,0.7,0.7v1.7c2.8-0.2,5.3-1.4,7.2-3.3c1.8-1.8,3-4.2,3.3-6.9h-1.6c-0.4,0-0.7-0.3-0.7-0.7v-0.6
    c0-0.4,0.3-0.7,0.7-0.7h1.7c-0.2-2.8-1.4-5.3-3.3-7.2C342,19.4,339.6,18.2,336.9,17.9L336.9,17.9z"/>
</g>
<g id="green-arrow-2">
  <g>
    <polygon style="fill:#FFFFFF;" points="704.1,26.1 697.6,0.5 553.5,0.5 572.5,26.1 553.5,53.6 697.6,53.6    "/>
    <g>
      <polygon style="fill:#00B695;" points="697.5,2.1 697.3,1 696.1,1 696.1,0 698,0 698.5,1.8      "/>
      <path style="fill:#00B695;" d="M694.2,1h-3V0h3V1z M689.2,1h-3V0h3V1z M684.2,1h-3V0h3V1z M679.2,1h-3V0h3V1z M674.3,1h-3V0h3V1z
         M669.3,1h-3V0h3V1z M664.3,1h-3V0h3V1z M659.4,1h-3V0h3V1z M654.4,1h-3V0h3V1z M649.4,1h-3V0h3V1z M644.5,1h-3V0h3V1z M639.5,1
        h-3V0h3V1z M634.5,1h-3V0h3V1z M629.5,1h-3V0h3V1z M624.6,1h-3V0h3V1z M619.6,1h-3V0h3V1z M614.6,1h-3V0h3V1z M609.7,1h-3V0h3V1z
         M604.7,1h-3V0h3V1z M599.7,1h-3V0h3V1z M594.8,1h-3V0h3V1z M589.8,1h-3V0h3V1z M584.8,1h-3V0h3V1z M579.8,1h-3V0h3V1z M574.9,1
        h-3V0h3V1z M569.9,1h-3V0h3V1z M564.9,1h-3V0h3V1z M560,1h-3V0h3V1z"/>
      <polygon style="fill:#00B695;" points="554,2 552.5,0 555,0 555,1 554.5,1 554.8,1.4      "/>
      <path style="fill:#00B695;" d="M569.9,23.5l-1.9-2.6l0.8-0.6l1.9,2.6L569.9,23.5z M566.7,19.2l-1.9-2.6l0.8-0.6l1.9,2.6
        L566.7,19.2z M563.5,14.9l-1.9-2.6l0.8-0.6l1.9,2.6L563.5,14.9z M560.4,10.6l-2-2.6l0.8-0.6l1.9,2.6L560.4,10.6z M557.2,6.3
        l-1.9-2.6l0.8-0.6l1.9,2.6L557.2,6.3z"/>
      <polygon style="fill:#00B695;" points="572,27.7 571.2,27.1 571.9,26.2 571.2,25.2 572,24.6 573.1,26.1      "/>
      <path style="fill:#00B695;" d="M555.9,51.1l-0.8-0.6l1.6-2.3l0.8,0.6L555.9,51.1z M558.6,47.2l-0.8-0.6l1.6-2.3l0.8,0.6
        L558.6,47.2z M561.3,43.3l-0.8-0.6l1.6-2.3l0.8,0.6L561.3,43.3z M564,39.4l-0.8-0.6l1.6-2.3l0.8,0.6L564,39.4z M566.7,35.5
        l-0.8-0.6l1.6-2.3l0.8,0.6L566.7,35.5z M569.4,31.6l-0.8-0.6l1.6-2.3l0.8,0.6L569.4,31.6z"/>
      <polygon style="fill:#00B695;" points="555,54.1 552.6,54.1 554,52.1 554.8,52.7 554.5,53.1 555,53.1      "/>
      <path style="fill:#00B695;" d="M694.2,54.1h-3v-1h3V54.1z M689.2,54.1h-3v-1h3V54.1z M684.2,54.1h-3v-1h3V54.1z M679.3,54.1h-3
        v-1h3V54.1z M674.3,54.1h-3v-1h3V54.1z M669.3,54.1h-3v-1h3V54.1z M664.3,54.1h-3v-1h3V54.1z M659.4,54.1h-3v-1h3V54.1z
         M654.4,54.1h-3v-1h3V54.1z M649.4,54.1h-3v-1h3V54.1z M644.5,54.1h-3v-1h3V54.1z M639.5,54.1h-3v-1h3V54.1z M634.5,54.1h-3v-1h3
        V54.1z M629.6,54.1h-3v-1h3V54.1z M624.6,54.1h-3v-1h3V54.1z M619.6,54.1h-3v-1h3V54.1z M614.7,54.1h-3v-1h3V54.1z M609.7,54.1
        h-3v-1h3V54.1z M604.7,54.1h-3v-1h3V54.1z M599.7,54.1h-3v-1h3V54.1z M594.8,54.1h-3v-1h3V54.1z M589.8,54.1h-3v-1h3V54.1z
         M584.8,54.1h-3v-1h3V54.1z M579.9,54.1h-3v-1h3V54.1z M574.9,54.1h-3v-1h3V54.1z M569.9,54.1h-3v-1h3V54.1z M565,54.1h-3v-1h3
        V54.1z M560,54.1h-3v-1h3V54.1z"/>
      <polygon style="fill:#00B695;" points="698,54.1 696.1,54.1 696.1,53.1 697.3,53.1 697.5,52.1 698.5,52.3      "/>
      <path style="fill:#00B695;" d="M698.9,50.4l-1-0.2l0.7-2.9l1,0.2L698.9,50.4z M700.1,45.5l-1-0.2l0.7-2.9l1,0.2L700.1,45.5z
         M701.2,40.7l-1-0.2l0.7-2.9l1,0.2L701.2,40.7z M702.4,35.8l-1-0.2l0.7-2.9l1,0.2L702.4,35.8z M703.5,31l-1-0.2l0.7-2.9l1,0.2
        L703.5,31z M703.6,26.2l-0.7-2.9l1-0.2l0.7,2.9L703.6,26.2z M702.4,21.4l-0.7-2.9l1-0.2l0.7,2.9L702.4,21.4z M701.2,16.5
        l-0.7-2.9l1-0.2l0.7,2.9L701.2,16.5z M700,11.7l-0.7-2.9l1-0.2l0.7,2.9L700,11.7z M698.8,6.9L698,4l1-0.2l0.7,2.9L698.8,6.9z"/>
    </g>
  </g>
  <g>
    <path style="fill:#00B695;" d="M597.5,26.5c-0.4,0-0.7-0.1-1-0.3c-0.3-0.2-0.6-0.5-0.8-0.8c-0.2-0.4-0.4-0.9-0.5-1.4
      c-0.1-0.6-0.2-1.2-0.2-2v-0.3c0-0.8,0.1-1.5,0.2-2c0.1-0.6,0.3-1.1,0.6-1.4c0.2-0.4,0.5-0.7,0.8-0.8c0.3-0.2,0.6-0.3,1-0.3
      c0.2,0,0.4,0,0.5,0.1c0.1,0,0.3,0.1,0.4,0.2v0.9c-0.2-0.1-0.3-0.2-0.5-0.2c-0.1,0-0.3-0.1-0.4-0.1c-0.2,0-0.5,0.1-0.7,0.2
      c-0.2,0.1-0.4,0.4-0.6,0.7s-0.3,0.7-0.4,1.2c-0.1,0.5-0.1,1-0.1,1.7v0.3c0,0.6,0,1.2,0.1,1.7c0.1,0.5,0.2,0.9,0.4,1.2
      c0.2,0.3,0.3,0.5,0.6,0.7c0.3,0.2,0.4,0.2,0.7,0.2c0.2,0,0.3,0,0.5-0.1c0.1,0,0.3-0.1,0.5-0.2v0.9c-0.2,0.1-0.3,0.2-0.5,0.2
      C597.9,26.4,597.7,26.5,597.5,26.5z"/>
    <path style="fill:#00B695;" d="M602,26.5c-0.3,0-0.6-0.1-0.9-0.3c-0.3-0.2-0.5-0.5-0.7-0.9c-0.2-0.4-0.4-0.9-0.5-1.4
      c-0.1-0.6-0.2-1.2-0.2-2v-0.3c0-0.8,0.1-1.4,0.2-2c0.1-0.6,0.3-1.1,0.5-1.4c0.2-0.4,0.4-0.7,0.7-0.9c0.3-0.2,0.6-0.3,0.9-0.3
      s0.6,0.1,0.9,0.3c0.3,0.2,0.5,0.5,0.7,0.9c0.2,0.4,0.4,0.9,0.5,1.4c0.1,0.6,0.2,1.2,0.2,2v0.3c0,0.8-0.1,1.4-0.2,2
      c-0.1,0.6-0.3,1.1-0.5,1.4c-0.2,0.4-0.4,0.7-0.7,0.9C602.7,26.4,602.4,26.5,602,26.5z M602,25.7c0.4,0,0.7-0.3,1-0.9
      c0.3-0.6,0.4-1.6,0.4-2.9v-0.3c0-1.3-0.1-2.3-0.4-2.9c-0.3-0.6-0.6-0.9-1-0.9s-0.7,0.3-1,0.9c-0.3,0.6-0.4,1.6-0.4,2.9v0.3
      c0,1.3,0.1,2.3,0.4,2.9C601.3,25.4,601.6,25.7,602,25.7z"/>
    <path style="fill:#00B695;" d="M608.1,26.5c-0.6,0-1.1-0.2-1.5-0.7c-0.4-0.4-0.6-1.1-0.6-1.9v-6.8h0.9V24c0,0.6,0.1,1,0.3,1.3
      c0.2,0.3,0.5,0.4,0.9,0.4c0.4,0,0.7-0.1,0.9-0.4c0.2-0.3,0.3-0.7,0.3-1.3v-6.9h0.9v6.8c0,0.8-0.2,1.5-0.6,1.9
      C609.3,26.3,608.8,26.5,608.1,26.5z"/>
    <path style="fill:#00B695;" d="M612.2,17.1h1.3c0.4,0,0.8,0.1,1.1,0.2c0.3,0.1,0.6,0.3,0.9,0.5c0.2,0.2,0.4,0.5,0.6,0.9
      c0.1,0.3,0.2,0.8,0.2,1.2l0,0c0,0.6-0.1,1.2-0.4,1.6c-0.3,0.4-0.6,0.8-1.1,1l1.6,3.9h-1l-1.5-3.6c-0.1,0-0.1,0-0.2,0
      c-0.1,0-0.1,0-0.2,0H613v3.6h-0.9v-9.3H612.2z M613.5,22c0.6,0,1-0.2,1.3-0.5s0.5-0.9,0.5-1.5l0,0c0-0.7-0.2-1.2-0.5-1.5
      c-0.4-0.3-0.8-0.5-1.4-0.5H613v4H613.5z"/>
    <path style="fill:#00B695;" d="M619.4,26.5c-0.3,0-0.6,0-0.8-0.1c-0.3-0.1-0.5-0.2-0.8-0.3v-0.9c0.6,0.4,1.1,0.6,1.6,0.6
      c0.4,0,0.6-0.1,0.9-0.3c0.2-0.2,0.3-0.5,0.3-0.9l0,0c0-0.2,0-0.3-0.1-0.5c-0.1-0.2-0.1-0.3-0.2-0.5c-0.1-0.2-0.2-0.4-0.4-0.6
      c-0.2-0.2-0.4-0.5-0.6-0.8c-0.3-0.4-0.6-0.7-0.8-1c-0.2-0.3-0.4-0.5-0.5-0.8c-0.1-0.2-0.2-0.4-0.3-0.6c0-0.2-0.1-0.4-0.1-0.6l0,0
      c0-0.3,0.1-0.6,0.2-0.8c0.1-0.3,0.2-0.5,0.4-0.6c0.2-0.2,0.4-0.3,0.6-0.4c0.2-0.1,0.5-0.2,0.8-0.2c0.3,0,0.5,0,0.8,0.1
      c0.2,0.1,0.4,0.2,0.7,0.3v0.9c-0.5-0.3-1-0.5-1.4-0.5c-0.3,0-0.6,0.1-0.8,0.3c-0.2,0.2-0.3,0.5-0.3,0.8l0,0c0,0.2,0,0.3,0.1,0.5
      c0,0.1,0.1,0.3,0.2,0.5c0.1,0.2,0.2,0.4,0.4,0.6c0.2,0.2,0.4,0.5,0.6,0.8c0.3,0.4,0.5,0.7,0.7,1c0.2,0.3,0.4,0.5,0.5,0.8
      c0.1,0.2,0.2,0.5,0.3,0.7c0,0.2,0.1,0.5,0.1,0.7l0,0c0,0.3-0.1,0.6-0.2,0.9c-0.1,0.3-0.2,0.5-0.4,0.7c-0.2,0.2-0.4,0.3-0.6,0.4
      C619.9,26.5,619.6,26.5,619.4,26.5z"/>
    <path style="fill:#00B695;" d="M623.1,17.1h3.3v0.8H624v3.4h2.2v0.8H624v3.5h2.4v0.8h-3.3V17.1z"/>
    <path style="fill:#00B695;" d="M633,26.5c-0.3,0-0.6-0.1-0.9-0.3c-0.3-0.2-0.5-0.5-0.7-0.9c-0.2-0.4-0.4-0.9-0.5-1.4
      c-0.1-0.6-0.2-1.2-0.2-2v-0.3c0-0.8,0.1-1.4,0.2-2c0.1-0.6,0.3-1.1,0.5-1.4c0.2-0.4,0.4-0.7,0.7-0.9c0.3-0.2,0.6-0.3,0.9-0.3
      s0.6,0.1,0.9,0.3c0.3,0.2,0.5,0.5,0.7,0.9c0.2,0.4,0.4,0.9,0.5,1.4c0.1,0.6,0.2,1.2,0.2,2v0.3c0,0.8-0.1,1.4-0.2,2
      c-0.1,0.6-0.3,1.1-0.5,1.4c-0.2,0.4-0.4,0.7-0.7,0.9C633.6,26.4,633.3,26.5,633,26.5z M632.9,25.7c0.4,0,0.7-0.3,1-0.9
      c0.3-0.6,0.4-1.6,0.4-2.9v-0.3c0-1.3-0.1-2.3-0.4-2.9c-0.3-0.6-0.6-0.9-1-0.9c-0.4,0-0.7,0.3-1,0.9c-0.3,0.6-0.4,1.6-0.4,2.9v0.3
      c0,1.3,0.1,2.3,0.4,2.9C632.2,25.4,632.5,25.7,632.9,25.7z"/>
    <path style="fill:#00B695;" d="M637,17.1h3.1v0.8h-2.3v3.5h2v0.8h-2v4.2H637V17.1z"/>
    <path style="fill:#00B695;" d="M646.1,17.1h0.9l2,9.3h-0.9l-0.5-2.4h-2.2l-0.5,2.4h-0.8L646.1,17.1z M647.5,23.2l-0.9-4.7
      l-0.9,4.7H647.5z"/>
    <path style="fill:#00B695;" d="M652.6,26.5c-0.4,0-0.7-0.1-1-0.3c-0.3-0.2-0.6-0.5-0.8-0.8c-0.2-0.4-0.4-0.9-0.5-1.4
      c-0.1-0.6-0.2-1.2-0.2-2v-0.3c0-0.8,0.1-1.5,0.2-2c0.1-0.6,0.3-1.1,0.6-1.4c0.2-0.4,0.5-0.7,0.8-0.8c0.3-0.2,0.6-0.3,1-0.3
      c0.2,0,0.4,0,0.5,0.1c0.1,0,0.3,0.1,0.4,0.2v0.9c-0.2-0.1-0.3-0.2-0.5-0.2c-0.1,0-0.3-0.1-0.4-0.1c-0.2,0-0.5,0.1-0.7,0.2
      c-0.2,0.1-0.4,0.4-0.6,0.7c-0.2,0.3-0.3,0.7-0.4,1.2s-0.1,1-0.1,1.7v0.3c0,0.6,0,1.2,0.1,1.7s0.2,0.9,0.4,1.2
      c0.2,0.3,0.3,0.5,0.6,0.7c0.3,0.2,0.4,0.2,0.7,0.2c0.2,0,0.3,0,0.5-0.1c0.1,0,0.3-0.1,0.5-0.2v0.9c-0.2,0.1-0.3,0.2-0.5,0.2
      C653,26.4,652.8,26.5,652.6,26.5z"/>
    <path style="fill:#00B695;" d="M656.3,17.9h-1.4v-0.8h3.7v0.8h-1.4v8.5h-0.9V17.9L656.3,17.9z"/>
    <path style="fill:#00B695;" d="M660.2,17.1h0.9v9.3h-0.9V17.1z"/>
    <path style="fill:#00B695;" d="M665.2,26.5c-0.3,0-0.6-0.1-0.9-0.3c-0.3-0.2-0.5-0.5-0.7-0.9c-0.2-0.4-0.4-0.9-0.5-1.4
      c-0.1-0.6-0.2-1.2-0.2-2v-0.3c0-0.8,0.1-1.4,0.2-2c0.1-0.6,0.3-1.1,0.5-1.4c0.2-0.4,0.4-0.7,0.7-0.9c0.3-0.2,0.6-0.3,0.9-0.3
      s0.6,0.1,0.9,0.3c0.3,0.2,0.5,0.5,0.7,0.9c0.2,0.4,0.4,0.9,0.5,1.4c0.1,0.6,0.2,1.2,0.2,2v0.3c0,0.8-0.1,1.4-0.2,2
      c-0.1,0.6-0.3,1.1-0.5,1.4c-0.2,0.4-0.4,0.7-0.7,0.9C665.8,26.4,665.5,26.5,665.2,26.5z M665.2,25.7c0.4,0,0.7-0.3,1-0.9
      c0.3-0.6,0.4-1.6,0.4-2.9v-0.3c0-1.3-0.1-2.3-0.4-2.9c-0.3-0.6-0.6-0.9-1-0.9c-0.4,0-0.7,0.3-1,0.9c-0.3,0.6-0.4,1.6-0.4,2.9v0.3
      c0,1.3,0.1,2.3,0.4,2.9C664.5,25.4,664.8,25.7,665.2,25.7z"/>
    <path style="fill:#00B695;" d="M669.2,17.1h0.9l2.6,7v-7h0.8v9.3h-0.8l-2.6-7.2v7.2h-0.8L669.2,17.1L669.2,17.1z"/>
    <path style="fill:#00B695;" d="M591.3,29.4h1.2c0.8,0,1.5,0.3,2,0.8s0.7,1.2,0.7,2.2l0,0c0,0.9-0.2,1.7-0.7,2.2s-1.2,0.8-2,0.8
      h-0.4v3.3h-0.9L591.3,29.4L591.3,29.4z M592.6,34.7c0.6,0,1-0.2,1.4-0.6s0.5-0.9,0.5-1.6l0,0c0-0.7-0.2-1.3-0.5-1.6
      c-0.3-0.4-0.8-0.6-1.3-0.6h-0.4v4.4H592.6z"/>
    <path style="fill:#00B695;" d="M596.9,29.4h1.3c0.4,0,0.8,0.1,1.1,0.2s0.6,0.3,0.9,0.5c0.2,0.2,0.4,0.5,0.6,0.9
      c0.1,0.3,0.2,0.8,0.2,1.2l0,0c0,0.6-0.1,1.2-0.4,1.6c-0.3,0.4-0.6,0.8-1.1,1l1.6,3.9h-1l-1.5-3.6c-0.1,0-0.1,0-0.2,0
      c-0.1,0-0.1,0-0.2,0h-0.5v3.6h-0.9v-9.3H596.9z M598.2,34.4c0.6,0,1-0.2,1.3-0.5c0.3-0.3,0.5-0.9,0.5-1.5l0,0
      c0-0.7-0.2-1.2-0.5-1.5c-0.4-0.3-0.8-0.5-1.4-0.5h-0.4v4.1h0.5V34.4z"/>
    <path style="fill:#00B695;" d="M602.7,29.4h3.3v0.8h-2.4v3.4h2.2v0.8h-2.2v3.5h2.4v0.8h-3.3V29.4z"/>
    <path style="fill:#00B695;" d="M609.8,38.8c-0.4,0-0.7-0.1-1-0.3s-0.6-0.5-0.8-0.8c-0.2-0.4-0.4-0.9-0.5-1.4
      c-0.1-0.6-0.2-1.2-0.2-2V34c0-0.8,0.1-1.5,0.2-2c0.1-0.6,0.3-1.1,0.6-1.4c0.2-0.4,0.5-0.7,0.8-0.8c0.3-0.2,0.6-0.3,1-0.3
      c0.2,0,0.4,0,0.5,0.1c0.1,0,0.3,0.1,0.4,0.2v0.9c-0.2-0.1-0.3-0.2-0.5-0.2c-0.1,0-0.3-0.1-0.4-0.1c-0.2,0-0.5,0.1-0.7,0.2
      s-0.4,0.4-0.6,0.7c-0.2,0.3-0.3,0.7-0.4,1.2c-0.1,0.5-0.1,1-0.1,1.7v0.3c0,0.6,0,1.2,0.1,1.7c0.1,0.5,0.2,0.9,0.4,1.2
      c0.2,0.3,0.3,0.5,0.6,0.7c0.3,0.2,0.4,0.2,0.7,0.2c0.2,0,0.3,0,0.5-0.1c0.1,0,0.3-0.1,0.5-0.2v0.9c-0.2,0.1-0.3,0.2-0.5,0.2
      C610.2,38.8,610,38.8,609.8,38.8z"/>
    <path style="fill:#00B695;" d="M614.1,29.4h0.9l2,9.3h-0.9l-0.5-2.4h-2.2l-0.5,2.4h-0.8L614.1,29.4z M615.5,35.5l-0.9-4.7
      l-0.9,4.7H615.5z"/>
    <path style="fill:#00B695;" d="M618.7,29.4h0.9l2.6,7v-7h0.8v9.3h-0.8l-2.6-7.2v7.2h-0.8L618.7,29.4L618.7,29.4z"/>
    <path style="fill:#00B695;" d="M624.9,29.4h0.9l2.6,7v-7h0.8v9.3h-0.8l-2.6-7.2v7.2H625L624.9,29.4L624.9,29.4z"/>
    <path style="fill:#00B695;" d="M631.2,29.4h3.3v0.8h-2.4v3.4h2.2v0.8h-2.2v3.5h2.4v0.8h-3.3V29.4z"/>
    <path style="fill:#00B695;" d="M636.2,29.4h1.2c0.5,0,0.9,0.1,1.2,0.3c0.4,0.2,0.7,0.5,1,0.9c0.3,0.4,0.5,0.9,0.6,1.4
      c0.1,0.6,0.2,1.2,0.2,2v0.3c0,0.7-0.1,1.4-0.2,2c-0.1,0.6-0.4,1-0.6,1.4c-0.3,0.4-0.6,0.7-1,0.9c-0.4,0.2-0.8,0.3-1.2,0.3h-1.2
      V29.4z M637.5,37.9c0.6,0,1.1-0.3,1.5-0.9s0.6-1.5,0.6-2.8V34c0-0.6-0.1-1.2-0.2-1.7c-0.1-0.5-0.3-0.9-0.5-1.2
      c-0.2-0.3-0.4-0.5-0.7-0.7c-0.3-0.2-0.5-0.2-0.8-0.2H637v7.7H637.5z"/>
    <path style="fill:#00B695;" d="M645.1,29.4h1.3c0.4,0,0.8,0.1,1.1,0.2s0.6,0.3,0.9,0.5c0.2,0.2,0.4,0.5,0.6,0.9
      c0.1,0.3,0.2,0.8,0.2,1.2l0,0c0,0.6-0.1,1.2-0.4,1.6c-0.3,0.4-0.6,0.8-1.1,1l1.6,3.9h-1l-1.5-3.6c-0.1,0-0.1,0-0.2,0
      c-0.1,0-0.1,0-0.2,0h-0.5v3.6H645L645.1,29.4L645.1,29.4z M646.4,34.4c0.6,0,1-0.2,1.3-0.5c0.3-0.3,0.5-0.9,0.5-1.5l0,0
      c0-0.7-0.2-1.2-0.5-1.5c-0.4-0.3-0.8-0.5-1.4-0.5h-0.4v4.1h0.5V34.4z"/>
    <path style="fill:#00B695;" d="M650.9,29.4h3.3v0.8h-2.4v3.4h2.2v0.8h-2.2v3.5h2.4v0.8h-3.3V29.4z"/>
    <path style="fill:#00B695;" d="M658,38.8c-0.4,0-0.7-0.1-1-0.3s-0.6-0.5-0.8-0.8c-0.2-0.4-0.4-0.9-0.5-1.4c-0.1-0.6-0.2-1.2-0.2-2
      V34c0-0.8,0.1-1.5,0.2-2c0.1-0.6,0.3-1.1,0.6-1.4c0.2-0.4,0.5-0.7,0.8-0.8c0.3-0.2,0.6-0.3,1-0.3c0.2,0,0.4,0,0.5,0.1
      c0.1,0,0.3,0.1,0.4,0.2v0.9c-0.2-0.1-0.3-0.2-0.5-0.2c-0.1,0-0.3-0.1-0.4-0.1c-0.2,0-0.5,0.1-0.7,0.2c-0.2,0.1-0.4,0.4-0.6,0.7
      c-0.2,0.3-0.3,0.7-0.4,1.2c-0.1,0.5-0.1,1-0.1,1.7v0.3c0,0.6,0,1.2,0.1,1.7c0.1,0.5,0.2,0.9,0.4,1.2c0.2,0.3,0.3,0.5,0.6,0.7
      c0.3,0.2,0.4,0.2,0.7,0.2c0.2,0,0.3,0,0.5-0.1c0.1,0,0.3-0.1,0.5-0.2v0.9c-0.2,0.1-0.3,0.2-0.5,0.2
      C658.4,38.8,658.2,38.8,658,38.8z"/>
    <path style="fill:#00B695;" d="M660.9,29.4h0.9v9.3h-0.9V29.4z"/>
    <path style="fill:#00B695;" d="M663.8,29.4h1.2c0.8,0,1.5,0.3,2,0.8s0.7,1.2,0.7,2.2l0,0c0,0.9-0.2,1.7-0.7,2.2s-1.2,0.8-2,0.8
      h-0.4v3.3h-0.9L663.8,29.4L663.8,29.4z M665.1,34.7c0.6,0,1-0.2,1.4-0.6s0.5-0.9,0.5-1.6l0,0c0-0.7-0.2-1.3-0.5-1.6
      c-0.3-0.4-0.8-0.6-1.3-0.6h-0.4v4.4H665.1z"/>
    <path style="fill:#00B695;" d="M669.4,29.4h3.3v0.8h-2.4v3.4h2.2v0.8h-2.2v3.5h2.4v0.8h-3.3V29.4z"/>
    <path style="fill:#00B695;" d="M675.7,38.9c-0.3,0-0.6,0-0.8-0.1c-0.3-0.1-0.5-0.2-0.8-0.3v-0.9c0.6,0.4,1.1,0.6,1.6,0.6
      c0.4,0,0.6-0.1,0.9-0.3c0.2-0.2,0.3-0.5,0.3-0.9l0,0c0-0.2,0-0.3-0.1-0.5c-0.1-0.2-0.1-0.3-0.2-0.5c-0.1-0.2-0.2-0.4-0.4-0.6
      c-0.2-0.2-0.4-0.5-0.6-0.8c-0.3-0.4-0.6-0.7-0.8-1c-0.2-0.3-0.4-0.5-0.5-0.8c-0.1-0.2-0.2-0.4-0.3-0.6c0-0.2-0.1-0.4-0.1-0.6l0,0
      c0-0.3,0.1-0.6,0.2-0.8c0.1-0.3,0.2-0.5,0.4-0.6c0.2-0.2,0.4-0.3,0.6-0.4c0.2-0.1,0.5-0.2,0.8-0.2c0.3,0,0.5,0,0.8,0.1
      c0.2,0.1,0.4,0.2,0.7,0.3v0.9c-0.5-0.3-1-0.5-1.4-0.5c-0.3,0-0.6,0.1-0.8,0.3c-0.2,0.2-0.3,0.5-0.3,0.8l0,0c0,0.2,0,0.3,0.1,0.5
      c0,0.1,0.1,0.3,0.2,0.5c0.1,0.2,0.2,0.4,0.4,0.6c0.2,0.2,0.4,0.5,0.6,0.8c0.3,0.4,0.5,0.7,0.7,1c0.2,0.3,0.4,0.5,0.5,0.8
      c0.1,0.2,0.2,0.5,0.3,0.7c0,0.2,0.1,0.5,0.1,0.7l0,0c0,0.3-0.1,0.6-0.2,0.9c-0.1,0.3-0.2,0.5-0.4,0.7c-0.2,0.2-0.4,0.3-0.6,0.4
      C676.3,38.8,676,38.9,675.7,38.9z"/>
  </g>
</g>
<g id="black-arrow-1">
	<polygon style="fill:#010101;" points="165.6,64.1 94.9,64.5 94.9,117.6 165.7,117.2 184.6,89.8 	"/>
	<g>
		<g>
			<path style="fill:#FFFFFF;" d="M110.7,91.2c-0.4,0-0.7-0.1-1-0.3c-0.3-0.2-0.6-0.4-0.8-0.8c-0.2-0.4-0.4-0.8-0.6-1.4
				c-0.2-0.6-0.2-1.3-0.2-2.1v-0.3c0-0.8,0.1-1.5,0.2-2.1c0.1-0.6,0.3-1.1,0.6-1.4c0.3-0.3,0.5-0.6,0.9-0.8c0.3-0.2,0.7-0.3,1.1-0.3
				c0.2,0,0.4,0,0.6,0s0.3,0.1,0.5,0.2v1.7c-0.2-0.1-0.3-0.2-0.5-0.2c-0.1-0.1-0.3-0.1-0.4-0.1c-0.2,0-0.3,0-0.5,0.1
				c-0.2,0.1-0.3,0.2-0.4,0.5c-0.1,0.2-0.2,0.5-0.3,0.9c-0.1,0.4-0.1,0.9-0.1,1.4v0.3c0,0.6,0,1.1,0.1,1.5s0.1,0.7,0.3,0.9
				c0.1,0.2,0.2,0.4,0.4,0.4c0.2,0.1,0.3,0.1,0.5,0.1c0.3,0,0.6-0.1,0.9-0.3v1.6c-0.2,0.1-0.4,0.2-0.6,0.2
				C111.2,90.9,111,91.2,110.7,91.2z"/>
			<path style="fill:#FFFFFF;" d="M115.4,91.3c-0.4,0-0.7-0.1-1-0.3c-0.3-0.2-0.6-0.5-0.8-0.8c-0.2-0.4-0.4-0.8-0.5-1.4
				c-0.1-0.6-0.2-1.2-0.2-2v-0.5c0-0.8,0.1-1.4,0.2-2c0.1-0.6,0.3-1,0.5-1.4c0.2-0.4,0.5-0.7,0.8-0.8c0.3-0.2,0.6-0.3,1-0.3
				s0.7,0.1,1,0.3c0.3,0.2,0.6,0.5,0.8,0.8c0.2,0.4,0.4,0.8,0.5,1.4c0.1,0.6,0.2,1.2,0.2,2v0.5c0,0.8-0.1,1.4-0.2,2
				c-0.1,0.6-0.3,1-0.5,1.4c-0.2,0.4-0.5,0.7-0.8,0.8C116.1,91.2,115.7,91.3,115.4,91.3z M115.4,89.8c0.1,0,0.2,0,0.3-0.1
				c0.1-0.1,0.2-0.3,0.3-0.5c0.1-0.2,0.1-0.5,0.2-0.9c0-0.4,0.1-0.9,0.1-1.5v-0.5c0-0.6,0-1.1-0.1-1.5c-0.1-0.4-0.2-0.8-0.2-1
				c-0.1-0.2-0.2-0.4-0.3-0.5c-0.1-0.1-0.2-0.1-0.3-0.1s-0.2,0-0.3,0.1c-0.1,0.1-0.2,0.3-0.3,0.5c-0.1,0.2-0.1,0.5-0.2,0.9
				c0,0.4-0.1,0.9-0.1,1.5v0.5c0,0.6,0,1.1,0.1,1.5c0,0.4,0.1,0.7,0.2,0.9c0.1,0.2,0.2,0.4,0.3,0.5
				C115.1,89.7,115.3,89.8,115.4,89.8z"/>
			<path style="fill:#FFFFFF;" d="M119.3,81.8h1.5l1.6,4.7v-4.7h1.6v9.3h-1.4l-1.7-4.9v4.9h-1.6V81.8z"/>
			<path style="fill:#FFFFFF;" d="M126.5,83.4h-1.1v-1.5h3.9v1.5h-1.1v7.8h-1.6v-7.8H126.5z"/>
			<path style="fill:#FFFFFF;" d="M130.7,81.8h1.6v9.3h-1.6V81.8z"/>
			<path style="fill:#FFFFFF;" d="M133.9,81.8h1.5l1.6,4.7v-4.7h1.6v9.3h-1.4l-1.7-4.9v4.9h-1.6V81.8L133.9,81.8z"/>
			<path style="fill:#FFFFFF;" d="M142.6,91.2c-0.3,0-0.6-0.1-0.9-0.2c-0.3-0.1-0.5-0.3-0.7-0.5s-0.4-0.5-0.5-0.9s-0.2-0.8-0.2-1.3
				v-6.6h1.6v6.7c0,0.4,0.1,0.7,0.2,0.9c0.1,0.2,0.3,0.3,0.5,0.3c0.2,0,0.4-0.1,0.5-0.3c0.1-0.2,0.2-0.5,0.2-0.9v-6.7h1.6v6.6
				c0,0.5-0.1,0.9-0.2,1.3c-0.1,0.4-0.3,0.6-0.5,0.9c-0.2,0.3-0.5,0.4-0.7,0.5C143.2,91.2,142.9,91.2,142.6,91.2z"/>
			<path style="fill:#FFFFFF;" d="M148.8,91.3c-0.4,0-0.7-0.1-1-0.3c-0.3-0.2-0.6-0.5-0.8-0.8c-0.2-0.4-0.4-0.8-0.5-1.4
				c-0.1-0.6-0.2-1.2-0.2-2v-0.5c0-0.8,0.1-1.4,0.2-2c0.1-0.6,0.3-1,0.5-1.4s0.5-0.7,0.8-0.8c0.3-0.2,0.6-0.3,1-0.3
				c0.4,0,0.7,0.1,1,0.3c0.3,0.2,0.6,0.5,0.8,0.8c0.2,0.4,0.4,0.8,0.5,1.4c0.1,0.6,0.2,1.2,0.2,2v0.5c0,0.8-0.1,1.4-0.2,2
				c-0.1,0.6-0.3,1-0.5,1.4c-0.2,0.4-0.5,0.7-0.8,0.8C149.5,91.2,149.1,91.3,148.8,91.3z M148.8,89.8c0.1,0,0.2,0,0.3-0.1
				c0.1-0.1,0.2-0.3,0.3-0.5c0.1-0.2,0.1-0.5,0.2-0.9c0-0.4,0.1-0.9,0.1-1.5v-0.5c0-0.6,0-1.1-0.1-1.5c-0.1-0.4-0.1-0.7-0.2-0.9
				c-0.1-0.2-0.2-0.4-0.3-0.5s-0.2-0.1-0.3-0.1c-0.1,0-0.2,0-0.3,0.1s-0.2,0.3-0.3,0.5c-0.1,0.2-0.1,0.5-0.2,0.9
				c0,0.4-0.1,0.9-0.1,1.5v0.5c0,0.6,0,1.1,0.1,1.5c0,0.4,0.1,0.7,0.2,0.9c0.1,0.2,0.2,0.4,0.3,0.5
				C148.5,89.7,148.7,89.8,148.8,89.8z"/>
			<path style="fill:#FFFFFF;" d="M155,91.2c-0.3,0-0.6-0.1-0.9-0.2c-0.3-0.1-0.5-0.3-0.7-0.5c-0.2-0.2-0.4-0.5-0.5-0.9
				s-0.2-0.8-0.2-1.3v-6.6h1.6v6.7c0,0.4,0.1,0.7,0.2,0.9c0.1,0.2,0.3,0.3,0.5,0.3s0.4-0.1,0.5-0.3c0.1-0.2,0.2-0.5,0.2-0.9v-6.7
				h1.6v6.6c0,0.5-0.1,0.9-0.2,1.3s-0.3,0.6-0.5,0.9c-0.2,0.3-0.5,0.4-0.7,0.5C155.6,91.2,155.3,91.2,155,91.2z"/>
			<path style="fill:#FFFFFF;" d="M160.3,91.2c-0.3,0-0.6,0-0.9-0.1c-0.3-0.1-0.5-0.2-0.8-0.3v-1.7c0.3,0.2,0.5,0.3,0.8,0.4
				c0.2,0.1,0.5,0.1,0.7,0.1c0.2,0,0.4-0.1,0.6-0.2c0.2-0.1,0.3-0.3,0.3-0.6l0,0c0-0.1,0-0.2,0-0.3s-0.1-0.2-0.1-0.3
				c-0.1-0.1-0.2-0.3-0.3-0.4c-0.1-0.1-0.3-0.3-0.5-0.6c-0.3-0.3-0.5-0.6-0.7-0.8c-0.2-0.2-0.4-0.5-0.5-0.7
				c-0.1-0.2-0.2-0.5-0.3-0.7s-0.1-0.5-0.1-0.8l0,0c0-0.4,0.1-0.7,0.2-1c0.1-0.3,0.3-0.6,0.5-0.8c0.2-0.2,0.4-0.4,0.7-0.5
				c0.3-0.1,0.6-0.2,0.9-0.2c0.3,0,0.6,0,0.8,0.1c0.2,0.1,0.4,0.1,0.6,0.2v1.7c-0.3-0.2-0.5-0.3-0.7-0.3c-0.2-0.1-0.4-0.1-0.6-0.1
				c-0.2,0-0.4,0.1-0.6,0.2c-0.2,0.1-0.2,0.3-0.2,0.6l0,0c0,0.1,0,0.2,0,0.3s0.1,0.2,0.1,0.3c0,0.1,0.2,0.2,0.3,0.4
				c0.1,0.1,0.3,0.3,0.5,0.5c0.3,0.4,0.6,0.7,0.8,1c0.2,0.3,0.4,0.5,0.5,0.8c0.1,0.2,0.2,0.5,0.2,0.7c0,0.2,0.1,0.5,0.1,0.7l0,0
				c0,0.4-0.1,0.7-0.2,1c-0.1,0.3-0.3,0.6-0.5,0.8c-0.2,0.2-0.5,0.4-0.7,0.5C161,91.2,160.7,91.2,160.3,91.2z"/>
			<path style="fill:#FFFFFF;" d="M108.3,94.2h1.6l1.1,3.4l1.1-3.4h1.6v9.3h-1.6v-5.6l-1.2,3.5l0,0l-1.2-3.5v5.6h-1.6v-9.3H108.3z"
				/>
			<path style="fill:#FFFFFF;" d="M117.7,103.6c-0.4,0-0.7-0.1-1-0.3c-0.3-0.2-0.6-0.5-0.8-0.8c-0.2-0.4-0.4-0.8-0.5-1.4
				s-0.2-1.2-0.2-2v-0.5c0-0.8,0.1-1.4,0.2-2s0.3-1,0.5-1.4c0.2-0.4,0.5-0.7,0.8-0.8c0.3-0.2,0.6-0.3,1-0.3c0.4,0,0.7,0.1,1,0.3
				c0.3,0.2,0.6,0.5,0.8,0.8c0.2,0.4,0.4,0.8,0.5,1.4s0.2,1.2,0.2,2V99c0,0.8-0.1,1.4-0.2,2s-0.3,1-0.5,1.4s-0.5,0.7-0.8,0.8
				C118.4,103.5,118.1,103.6,117.7,103.6z M117.7,102.1c0.1,0,0.2,0,0.3-0.1s0.2-0.3,0.3-0.5c0.1-0.2,0.1-0.5,0.2-0.9
				c0-0.4,0.1-0.9,0.1-1.5v-0.5c0-0.6,0-1.1-0.1-1.5s-0.1-0.7-0.2-0.9c-0.1-0.2-0.2-0.4-0.3-0.5c-0.1-0.1-0.2-0.1-0.3-0.1
				c-0.1,0-0.2,0-0.3,0.1c-0.1,0.1-0.2,0.3-0.3,0.5c-0.1,0.2-0.1,0.5-0.2,0.9c0,0.4-0.1,0.9-0.1,1.5V99c0,0.6,0,1.1,0.1,1.5
				c0,0.4,0.1,0.7,0.2,0.9c0.1,0.2,0.2,0.4,0.3,0.5C117.5,102.1,117.6,102.1,117.7,102.1z"/>
			<path style="fill:#FFFFFF;" d="M121.6,94.2h1.5l1.6,4.7v-4.7h1.6v9.3h-1.4l-1.7-4.9v4.9h-1.6V94.2z"/>
			<path style="fill:#FFFFFF;" d="M128,94.2h1.6v9.3H128V94.2z"/>
			<path style="fill:#FFFFFF;" d="M132.1,95.7H131v-1.5h3.9v1.5h-1.1v7.8h-1.6v-7.8H132.1z"/>
			<path style="fill:#FFFFFF;" d="M138.3,103.6c-0.4,0-0.7-0.1-1-0.3c-0.3-0.2-0.6-0.5-0.8-0.8c-0.2-0.4-0.4-0.8-0.5-1.4
				s-0.2-1.2-0.2-2v-0.5c0-0.8,0.1-1.4,0.2-2s0.3-1,0.5-1.4c0.2-0.4,0.5-0.7,0.8-0.8c0.3-0.2,0.6-0.3,1-0.3c0.4,0,0.7,0.1,1,0.3
				c0.3,0.2,0.6,0.5,0.8,0.8c0.2,0.4,0.4,0.8,0.5,1.4s0.2,1.2,0.2,2V99c0,0.8-0.1,1.4-0.2,2s-0.3,1-0.5,1.4
				c-0.2,0.4-0.5,0.7-0.8,0.8C139,103.5,138.7,103.6,138.3,103.6z M138.3,102.1c0.1,0,0.2,0,0.3-0.1s0.2-0.3,0.3-0.5
				s0.1-0.5,0.2-0.9c0-0.4,0.1-0.9,0.1-1.5v-0.5c0-0.6,0-1.1-0.1-1.5s-0.1-0.7-0.2-0.9c-0.1-0.2-0.2-0.4-0.3-0.5
				c-0.1-0.1-0.2-0.1-0.3-0.1c-0.1,0-0.2,0-0.3,0.1c-0.1,0.1-0.2,0.3-0.3,0.5c-0.1,0.2-0.1,0.5-0.2,0.9c0,0.4-0.1,0.9-0.1,1.5V99
				c0,0.6,0,1.1,0.1,1.5c0,0.4,0.1,0.7,0.2,0.9c0.1,0.2,0.2,0.4,0.3,0.5C138.1,102.1,138.2,102.1,138.3,102.1z"/>
			<path style="fill:#FFFFFF;" d="M142.2,94.2h1.7c0.4,0,0.8,0.1,1.1,0.2s0.7,0.3,0.9,0.5c0.2,0.2,0.5,0.5,0.6,0.9
				c0.1,0.4,0.2,0.8,0.2,1.3v0.1c0,0.6-0.1,1.1-0.3,1.5c-0.2,0.4-0.5,0.7-0.8,0.9l1.2,3.8h-1.7l-1-3.2l0,0h-0.3v3.2h-1.6V94.2
				L142.2,94.2z M143.9,98.8c0.4,0,0.6-0.1,0.9-0.3c0.2-0.2,0.3-0.6,0.3-1.2v-0.1c0-0.3,0-0.5-0.1-0.7s-0.2-0.3-0.3-0.5
				c-0.1-0.1-0.2-0.2-0.4-0.2c-0.2,0-0.3-0.1-0.5-0.1l0,0L143.9,98.8L143.9,98.8z"/>
			<path style="fill:#FFFFFF;" d="M148.2,94.2h1.6v9.3h-1.6V94.2z"/>
			<path style="fill:#FFFFFF;" d="M151.5,94.2h1.5l1.6,4.7v-4.7h1.6v9.3h-1.4l-1.7-4.9v4.9h-1.6V94.2z"/>
			<path style="fill:#FFFFFF;" d="M160.6,103.5c-0.4,0-0.8-0.1-1.1-0.3c-0.4-0.2-0.7-0.4-0.9-0.8c-0.3-0.4-0.5-0.8-0.6-1.4
				c-0.2-0.6-0.2-1.3-0.2-2.1v-0.3c0-0.8,0.1-1.4,0.2-2c0.2-0.6,0.4-1,0.6-1.4c0.2-0.4,0.6-0.7,1-0.9c0.4-0.2,0.8-0.3,1.3-0.3
				c0.2,0,0.5,0,0.7,0.1c0.2,0,0.4,0.1,0.6,0.2V96c-0.2-0.1-0.4-0.2-0.6-0.3c-0.2-0.1-0.4-0.1-0.6-0.1c-0.5,0-0.8,0.2-1.1,0.7
				c-0.3,0.5-0.4,1.2-0.4,2.2V99c0,0.6,0,1.1,0.1,1.5s0.2,0.7,0.3,0.9c0.1,0.2,0.3,0.4,0.4,0.5c0.2,0.1,0.3,0.1,0.5,0.1
				c0,0,0,0,0.1,0c0,0,0,0,0.1,0v-2.4h-1v-1.4h2.3v4.9c-0.3,0.1-0.6,0.2-0.8,0.3C161.2,103.5,160.9,103.5,160.6,103.5z"/>
		</g>
	</g>
</g>
<g id="black-arrow-2">
	<polygon style="fill:#010101;" points="252.4,90.2 233.5,64.6 171.9,64.6 190.9,90.2 171.9,117.7 233.5,117.7 	"/>
	<g>
		<g>
			<path style="fill:#FFFFFF;" d="M204.1,88h1.5c1,0,1.8,0.4,2.4,1.1c0.6,0.7,0.8,1.9,0.8,3.4v0.3c0,1.5-0.3,2.6-0.8,3.4
				c-0.5,0.8-1.4,1.1-2.4,1.1h-1.5V88z M205.8,95.8c0.2,0,0.4,0,0.6-0.1c0.2-0.1,0.3-0.3,0.5-0.5c0.2-0.2,0.2-0.5,0.3-0.9
				c0.1-0.4,0.1-0.9,0.1-1.5v-0.3c0-0.6,0-1.1-0.1-1.5c-0.1-0.4-0.2-0.7-0.3-0.9c-0.1-0.2-0.3-0.4-0.5-0.5c-0.2-0.1-0.4-0.1-0.6-0.1
				h-0.1L205.8,95.8L205.8,95.8z"/>
			<path style="fill:#FFFFFF;" d="M210.3,88h3.6v1.5H212v2.3h1.7v1.5H212v2.4h2v1.5h-3.6V88H210.3z"/>
			<path style="fill:#FFFFFF;" d="M216.3,89.5h-1.1V88h3.9v1.5H218v7.8h-1.6v-7.8H216.3z"/>
			<path style="fill:#FFFFFF;" d="M220.4,88h3.6v1.5h-2v2.3h1.7v1.5H222v2.4h2v1.5h-3.6V88z"/>
			<path style="fill:#FFFFFF;" d="M227.7,97.4c-0.4,0-0.7-0.1-1-0.3c-0.3-0.2-0.6-0.4-0.8-0.8c-0.2-0.4-0.4-0.8-0.6-1.4
				c-0.2-0.6-0.2-1.3-0.2-2.1v-0.3c0-0.8,0.1-1.5,0.2-2.1c0.1-0.6,0.3-1.1,0.6-1.4c0.3-0.3,0.5-0.6,0.9-0.8c0.3-0.2,0.7-0.3,1.1-0.3
				c0.2,0,0.4,0,0.6,0s0.3,0.1,0.5,0.2v1.7c-0.2-0.1-0.3-0.2-0.5-0.2c-0.1-0.1-0.3-0.1-0.4-0.1c-0.2,0-0.3,0-0.5,0.1
				c-0.2,0.1-0.3,0.2-0.4,0.5c-0.1,0.2-0.2,0.5-0.3,0.9s-0.1,0.9-0.1,1.4v0.3c0,0.6,0,1.1,0.1,1.5c0.1,0.4,0.1,0.7,0.3,0.9
				c0.1,0.2,0.2,0.4,0.4,0.4c0.2,0.1,0.3,0.1,0.5,0.1c0.3,0,0.6-0.1,0.9-0.3v1.6c-0.2,0.1-0.4,0.2-0.6,0.2
				C228.2,97.1,228,97.4,227.7,97.4z"/>
			<path style="fill:#FFFFFF;" d="M231.3,89.5h-1.1V88h3.9v1.5H233v7.8h-1.6v-7.8H231.3z"/>
		</g>
	</g>
</g>
<g id="black-arrow-3">
	<polygon style="fill:#010101;" points="319.8,89.7 300.8,64.1 239.3,64.1 258.2,89.7 239.3,117.2 300.8,117.2 	"/>
	<g>
		<g>
			<path style="fill:#FFFFFF;" d="M265.8,88h3.6v1.5h-1.9v2.3h1.7v1.5h-1.7v2.4h2v1.5h-3.6V88H265.8z"/>
			<path style="fill:#FFFFFF;" d="M270.8,88h1.5l1.6,4.7V88h1.6v9.3h-1.4l-1.7-4.9v4.9h-1.6V88z"/>
			<path style="fill:#FFFFFF;" d="M277.2,88h1.7c0.4,0,0.8,0.1,1.1,0.2c0.3,0.1,0.7,0.3,0.9,0.5c0.2,0.2,0.5,0.5,0.6,0.9
				s0.2,0.8,0.2,1.3V91c0,0.6-0.1,1.1-0.3,1.5c-0.2,0.4-0.5,0.7-0.8,0.9l1.2,3.8h-1.7l-1-3.2l0,0h-0.3v3.2h-1.6V88L277.2,88z
				 M278.9,92.6c0.4,0,0.6-0.1,0.9-0.3c0.2-0.2,0.3-0.6,0.3-1.2V91c0-0.3,0-0.5-0.1-0.7c-0.1-0.2-0.2-0.3-0.3-0.5
				c-0.1-0.1-0.2-0.2-0.4-0.2c-0.2,0-0.3-0.1-0.5-0.1l0,0L278.9,92.6L278.9,92.6z"/>
			<path style="fill:#FFFFFF;" d="M283.2,88h1.6v9.3h-1.6V88z"/>
			<path style="fill:#FFFFFF;" d="M288.9,97.4c-0.4,0-0.7-0.1-1-0.3c-0.3-0.2-0.6-0.4-0.8-0.8c-0.2-0.4-0.4-0.8-0.6-1.4
				s-0.2-1.3-0.2-2.1v-0.3c0-0.8,0.1-1.5,0.2-2.1s0.3-1.1,0.6-1.4c0.3-0.3,0.5-0.6,0.9-0.8c0.3-0.2,0.7-0.3,1.1-0.3
				c0.2,0,0.4,0,0.6,0c0.2,0,0.3,0.1,0.5,0.2v1.7c-0.2-0.1-0.3-0.2-0.5-0.2c-0.1-0.1-0.3-0.1-0.4-0.1c-0.2,0-0.3,0-0.5,0.1
				c-0.2,0.1-0.3,0.2-0.4,0.5c-0.1,0.2-0.2,0.5-0.3,0.9s-0.1,0.9-0.1,1.4v0.3c0,0.6,0,1.1,0.1,1.5c0.1,0.4,0.1,0.7,0.3,0.9
				c0.1,0.2,0.2,0.4,0.4,0.4c0.2,0.1,0.3,0.1,0.5,0.1c0.3,0,0.6-0.1,0.9-0.3v1.6c-0.2,0.1-0.4,0.2-0.6,0.2
				C289.4,97.1,289.1,97.4,288.9,97.4z"/>
			<path style="fill:#FFFFFF;" d="M291.6,88h1.6v3.9h1.4V88h1.6v9.3h-1.6v-3.9h-1.4v3.9h-1.6V88z"/>
		</g>
	</g>
</g>
<g id="black-arrow-4">
	<polygon style="fill:#010101;" points="387.2,90.2 368.2,64.6 306.6,64.6 325.6,90.2 306.7,117.7 368.2,117.7 	"/>
	<g>
		<g>
			<path style="fill:#FFFFFF;" d="M333.7,88h1.6l0.9,6.1l0.9-6.1h1.6l-1.7,9.3h-1.7L333.7,88z"/>
			<path style="fill:#FFFFFF;" d="M340.8,88h1.7l1.8,9.3h-1.6l-0.3-1.8h-1.5l-0.3,1.8H339L340.8,88z M342.2,94l-0.5-3.1l-0.5,3.1
				H342.2z"/>
			<path style="fill:#FFFFFF;" d="M345.5,88h1.6v7.8h1.7v1.5h-3.3V88z"/>
			<path style="fill:#FFFFFF;" d="M350.2,88h1.6v9.3h-1.6V88z"/>
			<path style="fill:#FFFFFF;" d="M353.4,88h1.5c1,0,1.8,0.4,2.4,1.1c0.6,0.7,0.8,1.9,0.8,3.4v0.3c0,1.5-0.3,2.6-0.8,3.4
				c-0.5,0.8-1.4,1.1-2.4,1.1h-1.5V88z M355.1,95.8c0.2,0,0.4,0,0.6-0.1c0.2-0.1,0.3-0.3,0.5-0.5c0.2-0.2,0.2-0.5,0.3-0.9
				c0.1-0.4,0.1-0.9,0.1-1.5v-0.3c0-0.6,0-1.1-0.1-1.5s-0.2-0.7-0.3-0.9c-0.1-0.2-0.3-0.4-0.5-0.5s-0.4-0.1-0.6-0.1H355L355.1,95.8
				L355.1,95.8z"/>
			<path style="fill:#FFFFFF;" d="M360.8,88h1.7l1.8,9.3h-1.6l-0.3-1.8h-1.5l-0.3,1.8H359L360.8,88z M362.2,94l-0.5-3.1l-0.5,3.1
				H362.2z"/>
			<path style="fill:#FFFFFF;" d="M365.9,89.5h-1.1V88h3.9v1.5h-1.1v7.8H366L365.9,89.5L365.9,89.5z"/>
			<path style="fill:#FFFFFF;" d="M370.1,88h3.6v1.5h-1.9v2.3h1.7v1.5h-1.7v2.4h2v1.5h-3.6V88H370.1z"/>
		</g>
	</g>
</g>
<g id="black-arrow-5">
	<polygon style="fill:#010101;" points="454.6,90.7 435.6,65 374,65 393,90.7 374,118.2 435.6,118.2 	"/>
	<g>
		<g>
			<path style="fill:#FFFFFF;" d="M400.5,88h3.6v1.5h-1.9v2.3h1.7v1.5h-1.7v2.4h2v1.5h-3.6L400.5,88L400.5,88z"/>
			<path style="fill:#FFFFFF;" d="M407,97.4c-0.3,0-0.6,0-0.9-0.1c-0.3-0.1-0.5-0.2-0.8-0.3v-1.7c0.3,0.2,0.5,0.3,0.8,0.4
				c0.2,0.1,0.5,0.1,0.7,0.1s0.4-0.1,0.6-0.2c0.2-0.1,0.3-0.3,0.3-0.6l0,0c0-0.1,0-0.2,0-0.3c0-0.1-0.1-0.2-0.1-0.3
				c-0.1-0.1-0.2-0.3-0.3-0.4c-0.1-0.1-0.3-0.3-0.5-0.6c-0.3-0.3-0.5-0.6-0.7-0.8c-0.2-0.2-0.4-0.5-0.5-0.7
				c-0.1-0.2-0.2-0.5-0.3-0.7c-0.1-0.2-0.1-0.5-0.1-0.8l0,0c0-0.4,0.1-0.7,0.2-1c0.1-0.3,0.3-0.6,0.5-0.8c0.2-0.2,0.4-0.4,0.7-0.5
				c0.3-0.1,0.6-0.2,0.9-0.2s0.6,0,0.8,0.1s0.4,0.1,0.6,0.2v1.7c-0.3-0.2-0.5-0.3-0.7-0.3c-0.2-0.1-0.4-0.1-0.6-0.1
				c-0.2,0-0.4,0.1-0.6,0.2c-0.2,0.1-0.2,0.3-0.2,0.6l0,0c0,0.1,0,0.2,0,0.3s0.1,0.2,0.1,0.3s0.2,0.2,0.3,0.4
				c0.1,0.1,0.3,0.3,0.5,0.5c0.3,0.4,0.6,0.7,0.8,1c0.2,0.3,0.4,0.5,0.5,0.8c0.1,0.2,0.2,0.5,0.2,0.7c0,0.2,0.1,0.5,0.1,0.7l0,0
				c0,0.4-0.1,0.7-0.2,1c-0.1,0.3-0.3,0.6-0.5,0.8c-0.2,0.2-0.5,0.4-0.7,0.5C407.7,97.4,407.4,97.4,407,97.4z"/>
			<path style="fill:#FFFFFF;" d="M413,97.4c-0.4,0-0.7-0.1-1-0.3c-0.3-0.2-0.6-0.4-0.8-0.8c-0.2-0.4-0.4-0.8-0.6-1.4
				c-0.2-0.6-0.2-1.3-0.2-2.1v-0.3c0-0.8,0.1-1.5,0.2-2.1c0.1-0.6,0.3-1.1,0.6-1.4s0.5-0.6,0.9-0.8c0.3-0.2,0.7-0.3,1.1-0.3
				c0.2,0,0.4,0,0.6,0s0.3,0.1,0.5,0.2v1.7c-0.2-0.1-0.3-0.2-0.5-0.2c-0.1-0.1-0.3-0.1-0.4-0.1c-0.2,0-0.3,0-0.5,0.1
				c-0.2,0.1-0.3,0.2-0.4,0.5c-0.1,0.2-0.2,0.5-0.3,0.9c-0.1,0.4-0.1,0.9-0.1,1.4v0.3c0,0.6,0,1.1,0.1,1.5c0.1,0.4,0.1,0.7,0.3,0.9
				c0.1,0.2,0.2,0.4,0.4,0.4c0.2,0.1,0.3,0.1,0.5,0.1c0.3,0,0.6-0.1,0.9-0.3v1.6c-0.2,0.1-0.4,0.2-0.6,0.2S413.2,97.4,413,97.4z"/>
			<path style="fill:#FFFFFF;" d="M416.9,88h1.7l1.8,9.3h-1.6l-0.3-1.8H417l-0.3,1.8h-1.6L416.9,88z M418.3,94l-0.5-3.1l-0.5,3.1
				H418.3z"/>
			<path style="fill:#FFFFFF;" d="M421.6,88h1.6v7.8h1.7v1.5h-3.3V88L421.6,88z"/>
			<path style="fill:#FFFFFF;" d="M427.5,88h1.7l1.8,9.3h-1.6l-0.3-1.8h-1.5l-0.3,1.8h-1.6L427.5,88z M428.8,94l-0.5-3.1l-0.5,3.1
				H428.8z"/>
			<path style="fill:#FFFFFF;" d="M432.6,89.5h-1.1V88h3.9v1.5h-1.1v7.8h-1.6v-7.8H432.6z"/>
			<path style="fill:#FFFFFF;" d="M436.7,88h3.6v1.5h-1.9v2.3h1.7v1.5h-1.7v2.4h2v1.5h-3.6L436.7,88L436.7,88z"/>
		</g>
	</g>
</g>
<g id="black-arrow-6">
	<polygon style="fill:#010101;" points="522,91.1 503,65.5 441.4,65.5 460.4,91.1 441.4,118.6 503,118.6 	"/>
	<g>
		<g>
			<path style="fill:#FFFFFF;" d="M473.6,88h1.4c0.4,0,0.8,0,1.1,0.1c0.4,0.1,0.7,0.2,1,0.4c0.3,0.2,0.5,0.4,0.7,0.7
				c0.2,0.3,0.3,0.7,0.3,1.1v0.1c0,0.3,0,0.6-0.1,0.8c-0.1,0.2-0.2,0.4-0.3,0.6c-0.1,0.2-0.3,0.3-0.4,0.4c-0.1,0.1-0.3,0.2-0.5,0.3
				c0.2,0.1,0.4,0.2,0.6,0.3c0.2,0.1,0.3,0.3,0.5,0.4c0.1,0.2,0.2,0.4,0.3,0.6c0.1,0.2,0.1,0.5,0.1,0.8v0.1c0,0.4-0.1,0.8-0.2,1.1
				c-0.2,0.3-0.4,0.6-0.6,0.8c-0.3,0.2-0.6,0.4-1,0.5s-0.8,0.2-1.2,0.2h-1.5V88H473.6z M475.3,91.9c0.4,0,0.7-0.1,0.9-0.3
				c0.2-0.2,0.3-0.5,0.3-0.9l0,0c0-0.4-0.1-0.7-0.3-0.9c-0.2-0.2-0.5-0.3-0.9-0.3l0,0V91.9L475.3,91.9z M475.3,95.8
				c0.4,0,0.7-0.1,0.9-0.3s0.4-0.5,0.4-0.9v-0.1c0-0.4-0.1-0.7-0.4-0.9c-0.2-0.2-0.5-0.3-0.9-0.3l0,0V95.8L475.3,95.8z"/>
			<path style="fill:#FFFFFF;" d="M479.5,88h1.6v7.8h1.7v1.5h-3.3V88z"/>
			<path style="fill:#FFFFFF;" d="M486.1,97.4c-0.4,0-0.7-0.1-1-0.3c-0.3-0.2-0.6-0.5-0.8-0.8c-0.2-0.4-0.4-0.8-0.5-1.4
				c-0.1-0.6-0.2-1.2-0.2-2v-0.5c0-0.8,0.1-1.4,0.2-2c0.1-0.6,0.3-1,0.5-1.4s0.5-0.7,0.8-0.8c0.3-0.2,0.6-0.3,1-0.3
				c0.4,0,0.7,0.1,1,0.3c0.3,0.2,0.6,0.5,0.8,0.8c0.2,0.4,0.4,0.8,0.5,1.4c0.1,0.6,0.2,1.2,0.2,2v0.5c0,0.8-0.1,1.4-0.2,2
				c-0.1,0.6-0.3,1-0.5,1.4c-0.2,0.4-0.5,0.7-0.8,0.8C486.8,97.3,486.5,97.4,486.1,97.4z M486.1,95.9c0.1,0,0.2,0,0.3-0.1
				c0.1-0.1,0.2-0.3,0.3-0.5c0.1-0.2,0.1-0.5,0.2-0.9c0-0.4,0.1-0.9,0.1-1.5v-0.5c0-0.6,0-1.1-0.1-1.5c-0.1-0.4-0.1-0.7-0.2-0.9
				c-0.1-0.2-0.2-0.4-0.3-0.5c-0.1-0.1-0.2-0.1-0.3-0.1c-0.1,0-0.2,0-0.3,0.1c-0.1,0.1-0.2,0.3-0.3,0.5s-0.1,0.5-0.2,0.9
				c0,0.4-0.1,0.9-0.1,1.5v0.5c0,0.6,0,1.1,0.1,1.5c0,0.4,0.1,0.7,0.2,0.9c0.1,0.2,0.2,0.4,0.3,0.5C485.9,95.9,486,95.9,486.1,95.9z
				"/>
			<path style="fill:#FFFFFF;" d="M492.5,97.4c-0.4,0-0.7-0.1-1-0.3c-0.3-0.2-0.6-0.4-0.8-0.8c-0.2-0.4-0.4-0.8-0.6-1.4
				c-0.2-0.6-0.2-1.3-0.2-2.1v-0.3c0-0.8,0.1-1.5,0.2-2.1c0.1-0.6,0.3-1.1,0.6-1.4s0.5-0.6,0.9-0.8c0.3-0.2,0.7-0.3,1.1-0.3
				c0.2,0,0.4,0,0.6,0s0.3,0.1,0.5,0.2v1.7c-0.2-0.1-0.3-0.2-0.5-0.2c-0.1-0.1-0.3-0.1-0.4-0.1c-0.2,0-0.3,0-0.5,0.1
				c-0.2,0.1-0.3,0.2-0.4,0.5c-0.1,0.2-0.2,0.5-0.3,0.9c-0.1,0.4-0.1,0.9-0.1,1.4v0.3c0,0.6,0,1.1,0.1,1.5c0.1,0.4,0.1,0.7,0.3,0.9
				c0.1,0.2,0.2,0.4,0.4,0.4c0.2,0.1,0.3,0.1,0.5,0.1c0.3,0,0.6-0.1,0.9-0.3v1.6c-0.2,0.1-0.4,0.2-0.6,0.2S492.8,97.4,492.5,97.4z"
				/>
			<path style="fill:#FFFFFF;" d="M495.2,88h1.6v3.9l1.3-3.9h1.8l-1.6,3.9l1.6,5.4h-1.8l-1-3.5l-0.4,1v2.5h-1.6V88H495.2z"/>
		</g>
	</g>
</g>
<g id="black-arrow-7">
	<polygon style="fill:#010101;" points="617.8,91.6 598.8,66 508.8,66 527.7,91.6 508.8,119.1 598.8,119.1 	"/>
	<g>
		<g>
			<path style="fill:#FFFFFF;" d="M541.5,91.2c-0.3,0-0.6,0-0.9-0.1c-0.3-0.1-0.5-0.2-0.8-0.3v-1.7c0.3,0.2,0.5,0.3,0.8,0.4
				c0.2,0.1,0.5,0.1,0.7,0.1s0.4-0.1,0.6-0.2c0.2-0.1,0.3-0.3,0.3-0.6l0,0c0-0.1,0-0.2,0-0.3s-0.1-0.2-0.1-0.3
				c-0.1-0.1-0.2-0.3-0.3-0.4c-0.1-0.1-0.3-0.3-0.5-0.6c-0.3-0.3-0.5-0.6-0.7-0.8c-0.2-0.2-0.4-0.5-0.5-0.7
				c-0.1-0.2-0.2-0.5-0.3-0.7c-0.1-0.2-0.1-0.5-0.1-0.8l0,0c0-0.4,0.1-0.7,0.2-1c0.1-0.3,0.3-0.6,0.5-0.8c0.2-0.2,0.4-0.4,0.7-0.5
				c0.3-0.1,0.6-0.2,0.9-0.2s0.6,0,0.8,0.1c0.2,0.1,0.4,0.1,0.6,0.2v1.7c-0.3-0.2-0.5-0.3-0.7-0.3c-0.2-0.1-0.4-0.1-0.6-0.1
				c-0.2,0-0.4,0.1-0.6,0.2s-0.2,0.3-0.2,0.6l0,0c0,0.1,0,0.2,0,0.3s0.1,0.2,0.1,0.3c0,0.1,0.2,0.2,0.3,0.4c0.1,0.1,0.3,0.3,0.5,0.5
				c0.3,0.4,0.6,0.7,0.8,1c0.2,0.3,0.4,0.5,0.5,0.8c0.1,0.2,0.2,0.5,0.2,0.7c0,0.2,0.1,0.5,0.1,0.7l0,0c0,0.4-0.1,0.7-0.2,1
				c-0.1,0.3-0.3,0.6-0.5,0.8c-0.2,0.2-0.5,0.4-0.7,0.5C542.2,91.2,541.8,91.2,541.5,91.2z"/>
			<path style="fill:#FFFFFF;" d="M545,81.8h3.6v1.5h-1.9v2.3h1.7v1.5h-1.7v2.4h2V91H545V81.8z"/>
			<path style="fill:#FFFFFF;" d="M551.4,81.8h1.7l1.8,9.3h-1.6l-0.3-1.8h-1.5l-0.3,1.8h-1.6L551.4,81.8z M552.7,87.8l-0.5-3.1
				l-0.5,3.1H552.7z"/>
			<path style="fill:#FFFFFF;" d="M556,81.8h1.7c0.4,0,0.8,0.1,1.1,0.2s0.7,0.3,0.9,0.5s0.5,0.5,0.6,0.9c0.1,0.4,0.2,0.8,0.2,1.3
				v0.1c0,0.6-0.1,1.1-0.3,1.5c-0.2,0.4-0.5,0.7-0.8,0.9l1.2,3.8H559l-1-3.2l0,0h-0.3V91H556V81.8z M557.7,86.4
				c0.4,0,0.6-0.1,0.9-0.3c0.2-0.2,0.3-0.6,0.3-1.2v-0.1c0-0.3,0-0.5-0.1-0.7c-0.1-0.2-0.2-0.3-0.3-0.5c-0.1-0.1-0.2-0.2-0.4-0.2
				c-0.2,0-0.3-0.1-0.5-0.1l0,0L557.7,86.4L557.7,86.4z"/>
			<path style="fill:#FFFFFF;" d="M564.4,91.2c-0.4,0-0.7-0.1-1-0.3c-0.3-0.2-0.6-0.4-0.8-0.8c-0.2-0.4-0.4-0.8-0.6-1.4
				c-0.2-0.6-0.2-1.3-0.2-2.1v-0.3c0-0.8,0.1-1.5,0.2-2.1c0.1-0.6,0.3-1.1,0.6-1.4c0.3-0.3,0.5-0.6,0.9-0.8c0.3-0.2,0.7-0.3,1.1-0.3
				c0.2,0,0.4,0,0.6,0s0.3,0.1,0.5,0.2v1.7c-0.2-0.1-0.3-0.2-0.5-0.2c-0.1-0.1-0.3-0.1-0.4-0.1c-0.2,0-0.3,0-0.5,0.1
				s-0.3,0.2-0.4,0.5c-0.1,0.2-0.2,0.5-0.3,0.9c-0.1,0.4-0.1,0.9-0.1,1.4v0.3c0,0.6,0,1.1,0.1,1.5c0.1,0.4,0.1,0.7,0.3,0.9
				c0.1,0.2,0.2,0.4,0.4,0.4c0.2,0.1,0.3,0.1,0.5,0.1c0.3,0,0.6-0.1,0.9-0.3v1.6c-0.2,0.1-0.4,0.2-0.6,0.2
				C564.9,90.9,564.7,91.2,564.4,91.2z"/>
			<path style="fill:#FFFFFF;" d="M567.1,81.8h1.6v3.9h1.4v-3.9h1.6v9.3h-1.6v-3.9h-1.4v3.9h-1.6V81.8z"/>
			<path style="fill:#FFFFFF;" d="M540,94.2h3.6v1.5h-1.9V98h1.7v1.5h-1.7v2.4h2v1.5H540V94.2z"/>
			<path style="fill:#FFFFFF;" d="M545.1,94.2h1.5l1.6,4.7v-4.7h1.6v9.3h-1.4l-1.7-4.9v4.9h-1.6V94.2L545.1,94.2z"/>
			<path style="fill:#FFFFFF;" d="M551,94.2h1.6l0.9,6.1l0.9-6.1h1.6l-1.7,9.3h-1.7L551,94.2z"/>
			<path style="fill:#FFFFFF;" d="M557.2,94.2h1.6v9.3h-1.6V94.2z"/>
			<path style="fill:#FFFFFF;" d="M560.4,94.2h1.7c0.4,0,0.8,0.1,1.1,0.2s0.7,0.3,0.9,0.5c0.2,0.2,0.5,0.5,0.6,0.9
				c0.1,0.4,0.2,0.8,0.2,1.3v0.1c0,0.6-0.1,1.1-0.3,1.5c-0.2,0.4-0.5,0.7-0.8,0.9l1.2,3.8h-1.7l-1-3.2l0,0H562v3.2h-1.6V94.2z
				 M562.1,98.8c0.4,0,0.6-0.1,0.9-0.3c0.2-0.2,0.3-0.6,0.3-1.2v-0.1c0-0.3,0-0.5-0.1-0.7c-0.1-0.2-0.2-0.3-0.3-0.5
				c-0.1-0.1-0.2-0.2-0.4-0.2s-0.3-0.1-0.5-0.1l0,0L562.1,98.8L562.1,98.8z"/>
			<path style="fill:#FFFFFF;" d="M568.7,103.6c-0.4,0-0.7-0.1-1-0.3c-0.3-0.2-0.6-0.5-0.8-0.8c-0.2-0.4-0.4-0.8-0.5-1.4
				c-0.1-0.6-0.2-1.2-0.2-2v-0.5c0-0.8,0.1-1.4,0.2-2c0.1-0.6,0.3-1,0.5-1.4c0.2-0.4,0.5-0.7,0.8-0.8c0.3-0.2,0.6-0.3,1-0.3
				c0.4,0,0.7,0.1,1,0.3c0.3,0.2,0.6,0.5,0.8,0.8c0.2,0.4,0.4,0.8,0.5,1.4s0.2,1.2,0.2,2V99c0,0.8-0.1,1.4-0.2,2s-0.3,1-0.5,1.4
				s-0.5,0.7-0.8,0.8C569.4,103.5,569.1,103.6,568.7,103.6z M568.7,102.1c0.1,0,0.2,0,0.3-0.1s0.2-0.3,0.3-0.5
				c0.1-0.2,0.1-0.5,0.2-0.9c0-0.4,0.1-0.9,0.1-1.5v-0.5c0-0.6,0-1.1-0.1-1.5s-0.1-0.7-0.2-0.9c-0.1-0.2-0.2-0.4-0.3-0.5
				c-0.1-0.1-0.2-0.1-0.3-0.1c-0.1,0-0.2,0-0.3,0.1c-0.1,0.1-0.2,0.3-0.3,0.5c-0.1,0.2-0.1,0.5-0.2,0.9c0,0.4-0.1,0.9-0.1,1.5V99
				c0,0.6,0,1.1,0.1,1.5c0,0.4,0.1,0.7,0.2,0.9c0.1,0.2,0.2,0.4,0.3,0.5C568.4,102.1,568.6,102.1,568.7,102.1z"/>
			<path style="fill:#FFFFFF;" d="M572.6,94.2h1.5l1.6,4.7v-4.7h1.6v9.3h-1.4l-1.7-4.9v4.9h-1.6V94.2L572.6,94.2z"/>
			<path style="fill:#FFFFFF;" d="M579,94.2h1.6l1.1,3.4l1.1-3.4h1.6v9.3h-1.6v-5.6l-1.2,3.5l0,0l-1.2-3.5v5.6H579V94.2z"/>
			<path style="fill:#FFFFFF;" d="M586.1,94.2h3.6v1.5h-1.9V98h1.7v1.5h-1.7v2.4h2v1.5h-3.6v-9.2H586.1z"/>
			<path style="fill:#FFFFFF;" d="M591.1,94.2h1.5l1.6,4.7v-4.7h1.6v9.3h-1.4l-1.7-4.9v4.9h-1.6V94.2L591.1,94.2z"/>
			<path style="fill:#FFFFFF;" d="M598.3,95.7h-1.1v-1.5h3.9v1.5H600v7.8h-1.6v-7.8H598.3z"/>
		</g>
	</g>
</g>
<g id="black-arrow-8">
	<polygon style="fill:#010101;" points="704.1,92.1 685.2,66.5 604.6,66.5 623.6,92.1 604.6,119.6 685.2,119.6 	"/>
	<g>
		<g>
			<path style="fill:#FFFFFF;" d="M635.9,81.8h1.7c0.4,0,0.8,0.1,1.1,0.2s0.7,0.3,0.9,0.5c0.2,0.2,0.5,0.5,0.6,0.9
				c0.1,0.4,0.2,0.8,0.2,1.3v0.1c0,0.6-0.1,1.1-0.3,1.5c-0.2,0.4-0.5,0.7-0.8,0.9l1.2,3.8h-1.7l-1-3.2l0,0h-0.3V91h-1.6V81.8
				L635.9,81.8z M637.6,86.4c0.4,0,0.6-0.1,0.9-0.3c0.2-0.2,0.3-0.6,0.3-1.2v-0.1c0-0.3,0-0.5-0.1-0.7c-0.1-0.2-0.2-0.3-0.3-0.5
				c-0.1-0.1-0.2-0.2-0.4-0.2s-0.3-0.1-0.5-0.1l0,0L637.6,86.4L637.6,86.4z"/>
			<path style="fill:#FFFFFF;" d="M641.8,81.8h3.6v1.5h-1.9v2.3h1.7v1.5h-1.7v2.4h2V91h-3.6v-9.2H641.8z"/>
			<path style="fill:#FFFFFF;" d="M646.9,81.8h1.6l1.1,3.4l1.1-3.4h1.6v9.3h-1.6v-5.6l-1.2,3.5l0,0l-1.2-3.5v5.6h-1.6v-9.3H646.9z"
				/>
			<path style="fill:#FFFFFF;" d="M654,81.8h3.6v1.5h-1.9v2.3h1.7v1.5h-1.7v2.4h2V91H654V81.8z"/>
			<path style="fill:#FFFFFF;" d="M659.1,81.8h1.5c1,0,1.8,0.4,2.4,1.1c0.6,0.7,0.8,1.9,0.8,3.4v0.3c0,1.5-0.3,2.6-0.8,3.4
				s-1.4,1.1-2.4,1.1h-1.5V81.8z M660.7,89.6c0.2,0,0.4,0,0.6-0.1s0.3-0.3,0.5-0.5s0.2-0.5,0.3-0.9c0.1-0.4,0.1-0.9,0.1-1.5v-0.3
				c0-0.6,0-1.1-0.1-1.5c-0.1-0.4-0.2-0.7-0.3-0.9c-0.1-0.2-0.3-0.4-0.5-0.5s-0.4-0.1-0.6-0.1h-0.1L660.7,89.6L660.7,89.6z"/>
			<path style="fill:#FFFFFF;" d="M665.3,81.8h1.6v9.3h-1.6V81.8z"/>
			<path style="fill:#FFFFFF;" d="M669.9,81.8h1.7l1.8,9.3h-1.6l-0.3-1.8H670l-0.3,1.8h-1.6L669.9,81.8z M671.2,87.8l-0.5-3.1
				l-0.5,3.1H671.2z"/>
			<path style="fill:#FFFFFF;" d="M675,83.4h-1.1v-1.5h3.9v1.5h-1.1v7.8H675V83.4z"/>
			<path style="fill:#FFFFFF;" d="M679.1,81.8h3.6v1.5h-1.9v2.3h1.7v1.5h-1.7v2.4h2V91h-3.6v-9.2H679.1z"/>
			<path style="fill:#FFFFFF;" d="M635.9,94.2h3.6v1.5h-1.9V98h1.7v1.5h-1.7v2.4h2v1.5H636L635.9,94.2L635.9,94.2z"/>
			<path style="fill:#FFFFFF;" d="M640.9,94.2h1.5l1.6,4.7v-4.7h1.6v9.3h-1.4l-1.7-4.9v4.9h-1.6V94.2L640.9,94.2z"/>
			<path style="fill:#FFFFFF;" d="M647.3,94.2h1.5c1,0,1.8,0.4,2.4,1.1c0.6,0.7,0.8,1.9,0.8,3.4V99c0,1.5-0.3,2.6-0.8,3.4
				c-0.5,0.8-1.4,1.1-2.4,1.1h-1.5V94.2z M649,102c0.2,0,0.4,0,0.6-0.1c0.2-0.1,0.3-0.3,0.5-0.5c0.2-0.2,0.2-0.5,0.3-0.9
				c0.1-0.4,0.1-0.9,0.1-1.5v-0.3c0-0.6,0-1.1-0.1-1.5c-0.1-0.4-0.2-0.7-0.3-0.9c-0.1-0.2-0.3-0.4-0.5-0.5c-0.2-0.1-0.4-0.1-0.6-0.1
				h-0.1L649,102L649,102z"/>
			<path style="fill:#FFFFFF;" d="M653.5,94.2h1.4c0.4,0,0.8,0.1,1.2,0.2c0.4,0.1,0.7,0.3,1,0.6c0.3,0.3,0.5,0.6,0.6,1
				c0.1,0.4,0.2,0.9,0.2,1.4l0,0c0,0.5-0.1,1-0.2,1.4c-0.1,0.4-0.3,0.7-0.6,1c-0.3,0.3-0.5,0.5-0.9,0.6c-0.4,0.1-0.7,0.2-1.1,0.3
				l0,0v2.9h-1.6V94.2L653.5,94.2z M655.1,99c0.3,0,0.6-0.2,0.9-0.4c0.2-0.3,0.3-0.7,0.3-1.2l0,0c0-0.6-0.1-1-0.3-1.3
				c-0.2-0.3-0.5-0.4-0.8-0.4h-0.1V99L655.1,99z"/>
			<path style="fill:#FFFFFF;" d="M661.6,103.6c-0.4,0-0.7-0.1-1-0.3c-0.3-0.2-0.6-0.5-0.8-0.8c-0.2-0.4-0.4-0.8-0.5-1.4
				c-0.1-0.6-0.2-1.2-0.2-2v-0.5c0-0.8,0.1-1.4,0.2-2c0.1-0.6,0.3-1,0.5-1.4c0.2-0.4,0.5-0.7,0.8-0.8c0.3-0.2,0.6-0.3,1-0.3
				c0.4,0,0.7,0.1,1,0.3c0.3,0.2,0.6,0.5,0.8,0.8c0.2,0.4,0.4,0.8,0.5,1.4c0.1,0.6,0.2,1.2,0.2,2V99c0,0.8-0.1,1.4-0.2,2
				c-0.1,0.6-0.3,1-0.5,1.4c-0.2,0.4-0.5,0.7-0.8,0.8C662.3,103.5,662,103.6,661.6,103.6z M661.6,102.1c0.1,0,0.2,0,0.3-0.1
				c0.1-0.1,0.2-0.3,0.3-0.5c0.1-0.2,0.1-0.5,0.2-0.9c0-0.4,0.1-0.9,0.1-1.5v-0.5c0-0.6,0-1.1-0.1-1.5c-0.1-0.4-0.1-0.7-0.2-0.9
				c-0.1-0.2-0.2-0.4-0.3-0.5c-0.1-0.1-0.2-0.1-0.3-0.1c-0.1,0-0.2,0-0.3,0.1c-0.1,0.1-0.2,0.3-0.3,0.5c-0.1,0.2-0.1,0.5-0.2,0.9
				c0,0.4-0.1,0.9-0.1,1.5V99c0,0.6,0,1.1,0.1,1.5c0,0.4,0.1,0.7,0.2,0.9c0.1,0.2,0.2,0.4,0.3,0.5
				C661.4,102.1,661.5,102.1,661.6,102.1z"/>
			<path style="fill:#FFFFFF;" d="M665.6,94.2h1.6v9.3h-1.6V94.2z"/>
			<path style="fill:#FFFFFF;" d="M668.8,94.2h1.5l1.6,4.7v-4.7h1.6v9.3h-1.4l-1.7-4.9v4.9h-1.6V94.2L668.8,94.2z"/>
			<path style="fill:#FFFFFF;" d="M676,95.7h-1.1v-1.5h3.9v1.5h-1.1v7.8H676V95.7z"/>
			<path style="fill:#FFFFFF;" d="M681.6,103.5c-0.3,0-0.6,0-0.9-0.1s-0.5-0.2-0.8-0.3v-1.7c0.3,0.2,0.5,0.3,0.8,0.4
				c0.2,0.1,0.5,0.1,0.7,0.1c0.2,0,0.4-0.1,0.6-0.2c0.2-0.1,0.3-0.3,0.3-0.6l0,0c0-0.1,0-0.2,0-0.3c0-0.1-0.1-0.2-0.1-0.3
				c-0.1-0.1-0.2-0.3-0.3-0.4c-0.1-0.1-0.3-0.3-0.5-0.6c-0.3-0.3-0.5-0.6-0.7-0.8c-0.2-0.2-0.4-0.5-0.5-0.7
				c-0.1-0.2-0.2-0.5-0.3-0.7c-0.1-0.2-0.1-0.5-0.1-0.8l0,0c0-0.4,0.1-0.7,0.2-1s0.3-0.6,0.5-0.8c0.2-0.2,0.4-0.4,0.7-0.5
				c0.3-0.1,0.6-0.2,0.9-0.2c0.3,0,0.6,0,0.8,0.1c0.2,0.1,0.4,0.1,0.6,0.2V96c-0.3-0.2-0.5-0.3-0.7-0.3c-0.2-0.1-0.4-0.1-0.6-0.1
				s-0.4,0.1-0.6,0.2c-0.2,0.1-0.2,0.3-0.2,0.6l0,0c0,0.1,0,0.2,0,0.3c0,0.1,0.1,0.2,0.1,0.3s0.2,0.2,0.3,0.4
				c0.1,0.1,0.3,0.3,0.5,0.5c0.3,0.4,0.6,0.7,0.8,1c0.2,0.3,0.4,0.5,0.5,0.8c0.1,0.2,0.2,0.5,0.2,0.7c0,0.2,0.1,0.5,0.1,0.7l0,0
				c0,0.4-0.1,0.7-0.2,1c-0.1,0.3-0.3,0.6-0.5,0.8c-0.2,0.2-0.5,0.4-0.7,0.5S681.9,103.5,681.6,103.5z"/>
		</g>
	</g>
</g>
<g id="top-red-arrow-1">
	<polygon style="fill:#EE2228;" points="222.5,128.6 94.9,129 94.9,182.1 222.6,181.7 241.6,154.3 	"/>
	<g>
		<g>
			<path style="fill:#FFFFFF;" d="M141.8,150.9l-1.3,0.4v-2.2l2-0.6h1.6v12.9h-2.2v-10.5H141.8z"/>
			<path style="fill:#FFFFFF;" d="M145.5,154.6h4.7v2.2h-4.7V154.6z"/>
			<path style="fill:#FFFFFF;" d="M151.7,150.9l-1.3,0.4v-2.2l2-0.6h1.6v12.9h-2.2L151.7,150.9L151.7,150.9z"/>
			<path style="fill:#FFFFFF;" d="M155.2,159.5l2.2-4.9c0.3-0.7,0.6-1.3,0.7-1.7s0.2-0.8,0.2-1.1c0-0.3-0.1-0.6-0.3-0.8
				c-0.2-0.2-0.5-0.3-0.8-0.3c-0.3,0-0.6,0.1-0.9,0.2c-0.3,0.1-0.5,0.2-0.8,0.4V149c0.3-0.2,0.6-0.3,1-0.4s0.7-0.1,1.2-0.1
				c0.8,0,1.5,0.2,2,0.7s0.8,1.2,0.8,2.1v0.1c0,0.2,0,0.5-0.1,0.7c0,0.2-0.1,0.5-0.2,0.7c-0.1,0.3-0.2,0.6-0.3,0.9
				c-0.1,0.3-0.3,0.7-0.5,1.1l-1.8,4.2h2.8v2.2h-5.2V159.5L155.2,159.5z"/>
			<path style="fill:#FFFFFF;" d="M164.2,161.5c-0.5,0-1-0.1-1.4-0.4c-0.4-0.2-0.7-0.6-1-1.1c-0.3-0.5-0.5-1.1-0.6-1.9
				c-0.1-0.8-0.2-1.7-0.2-2.8v-0.7c0-1.1,0.1-2.1,0.2-2.8c0.1-0.8,0.3-1.4,0.6-1.9c0.3-0.5,0.6-0.9,1-1.1c0.4-0.2,0.8-0.3,1.4-0.3
				c0.5,0,1,0.1,1.4,0.3c0.4,0.2,0.7,0.6,1,1.1c0.3,0.5,0.5,1.2,0.6,1.9c0.1,0.8,0.2,1.7,0.2,2.8v0.7c0,1.1-0.1,2.1-0.2,2.8
				c-0.1,0.8-0.3,1.4-0.6,1.9c-0.3,0.5-0.6,0.9-1,1.1C165.2,161.4,164.7,161.5,164.2,161.5z M164.2,159.5c0.1,0,0.3,0,0.4-0.1
				s0.2-0.3,0.3-0.6c0.1-0.3,0.2-0.7,0.2-1.3c0-0.6,0.1-1.3,0.1-2.2v-0.7c0-0.9,0-1.6-0.1-2.2c0-0.6-0.1-1-0.2-1.3s-0.2-0.5-0.3-0.6
				c-0.1-0.1-0.2-0.1-0.4-0.1c-0.2,0-0.3,0-0.4,0.1c-0.1,0.1-0.2,0.3-0.3,0.6s-0.2,0.7-0.2,1.3s-0.1,1.3-0.1,2.2v0.7
				c0,0.9,0,1.6,0.1,2.2c0,0.6,0.1,1,0.2,1.3c0.1,0.3,0.2,0.5,0.3,0.6C164,159.4,164.1,159.5,164.2,159.5z"/>
			<path style="fill:#FFFFFF;" d="M171.4,148.5h2.2l1.6,4.7l1.6-4.7h2.2v12.8h-2.2v-7.7l-1.6,4.8l0,0l-1.6-4.8v7.7h-2.2V148.5z"/>
			<path style="fill:#FFFFFF;" d="M180.3,148.5h2.2v12.8h-2.2V148.5z"/>
			<path style="fill:#FFFFFF;" d="M183.9,148.5h2.1l2.3,6.5v-6.5h2.2v12.8h-2l-2.4-6.8v6.8h-2.2V148.5L183.9,148.5z"/>
		</g>
	</g>
</g>
<g id="top-red-arrow-2">
	<polygon style="fill:#EE2228;" points="319,154.2 300.1,128.6 228.8,128.6 247.8,154.2 228.8,181.7 300.1,181.7 	"/>
	<g>
		<g>
			<path style="fill:#FFFFFF;" d="M261.9,150.9l-1.3,0.4v-2.2l2-0.6h1.6v12.9H262v-10.5H261.9z"/>
			<path style="fill:#FFFFFF;" d="M268.5,161.5c-0.5,0-1-0.1-1.4-0.4c-0.4-0.2-0.7-0.6-1-1.1c-0.3-0.5-0.5-1.1-0.6-1.9
				s-0.2-1.7-0.2-2.8v-0.7c0-1.1,0.1-2.1,0.2-2.8c0.1-0.8,0.3-1.4,0.6-1.9c0.3-0.5,0.6-0.9,1-1.1c0.4-0.2,0.8-0.3,1.4-0.3
				c0.5,0,1,0.1,1.4,0.3c0.4,0.2,0.7,0.6,1,1.1c0.3,0.5,0.5,1.2,0.6,1.9c0.1,0.8,0.2,1.7,0.2,2.8v0.7c0,1.1-0.1,2.1-0.2,2.8
				c-0.1,0.8-0.3,1.4-0.6,1.9c-0.3,0.5-0.6,0.9-1,1.1C269.5,161.4,269,161.5,268.5,161.5z M268.5,159.5c0.1,0,0.3,0,0.4-0.1
				s0.2-0.3,0.3-0.6c0.1-0.3,0.2-0.7,0.2-1.3c0-0.6,0.1-1.3,0.1-2.2v-0.7c0-0.9,0-1.6-0.1-2.2c0-0.6-0.1-1-0.2-1.3
				c-0.1-0.3-0.2-0.5-0.3-0.6c-0.1-0.1-0.2-0.1-0.4-0.1s-0.3,0-0.4,0.1c-0.1,0.1-0.2,0.3-0.3,0.6c-0.1,0.3-0.2,0.7-0.2,1.3
				s-0.1,1.3-0.1,2.2v0.7c0,0.9,0,1.6,0.1,2.2c0,0.6,0.1,1,0.2,1.3c0.1,0.3,0.2,0.5,0.3,0.6C268.2,159.4,268.4,159.5,268.5,159.5z"
				/>
			<path style="fill:#FFFFFF;" d="M275.7,148.5h2.2l1.6,4.7l1.6-4.7h2.2v12.8h-2.2v-7.7l-1.6,4.8l0,0l-1.6-4.8v7.7h-2.2V148.5z"/>
			<path style="fill:#FFFFFF;" d="M284.6,148.5h2.2v12.8h-2.2V148.5z"/>
			<path style="fill:#FFFFFF;" d="M288.2,148.5h2.1l2.3,6.5v-6.5h2.2v12.8h-2l-2.4-6.8v6.8h-2.2V148.5z"/>
		</g>
	</g>
</g>
<g id="bottom-red-arrow-1">
	<polygon style="fill:#EE2228;" points="319.8,218.8 300.8,193.1 229.8,193.1 248.8,218.8 229.8,246.3 300.8,246.3 	"/>
	<g>
		<g>
			<path style="fill:#FFFFFF;" d="M263.7,215.4l-1.3,0.4v-2.2l2-0.6h1.6v12.9h-2.2L263.7,215.4L263.7,215.4z"/>
			<path style="fill:#FFFFFF;" d="M269,226c-0.3,0-0.6,0-0.9-0.1c-0.3-0.1-0.6-0.1-0.8-0.2v-2.2c0.2,0.1,0.4,0.2,0.7,0.3
				s0.5,0.1,0.8,0.1c0.5,0,0.9-0.2,1.2-0.6s0.4-0.9,0.4-1.6v-0.1c0-0.7-0.1-1.2-0.3-1.4c-0.2-0.2-0.5-0.4-0.9-0.4
				c-0.2,0-0.3,0-0.4,0c-0.1,0-0.3,0.1-0.4,0.1l-1.1-0.7l0.3-6.1h4.6v2.1h-2.9l-0.2,2.6c0.1,0,0.2,0,0.4-0.1c0.1,0,0.3,0,0.5,0
				c0.3,0,0.7,0.1,1,0.2s0.6,0.3,0.9,0.6c0.3,0.3,0.5,0.7,0.6,1.2c0.2,0.5,0.2,1.1,0.2,1.8v0.2c0,0.7-0.1,1.3-0.3,1.8
				c-0.2,0.5-0.4,1-0.7,1.4c-0.3,0.4-0.7,0.6-1.1,0.8C270,225.9,269.5,226,269,226z"/>
			<path style="fill:#FFFFFF;" d="M276.4,213.1h2.2l1.6,4.7l1.6-4.7h2.2v12.8h-2.2v-7.7l-1.6,4.8l0,0l-1.6-4.8v7.7h-2.2V213.1z"/>
			<path style="fill:#FFFFFF;" d="M285.3,213.1h2.2v12.8h-2.2V213.1z"/>
			<path style="fill:#FFFFFF;" d="M288.9,213.1h2.1l2.3,6.5v-6.5h2.2v12.8h-2l-2.4-6.8v6.8h-2.2V213.1z"/>
		</g>
	</g>
</g>
<g id="bottom-red-arrow-2">
	<polygon style="fill:#EE2228;" points="388.1,219.2 369.2,193.6 307.6,193.6 326.6,219.3 307.6,246.8 369.2,246.8 	"/>
	<g>
		<g>
			<path style="fill:#FFFFFF;" d="M337,226.5c-0.3,0-0.6,0-0.9-0.1c-0.3-0.1-0.6-0.1-0.8-0.2V224c0.2,0.1,0.4,0.2,0.7,0.3
				s0.5,0.1,0.8,0.1c0.5,0,0.9-0.2,1.2-0.6s0.4-0.9,0.4-1.6V222c0-0.7-0.1-1.2-0.3-1.4c-0.2-0.2-0.5-0.4-0.9-0.4c-0.2,0-0.3,0-0.4,0
				c-0.1,0-0.3,0.1-0.4,0.1l-1.1-0.7l0.3-6.1h4.6v2.1h-2.9l-0.2,2.6c0.1,0,0.2,0,0.4-0.1c0.1,0,0.3,0,0.5,0c0.3,0,0.7,0.1,1,0.2
				s0.6,0.3,0.9,0.6c0.3,0.3,0.5,0.7,0.6,1.2c0.2,0.5,0.2,1.1,0.2,1.8v0.2c0,0.7-0.1,1.3-0.3,1.8c-0.2,0.5-0.4,1-0.7,1.4
				s-0.7,0.6-1.1,0.8C338,226.4,337.5,226.5,337,226.5z"/>
			<path style="fill:#FFFFFF;" d="M344.4,213.5h2.2l1.6,4.7l1.6-4.7h2.2v12.8h-2.2v-7.7l-1.6,4.8l0,0l-1.6-4.8v7.7h-2.2V213.5z"/>
			<path style="fill:#FFFFFF;" d="M353.3,213.5h2.2v12.8h-2.2V213.5z"/>
			<path style="fill:#FFFFFF;" d="M356.9,213.5h2.1l2.3,6.5v-6.5h2.2v12.8h-2l-2.4-6.8v6.8h-2.2V213.5z"/>
		</g>
	</g>
</g>
<g id="bottom-red-arrow-3">
	<polygon style="fill:#EE2228;" points="457.4,219.2 438.4,193.6 376.9,193.6 395.8,219.3 376.9,246.8 438.4,246.8 	"/>
	<g>
		<g>
			<path style="fill:#FFFFFF;" d="M405.6,215.9l-1.3,0.4v-2.2l2-0.6h1.6v12.9h-2.2v-10.5H405.6z"/>
			<path style="fill:#FFFFFF;" d="M412.2,226.5c-0.5,0-1-0.1-1.4-0.4c-0.4-0.2-0.7-0.6-1-1.1s-0.5-1.1-0.6-1.9
				c-0.1-0.8-0.2-1.7-0.2-2.8v-0.7c0-1.1,0.1-2.1,0.2-2.8c0.1-0.8,0.3-1.4,0.6-1.9s0.6-0.9,1-1.1c0.4-0.2,0.8-0.3,1.4-0.3
				c0.5,0,1,0.1,1.4,0.3c0.4,0.2,0.7,0.6,1,1.1c0.3,0.5,0.5,1.2,0.6,1.9c0.1,0.8,0.2,1.7,0.2,2.8v0.7c0,1.1-0.1,2.1-0.2,2.8
				c-0.1,0.8-0.3,1.4-0.6,1.9c-0.3,0.5-0.6,0.9-1,1.1C413.2,226.4,412.8,226.5,412.2,226.5z M412.2,224.5c0.1,0,0.3,0,0.4-0.1
				c0.1-0.1,0.2-0.3,0.3-0.6c0.1-0.3,0.2-0.7,0.2-1.3c0-0.6,0.1-1.3,0.1-2.2v-0.7c0-0.9,0-1.6-0.1-2.2c0-0.6-0.1-1-0.2-1.3
				c-0.1-0.3-0.2-0.5-0.3-0.6c-0.1-0.1-0.2-0.1-0.4-0.1s-0.3,0-0.4,0.1c-0.1,0.1-0.2,0.3-0.3,0.6s-0.2,0.7-0.2,1.3s-0.1,1.3-0.1,2.2
				v0.7c0,0.9,0,1.6,0.1,2.2c0,0.6,0.1,1,0.2,1.3c0.1,0.3,0.2,0.5,0.3,0.6C412,224.4,412.1,224.5,412.2,224.5z"/>
			<path style="fill:#FFFFFF;" d="M419.4,213.5h2.2l1.6,4.7l1.6-4.7h2.2v12.8h-2.2v-7.7l-1.6,4.8l0,0l-1.6-4.8v7.7h-2.2V213.5z"/>
			<path style="fill:#FFFFFF;" d="M428.3,213.5h2.2v12.8h-2.2V213.5z"/>
			<path style="fill:#FFFFFF;" d="M431.9,213.5h2.1l2.3,6.5v-6.5h2.2v12.8h-2l-2.4-6.8v6.8h-2.2V213.5z"/>
		</g>
	</g>
</g>
<g id="bottom-red-arrow-4">
	<polygon style="fill:#EE2228;" points="526.7,219.2 507.7,193.6 446.1,193.6 465.1,219.3 446.2,246.8 507.7,246.8 	"/>
	<g>
		<g>
			<path style="fill:#FFFFFF;" d="M474.9,215.9l-1.3,0.4v-2.2l2-0.6h1.6v12.9H475L474.9,215.9L474.9,215.9z"/>
			<path style="fill:#FFFFFF;" d="M481.5,226.5c-0.5,0-1-0.1-1.4-0.4c-0.4-0.2-0.7-0.6-1-1.1c-0.3-0.5-0.5-1.1-0.6-1.9
				s-0.2-1.7-0.2-2.8v-0.7c0-1.1,0.1-2.1,0.2-2.8c0.1-0.8,0.3-1.4,0.6-1.9c0.3-0.5,0.6-0.9,1-1.1c0.4-0.2,0.8-0.3,1.4-0.3
				c0.5,0,1,0.1,1.4,0.3c0.4,0.2,0.7,0.6,1,1.1c0.3,0.5,0.5,1.2,0.6,1.9c0.1,0.8,0.2,1.7,0.2,2.8v0.7c0,1.1-0.1,2.1-0.2,2.8
				c-0.1,0.8-0.3,1.4-0.6,1.9c-0.3,0.5-0.6,0.9-1,1.1C482.5,226.4,482,226.5,481.5,226.5z M481.5,224.5c0.1,0,0.3,0,0.4-0.1
				c0.1-0.1,0.2-0.3,0.3-0.6c0.1-0.3,0.2-0.7,0.2-1.3c0-0.6,0.1-1.3,0.1-2.2v-0.7c0-0.9,0-1.6-0.1-2.2c0-0.6-0.1-1-0.2-1.3
				c-0.1-0.3-0.2-0.5-0.3-0.6c-0.1-0.1-0.2-0.1-0.4-0.1s-0.3,0-0.4,0.1c-0.1,0.1-0.2,0.3-0.3,0.6c-0.1,0.3-0.2,0.7-0.2,1.3
				s-0.1,1.3-0.1,2.2v0.7c0,0.9,0,1.6,0.1,2.2c0,0.6,0.1,1,0.2,1.3c0.1,0.3,0.2,0.5,0.3,0.6C481.2,224.4,481.4,224.5,481.5,224.5z"
				/>
			<path style="fill:#FFFFFF;" d="M488.7,213.5h2.2l1.6,4.7l1.6-4.7h2.2v12.8h-2.2v-7.7l-1.6,4.8l0,0l-1.6-4.8v7.7h-2.2V213.5z"/>
			<path style="fill:#FFFFFF;" d="M497.6,213.5h2.2v12.8h-2.2V213.5z"/>
			<path style="fill:#FFFFFF;" d="M501.2,213.5h2.1l2.3,6.5v-6.5h2.2v12.8h-2l-2.4-6.8v6.8h-2.2V213.5z"/>
		</g>
	</g>
</g>
<g id="bottom-red-arrow-5">
	<polygon style="fill:#EE2228;" points="704.1,219.2 685.2,193.6 515.4,193.6 534.4,219.3 515.4,246.8 685.2,246.8 	"/>
	<g>
		<g>
			<path style="fill:#FFFFFF;" d="M597.3,215.9l-1.3,0.4v-2.2l2-0.6h1.6v12.9h-2.2v-10.5H597.3z"/>
			<path style="fill:#FFFFFF;" d="M603.9,213.5h2.2v5.3h1.9v-5.3h2.2v12.8H608V221h-1.9v5.4h-2.2V213.5z"/>
			<path style="fill:#FFFFFF;" d="M614.8,226.5c-0.5,0-1-0.1-1.4-0.4c-0.4-0.3-0.8-0.6-1.1-1.2c-0.3-0.5-0.5-1.2-0.7-1.9
				c-0.2-0.8-0.2-1.7-0.2-2.8v-0.7c0-1.1,0.1-2,0.2-2.8c0.2-0.8,0.4-1.4,0.7-1.9s0.7-0.9,1.1-1.2c0.4-0.3,0.9-0.4,1.4-0.4
				s1,0.1,1.4,0.4c0.4,0.3,0.8,0.6,1.1,1.2c0.3,0.5,0.5,1.2,0.7,1.9c0.2,0.8,0.2,1.7,0.2,2.8v0.7c0,1.1-0.1,2-0.2,2.8
				c-0.2,0.8-0.4,1.4-0.7,1.9s-0.7,0.9-1.1,1.2C615.8,226.4,615.3,226.5,614.8,226.5z M614.8,224.5c0.2,0,0.3-0.1,0.5-0.2
				c0.1-0.1,0.3-0.4,0.4-0.7c0.1-0.3,0.2-0.8,0.2-1.3s0.1-1.2,0.1-2v-0.7c0-0.8,0-1.5-0.1-2c-0.1-0.5-0.1-1-0.2-1.3
				c-0.1-0.3-0.2-0.5-0.4-0.7c-0.1-0.1-0.3-0.2-0.5-0.2s-0.3,0.1-0.5,0.2c-0.1,0.1-0.3,0.4-0.4,0.7c-0.1,0.3-0.2,0.8-0.2,1.3
				c-0.1,0.5-0.1,1.2-0.1,2v0.7c0,0.8,0,1.5,0.1,2c0.1,0.5,0.1,1,0.2,1.3c0.1,0.3,0.2,0.5,0.4,0.7
				C614.5,224.4,614.6,224.5,614.8,224.5z"/>
			<path style="fill:#FFFFFF;" d="M622.4,226.5c-0.5,0-0.9-0.1-1.3-0.2c-0.4-0.2-0.7-0.4-1-0.7c-0.3-0.3-0.5-0.7-0.7-1.2
				c-0.2-0.5-0.2-1.1-0.2-1.7v-9.1h2.2v9.3c0,0.6,0.1,1,0.3,1.2s0.4,0.4,0.7,0.4c0.3,0,0.5-0.1,0.7-0.4c0.2-0.2,0.3-0.7,0.3-1.2
				v-9.3h2.2v9.1c0,0.7-0.1,1.2-0.2,1.7c-0.2,0.5-0.4,0.9-0.7,1.2s-0.6,0.6-1,0.7C623.3,226.4,622.9,226.5,622.4,226.5z"/>
			<path style="fill:#FFFFFF;" d="M626.9,213.5h2.3c0.6,0,1.1,0.1,1.6,0.2c0.5,0.2,0.9,0.4,1.3,0.7c0.4,0.3,0.6,0.8,0.8,1.3
				c0.2,0.5,0.3,1.1,0.3,1.8v0.2c0,0.8-0.1,1.5-0.4,2.1c-0.3,0.5-0.6,1-1.1,1.3l1.7,5.2H631l-1.4-4.5l0,0h-0.4v4.5H627L626.9,213.5
				L626.9,213.5z M629.2,219.9c0.5,0,0.9-0.2,1.2-0.5c0.3-0.3,0.5-0.8,0.5-1.6v-0.1c0-0.4,0-0.7-0.1-1c-0.1-0.3-0.2-0.5-0.4-0.6
				c-0.2-0.2-0.3-0.3-0.5-0.3c-0.2-0.1-0.4-0.1-0.7-0.1h-0.1v4.2H629.2L629.2,219.9z"/>
		</g>
	</g>
</g>
</svg>
