<?xml version="1.0" encoding="utf-8"?>
<!-- Generator: Adobe Illustrator 16.0.4, SVG Export Plug-In . SVG Version: 6.00 Build 0)  -->
<!DOCTYPE svg PUBLIC "-//W3C//DTD SVG 1.1//EN" "http://www.w3.org/Graphics/SVG/1.1/DTD/svg11.dtd">
<svg version="1.1" id="Layer_1" xmlns="http://www.w3.org/2000/svg" xmlns:xlink="http://www.w3.org/1999/xlink" x="0px" y="0px"
	 width="188.618px" height="62.15px" viewBox="5.691 68.925 188.618 62.15" enable-background="new 5.691 68.925 188.618 62.15"
	 xml:space="preserve">
<g>
	<g>
		<g display="none">
			<defs>
				<rect id="SVGID_1_" x="5.691" y="68.925" width="188.618" height="62.15"/>
			</defs>
			<clipPath id="SVGID_2_" display="inline">
				<use xlink:href="#SVGID_1_"  overflow="visible"/>
			</clipPath>
			<g display="inline" clip-path="url(#SVGID_2_)">
				<g>
					<defs>
						<rect id="SVGID_3_" x="-92.764" y="39.799" width="384.782" height="125.746"/>
					</defs>
					<defs>
						<rect id="SVGID_4_" x="-92.764" y="39.799" width="384.782" height="125.746"/>
					</defs>
					<clipPath id="SVGID_5_">
						<use xlink:href="#SVGID_3_"  overflow="visible"/>
					</clipPath>
					<clipPath id="SVGID_6_" clip-path="url(#SVGID_5_)">
						<use xlink:href="#SVGID_4_"  overflow="visible"/>
					</clipPath>
					<path clip-path="url(#SVGID_6_)" fill="#333333" d="M45.561,92.714l2.133-9.35l-7.811,1.067l-2.136,8.282L45.561,92.714
						L45.561,92.714z M117.396,112.887c-1.332,5.828-6.963,10.567-12.855,10.567c-5.509,0-9.13-4.613-7.855-10.185
						c1.317-5.765,6.9-10.568,12.728-10.568C115.051,102.701,118.688,107.25,117.396,112.887 M75.239,112.949
						c-1.317,5.766-6.964,10.568-12.791,10.568c-5.702,0-9.243-4.678-7.954-10.312c1.333-5.829,7.013-10.505,12.842-10.505
						C72.909,102.701,76.53,107.312,75.239,112.949 M142.557,118.327c0.764-3.662,9.576-43.967,10.764-49.402l-13.346,1.825
						l-1.606,6.877h5.121l-7.677,35.466l-0.03-0.032c-0.834,3.703-2.427,6.287-4.232,7.953c-0.03,0.025-0.062,0.057-0.094,0.082
						c-0.308,0.276-0.625,0.498-0.94,0.725c-0.476,0.326-0.957,0.617-1.438,0.844c-7.197,2.747-5.392-3.159-5.392-3.159
						l3.724-16.226h4.289l1.672-7.302h-12.231l-1.113,4.867c-1.521-3.713-4.896-5.763-9.314-5.763
						c-9.992,0-19.823,8.263-22.094,18.188c-0.828,3.621-0.519,7.026,0.703,9.869c0.001,0,0.006-0.002,0.006-0.002
						c0,0.002-0.002,0.004-0.004,0.006c-0.001,0-0.001-0.002-0.002-0.004c-5.806,2.957-8.586-0.623-7.228-6.615
						c0.967-4.271,7.683-32.592,9.231-39.126l-11.932,1.632l-1.485,6.112h3.78l-3.898,15.83c-1.885-3.521-5.644-5.572-9.999-5.572
						c-9.67,0-19.217,8.135-21.399,17.68c-0.673,2.94-0.555,5.752,0.21,8.231c-0.006,0.006-0.012,0.01-0.019,0.015
						c-2.711,1.118-8.782,3.169-7.677-1.454c0.024-0.105,5.91-23.892,5.91-23.892H32.552l-1.633,6.598h4.448l-4.176,16.817
						c0,0-1.779,1.955-5.02,3.396c-0.08,0.026-0.161,0.058-0.241,0.086c-0.167,0.052-0.331,0.103-0.516,0.163
						c-7.807,2.791-9.664-2.873-8.848-6.162s3.283-14.3,3.283-14.3h6.695l1.633-6.598h-6.695l2.195-9.334l-7.332,1.003l-2.244,8.331
						H7.42l-1.729,6.598h6.344c0,0-3.622,14.539-3.642,14.632c-0.001,0-0.003,0-0.004,0.001c-2.408,9.213,5.584,13.63,10.772,13.63
						c3.109,0,8.806-1.306,11.465-5.404c0.03,3.896,4.617,5.404,7.726,5.404c4.184,0,8.038-1.837,10.887-4.76
						c1.582,1.834,3.688,3.186,6.168,3.938c0.89,0.322,1.826,0.549,2.797,0.681c0.017,0.003,0.031,0.007,0.047,0.008
						c0.606,0.082,1.221,0.135,1.853,0.135c4.666,0,11.334-2.106,13.417-5.794c0.958,2.383,2.671,4.049,4.96,4.964
						c1.377,0.552,2.96,0.83,4.713,0.83c0.855,0,1.693-0.083,2.514-0.229c0.004,0,0.008,0,0.012,0
						c2.479-0.441,4.777-1.524,6.744-3.065c2.399,2.203,5.691,3.53,9.628,3.53c4.309,0,8.988-1.77,12.33-5.258
						c0.791,2.388,2.938,4.008,5.785,4.67c0.873,0.244,1.869,0.381,3.025,0.349c0.024,0,0.051,0.004,0.078,0.004
						c0.051,0,0.102-0.014,0.151-0.014c5.349-0.211,7.81-1.937,11.123-5.072c0.224-0.201,0.44-0.403,0.66-0.612
						c1.979,3.396,8.494,11.07,21.53-3.8c0.048-0.116,0.08-0.198,0.08-0.198s-5.971,1.733-8.877,1.733
						C145.072,122.877,141.738,122.256,142.557,118.327"/>
					<path clip-path="url(#SVGID_6_)" fill="#333333" d="M185.49,100.688l-0.654,2.864h1.721l0.187-0.812
						c0.475,0.757,1.309,1.072,2.307,1.072c1.853,0,3.787-1.109,4.244-3.107c0.511-2.22-1.271-2.774-2.953-3.182
						c-0.684-0.167-1.543-0.37-1.332-1.295c0.158-0.686,0.886-1.037,1.496-1.037c0.701,0.001,1.136,0.463,1.011,1.165h2.184
						l0.613-2.68h-1.668l-0.154,0.685c-0.395-0.702-1.148-0.888-2.035-0.888c-1.758,0-3.6,1.091-4.029,2.976
						c-0.496,2.166,1.268,2.702,2.889,3.147c0.711,0.202,1.599,0.368,1.373,1.349c-0.168,0.74-0.944,1.223-1.629,1.223
						c-0.926-0.002-1.383-0.593-1.254-1.479h-2.314V100.688z M180.594,95.578c1.645,0,2.688,1.352,2.311,2.998
						c-0.368,1.611-1.973,3.035-3.635,3.035c-1.705,0-2.75-1.333-2.354-3.054C177.291,96.911,178.945,95.578,180.594,95.578
						 M178.885,90.347h-3.533l-0.479,2.106h1.272l-2.055,8.992h-1.277l-0.479,2.105h3.533l0.338-1.478
						c0.514,1.071,1.625,1.627,2.938,1.627c1.293,0,2.773-0.648,3.863-1.609c1.084-0.94,1.836-2.2,2.129-3.478
						c0.637-2.794-1.133-5.086-3.926-5.086c-1.258,0-2.471,0.536-3.412,1.57L178.885,90.347z M165.189,101.611
						c-1.59,0-2.635-1.333-2.267-2.942c0.382-1.665,1.992-3.054,3.677-3.054c1.627,0,2.676,1.314,2.305,2.942
						C168.52,100.242,166.893,101.611,165.189,101.611 M167.727,103.552h3.531l0.482-2.106h-1.238l1.293-5.661h1.24l0.482-2.107
						h-3.533l-0.32,1.404c-0.439-1.071-1.414-1.663-2.691-1.663c-2.887,0-5.725,2.384-6.381,5.252
						c-0.641,2.796,1.062,5.143,3.893,5.143c1.295,0,2.574-0.498,3.545-1.59L167.727,103.552z M161.033,90.347h-3.531l-0.482,2.106
						h1.277l-2.057,8.992h-1.369l-0.482,2.105h4.902l0.48-2.105h-1.275L161.033,90.347z"/>
				</g>
			</g>
		</g>
		<g>
			<g>
				<path fill="#F5F5F5" d="M177.421,71.323c0.365,0.697,0.958,1.329,1.56,2.182c0.477,0.679,1.304,1.482,1.558,2.182
					c0.144,0.394-0.106,1.128,0,1.87c0.142,0.965,1.284,2.242,0.312,3.739c0.221,0.683,0.85,0.665,0.937,1.559
					c0.06,0.6-0.39,0.919-0.312,1.247c0.194,0.821,0.646,1.702,0.935,2.805c0.229,0.88,0.339,2.095,0.623,3.116
					c0.351,1.254,0.928,2.19,1.245,3.428c0.367,1.419,0.785,2.98,0.625,3.74c-0.026,0.127-1.338,2.26-1.87,2.493
					c-0.837,0.366-2.104,0.091-3.116,0c-0.998-1.494-1.375-3.61-2.493-4.986c0.054-0.676-1.104-0.142-1.557-0.312
					c-0.288-2.102-2.729-2.049-2.806-4.363c-1.049-0.065-1.677-1.109-2.492-1.558c-0.83-0.456-2.041-0.274-2.493-1.247
					c-2.197,0.459-0.81,2.778-0.623,4.674c0.252,2.606-0.663,4.438-1.248,6.544c-1.983,0.397-3.572-0.432-4.361-1.558
					c-0.649-0.927-1.108-3.635-0.622-4.986c0.465-1.307,0.064-3.265-0.938-4.363c0.918-4.157-2.047-6.236-1.245-11.219
					c1.44-1.051,2.144-2.592,3.739-2.492c1.434,0.088,2.522,2.226,4.05,3.115c0.791,0.46,1.297,0.869,1.87,1.559
					c0.553,0.663,1.13,1.055,2.183,1.558c1.097,0.524,2.552,1.944,3.738,2.181c0.8,0.045,0.511-0.996,0.623-1.558
					c0.106-0.522,0.401-1.443,0.312-1.87c-0.217-1.04-1.396-1.092-2.18-2.181c-0.305-0.423-1.374-2.752-1.248-3.429
					C172.443,71.499,173.26,71.021,177.421,71.323z"/>
				<path fill="#F5F5F5" d="M157.788,92.514c-2.429-1.102-5.173-1.891-6.543-4.051c0.614-0.643,1.892-0.854,2.805-1.558
					c1.33-1.028,3.153-3.136,3.429-4.363c0.375-1.679-0.231-5.37-0.936-6.232c-0.648-0.794-2.896-1.071-4.053-1.558
					c-0.61-0.257-0.727-0.51-1.245-0.623c-0.571-0.124-1.603,0.113-2.493,0c-1.002-0.128-1.73-0.631-2.493-0.624
					c-0.548,0.006-0.952,0.517-1.558,0.624c-1.235,0.218-2.695-0.135-3.428,0c-2.183,0.399-3.707,1.752-5.609,2.181
					c-0.086,2.135-1.689,4.295-1.87,6.856c-0.062,0.873,0.209,2.465,0.312,3.74c0.259,3.203,0.656,5.785,0.936,8.413
					c0.251,2.361,0.232,4.518,0.624,5.921c0.196,0.709,0.312,2.023,0.621,2.492c0.282,0.425,0.844,0.271,0.937,0.936
					c2.215,0.135,4.09-0.066,5.299-0.936c-0.355-2.07,0.61-3.786,0.623-5.296c0.008-1.2-1.168-2.278-0.312-3.428
					c3.843-0.575,5.271,1.502,7.166,2.493c1.602,0.835,3.286,0.844,4.363,2.182c1.162-0.812,4.09,0.141,5.299-0.624
					C160.674,96.043,158.729,94.479,157.788,92.514z M146.259,84.412c-1.548,0.843-2.844,1.935-5.608,1.558
					c-0.461-1.172-0.461-3.501,0-4.675c2.025-1.957,6.236-1.324,9.035-1.246C150.729,82.618,149.014,84.648,146.259,84.412z"/>
				<path fill="#F5F5F5" d="M130.366,78.802c0.516,1.802,0.188,2.832-0.312,4.051c-0.566,1.38-0.814,1.682-3.117,1.87
					c-1.03,0.084-2.086-0.099-3.117,0c-0.684,0.065-1.243,0.501-1.868,0.624c-2.114,0.412-3.621-0.141-4.052,1.246
					c-0.883,2.845,3.57,3.092,4.986,1.559c1.125,0.318,1.602,0.406,2.492,0.312c1.43-0.152,2.309-1.5,3.428-1.558
					c1.286-0.067,1.967,0.776,3.428,1.247c0.416,0.935,0.316,2.384,0.312,3.739c-0.215,0.312-0.762,0.314-1.247,0.624
					c-0.175,0.111-0.761,0.873-0.935,0.935c-0.68,0.241-1.74-0.14-2.493,0c-0.656,0.122-1.229,0.747-1.87,0.935
					c-2.002,0.586-5.812,0.069-5.609,2.805c0.133,1.775,1.855,1.784,3.116,1.869c0.392,0.027,0.858,0.047,1.247,0
					c2.266-0.275,5.15-2.863,6.855-0.623c0.32,1.9,0.423,4.124,0,6.232c-1.562,1.229-3.705,1.433-5.299,1.56
					c-1.859,0.146-4.135,0.318-5.92,0c-0.818-0.147-2.186-0.816-3.429-1.56c-0.312-0.187-0.378-0.438-0.624-0.623
					c-0.877-0.671-1.788-0.968-2.492-2.182c-0.476-0.821-0.72-1.66-1.246-3.427c-0.272-0.921-0.848-2.036-0.936-2.493
					c-0.17-0.9,0.093-2.091,0-3.116c-0.094-1.05-0.464-2.249-0.622-3.428c-0.162-1.198-0.142-2.473-0.312-3.428
					c-0.18-0.986-0.65-1.821-0.625-2.493c0.076-1.933,1.27-4.146,2.182-4.674c0.48-0.278,1.723-0.107,2.805-0.312
					c0.795-0.149,1.797-0.575,2.493-0.623c0.613-0.043,1.056,0.29,1.246,0.311c0.53,0.059,1.181-0.314,1.247-0.311
					c0.943,0.043,1.682,0.391,2.493,0.311c1.302-0.128,2.883-0.817,3.739-1.247c0.059-0.029,0.244-0.002,0.312,0
					C128.256,76.987,129.035,78.401,130.366,78.802z"/>
				<path fill="#F5F5F5" d="M44.98,78.802c0.93,1.439,2.342,3.092,1.559,4.986c-0.526,1.272-2.242,1.964-3.74,2.182
					c-1.674,0.242-3.494-0.517-5.298-0.312c-0.79,0.09-1.555,0.745-2.805,1.247c-0.977,0.392-1.929,0.47-2.804,0.935
					c-1.396,0.741-2.722,1.796-4.051,3.116c-0.767,0.763-1.79,1.652-2.182,2.182c-0.464,0.627-0.819,2.102-1.558,3.427
					c-0.617,1.108-1.952,1.016-1.558,3.429c0.318,1.956,3.426,2.938,5.609,4.051c0.276,0.141,1.16,0.553,1.558,0.936
					c0.298,0.285,1.346,0.336,2.493,0.623c0.945,0.235,4.355,1.545,5.297,1.558c0.935,0.014,2.962-1.043,4.051-0.623
					c0.625,0.241,1.709,0.933,1.87,2.183c0.13,1.012-0.626,3.238-1.87,4.051c-1.125,0.733-4.614,1.031-6.232,0.937
					c-1.343-0.081-3.102-0.772-4.986-1.248c-1.597-0.401-3.298-0.665-4.675-1.245c-0.864-0.365-2.934-1.428-4.051-2.183
					c-0.566-0.382-0.948-1.151-1.559-1.56c-0.717-0.477-1.573-0.652-1.869-0.935c-0.186-0.175-0.157-0.731-0.312-0.935
					c-0.829-1.084-2.782-3.256-2.805-5.297c-0.011-1.033,0.757-3.01,1.558-4.674c0.726-1.506,2.126-2.514,3.74-4.363
					c0.394-0.452,1.211-1.065,1.557-1.559c0.467-0.663,0.539-1.458,0.936-1.869c0.53-0.551,1.442-0.953,2.181-1.558
					c1.13-0.924,1.738-1.694,3.117-2.493c0.374-0.216,0.354-0.053,0.623-0.312c0.318-0.305,1.835-0.714,2.493-1.247
					c0.927-0.75,1.333-2.053,2.182-2.493c1.306-0.677,5.484-0.841,7.791-0.936C42.535,78.75,43.88,79.21,44.98,78.802z"/>
				<path fill="#F5F5F5" d="M104.5,86.281c-0.74,1.564-2.877,0.569-4.05,1.247c-1.579,0.913-1.37,2.334-2.493,3.74
					c-0.258,0.693,0.525,0.852,0.936,1.558c0.261,0.449,0.336,1.214,0.623,1.558c0.365,0.442,1.218,1.066,1.868,1.558
					c0.765,0.577,1.332,1.129,1.871,1.247c2.124,0.46,3.927-0.875,6.231-1.247c0.797,1.697,2.228,2.759,1.869,5.609
					c-1.975,1.434-6.703,2.355-11.217,1.246c-0.483-0.117-1.15-0.626-1.87-0.936c-1.296-0.555-1.86-0.619-2.805-1.246
					c-1.391-0.922-1.707-1.214-2.493-3.116c-0.686-1.66-2.061-4.72-1.247-6.855c0.103-0.269,0.576-0.767,0.624-0.936
					c0.357-1.26,0.095-2.532,0.623-3.427c0.624-1.057,1.93-1.406,2.804-2.181c0.697-0.616,1.343-1.083,1.87-2.182
					c2.357-0.185,3.308-0.766,4.986-0.312C103.137,83.284,105.046,83.557,104.5,86.281z"/>
				<path fill="#F5F5F5" d="M90.79,108.407c-1.04,0-2.077,0-3.117,0c-0.936-0.519-1.219-1.69-1.869-2.494
					c-4.332,0.071-5.765-2.753-9.35-3.429c-0.848,1.238,0.397,2.598,0.312,3.74c-0.125,1.67-1.547,2.901-1.558,4.676
					c-1.005,0.449-2.614,0.293-4.052,0.312c-1.036-2.47-0.654-5.228-1.247-8.104c-0.238-1.157-0.993-2.244-1.246-3.426
					c-0.146-0.681,0.168-1.224,0-1.871c-0.543-2.082-1.678-4.154-1.87-6.232c-0.075-0.821,0.445-1.746,0-2.493
					c0.317-0.744,1.234-0.908,1.87-1.558c0.664-0.677,0.468-1.42,1.558-1.558c1.619-0.206,2.237,1.536,4.051,1.87
					c0.259,0.78,0.854,1.224,0.935,2.182c4.08,0.698,3.982,5.574,7.791,6.543c1.263-0.417,0.379-1.729,0.312-2.493
					c-0.088-1.002-0.084-2.171-0.312-3.116c-0.395-1.642-1.35-3.203-1.557-4.674c0.014,0.106,0.491-0.167,0.311-0.312
					c-0.209-0.167-0.41-0.485-0.311-0.935c0.772-3.503,5.677-3.62,7.167-1.247c0.69,1.099,0.342,3.921,0.624,6.233
					c0.094,0.776,0.458,1.658,0.623,2.493c0.198,1.002,0.088,2.031,0.312,2.804c0.212,0.737,0.786,1.275,0.935,1.871
					c0.218,0.875,0.032,1.832,0.312,2.805c0.045,0.156,0.158,0.987,0.312,1.246c0.132,0.221,0.85,0.405,0.935,0.622
					c0.319,0.818,0.385,2.08,0.312,2.806C92.808,106.268,91.362,107.062,90.79,108.407z"/>
				<path fill="#F5F5F5" d="M67.106,100.616c-0.536-2.669-1.191-5.533-2.181-7.167c-1.158-1.909-3.49-3.889-4.986-4.363
					c-1.576-0.499-3.576-0.197-4.986,0c-0.593,0.083-2.039,0.019-3.117,0.312c-0.247,0.066-1.006,0.673-1.558,0.935
					c-0.368,0.174-0.648,0.146-0.935,0.312c-0.243,0.14-0.452,0.546-0.623,0.623c-0.872,0.389-1.65,0.075-2.181,0.312
					c-0.089,0.04-0.482,0.518-0.624,0.623c-0.867,0.649-0.536,0.715-0.935,1.559c-0.056,0.118-0.581,0.155-0.623,0.311
					c-0.109,0.402,0.181,1.187,0,1.871c-0.253,0.958-0.769,1.823-0.935,2.805c-0.628,3.721,0.181,7.347,1.247,9.661
					c1.042,2.261,2.275,5.201,4.051,5.92c1.671,0.677,5.61,0.618,7.79,0.312c0.733-0.104,1.587-0.676,2.494-0.935
					c1.154-0.332,2.518-0.354,3.116-0.625c0.623-0.278,1.509-1.281,1.871-1.558c0.259-0.198,0.661-0.102,0.935-0.312
					c1.153-0.886,1.806-1.679,2.181-2.493C68.075,106.609,67.72,103.673,67.106,100.616z M61.497,102.797
					c-0.072,1.118-1.45,3.465-2.805,4.362c-0.27,0.179-0.931-0.097-1.247,0c-0.563,0.172-1.516,1.253-2.493,1.248
					c-1.446-0.007-3.893-1.479-4.363-2.806c-0.202-0.57,0.322-1.223,0.312-2.183c-0.021-1.979-0.217-3.696,0.623-5.92
					c2.22-0.831,3.971-1.773,5.921-0.623c0.702,0.414,2.675,1.773,3.117,2.492c0.285,0.465,0.104,1.224,0.311,1.87
					C61.174,102.174,61.54,102.132,61.497,102.797z"/>
			</g>
			<g>
				<path fill="#F5F5F5" d="M79.306,128.682l-2.554-7.63h-1.235v-2.243h5.298v2.243h-1.062l1.198,3.609l1.987-5.853h2.576
					l1.925,5.859l1.196-3.617H87.54v-2.242h4.704v2.242h-1.216l-2.523,7.629H85.81l-1.911-5.721l-1.88,5.721h-2.713V128.682z"/>
				<path fill="#F5F5F5" d="M98.083,128.762c-1.433,0-2.645-0.455-3.633-1.361c-0.99-0.909-1.483-2.153-1.483-3.735
					c0-1.581,0.494-2.826,1.483-3.733c0.988-0.908,2.2-1.361,3.633-1.361c1.441,0,2.655,0.453,3.64,1.361
					c0.984,0.907,1.479,2.152,1.479,3.733c0,1.562-0.488,2.802-1.464,3.719C100.764,128.302,99.544,128.762,98.083,128.762z
					 M98.073,126.35c0.577,0,1.043-0.223,1.404-0.664c0.357-0.441,0.537-1.136,0.537-2.082c0-0.83-0.173-1.479-0.523-1.943
					c-0.347-0.467-0.82-0.698-1.417-0.698c-1.279,0-1.919,0.924-1.919,2.772c0,0.759,0.158,1.384,0.479,1.877
					C96.95,126.102,97.43,126.35,98.073,126.35z"/>
				<path fill="#F5F5F5" d="M111.835,126.299v2.24h-6.845v-2.24h1.8v-5.247h-1.69v-2.243h4.533v2.475
					c0.176-0.711,0.572-1.325,1.192-1.846c0.618-0.52,1.352-0.777,2.196-0.777c0.142,0,0.309,0.003,0.504,0.01v2.936
					c-0.785,0-1.426,0.088-1.922,0.263c-0.494,0.174-0.905,0.556-1.226,1.146c-0.323,0.59-0.483,1.287-0.483,2.09v1.197h1.94
					V126.299z"/>
				<path fill="#F5F5F5" d="M114.872,128.539v-2.24h1.526v-9.5h-1.526v-2.242h4.635v11.742h1.397v2.24H114.872z"/>
				<path fill="#F5F5F5" d="M134.363,126.299v2.24h-4.704v-1.158c-0.865,0.867-1.804,1.301-2.813,1.301
					c-1.213,0-2.22-0.494-3.018-1.479c-0.797-0.985-1.195-2.178-1.195-3.579c0-1.421,0.409-2.618,1.227-3.593
					c0.818-0.975,1.818-1.463,2.996-1.463c1.134,0,2.066,0.44,2.805,1.322v-3.093h-1.52v-2.241h4.625v11.741L134.363,126.299
					L134.363,126.299z M129.689,123.654c0-0.932-0.201-1.596-0.599-1.99c-0.399-0.396-0.854-0.594-1.36-0.594
					c-0.611,0-1.082,0.236-1.414,0.709c-0.33,0.473-0.498,1.096-0.498,1.863c0,0.731,0.166,1.348,0.492,1.847
					c0.328,0.5,0.806,0.749,1.43,0.749c0.516,0,0.968-0.202,1.359-0.607C129.493,125.225,129.689,124.566,129.689,123.654z"/>
				<path fill="#F5F5F5" d="M138.666,128.682l-2.553-7.63h-1.236v-2.243h5.298v2.243h-1.062l1.197,3.609l1.986-5.853h2.578
					l1.924,5.859l1.195-3.617h-1.096v-2.242h4.707v2.242h-1.219l-2.523,7.629h-2.692l-1.911-5.721l-1.878,5.721h-2.716V128.682z"/>
				<path fill="#F5F5F5" d="M152.922,121.052v-2.243h4.584v7.49h1.447v2.24h-6.031v-2.24h1.479v-5.247H152.922z M154.289,116.02
					c0-0.468,0.166-0.869,0.498-1.201c0.331-0.336,0.732-0.502,1.199-0.502c0.478,0,0.88,0.166,1.205,0.502
					c0.33,0.332,0.494,0.733,0.494,1.201c0,0.469-0.166,0.867-0.496,1.198c-0.332,0.33-0.732,0.495-1.203,0.495
					c-0.461,0-0.861-0.166-1.194-0.5C154.455,116.878,154.289,116.48,154.289,116.02z"/>
				<path fill="#F5F5F5" d="M172.305,126.299v2.24H167.6v-1.158c-0.865,0.867-1.805,1.301-2.815,1.301
					c-1.212,0-2.218-0.494-3.015-1.479c-0.799-0.985-1.195-2.178-1.195-3.579c0-1.421,0.406-2.618,1.226-3.593
					c0.817-0.975,1.816-1.463,2.994-1.463c1.134,0,2.067,0.44,2.808,1.322v-3.093h-1.52v-2.241h4.623v11.741L172.305,126.299
					L172.305,126.299z M167.628,123.654c0-0.932-0.198-1.596-0.599-1.99c-0.397-0.396-0.854-0.594-1.36-0.594
					c-0.61,0-1.081,0.236-1.412,0.709c-0.332,0.473-0.499,1.096-0.499,1.863c0,0.731,0.165,1.348,0.493,1.847
					c0.329,0.5,0.806,0.749,1.429,0.749c0.516,0,0.969-0.202,1.361-0.607C167.434,125.225,167.628,124.566,167.628,123.654z"/>
				<path fill="#F5F5F5" d="M181.691,125.605l2.412,0.773c-1.012,1.587-2.592,2.382-4.744,2.382c-1.715,0-3.053-0.452-4.014-1.358
					c-0.964-0.903-1.443-2.092-1.443-3.566c0-1.502,0.494-2.756,1.486-3.76c0.991-1.006,2.256-1.508,3.791-1.508
					c1.11,0,2.073,0.281,2.885,0.845c0.812,0.562,1.373,1.263,1.688,2.101s0.473,1.771,0.473,2.805h-7.246
					c0.045,0.886,0.326,1.512,0.838,1.88c0.514,0.368,1.054,0.553,1.625,0.553C180.186,126.75,180.936,126.369,181.691,125.605z
					 M181.1,122.589c-0.072-0.543-0.285-1.006-0.637-1.386c-0.354-0.385-0.835-0.574-1.443-0.574c-1.141,0-1.804,0.653-1.99,1.96
					H181.1z"/>
			</g>
		</g>
	</g>
</g>
</svg>
