<svg xmlns="http://www.w3.org/2000/svg" width="188.618" height="62.15" viewBox="5.691 68.925 188.618 62.15" enable-background="new 5.691 68.925 188.618 62.15"><g fill="#F5F5F5"><path d="M177.42 71.32c.37.7.96 1.33 1.56 2.19.48.68 1.3 1.5 1.56 2.2.14.38-.1 1.1 0 1.86.14.96 1.28 2.24.3 3.74.23.68.86.66.95 1.56.05.6-.4.9-.32 1.24.2.82.64 1.7.93 2.8.24.9.35 2.1.63 3.12.35 1.26.93 2.2 1.25 3.43.37 1.42.78 2.98.62 3.74-.02.12-1.33 2.25-1.87 2.48-.83.37-2.1.1-3.1 0-1-1.5-1.4-3.6-2.5-4.98.05-.68-1.1-.14-1.56-.3-.3-2.12-2.73-2.06-2.8-4.38-1.06-.06-1.7-1.1-2.5-1.55-.83-.46-2.04-.28-2.5-1.25-2.2.46-.8 2.78-.62 4.67.26 2.6-.66 4.43-1.24 6.54-1.98.4-3.57-.44-4.35-1.56-.65-.93-1.1-3.64-.63-5 .47-1.3.07-3.25-.93-4.35.9-4.16-2.06-6.24-1.26-11.22 1.44-1.04 2.14-2.58 3.74-2.48 1.43.1 2.52 2.22 4.05 3.1.8.47 1.3.88 1.87 1.57.55.65 1.13 1.05 2.18 1.55 1.1.52 2.55 1.94 3.74 2.18.8.05.5-1 .62-1.56.1-.52.4-1.44.32-1.87-.22-1.04-1.4-1.1-2.18-2.18-.3-.42-1.38-2.75-1.25-3.43.3-1.7 1.13-2.18 5.3-1.88zM157.8 92.5c-2.44-1.1-5.2-1.88-6.56-4.04.62-.64 1.9-.85 2.8-1.55 1.34-1.02 3.16-3.13 3.44-4.36.37-1.68-.23-5.37-.94-6.23-.64-.78-2.9-1.06-4.05-1.55-.62-.26-.74-.5-1.25-.62-.58-.13-1.6.1-2.5 0-1-.13-1.73-.63-2.5-.63-.54 0-.94.52-1.55.63-1.23.22-2.7-.14-3.43 0-2.18.4-3.7 1.75-5.6 2.18-.1 2.14-1.7 4.3-1.88 6.87-.07.87.2 2.46.3 3.74.27 3.2.66 5.8.94 8.42.25 2.36.23 4.52.63 5.92.2.7.3 2.02.62 2.5.27.42.83.26.92.93 2.22.13 4.1-.07 5.3-.94-.35-2.07.6-3.78.63-5.3 0-1.2-1.17-2.27-.32-3.42 3.85-.57 5.28 1.5 7.17 2.5 1.6.84 3.3.84 4.36 2.18 1.17-.8 4.1.14 5.3-.62 1-3.02-.93-4.58-1.87-6.55zm-11.54-8.1c-1.55.86-2.85 1.95-5.6 1.57-.47-1.17-.47-3.5 0-4.67 2.02-1.96 6.23-1.33 9.03-1.25 1.03 2.57-.7 4.6-3.44 4.36zM130.37 78.8c.5 1.8.18 2.83-.32 4.05-.56 1.38-.8 1.7-3.1 1.87-1.04.1-2.1-.1-3.13 0-.68.07-1.24.5-1.87.63-2.1.4-3.62-.14-4.05 1.24-.88 2.84 3.57 3.1 5 1.55 1.1.32 1.6.4 2.48.3 1.43-.14 2.3-1.5 3.43-1.54 1.3-.06 1.97.78 3.43 1.25.42.94.32 2.4.32 3.74-.22.3-.77.3-1.25.62-.18.1-.76.87-.94.93-.68.24-1.74-.14-2.5 0-.64.12-1.22.75-1.86.94-2 .57-5.8.05-5.6 2.8.13 1.77 1.85 1.77 3.1 1.86.4.03.87.05 1.26 0 2.26-.28 5.15-2.86 6.85-.62.33 1.9.43 4.12 0 6.23-1.55 1.23-3.7 1.43-5.3 1.56-1.85.14-4.12.32-5.9 0-.83-.15-2.2-.82-3.44-1.56-.3-.2-.38-.44-.62-.62-.88-.68-1.8-.97-2.5-2.2-.47-.8-.7-1.65-1.24-3.4-.27-.93-.85-2.05-.94-2.5-.17-.9.1-2.1 0-3.12-.1-1.05-.46-2.25-.62-3.43-.16-1.2-.14-2.47-.3-3.43-.2-.98-.66-1.82-.63-2.5.08-1.92 1.28-4.14 2.2-4.67.47-.27 1.7-.1 2.8-.3.8-.16 1.8-.58 2.5-.63.6-.04 1.04.3 1.23.3.53.07 1.18-.3 1.25-.3.94.04 1.68.4 2.5.3 1.3-.12 2.87-.8 3.73-1.24.07-.03.25 0 .32 0 1.64.06 2.4 1.47 3.75 1.87zM44.98 78.8c.93 1.44 2.34 3.1 1.56 5-.53 1.26-2.24 1.95-3.74 2.17-1.68.24-3.5-.52-5.3-.3-.8.08-1.55.73-2.8 1.24-.98.4-1.93.48-2.8.94-1.4.74-2.73 1.8-4.06 3.12-.77.76-1.8 1.65-2.18 2.18-.47.63-.82 2.1-1.56 3.43-.62 1.1-1.95 1-1.56 3.42.32 1.95 3.43 2.93 5.6 4.05.3.14 1.17.55 1.57.93.3.3 1.36.34 2.5.62.95.24 4.36 1.55 5.3 1.56.93.02 2.96-1.04 4.05-.62.63.24 1.7.93 1.87 2.18.13 1-.63 3.24-1.87 4.05-1.12.74-4.6 1.03-6.23.94-1.34-.07-3.1-.76-5-1.24-1.58-.4-3.3-.66-4.66-1.24-.87-.37-2.94-1.43-4.05-2.2-.56-.37-.94-1.14-1.55-1.55-.72-.47-1.58-.65-1.87-.93-.2-.18-.16-.73-.3-.94-.84-1.08-2.8-3.25-2.82-5.3 0-1.03.76-3 1.56-4.67.73-1.5 2.13-2.5 3.74-4.36.4-.45 1.2-1.06 1.56-1.56.46-.65.54-1.45.93-1.86.53-.55 1.44-.95 2.18-1.56 1.13-.92 1.74-1.7 3.12-2.5.37-.2.35-.04.62-.3.32-.3 1.84-.7 2.5-1.25.92-.75 1.33-2.05 2.18-2.5 1.3-.67 5.48-.83 7.8-.93 1.28-.05 2.63.4 3.73 0zM104.5 86.28c-.74 1.57-2.88.57-4.05 1.25-1.58.9-1.37 2.33-2.5 3.74-.25.7.53.85.94 1.56.25.45.33 1.2.62 1.55.36.45 1.2 1.07 1.86 1.56.77.58 1.34 1.13 1.88 1.25 2.12.45 3.92-.9 6.23-1.26.78 1.7 2.2 2.76 1.86 5.6-1.98 1.45-6.7 2.37-11.22 1.26-.48-.12-1.15-.63-1.87-.94-1.3-.55-1.86-.62-2.8-1.24-1.4-.93-1.7-1.22-2.5-3.12-.7-1.66-2.06-4.72-1.25-6.86.1-.26.58-.76.63-.93.35-1.25.1-2.52.62-3.42.62-1.06 1.93-1.4 2.8-2.18.7-.62 1.35-1.08 1.87-2.18 2.36-.2 3.3-.77 5-.3.5 1.66 2.4 1.94 1.86 4.66zM90.8 108.4c-1.05 0-2.1 0-3.13 0-.93-.5-1.22-1.68-1.87-2.5-4.33.08-5.76-2.74-9.35-3.42-.84 1.24.4 2.6.32 3.74-.13 1.67-1.55 2.9-1.56 4.68-1 .45-2.6.3-4.04.3-1.04-2.46-.66-5.22-1.25-8.1-.23-1.15-.98-2.24-1.24-3.42-.14-.68.17-1.22 0-1.87-.54-2.07-1.67-4.14-1.87-6.22-.08-.82.44-1.75 0-2.5.3-.74 1.23-.9 1.86-1.55.67-.68.47-1.42 1.56-1.56 1.62-.2 2.24 1.54 4.05 1.87.26.78.86 1.22.94 2.18 4.1.7 4 5.58 7.8 6.54 1.26-.4.38-1.72.3-2.5-.08-1-.07-2.16-.3-3.1-.4-1.65-1.35-3.2-1.56-4.68.02.1.5-.17.3-.3-.2-.18-.4-.5-.3-.95.77-3.5 5.68-3.62 7.17-1.24.7 1.1.35 3.9.63 6.22.1.78.46 1.66.63 2.5.2 1 .08 2.02.3 2.8.22.74.8 1.27.94 1.87.22.86.03 1.82.3 2.8.06.15.17.98.33 1.24.13.22.85.4.93.62.32.82.4 2.08.3 2.8-.15 1.6-1.6 2.4-2.17 3.75zM67.1 100.62c-.53-2.67-1.18-5.54-2.17-7.17-1.16-1.9-3.5-3.9-5-4.36-1.57-.5-3.57-.2-4.98 0-.6.07-2.04 0-3.1.3-.26.06-1.02.67-1.57.93-.37.18-.65.15-.94.32-.24.13-.45.54-.62.62-.87.4-1.65.07-2.18.3-.1.05-.48.53-.62.63-.87.65-.54.72-.94 1.56-.06.12-.58.16-.62.3-.1.42.18 1.2 0 1.88-.26.96-.77 1.83-.94 2.8-.63 3.73.18 7.36 1.25 9.67 1.04 2.27 2.27 5.2 4.05 5.93 1.67.68 5.6.62 7.8.3.72-.1 1.58-.66 2.48-.92 1.16-.32 2.52-.35 3.12-.62.62-.28 1.5-1.28 1.87-1.56.25-.2.65-.1.93-.3 1.15-.9 1.8-1.7 2.18-2.5.98-2.1.62-5.05 0-8.1zm-5.6 2.18c-.08 1.1-1.45 3.46-2.8 4.36-.28.18-.94-.1-1.26 0-.56.17-1.5 1.25-2.5 1.25-1.43 0-3.88-1.47-4.35-2.8-.2-.57.3-1.22.3-2.18-.02-1.98-.22-3.7.62-5.92 2.22-.83 3.97-1.77 5.92-.62.7.4 2.68 1.77 3.12 2.5.3.45.1 1.2.3 1.86.3.93.68.9.64 1.56zM79.3 128.68l-2.55-7.63h-1.23v-2.24h5.3v2.25h-1.07l1.2 3.6 2-5.84h2.56l1.94 5.87 1.2-3.62h-1.1v-2.24h4.7v2.25h-1.2l-2.54 7.63h-2.7l-1.9-5.72-1.88 5.72h-2.7zM98.08 128.76c-1.43 0-2.64-.45-3.63-1.36-1-.9-1.48-2.15-1.48-3.73 0-1.6.5-2.83 1.48-3.74 1-.9 2.2-1.36 3.63-1.36 1.44 0 2.66.45 3.64 1.36 1 .9 1.48 2.15 1.48 3.74 0 1.56-.5 2.8-1.46 3.7-.98.93-2.2 1.4-3.66 1.4zm0-2.4c.57 0 1.04-.23 1.4-.67.35-.46.53-1.15.53-2.1 0-.83-.16-1.47-.5-1.94-.36-.47-.83-.7-1.43-.7-1.27 0-1.9.93-1.9 2.78-.02.75.14 1.38.46 1.87.32.5.8.75 1.44.75zM111.83 126.3v2.24H105v-2.24h1.8v-5.25h-1.7v-2.24h4.53v2.48c.18-.7.58-1.32 1.2-1.84.6-.52 1.35-.78 2.2-.78.13 0 .3 0 .5 0v2.95c-.8 0-1.43.1-1.93.27s-.9.56-1.22 1.15c-.33.6-.5 1.28-.5 2.1v1.18h1.95zM114.87 128.54v-2.24h1.53v-9.5h-1.53v-2.24h4.64v11.74h1.4v2.24h-6.03zM134.36 126.3v2.24h-4.7v-1.16c-.87.87-1.8 1.3-2.8 1.3-1.23 0-2.23-.5-3.03-1.48-.8-.98-1.2-2.17-1.2-3.58 0-1.42.4-2.6 1.23-3.6.82-.96 1.82-1.45 3-1.45 1.13 0 2.06.44 2.8 1.32v-3.1h-1.52v-2.24h4.63v11.74h1.6zm-4.67-2.65c0-.93-.2-1.6-.6-2-.4-.38-.86-.58-1.37-.58-.6 0-1.08.24-1.4.7-.34.48-.5 1.1-.5 1.87 0 .73.15 1.35.48 1.85.34.5.82.74 1.44.74.52 0 .97-.2 1.36-.6.4-.42.6-1.07.6-2zM138.67 128.68l-2.56-7.63h-1.22v-2.24h5.3v2.25h-1.07l1.2 3.6 2-5.84h2.57l1.93 5.87 1.2-3.62h-1.1v-2.24h4.7v2.25h-1.22l-2.52 7.63h-2.7l-1.9-5.72-1.88 5.72h-2.7zM152.92 121.05v-2.24h4.6v7.5h1.43v2.24h-6.03v-2.24h1.48v-5.25h-1.48zm1.37-5.03c0-.47.15-.87.5-1.2.32-.34.72-.5 1.2-.5.46 0 .87.16 1.2.5.32.33.5.73.5 1.2s-.18.87-.5 1.2c-.34.33-.74.5-1.2.5-.48 0-.88-.17-1.2-.5-.34-.34-.5-.74-.5-1.2zM172.3 126.3v2.24h-4.7v-1.16c-.86.87-1.8 1.3-2.81 1.3-1.23 0-2.23-.5-3.03-1.48-.8-.98-1.2-2.17-1.2-3.58 0-1.42.4-2.6 1.23-3.6.82-.96 1.82-1.45 3-1.45 1.13 0 2.06.44 2.8 1.32v-3.1h-1.52v-2.24h4.63v11.74h1.6zm-4.67-2.65c0-.93-.2-1.6-.6-2-.4-.38-.86-.58-1.36-.58-.6 0-1.08.24-1.4.7-.35.48-.5 1.1-.5 1.87 0 .73.15 1.35.48 1.85.33.5.8.74 1.43.74.52 0 .97-.2 1.36-.6.4-.42.6-1.07.6-2zM181.7 125.6l2.4.78c-1 1.6-2.6 2.38-4.74 2.38-1.72 0-3.05-.45-4.02-1.36-.96-.9-1.44-2.1-1.44-3.56 0-1.5.5-2.76 1.5-3.76.98-1 2.24-1.5 3.78-1.5 1.1 0 2.07.27 2.88.83.82.57 1.38 1.28 1.7 2.1s.46 1.78.46 2.82h-7.24c.04.88.32 1.5.84 1.88.5.37 1.05.55 1.62.55.75 0 1.5-.38 2.25-1.14zm-.6-3c-.07-.55-.28-1.02-.64-1.4-.35-.38-.83-.57-1.44-.57-1.14 0-1.8.65-2 1.96h4.08z"/></g></svg>